<svg xmlns="http://www.w3.org/2000/svg" version="1.1" xmlns:xlink="http://www.w3.org/1999/xlink" xmlns:svgjs="http://svgjs.com/svgjs" width="64" height="64"><svg id="SvgjsSvg1000" data-name="Layer 1" xmlns="http://www.w3.org/2000/svg" version="1.1" viewBox="0 0 64 64">
  <defs>
    <style>
      .cls-1 {
        fill: #845635;
        stroke-width: 0px;
      }
    </style>
  </defs>
  <g>
    <g>
      <path class="cls-1" d="M40.27,7.35h9.49c.24,0,.43-.3.43-.65s-.19-.65-.43-.65h-9.49c-.24,0-.43.3-.43.65s.19.65.43.65Z"></path>
      <path class="cls-1" d="M50.85,7.35h.78c.24,0,.43-.3.43-.65s-.19-.65-.43-.65h-.78c-.24,0-.43.3-.43.65s.19.65.43.65Z"></path>
      <path class="cls-1" d="M52.84,7.35c.24,0,.43-.3.43-.65s-.19-.65-.43-.65-.43.3-.43.65.19.65.43.65Z"></path>
      <path class="cls-1" d="M54.06,7.35c.24,0,.43-.3.43-.65s-.19-.65-.43-.65-.43.3-.43.65.19.65.43.65Z"></path>
    </g>
    <g>
      <path class="cls-1" d="M47.42,10.16h.19c.24,0,.43-.3.43-.65s-.19-.65-.43-.65h-.19c-.24,0-.43.3-.43.65s.19.65.43.65Z"></path>
      <path class="cls-1" d="M49.77,8.85h-.19c-.24,0-.43.3-.43.65s.19.65.43.65h.19c.24,0,.43-.3.43-.65s-.19-.65-.43-.65Z"></path>
      <path class="cls-1" d="M48.61,10.16c.24,0,.43-.3.43-.65s-.19-.65-.43-.65-.43.3-.43.65.19.65.43.65Z"></path>
      <path class="cls-1" d="M50.81,10.16c.24,0,.43-.3.43-.65s-.19-.65-.43-.65-.43.3-.43.65.19.65.43.65Z"></path>
      <path class="cls-1" d="M36.36,10.16h10.02c.24,0,.43-.3.43-.65s-.19-.65-.43-.65h-10.02c-.24,0-.43.3-.43.65s.19.65.43.65Z"></path>
    </g>
    <g>
      <path class="cls-1" d="M46.93,12.32c0-.36-.19-.65-.43-.65h-.53c-.24,0-.43.3-.43.65s.19.65.43.65h.53c.24,0,.43-.3.43-.65Z"></path>
      <path class="cls-1" d="M48.69,11.66c-.24,0-.43.3-.43.65s.19.65.43.65.43-.3.43-.65-.19-.65-.43-.65Z"></path>
      <ellipse class="cls-1" cx="49.64" cy="12.32" rx=".43" ry=".65"></ellipse>
      <path class="cls-1" d="M48.14,12.32c0-.36-.19-.65-.43-.65h-.17c-.24,0-.43.3-.43.65s.19.65.43.65h.17c.24,0,.43-.3.43-.65Z"></path>
      <path class="cls-1" d="M34.93,12.97h9.96c.24,0,.43-.3.43-.65s-.19-.65-.43-.65h-9.96c-.24,0-.43.3-.43.65s.19.65.43.65Z"></path>
    </g>
    <g>
      <path class="cls-1" d="M49.66,15.79c.24,0,.43-.3.43-.65s-.19-.65-.43-.65-.43.3-.43.65.19.65.43.65Z"></path>
      <path class="cls-1" d="M48.51,15.79h.17c.24,0,.43-.3.43-.65s-.19-.65-.43-.65h-.17c-.24,0-.43.3-.43.65s.19.65.43.65Z"></path>
      <path class="cls-1" d="M46.76,15.79h.65c.24,0,.43-.3.43-.65s-.19-.65-.43-.65h-.65c-.24,0-.43.3-.43.65s.19.65.43.65Z"></path>
      <path class="cls-1" d="M33.86,15.79h11.82c.24,0,.43-.3.43-.65s-.19-.65-.43-.65h-11.82c-.24,0-.43.3-.43.65s.19.65.43.65Z"></path>
    </g>
    <g>
      <path class="cls-1" d="M52.94,17.94h0c0,.36.19.65.43.65s.43-.3.43-.65h0c0-.36-.19-.65-.43-.65s-.43.3-.43.65Z"></path>
      <path class="cls-1" d="M53.84,17.94h0c0,.36.19.65.43.65s.43-.3.43-.65h0c0-.36-.19-.65-.43-.65s-.43.3-.43.65Z"></path>
      <path class="cls-1" d="M55.21,18.59c.24,0,.43-.3.43-.65h0c0-.36-.19-.65-.43-.65s-.43.3-.43.65h0c0,.36.19.65.43.65Z"></path>
      <path class="cls-1" d="M62.68,17.28h-.6c-.24,0-.43.3-.43.65h0c0,.36.19.65.43.65h.6c.24,0,.43-.3.43-.65h0c0-.36-.19-.65-.43-.65Z"></path>
      <path class="cls-1" d="M51.32,17.94h0c0,.36.19.65.43.65h.65c.24,0,.43-.3.43-.65h0c0-.36-.19-.65-.43-.65h-.65c-.24,0-.43.3-.43.65Z"></path>
      <path class="cls-1" d="M33.11,18.59h17.58c.24,0,.43-.3.43-.65h0c0-.36-.19-.65-.43-.65h-17.58c-.24,0-.43.3-.43.65h0c0,.36.19.65.43.65Z"></path>
    </g>
    <g>
      <path class="cls-1" d="M49.78,20.1h-.16c-.24,0-.43.3-.43.65s.19.65.43.65h.16c.24,0,.43-.3.43-.65s-.19-.65-.43-.65Z"></path>
      <path class="cls-1" d="M61.37,21.41h.6c.24,0,.43-.3.43-.65s-.19-.65-.43-.65h-.6c-.24,0-.43.3-.43.65s.19.65.43.65Z"></path>
      <path class="cls-1" d="M50.88,20.1c-.24,0-.43.3-.43.65s.19.65.43.65.43-.3.43-.65-.19-.65-.43-.65Z"></path>
      <path class="cls-1" d="M52.32,20.75c0-.36-.19-.65-.43-.65s-.43.3-.43.65.19.65.43.65.43-.3.43-.65Z"></path>
      <path class="cls-1" d="M26.69,21.41h20.9c.24,0,.43-.3.43-.65s-.19-.65-.43-.65h-20.9c-.24,0-.43.3-.43.65s.19.65.43.65Z"></path>
    </g>
    <g>
      <path class="cls-1" d="M47.38,24.22c.24,0,.43-.3.43-.65s-.19-.65-.43-.65h-.16c-.24,0-.43.3-.43.65s.19.65.43.65h.16Z"></path>
      <path class="cls-1" d="M50.11,22.91c-.24,0-.43.3-.43.65s.19.65.43.65h.16c.24,0,.43-.3.43-.65s-.19-.65-.43-.65h-.16Z"></path>
      <path class="cls-1" d="M60.49,24.22h.6c.24,0,.43-.3.43-.65s-.19-.65-.43-.65h-.6c-.24,0-.43.3-.43.65s.19.65.43.65Z"></path>
      <path class="cls-1" d="M48.42,22.91c-.24,0-.43.3-.43.65s.19.65.43.65h.5c.24,0,.43-.3.43-.65s-.19-.65-.43-.65h-.5Z"></path>
      <path class="cls-1" d="M51.31,23.56c0,.36.19.65.43.65s.43-.3.43-.65-.19-.65-.43-.65-.43.3-.43.65Z"></path>
      <path class="cls-1" d="M20.92,24.22h11.54c.24,0,.43-.3.43-.65s-.19-.65-.43-.65h-11.54c-.24,0-.43.3-.43.65s.19.65.43.65Z"></path>
      <path class="cls-1" d="M46.18,22.91h-10.02c-.24,0-.43.3-.43.65s.19.65.43.65h10.02c.24,0,.43-.3.43-.65s-.19-.65-.43-.65Z"></path>
    </g>
    <g>
      <path class="cls-1" d="M54.65,27.03c.24,0,.43-.3.43-.65s-.19-.65-.43-.65h-.16c-.24,0-.43.3-.43.65s.19.65.43.65h.16Z"></path>
      <path class="cls-1" d="M59.61,27.03h1.21c.24,0,.43-.3.43-.65s-.19-.65-.43-.65h-1.21c-.24,0-.43.3-.43.65s.19.65.43.65Z"></path>
      <path class="cls-1" d="M53.4,27.03c.24,0,.43-.3.43-.65s-.19-.65-.43-.65h-.5c-.24,0-.43.3-.43.65s.19.65.43.65h.5Z"></path>
      <path class="cls-1" d="M55.31,26.38c0,.36.19.65.43.65s.43-.3.43-.65-.19-.65-.43-.65-.43.3-.43.65Z"></path>
      <path class="cls-1" d="M13.97,27.03h14.89c.24,0,.43-.3.43-.65s-.19-.65-.43-.65h-14.89c-.24,0-.43.3-.43.65s.19.65.43.65Z"></path>
      <path class="cls-1" d="M35.76,26.38c0,.36.19.65.43.65h15.64c.24,0,.43-.3.43-.65s-.19-.65-.43-.65h-15.64c-.24,0-.43.3-.43.65Z"></path>
    </g>
    <g>
      <path class="cls-1" d="M50.86,28.53c-.24,0-.43.3-.43.65s.19.65.43.65h.16c.24,0,.43-.3.43-.65s-.19-.65-.43-.65h-.16Z"></path>
      <path class="cls-1" d="M57.77,29.84h2.27c.24,0,.43-.3.43-.65s-.19-.65-.43-.65h-2.27c-.24,0-.43.3-.43.65s.19.65.43.65Z"></path>
      <path class="cls-1" d="M55.99,29.19c0-.36-.19-.65-.43-.65s-.43.3-.43.65.19.65.43.65.43-.3.43-.65Z"></path>
      <path class="cls-1" d="M61.08,28.53c-.24,0-.43.3-.43.65s.19.65.43.65.43-.3.43-.65-.19-.65-.43-.65Z"></path>
      <path class="cls-1" d="M62.1,28.53c-.24,0-.43.3-.43.65s.19.65.43.65.43-.3.43-.65-.19-.65-.43-.65Z"></path>
      <path class="cls-1" d="M36.49,28.53c-.24,0-.43.3-.43.65s.19.65.43.65h.3c.24,0,.43-.3.43-.65s-.19-.65-.43-.65h-.3Z"></path>
      <path class="cls-1" d="M10.96,29.84h12.45c.24,0,.43-.3.43-.65s-.19-.65-.43-.65h-12.45c-.24,0-.43.3-.43.65s.19.65.43.65Z"></path>
      <path class="cls-1" d="M49.04,29.19c0-.36-.19-.65-.43-.65h-9.96c-.24,0-.43.3-.43.65s.19.65.43.65h9.96c.24,0,.43-.3.43-.65Z"></path>
    </g>
    <g>
      <path class="cls-1" d="M56.02,32c0,.36.19.65.43.65h2.67c.24,0,.43-.3.43-.65s-.19-.65-.43-.65h-2.67c-.24,0-.43.3-.43.65Z"></path>
      <path class="cls-1" d="M60.57,32c0-.36-.19-.65-.43-.65h0c-.24,0-.43.3-.43.65s.19.65.43.65h0c.24,0,.43-.3.43-.65Z"></path>
      <path class="cls-1" d="M61.14,31.34c-.24,0-.43.3-.43.65s.19.65.43.65.43-.3.43-.65-.19-.65-.43-.65Z"></path>
      <path class="cls-1" d="M8.11,32.65h13.22c.24,0,.43-.3.43-.65s-.19-.65-.43-.65h-13.22c-.24,0-.43.3-.43.65s.19.65.43.65Z"></path>
      <path class="cls-1" d="M39.56,32.65h9.8c.24,0,.43-.3.43-.65s-.19-.65-.43-.65h-9.8c-.24,0-.43.3-.43.65s.19.65.43.65Z"></path>
    </g>
    <g>
      <path class="cls-1" d="M59.13,34.81c0-.36-.19-.65-.43-.65h-5.06c-.24,0-.43.3-.43.65s.19.65.43.65h5.06c.24,0,.43-.3.43-.65Z"></path>
      <path class="cls-1" d="M59.48,34.81c0,.36.19.65.43.65s.43-.3.43-.65-.19-.65-.43-.65-.43.3-.43.65Z"></path>
      <path class="cls-1" d="M61,34.16c-.24,0-.43.3-.43.65s.19.65.43.65.43-.3.43-.65-.19-.65-.43-.65Z"></path>
      <path class="cls-1" d="M5.59,35.47h12.43c.24,0,.43-.3.43-.65s-.19-.65-.43-.65H5.59c-.24,0-.43.3-.43.65s.19.65.43.65Z"></path>
      <path class="cls-1" d="M36.12,35.47h15.26c.24,0,.43-.3.43-.65s-.19-.65-.43-.65h-15.26c-.24,0-.43.3-.43.65s.19.65.43.65Z"></path>
    </g>
    <g>
      <path class="cls-1" d="M58.86,37.62h0c0-.36-.19-.65-.43-.65s-.43.3-.43.65h0c0,.36.19.65.43.65s.43-.3.43-.65Z"></path>
      <path class="cls-1" d="M59.84,37.62h0c0-.36-.19-.65-.43-.65s-.43.3-.43.65h0c0,.36.19.65.43.65s.43-.3.43-.65Z"></path>
      <path class="cls-1" d="M60.48,36.97c-.24,0-.43.3-.43.65h0c0,.36.19.65.43.65s.43-.3.43-.65h0c0-.36-.19-.65-.43-.65Z"></path>
      <path class="cls-1" d="M3.38,38.28h12.83c.24,0,.43-.3.43-.65h0c0-.36-.19-.65-.43-.65H3.38c-.24,0-.43.3-.43.65h0c0,.36.19.65.43.65Z"></path>
      <path class="cls-1" d="M57.71,37.62h0c0-.36-.19-.65-.43-.65h-28.51c-.24,0-.43.3-.43.65h0c0,.36.19.65.43.65h28.51c.24,0,.43-.3.43-.65h0Z"></path>
    </g>
    <g>
      <path class="cls-1" d="M53.56,41.09c.24,0,.43-.3.43-.65s-.19-.65-.43-.65h-.17c-.24,0-.43.3-.43.65s.19.65.43.65h.17Z"></path>
      <path class="cls-1" d="M55.99,40.44c0-.36-.19-.65-.43-.65s-.43.3-.43.65.19.65.43.65.43-.3.43-.65Z"></path>
      <ellipse class="cls-1" cx="54.62" cy="40.44" rx=".43" ry=".65"></ellipse>
      <path class="cls-1" d="M1.76,41.09h50.62c.24,0,.43-.3.43-.65s-.19-.65-.43-.65H1.76c-.24,0-.43.3-.43.65s.19.65.43.65Z"></path>
    </g>
    <g>
      <path class="cls-1" d="M53.47,43.9h.17c.24,0,.43-.3.43-.65s-.19-.65-.43-.65h-.17c-.24,0-.43.3-.43.65s.19.65.43.65Z"></path>
      <path class="cls-1" d="M54.66,43.9h.17c.24,0,.43-.3.43-.65s-.19-.65-.43-.65h-.17c-.24,0-.43.3-.43.65s.19.65.43.65Z"></path>
      <path class="cls-1" d="M55.94,43.9h.17c.24,0,.43-.3.43-.65s-.19-.65-.43-.65h-.17c-.24,0-.43.3-.43.65s.19.65.43.65Z"></path>
      <path class="cls-1" d="M52.79,43.25c0-.36-.19-.65-.43-.65H1.32c-.24,0-.43.3-.43.65s.19.65.43.65h51.04c.24,0,.43-.3.43-.65Z"></path>
    </g>
    <g>
      <path class="cls-1" d="M56.82,46.06c0-.36-.19-.65-.43-.65h-.17c-.24,0-.43.3-.43.65s.19.65.43.65h.17c.24,0,.43-.3.43-.65Z"></path>
      <path class="cls-1" d="M57.5,45.4c-.24,0-.43.3-.43.65s.19.65.43.65.43-.3.43-.65-.19-.65-.43-.65Z"></path>
      <path class="cls-1" d="M58.46,46.71c.24,0,.43-.3.43-.65s-.19-.65-.43-.65-.43.3-.43.65.19.65.43.65Z"></path>
      <path class="cls-1" d="M55.59,46.06c0-.36-.19-.65-.43-.65H3.28c-.24,0-.43.3-.43.65s.19.65.43.65h51.88c.24,0,.43-.3.43-.65Z"></path>
    </g>
    <g>
      <path class="cls-1" d="M50.21,48.87c0-.36-.19-.65-.43-.65h-.17c-.24,0-.43.3-.43.65s.19.65.43.65h.17c.24,0,.43-.3.43-.65Z"></path>
      <path class="cls-1" d="M51.34,48.87c0-.36-.19-.65-.43-.65s-.43.3-.43.65.19.65.43.65.43-.3.43-.65Z"></path>
      <path class="cls-1" d="M49.08,48.87c0-.36-.19-.65-.43-.65H8.51c-.24,0-.43.3-.43.65s.19.65.43.65h40.14c.24,0,.43-.3.43-.65Z"></path>
    </g>
    <g>
      <path class="cls-1" d="M47.93,51.03c-.24,0-.43.3-.43.65s.19.65.43.65h.57c.24,0,.43-.3.43-.65s-.19-.65-.43-.65h-.57Z"></path>
      <path class="cls-1" d="M45.28,51.03c-.24,0-.43.3-.43.65s.19.65.43.65h.57c.24,0,.43-.3.43-.65s-.19-.65-.43-.65h-.57Z"></path>
      <ellipse class="cls-1" cx="50.28" cy="51.68" rx=".43" ry=".65"></ellipse>
      <ellipse class="cls-1" cx="46.94" cy="51.68" rx=".43" ry=".65"></ellipse>
      <path class="cls-1" d="M44.2,51.68c0-.36-.19-.65-.43-.65h-26.53c-.24,0-.43.3-.43.65s.19.65.43.65h26.53c.24,0,.43-.3.43-.65h0Z"></path>
    </g>
    <g>
      <path class="cls-1" d="M53.23,53.84c-.24,0-.43.3-.43.65s.19.65.43.65h.17c.24,0,.43-.3.43-.65s-.19-.65-.43-.65h-.17Z"></path>
      <path class="cls-1" d="M51.63,54.49c0,.36.19.65.43.65s.43-.3.43-.65-.19-.65-.43-.65-.43.3-.43.65Z"></path>
      <path class="cls-1" d="M54.48,54.49c0,.36.19.65.43.65s.43-.3.43-.65-.19-.65-.43-.65-.43.3-.43.65Z"></path>
      <path class="cls-1" d="M51.3,54.49c0-.36-.19-.65-.43-.65h-26.09c-.24,0-.43.3-.43.65s.19.65.43.65h26.09c.24,0,.43-.3.43-.65Z"></path>
    </g>
    <g>
      <path class="cls-1" d="M58.55,56.65h-.17c-.24,0-.43.3-.43.65h0c0,.36.19.65.43.65h.17c.24,0,.43-.3.43-.65h0c0-.36-.19-.65-.43-.65Z"></path>
      <path class="cls-1" d="M57.37,56.65h-.57c-.24,0-.43.3-.43.65h0c0,.36.19.65.43.65h.57c.24,0,.43-.3.43-.65h0c0-.36-.19-.65-.43-.65Z"></path>
      <path class="cls-1" d="M59.68,56.65c-.24,0-.43.3-.43.65h0c0,.36.19.65.43.65s.43-.3.43-.65h0c0-.36-.19-.65-.43-.65Z"></path>
      <path class="cls-1" d="M55.55,56.65h-30.02c-.24,0-.43.3-.43.65h0c0,.36.19.65.43.65h30.02c.24,0,.43-.3.43-.65h0c0-.36-.19-.65-.43-.65Z"></path>
    </g>
  </g>
  <g>
    <g>
      <path class="cls-1" d="M40.27,7.35h9.49c.24,0,.43-.3.43-.65s-.19-.65-.43-.65h-9.49c-.24,0-.43.3-.43.65s.19.65.43.65Z"></path>
      <path class="cls-1" d="M50.85,7.35h.78c.24,0,.43-.3.43-.65s-.19-.65-.43-.65h-.78c-.24,0-.43.3-.43.65s.19.65.43.65Z"></path>
      <path class="cls-1" d="M52.84,7.35c.24,0,.43-.3.43-.65s-.19-.65-.43-.65-.43.3-.43.65.19.65.43.65Z"></path>
      <path class="cls-1" d="M54.06,7.35c.24,0,.43-.3.43-.65s-.19-.65-.43-.65-.43.3-.43.65.19.65.43.65Z"></path>
    </g>
    <g>
      <path class="cls-1" d="M47.42,10.16h.19c.24,0,.43-.3.43-.65s-.19-.65-.43-.65h-.19c-.24,0-.43.3-.43.65s.19.65.43.65Z"></path>
      <path class="cls-1" d="M49.77,8.85h-.19c-.24,0-.43.3-.43.65s.19.65.43.65h.19c.24,0,.43-.3.43-.65s-.19-.65-.43-.65Z"></path>
      <path class="cls-1" d="M48.61,10.16c.24,0,.43-.3.43-.65s-.19-.65-.43-.65-.43.3-.43.65.19.65.43.65Z"></path>
      <path class="cls-1" d="M50.81,10.16c.24,0,.43-.3.43-.65s-.19-.65-.43-.65-.43.3-.43.65.19.65.43.65Z"></path>
      <path class="cls-1" d="M36.36,10.16h10.02c.24,0,.43-.3.43-.65s-.19-.65-.43-.65h-10.02c-.24,0-.43.3-.43.65s.19.65.43.65Z"></path>
    </g>
    <g>
      <path class="cls-1" d="M46.93,12.32c0-.36-.19-.65-.43-.65h-.53c-.24,0-.43.3-.43.65s.19.65.43.65h.53c.24,0,.43-.3.43-.65Z"></path>
      <path class="cls-1" d="M48.69,11.66c-.24,0-.43.3-.43.65s.19.65.43.65.43-.3.43-.65-.19-.65-.43-.65Z"></path>
      <ellipse class="cls-1" cx="49.64" cy="12.32" rx=".43" ry=".65"></ellipse>
      <path class="cls-1" d="M48.14,12.32c0-.36-.19-.65-.43-.65h-.17c-.24,0-.43.3-.43.65s.19.65.43.65h.17c.24,0,.43-.3.43-.65Z"></path>
      <path class="cls-1" d="M34.93,12.97h9.96c.24,0,.43-.3.43-.65s-.19-.65-.43-.65h-9.96c-.24,0-.43.3-.43.65s.19.65.43.65Z"></path>
    </g>
    <g>
      <path class="cls-1" d="M49.66,15.79c.24,0,.43-.3.43-.65s-.19-.65-.43-.65-.43.3-.43.65.19.65.43.65Z"></path>
      <path class="cls-1" d="M48.51,15.79h.17c.24,0,.43-.3.43-.65s-.19-.65-.43-.65h-.17c-.24,0-.43.3-.43.65s.19.65.43.65Z"></path>
      <path class="cls-1" d="M46.76,15.79h.65c.24,0,.43-.3.43-.65s-.19-.65-.43-.65h-.65c-.24,0-.43.3-.43.65s.19.65.43.65Z"></path>
      <path class="cls-1" d="M33.86,15.79h11.82c.24,0,.43-.3.43-.65s-.19-.65-.43-.65h-11.82c-.24,0-.43.3-.43.65s.19.65.43.65Z"></path>
    </g>
    <g>
      <path class="cls-1" d="M52.94,17.94h0c0,.36.19.65.43.65s.43-.3.43-.65h0c0-.36-.19-.65-.43-.65s-.43.3-.43.65Z"></path>
      <path class="cls-1" d="M53.84,17.94h0c0,.36.19.65.43.65s.43-.3.43-.65h0c0-.36-.19-.65-.43-.65s-.43.3-.43.65Z"></path>
      <path class="cls-1" d="M55.21,18.59c.24,0,.43-.3.43-.65h0c0-.36-.19-.65-.43-.65s-.43.3-.43.65h0c0,.36.19.65.43.65Z"></path>
      <path class="cls-1" d="M62.68,17.28h-.6c-.24,0-.43.3-.43.65h0c0,.36.19.65.43.65h.6c.24,0,.43-.3.43-.65h0c0-.36-.19-.65-.43-.65Z"></path>
      <path class="cls-1" d="M51.32,17.94h0c0,.36.19.65.43.65h.65c.24,0,.43-.3.43-.65h0c0-.36-.19-.65-.43-.65h-.65c-.24,0-.43.3-.43.65Z"></path>
      <path class="cls-1" d="M33.11,18.59h17.58c.24,0,.43-.3.43-.65h0c0-.36-.19-.65-.43-.65h-17.58c-.24,0-.43.3-.43.65h0c0,.36.19.65.43.65Z"></path>
    </g>
    <g>
      <path class="cls-1" d="M49.78,20.1h-.16c-.24,0-.43.3-.43.65s.19.65.43.65h.16c.24,0,.43-.3.43-.65s-.19-.65-.43-.65Z"></path>
      <path class="cls-1" d="M61.37,21.41h.6c.24,0,.43-.3.43-.65s-.19-.65-.43-.65h-.6c-.24,0-.43.3-.43.65s.19.65.43.65Z"></path>
      <path class="cls-1" d="M50.88,20.1c-.24,0-.43.3-.43.65s.19.65.43.65.43-.3.43-.65-.19-.65-.43-.65Z"></path>
      <path class="cls-1" d="M52.32,20.75c0-.36-.19-.65-.43-.65s-.43.3-.43.65.19.65.43.65.43-.3.43-.65Z"></path>
      <path class="cls-1" d="M26.69,21.41h20.9c.24,0,.43-.3.43-.65s-.19-.65-.43-.65h-20.9c-.24,0-.43.3-.43.65s.19.65.43.65Z"></path>
    </g>
    <g>
      <path class="cls-1" d="M47.38,24.22c.24,0,.43-.3.43-.65s-.19-.65-.43-.65h-.16c-.24,0-.43.3-.43.65s.19.65.43.65h.16Z"></path>
      <path class="cls-1" d="M50.11,22.91c-.24,0-.43.3-.43.65s.19.65.43.65h.16c.24,0,.43-.3.43-.65s-.19-.65-.43-.65h-.16Z"></path>
      <path class="cls-1" d="M60.49,24.22h.6c.24,0,.43-.3.43-.65s-.19-.65-.43-.65h-.6c-.24,0-.43.3-.43.65s.19.65.43.65Z"></path>
      <path class="cls-1" d="M48.42,22.91c-.24,0-.43.3-.43.65s.19.65.43.65h.5c.24,0,.43-.3.43-.65s-.19-.65-.43-.65h-.5Z"></path>
      <path class="cls-1" d="M51.31,23.56c0,.36.19.65.43.65s.43-.3.43-.65-.19-.65-.43-.65-.43.3-.43.65Z"></path>
      <path class="cls-1" d="M20.92,24.22h11.54c.24,0,.43-.3.43-.65s-.19-.65-.43-.65h-11.54c-.24,0-.43.3-.43.65s.19.65.43.65Z"></path>
      <path class="cls-1" d="M46.18,22.91h-10.02c-.24,0-.43.3-.43.65s.19.65.43.65h10.02c.24,0,.43-.3.43-.65s-.19-.65-.43-.65Z"></path>
    </g>
    <g>
      <path class="cls-1" d="M54.65,27.03c.24,0,.43-.3.43-.65s-.19-.65-.43-.65h-.16c-.24,0-.43.3-.43.65s.19.65.43.65h.16Z"></path>
      <path class="cls-1" d="M59.61,27.03h1.21c.24,0,.43-.3.43-.65s-.19-.65-.43-.65h-1.21c-.24,0-.43.3-.43.65s.19.65.43.65Z"></path>
      <path class="cls-1" d="M53.4,27.03c.24,0,.43-.3.43-.65s-.19-.65-.43-.65h-.5c-.24,0-.43.3-.43.65s.19.65.43.65h.5Z"></path>
      <path class="cls-1" d="M55.31,26.38c0,.36.19.65.43.65s.43-.3.43-.65-.19-.65-.43-.65-.43.3-.43.65Z"></path>
      <path class="cls-1" d="M13.97,27.03h14.89c.24,0,.43-.3.43-.65s-.19-.65-.43-.65h-14.89c-.24,0-.43.3-.43.65s.19.65.43.65Z"></path>
      <path class="cls-1" d="M35.76,26.38c0,.36.19.65.43.65h15.64c.24,0,.43-.3.43-.65s-.19-.65-.43-.65h-15.64c-.24,0-.43.3-.43.65Z"></path>
    </g>
    <g>
      <path class="cls-1" d="M50.86,28.53c-.24,0-.43.3-.43.65s.19.65.43.65h.16c.24,0,.43-.3.43-.65s-.19-.65-.43-.65h-.16Z"></path>
      <path class="cls-1" d="M57.77,29.84h2.27c.24,0,.43-.3.43-.65s-.19-.65-.43-.65h-2.27c-.24,0-.43.3-.43.65s.19.65.43.65Z"></path>
      <path class="cls-1" d="M55.99,29.19c0-.36-.19-.65-.43-.65s-.43.3-.43.65.19.65.43.65.43-.3.43-.65Z"></path>
      <path class="cls-1" d="M61.08,28.53c-.24,0-.43.3-.43.65s.19.65.43.65.43-.3.43-.65-.19-.65-.43-.65Z"></path>
      <path class="cls-1" d="M62.1,28.53c-.24,0-.43.3-.43.65s.19.65.43.65.43-.3.43-.65-.19-.65-.43-.65Z"></path>
      <path class="cls-1" d="M36.49,28.53c-.24,0-.43.3-.43.65s.19.65.43.65h.3c.24,0,.43-.3.43-.65s-.19-.65-.43-.65h-.3Z"></path>
      <path class="cls-1" d="M10.96,29.84h12.45c.24,0,.43-.3.43-.65s-.19-.65-.43-.65h-12.45c-.24,0-.43.3-.43.65s.19.65.43.65Z"></path>
      <path class="cls-1" d="M49.04,29.19c0-.36-.19-.65-.43-.65h-9.96c-.24,0-.43.3-.43.65s.19.65.43.65h9.96c.24,0,.43-.3.43-.65Z"></path>
    </g>
    <g>
      <path class="cls-1" d="M56.02,32c0,.36.19.65.43.65h2.67c.24,0,.43-.3.43-.65s-.19-.65-.43-.65h-2.67c-.24,0-.43.3-.43.65Z"></path>
      <path class="cls-1" d="M60.57,32c0-.36-.19-.65-.43-.65h0c-.24,0-.43.3-.43.65s.19.65.43.65h0c.24,0,.43-.3.43-.65Z"></path>
      <path class="cls-1" d="M61.14,31.34c-.24,0-.43.3-.43.65s.19.65.43.65.43-.3.43-.65-.19-.65-.43-.65Z"></path>
      <path class="cls-1" d="M8.11,32.65h13.22c.24,0,.43-.3.43-.65s-.19-.65-.43-.65h-13.22c-.24,0-.43.3-.43.65s.19.65.43.65Z"></path>
      <path class="cls-1" d="M39.56,32.65h9.8c.24,0,.43-.3.43-.65s-.19-.65-.43-.65h-9.8c-.24,0-.43.3-.43.65s.19.65.43.65Z"></path>
    </g>
    <g>
      <path class="cls-1" d="M59.13,34.81c0-.36-.19-.65-.43-.65h-5.06c-.24,0-.43.3-.43.65s.19.65.43.65h5.06c.24,0,.43-.3.43-.65Z"></path>
      <path class="cls-1" d="M59.48,34.81c0,.36.19.65.43.65s.43-.3.43-.65-.19-.65-.43-.65-.43.3-.43.65Z"></path>
      <path class="cls-1" d="M61,34.16c-.24,0-.43.3-.43.65s.19.65.43.65.43-.3.43-.65-.19-.65-.43-.65Z"></path>
      <path class="cls-1" d="M5.59,35.47h12.43c.24,0,.43-.3.43-.65s-.19-.65-.43-.65H5.59c-.24,0-.43.3-.43.65s.19.65.43.65Z"></path>
      <path class="cls-1" d="M36.12,35.47h15.26c.24,0,.43-.3.43-.65s-.19-.65-.43-.65h-15.26c-.24,0-.43.3-.43.65s.19.65.43.65Z"></path>
    </g>
    <g>
      <path class="cls-1" d="M58.86,37.62h0c0-.36-.19-.65-.43-.65s-.43.3-.43.65h0c0,.36.19.65.43.65s.43-.3.43-.65Z"></path>
      <path class="cls-1" d="M59.84,37.62h0c0-.36-.19-.65-.43-.65s-.43.3-.43.65h0c0,.36.19.65.43.65s.43-.3.43-.65Z"></path>
      <path class="cls-1" d="M60.48,36.97c-.24,0-.43.3-.43.65h0c0,.36.19.65.43.65s.43-.3.43-.65h0c0-.36-.19-.65-.43-.65Z"></path>
      <path class="cls-1" d="M3.38,38.28h12.83c.24,0,.43-.3.43-.65h0c0-.36-.19-.65-.43-.65H3.38c-.24,0-.43.3-.43.65h0c0,.36.19.65.43.65Z"></path>
      <path class="cls-1" d="M57.71,37.62h0c0-.36-.19-.65-.43-.65h-28.51c-.24,0-.43.3-.43.65h0c0,.36.19.65.43.65h28.51c.24,0,.43-.3.43-.65h0Z"></path>
    </g>
    <g>
      <path class="cls-1" d="M53.56,41.09c.24,0,.43-.3.43-.65s-.19-.65-.43-.65h-.17c-.24,0-.43.3-.43.65s.19.65.43.65h.17Z"></path>
      <path class="cls-1" d="M55.99,40.44c0-.36-.19-.65-.43-.65s-.43.3-.43.65.19.65.43.65.43-.3.43-.65Z"></path>
      <ellipse class="cls-1" cx="54.62" cy="40.44" rx=".43" ry=".65"></ellipse>
      <path class="cls-1" d="M1.76,41.09h50.62c.24,0,.43-.3.43-.65s-.19-.65-.43-.65H1.76c-.24,0-.43.3-.43.65s.19.65.43.65Z"></path>
    </g>
    <g>
      <path class="cls-1" d="M53.47,43.9h.17c.24,0,.43-.3.43-.65s-.19-.65-.43-.65h-.17c-.24,0-.43.3-.43.65s.19.65.43.65Z"></path>
      <path class="cls-1" d="M54.66,43.9h.17c.24,0,.43-.3.43-.65s-.19-.65-.43-.65h-.17c-.24,0-.43.3-.43.65s.19.65.43.65Z"></path>
      <path class="cls-1" d="M55.94,43.9h.17c.24,0,.43-.3.43-.65s-.19-.65-.43-.65h-.17c-.24,0-.43.3-.43.65s.19.65.43.65Z"></path>
      <path class="cls-1" d="M52.79,43.25c0-.36-.19-.65-.43-.65H1.32c-.24,0-.43.3-.43.65s.19.65.43.65h51.04c.24,0,.43-.3.43-.65Z"></path>
    </g>
    <g>
      <path class="cls-1" d="M56.82,46.06c0-.36-.19-.65-.43-.65h-.17c-.24,0-.43.3-.43.65s.19.65.43.65h.17c.24,0,.43-.3.43-.65Z"></path>
      <path class="cls-1" d="M57.5,45.4c-.24,0-.43.3-.43.65s.19.65.43.65.43-.3.43-.65-.19-.65-.43-.65Z"></path>
      <path class="cls-1" d="M58.46,46.71c.24,0,.43-.3.43-.65s-.19-.65-.43-.65-.43.3-.43.65.19.65.43.65Z"></path>
      <path class="cls-1" d="M55.59,46.06c0-.36-.19-.65-.43-.65H3.28c-.24,0-.43.3-.43.65s.19.65.43.65h51.88c.24,0,.43-.3.43-.65Z"></path>
    </g>
    <g>
      <path class="cls-1" d="M50.21,48.87c0-.36-.19-.65-.43-.65h-.17c-.24,0-.43.3-.43.65s.19.65.43.65h.17c.24,0,.43-.3.43-.65Z"></path>
      <path class="cls-1" d="M51.34,48.87c0-.36-.19-.65-.43-.65s-.43.3-.43.65.19.65.43.65.43-.3.43-.65Z"></path>
      <path class="cls-1" d="M49.08,48.87c0-.36-.19-.65-.43-.65H8.51c-.24,0-.43.3-.43.65s.19.65.43.65h40.14c.24,0,.43-.3.43-.65Z"></path>
    </g>
    <g>
      <path class="cls-1" d="M47.93,51.03c-.24,0-.43.3-.43.65s.19.65.43.65h.57c.24,0,.43-.3.43-.65s-.19-.65-.43-.65h-.57Z"></path>
      <path class="cls-1" d="M45.28,51.03c-.24,0-.43.3-.43.65s.19.65.43.65h.57c.24,0,.43-.3.43-.65s-.19-.65-.43-.65h-.57Z"></path>
      <ellipse class="cls-1" cx="50.28" cy="51.68" rx=".43" ry=".65"></ellipse>
      <ellipse class="cls-1" cx="46.94" cy="51.68" rx=".43" ry=".65"></ellipse>
      <path class="cls-1" d="M44.2,51.68c0-.36-.19-.65-.43-.65h-26.53c-.24,0-.43.3-.43.65s.19.65.43.65h26.53c.24,0,.43-.3.43-.65h0Z"></path>
    </g>
    <g>
      <path class="cls-1" d="M53.23,53.84c-.24,0-.43.3-.43.65s.19.65.43.65h.17c.24,0,.43-.3.43-.65s-.19-.65-.43-.65h-.17Z"></path>
      <path class="cls-1" d="M51.63,54.49c0,.36.19.65.43.65s.43-.3.43-.65-.19-.65-.43-.65-.43.3-.43.65Z"></path>
      <path class="cls-1" d="M54.48,54.49c0,.36.19.65.43.65s.43-.3.43-.65-.19-.65-.43-.65-.43.3-.43.65Z"></path>
      <path class="cls-1" d="M51.3,54.49c0-.36-.19-.65-.43-.65h-26.09c-.24,0-.43.3-.43.65s.19.65.43.65h26.09c.24,0,.43-.3.43-.65Z"></path>
    </g>
    <g>
      <path class="cls-1" d="M58.55,56.65h-.17c-.24,0-.43.3-.43.65h0c0,.36.19.65.43.65h.17c.24,0,.43-.3.43-.65h0c0-.36-.19-.65-.43-.65Z"></path>
      <path class="cls-1" d="M57.37,56.65h-.57c-.24,0-.43.3-.43.65h0c0,.36.19.65.43.65h.57c.24,0,.43-.3.43-.65h0c0-.36-.19-.65-.43-.65Z"></path>
      <path class="cls-1" d="M59.68,56.65c-.24,0-.43.3-.43.65h0c0,.36.19.65.43.65s.43-.3.43-.65h0c0-.36-.19-.65-.43-.65Z"></path>
      <path class="cls-1" d="M55.55,56.65h-30.02c-.24,0-.43.3-.43.65h0c0,.36.19.65.43.65h30.02c.24,0,.43-.3.43-.65h0c0-.36-.19-.65-.43-.65Z"></path>
    </g>
  </g>
</svg><style>@media (prefers-color-scheme: light) { :root { filter: none; } }
</style></svg>