<svg width="122" height="158" viewBox="0 0 122 158" fill="none" xmlns="http://www.w3.org/2000/svg">
<g clip-path="url(#clip0_958_64362)">
<path fill-rule="evenodd" clip-rule="evenodd" d="M45.4662 8.44706C45.5581 8.44706 45.6458 8.47621 45.7085 8.47621C45.7085 8.11814 45.3493 7.81836 44.9275 7.81836C44.4764 7.81836 44.1172 8.11814 44.1172 8.47621C44.1172 8.77599 44.4179 9.04662 44.7771 9.10491C44.7479 9.04662 44.7479 8.98417 44.7479 8.92587C44.7479 8.65524 45.0778 8.44706 45.4704 8.44706H45.4662Z" fill="#8C6D3A"/>
<path fill-rule="evenodd" clip-rule="evenodd" d="M50.6998 6.76999C51.3931 9.16822 55.1187 7.91082 54.037 5.24195C55.4821 4.70069 56.5931 4.6424 57.7667 4.46336C54.7011 3.98455 51.0924 3.59317 48.8663 4.61325C47.7845 5.12121 48.0852 5.78322 48.2356 6.05385C48.4152 5.48344 49.4092 5.4543 50.0984 5.69579C49.5554 10.1633 55.3317 9.6512 55.0895 5.99556C54.6969 8.9642 50.8502 8.96421 50.6998 6.77416V6.76999Z" fill="#8C6D3A"/>
<path d="M61.0507 77.9966C71.3132 77.9966 79.6326 69.6547 79.6326 59.3645C79.6326 49.0743 71.3132 40.7324 61.0507 40.7324C50.7882 40.7324 42.4688 49.0743 42.4688 59.3645C42.4688 69.6547 50.7882 77.9966 61.0507 77.9966Z" stroke="#8C6D3A" stroke-width="2" stroke-miterlimit="10"/>
<path d="M78.7596 53.1433C71.2584 51.8609 61.6145 51.0115 54.0589 51.786C53.8835 56.4825 53.7749 62.7654 54.0506 67.4119C61.8985 68.0781 70.8156 67.8366 78.5174 66.242" stroke="#8C6D3A" stroke-width="2" stroke-miterlimit="10"/>
<path d="M54.8222 41.8438L54.0578 51.7864L53.8281 59.8471L54.0829 68.0411L54.8222 76.8554" stroke="#8C6D3A" stroke-width="2" stroke-miterlimit="10"/>
<path d="M64.4925 35.4153C64.4925 35.4153 62.5378 35.2654 61.9949 35.2363C61.7526 34.7574 60.9424 33.1378 60.9424 33.1378L60.9131 33.1087C60.9131 33.1087 60.8839 33.0795 60.8839 33.1087C60.8644 33.1087 60.8547 33.1184 60.8547 33.1378C60.8254 33.1378 60.011 34.7574 59.7729 35.2654C59.2299 35.2654 57.246 35.4153 57.246 35.4153C57.246 35.4153 57.2168 35.4153 57.2168 35.4444V35.5027C57.2168 35.5027 58.7204 36.8517 59.1422 37.2431L58.6327 39.6996C58.6327 39.7288 58.6619 39.7579 58.6619 39.7579C58.6619 39.7871 58.6912 39.7871 58.6912 39.7871H58.7204C58.7204 39.7871 60.4036 38.7961 60.8839 38.5588C61.3642 38.8003 63.0474 39.7579 63.0474 39.7579C63.0474 39.7871 63.0766 39.7871 63.1059 39.7579C63.1059 39.7579 63.1351 39.7288 63.1351 39.6996L62.6256 37.2431C63.0182 36.8517 64.5218 35.5027 64.5218 35.5027C64.5412 35.4833 64.551 35.4639 64.551 35.4444C64.551 35.4153 64.5218 35.4153 64.4925 35.4153ZM62.6297 36.0565L61.786 36.8975L62.0283 38.1258C62.0283 38.1258 62.0283 38.1549 61.9991 38.1841H61.9698L60.8881 37.6137L59.8063 38.1841H59.7771C59.7478 38.1549 59.7478 38.1258 59.7478 38.1258L59.9901 36.8975L59.1464 36.0565C59.1172 36.0565 59.1172 36.0273 59.1172 35.9982C59.1172 35.9982 59.1464 35.969 59.1756 35.969L60.2866 35.9399L60.8588 34.7699C60.8588 34.7408 60.8881 34.7408 60.8881 34.7408C60.9173 34.7408 60.9465 34.7408 60.9465 34.7699L61.4895 35.9399L62.6005 35.969C62.6297 35.969 62.6297 35.9982 62.659 35.9982C62.659 36.0273 62.659 36.0565 62.6297 36.0565Z" fill="#8C6D3A"/>
<path d="M54.2676 77.896C54.2676 77.896 52.3129 78.0459 51.77 78.0459C51.44 77.5962 50.3583 76.0057 50.3583 76.0057C50.329 76.0057 50.2998 75.9766 50.2998 75.9766C50.2706 76.0057 50.2413 76.0057 50.2413 76.0349L49.6106 78.4914C49.0677 78.6413 47.1464 79.1825 47.1464 79.2117C47.1269 79.2117 47.1172 79.2214 47.1172 79.2408V79.2991C47.1172 79.2991 48.8296 80.29 49.3141 80.5274C49.3141 80.8563 49.3433 82.9256 49.3433 82.9256C49.3433 82.9547 49.3726 82.9547 49.4018 82.9839H49.4311L51.3273 81.5141L53.6745 82.5051C53.7038 82.5051 53.733 82.5051 53.733 82.4759C53.7622 82.4759 53.7622 82.4468 53.733 82.4176C53.733 82.4176 52.9812 80.5274 52.7724 80.0194L54.3344 77.9501V77.921C54.3344 77.8918 54.3052 77.8627 54.276 77.8918L54.2676 77.896ZM52.6429 78.8036L52.2211 79.3741L51.8911 79.7946L52.0707 80.2734L52.3129 80.9021C52.3129 80.9215 52.3032 80.941 52.2837 80.9604H52.2252L51.9538 80.8396L51.202 80.5399L50.8093 80.8396L50.1787 81.3185L50.1494 81.3476C50.1494 81.3476 50.1494 81.3185 50.1202 81.3185L50.091 81.2893L50.1202 79.9986L49.1262 79.4573C49.0969 79.4573 49.0969 79.4282 49.0969 79.4282C49.0969 79.399 49.0969 79.3699 49.1262 79.3699L49.6984 79.1909L50.2413 79.0118L50.5713 77.7836L50.6005 77.7544C50.6298 77.7544 50.659 77.7544 50.659 77.7836L51.0182 78.2624L51.4108 78.7412L52.6137 78.712C52.6137 78.712 52.6429 78.712 52.6429 78.7412C52.6721 78.7412 52.6429 78.7703 52.6429 78.7703C52.6429 78.7703 52.6721 78.7995 52.6429 78.7995V78.8036Z" fill="#8C6D3A"/>
<path d="M74.6289 79.2156C74.6289 79.2156 72.7034 78.6452 72.1647 78.4953L71.534 76.0388C71.534 76.0096 71.5047 76.0096 71.4755 75.9805C71.4463 75.9805 71.4463 76.0096 71.417 76.0096C71.417 76.0096 70.3353 77.6001 70.0053 78.0498C69.4331 78.0206 67.5077 77.8999 67.5077 77.8999C67.4882 77.8999 67.4687 77.9096 67.4492 77.929V77.9873L68.982 80.0275C68.8025 80.5354 68.0214 82.4257 68.0214 82.4257C68.0214 82.4549 68.0214 82.484 68.0507 82.484C68.0507 82.5131 68.0799 82.5131 68.1091 82.5131L70.4564 81.5222L72.3192 82.992H72.3777C72.4069 82.992 72.4069 82.9628 72.4069 82.9337C72.4069 82.9337 72.4361 80.8644 72.4361 80.5354C72.9165 80.2939 74.6331 79.3072 74.6331 79.3072C74.6623 79.3072 74.6623 79.278 74.6623 79.2489C74.6623 79.2197 74.6623 79.2197 74.6331 79.2197L74.6289 79.2156ZM72.6742 79.4612H72.645L71.6509 80.0025L71.6802 81.2932L71.6509 81.3224L71.6217 81.3515C71.5925 81.3515 71.5925 81.3224 71.5925 81.3224L70.5692 80.5438L69.9677 80.7853L69.5459 80.9643H69.454V80.906L69.6336 80.4272L69.8424 79.7985L69.1199 78.8075V78.7784C69.1199 78.7784 69.0906 78.7493 69.1199 78.7493V78.7201H69.1491L70.352 78.7493L71.1038 77.7916C71.1038 77.7625 71.133 77.7625 71.133 77.7625C71.1623 77.7625 71.1915 77.7916 71.1915 77.7916L71.3711 78.5119L71.5215 79.0199L72.3651 79.2905L72.6366 79.3821C72.6659 79.3821 72.6659 79.4113 72.6659 79.4404V79.4696L72.6742 79.4612Z" fill="#8C6D3A"/>
<path d="M44.6155 44.2002L44.4359 41.652C44.4359 41.6229 44.4067 41.5938 44.3774 41.5938C44.3774 41.5938 44.3482 41.5937 44.3482 41.6229C44.3482 41.6229 43.0242 43.0635 42.665 43.4799L40.3511 42.9719H40.2927C40.2927 43.001 40.2634 43.0302 40.2927 43.0302C40.2927 43.0302 41.0445 44.7081 41.2867 45.2202C40.986 45.6699 39.875 47.2895 39.875 47.2895V47.3478H39.9335C39.9335 47.3478 41.8881 47.0189 42.4311 46.9565L44.0558 48.8759H44.1143C44.1143 48.8759 44.1435 48.8759 44.1435 48.8467C44.1435 48.8467 44.4735 46.9565 44.5946 46.4194C45.1042 46.2112 46.9085 45.4909 46.9085 45.4909C46.9377 45.4909 46.967 45.4617 46.967 45.4326L46.9377 45.4034L44.6239 44.2043L44.6155 44.2002ZM45.0081 45.2869L43.8971 45.7948L43.6549 46.9939C43.6549 47.0231 43.6256 47.0231 43.6256 47.0231H43.5672L42.7569 46.0654L41.5832 46.1862C41.5638 46.1862 41.5443 46.1765 41.5248 46.157V46.0988L42.2181 45.1994L41.6459 44.0586C41.6264 44.0392 41.6264 44.0197 41.6459 44.0003C41.6459 43.9712 41.6751 43.9712 41.7044 43.9712L42.9657 44.2709L43.6883 43.4007C43.7175 43.4007 43.7468 43.3716 43.7468 43.4007C43.776 43.4007 43.8052 43.4299 43.8052 43.4299L43.8971 44.629L45.0081 45.1994C45.0373 45.1994 45.0373 45.2286 45.0373 45.2577C45.0373 45.2869 45.0373 45.2869 45.0081 45.2869Z" fill="#8C6D3A"/>
<path d="M41.3658 61.7366C41.3658 61.7366 41.3658 61.7075 41.3366 61.7075C41.3366 61.6783 41.3073 61.6783 41.2781 61.6783L38.9935 62.6984C38.5132 62.3986 36.9177 61.2578 36.9177 61.2578H36.8258V61.3161C36.8258 61.3161 37.0973 63.2355 37.185 63.7726L35.3222 65.2715C35.293 65.2715 35.293 65.3007 35.293 65.3298C35.293 65.359 35.3222 65.3589 35.3222 65.3589C35.3222 65.3589 37.1265 65.8086 37.6695 65.9294C37.8198 66.4706 38.4213 68.3276 38.4213 68.3276C38.4213 68.347 38.431 68.3567 38.4505 68.3567C38.4798 68.3567 38.509 68.3567 38.509 68.3276C38.509 68.3276 39.4696 66.5872 39.7411 66.1375L42.2972 66.0793L42.3264 66.0501V65.9585C42.3264 65.9585 41.0317 64.5512 40.6725 64.1307C40.8229 63.5894 41.3658 61.7325 41.3658 61.7325V61.7366ZM40.614 65.2215C40.614 65.241 40.6043 65.2507 40.5848 65.2507L39.3234 65.2798L38.6928 66.2999L38.6635 66.3291C38.6343 66.3291 38.6051 66.2999 38.6051 66.2708L38.3336 65.1924L37.0722 64.9218C37.043 64.9218 37.043 64.8926 37.0138 64.8635C37.0138 64.8635 37.0138 64.8343 37.043 64.8052L38.0663 64.0266L37.824 62.9191C37.824 62.8899 37.8533 62.8899 37.8533 62.8608H37.9451L38.9392 63.5186L40.0836 63.0107C40.0836 62.9815 40.1128 63.0107 40.1421 63.0107V63.069L39.8413 64.2389L40.6224 65.1674C40.6419 65.1869 40.6419 65.2063 40.6224 65.2257L40.614 65.2215Z" fill="#8C6D3A"/>
<path d="M81.9042 47.3481V47.2898C81.9042 47.2898 80.7932 45.641 80.4591 45.2205C80.7305 44.7125 81.4823 43.0304 81.4823 43.0304V42.9722H81.4239L79.11 43.4801C78.7508 43.0596 77.4268 41.5898 77.4268 41.5898H77.3683C77.3683 41.5898 77.3391 41.619 77.3391 41.6481L77.1595 44.1963L74.8456 45.3954L74.8164 45.4245C74.8164 45.4537 74.8456 45.4828 74.8749 45.4828C74.8749 45.4828 76.6792 46.2031 77.1887 46.4113C77.3099 46.9526 77.6398 48.8387 77.6398 48.8387C77.6398 48.8581 77.6496 48.8678 77.6691 48.8678H77.7275L79.3523 46.9484C79.8952 47.0067 81.8499 47.3398 81.8499 47.3398H81.9084L81.9042 47.3481ZM80.2502 46.1573C80.2307 46.1767 80.2112 46.1864 80.1918 46.1864L79.0181 46.0657L78.2078 47.0233H78.1494C78.1299 47.0233 78.1201 47.0136 78.1201 46.9942L77.8779 45.7951L76.7669 45.2871C76.7474 45.2871 76.7377 45.2774 76.7377 45.258C76.7377 45.2288 76.7377 45.1997 76.7669 45.1997L77.8779 44.6293L77.9698 43.4302L77.999 43.401C78.0282 43.3719 78.0575 43.401 78.0575 43.401L78.8093 44.2712L80.0706 43.9714C80.0999 43.9714 80.1291 43.9714 80.1291 44.0006C80.1486 44.02 80.1486 44.0394 80.1291 44.0589L79.5569 45.1997L80.2502 46.099V46.1573Z" fill="#8C6D3A"/>
<path d="M86.4437 65.2774L84.5809 63.7785C84.6728 63.2372 84.9401 61.322 84.9401 61.322C84.9401 61.2928 84.9401 61.2637 84.9109 61.2637H84.8524C84.8524 61.2637 83.2569 62.4045 82.7766 62.7043L80.4627 61.6842H80.4335C80.4043 61.7133 80.4043 61.7425 80.4043 61.7425C80.4043 61.7716 80.9472 63.5994 81.0642 64.1407C80.705 64.5612 79.4395 65.9685 79.4395 65.9685V66.0601C79.4395 66.0601 79.4687 66.0893 79.4979 66.0893L81.9956 66.1476C82.2963 66.5972 83.2569 68.3376 83.2569 68.3376C83.2569 68.3668 83.2861 68.3668 83.3154 68.3668C83.3154 68.3668 83.3446 68.3668 83.3446 68.3376C83.3446 68.3376 83.9461 66.4807 84.0672 65.9394C84.6394 65.8186 86.4145 65.369 86.4437 65.369C86.4437 65.369 86.4729 65.369 86.4729 65.3398C86.4729 65.3107 86.4729 65.2815 86.4437 65.2815V65.2774ZM84.702 64.9235L83.4407 65.1941L83.1692 66.2725C83.1692 66.3016 83.14 66.3308 83.1107 66.3308L83.0815 66.3016L82.4508 65.2815L81.1895 65.2524C81.1602 65.2524 81.131 65.2524 81.131 65.2232V65.165L81.9413 64.2365L81.6406 63.0665C81.6113 63.0374 81.6406 63.0082 81.6406 63.0082C81.6698 63.0082 81.6698 62.9791 81.699 63.0082L82.8434 63.5162L83.8375 62.8583H83.9294V62.9166L83.7205 64.0241L84.7438 64.8027C84.7438 64.8319 84.773 64.861 84.773 64.861C84.7438 64.8902 84.7438 64.9193 84.7146 64.9193L84.702 64.9235Z" fill="#8C6D3A"/>
<path d="M83.2075 59.453C83.2075 60.5231 83.1281 61.5765 82.9778 62.609C83.2284 62.4425 83.575 62.201 83.9092 61.9679C84.001 61.1435 84.0512 60.3024 84.0512 59.453C84.0512 54.9314 82.7355 50.722 80.4718 47.1663C80.0291 47.0955 79.5947 47.0289 79.3691 47.0039C81.7916 50.5471 83.2075 54.8315 83.2075 59.453Z" fill="#8C6D3A"/>
<path d="M49.6357 78.4348C45.0497 75.691 41.5372 71.3484 39.8791 66.1855H39.7454C39.6493 66.3479 39.4656 66.6685 39.2734 67.0141C40.99 71.9105 44.3272 76.0533 48.65 78.8054C49.0468 78.693 49.4143 78.5889 49.6107 78.5348L49.6399 78.4265L49.6357 78.4348Z" fill="#8C6D3A"/>
<path d="M62.6498 37.3943C68.3467 37.8024 73.4464 40.3547 77.1428 44.2518H77.1511L77.2305 43.1443C73.5843 39.5428 68.7435 37.1445 63.3598 36.6074C63.0549 36.8864 62.7709 37.1529 62.6289 37.2903L62.6498 37.3943Z" fill="#8C6D3A"/>
<path d="M39.0642 62.709C38.9055 61.6473 38.8219 60.5606 38.8219 59.453C38.8219 54.9064 40.2002 50.6804 42.56 47.1705L42.418 47.0039C42.2468 47.0247 41.9377 47.0705 41.591 47.1205C39.3064 50.6845 37.9824 54.9147 37.9824 59.453C37.9824 60.3732 38.0451 61.2767 38.1495 62.1719C38.492 62.4092 38.8178 62.634 38.9932 62.7423L39.0684 62.709H39.0642Z" fill="#8C6D3A"/>
<path d="M44.8156 44.3474C48.4576 40.4711 53.4863 37.9022 59.1164 37.4192L59.1415 37.2901C58.9953 37.1569 58.7238 36.9071 58.4273 36.6406C53.0102 37.2485 48.1694 39.7217 44.5566 43.4023L44.6151 44.2433L44.8156 44.3474Z" fill="#8C6D3A"/>
<path d="M61.046 81.578C58.139 81.578 55.3615 81.0159 52.8138 80L52.7637 80.0666C52.843 80.254 52.9934 80.6329 53.1521 81.0326C55.6121 81.9277 58.2727 82.4149 61.0418 82.4149C63.6689 82.4149 66.1916 81.9652 68.5431 81.1533C68.7101 80.7411 68.8688 80.3373 68.9524 80.1166C66.4965 81.0534 63.8318 81.5738 61.0418 81.5738L61.046 81.578Z" fill="#8C6D3A"/>
<path d="M72.2151 78.5545C72.4532 78.6212 72.875 78.7419 73.301 78.871C77.5696 76.173 80.8984 72.1176 82.6567 67.317C82.4563 66.9631 82.2433 66.5967 82.0971 66.3594C80.3972 71.5264 76.8387 75.8524 72.2109 78.5587L72.2151 78.5545Z" fill="#8C6D3A"/>
<path d="M59.1364 36.0989C59.1071 36.0989 59.1071 36.0698 59.1071 36.0406C59.1071 36.0406 59.1364 36.0115 59.1656 36.0115L60.2766 35.9824L60.8488 34.8124C60.8488 34.7832 60.878 34.7832 60.878 34.7832C60.9073 34.7832 60.9365 34.7832 60.9365 34.8124L61.4795 35.9824L62.5905 36.0115C62.6197 36.0115 62.6197 36.0406 62.6489 36.0406C62.6489 36.0698 62.6489 36.0989 62.6197 36.0989L62.1979 36.5195C62.5863 36.5403 62.9705 36.5694 63.3506 36.6069C63.8978 36.1073 64.5159 35.5535 64.5159 35.5535C64.5354 35.5341 64.5451 35.5146 64.5451 35.4952C64.5451 35.4661 64.5159 35.4661 64.4867 35.4661C64.4867 35.4661 62.532 35.3162 61.989 35.287C61.7468 34.8082 60.9365 33.1886 60.9365 33.1886L60.9073 33.1594C60.9073 33.1594 60.878 33.1303 60.878 33.1594C60.8585 33.1594 60.8488 33.1692 60.8488 33.1886C60.8196 33.1886 60.0051 34.8082 59.7671 35.3162C59.2241 35.3162 57.2402 35.4661 57.2402 35.4661C57.2402 35.4661 57.2109 35.4661 57.2109 35.4952V35.5535C57.2109 35.5535 57.8583 36.1364 58.4222 36.6444C58.8064 36.6027 59.1907 36.5694 59.5791 36.5444L59.1364 36.1031V36.0989Z" fill="#8C6D3A"/>
<path d="M58.6562 39.8078C58.6562 39.837 58.6854 39.837 58.6854 39.837H58.7147C58.7147 39.837 60.3979 38.846 60.8782 38.6087C61.3585 38.8502 63.0417 39.8078 63.0417 39.8078C63.0417 39.837 63.0709 39.837 63.1001 39.8078C63.1001 39.8078 63.1294 39.7787 63.1294 39.7495L62.6407 37.3971C62.3818 37.3804 62.1186 37.3638 61.8597 37.3555L62.0184 38.1715C62.0184 38.1715 62.0184 38.2007 61.9892 38.2298H61.9599L60.8782 37.6594L59.7964 38.2298H59.7672C59.7379 38.2007 59.7379 38.1715 59.7379 38.1715L59.8967 37.3638C59.6335 37.3763 59.3704 37.4013 59.1114 37.4221L58.627 39.7537C58.627 39.7828 58.6562 39.812 58.6562 39.812V39.8078Z" fill="#8C6D3A"/>
<path d="M61.7854 36.9361L61.8648 37.3483C62.1279 37.3567 62.3869 37.3733 62.6458 37.39L62.6249 37.2859C62.7669 37.1443 63.051 36.882 63.3558 36.6031C62.9758 36.5656 62.5915 36.5364 62.2031 36.5156L61.7812 36.9361H61.7854Z" fill="#8C6D3A"/>
<path d="M59.1127 37.4193C59.3758 37.3985 59.6348 37.3735 59.8979 37.361L59.9814 36.9405L59.5847 36.5449C59.1962 36.5699 58.812 36.6032 58.4277 36.6449C58.7243 36.9113 58.9958 37.157 59.1419 37.2944L59.1169 37.4234L59.1127 37.4193Z" fill="#8C6D3A"/>
<path d="M54.3251 77.9681C54.3251 77.9389 54.2959 77.9098 54.2667 77.9389C54.2667 77.9389 52.312 78.0888 51.769 78.0888C51.4391 77.6392 50.3573 76.0487 50.3573 76.0487C50.3281 76.0487 50.2989 76.0195 50.2989 76.0195C50.2696 76.0487 50.2404 76.0487 50.2404 76.0778L49.6348 78.4302C49.8561 78.5635 50.0775 78.6884 50.303 78.8133L50.5703 77.8265L50.5996 77.7974C50.6288 77.7974 50.658 77.7974 50.658 77.8265L51.0172 78.3053L51.4098 78.7842L52.6127 78.755C52.6127 78.755 52.642 78.755 52.642 78.7842C52.6712 78.7842 52.642 78.8133 52.642 78.8133C52.642 78.8133 52.6712 78.8424 52.642 78.8424L52.2201 79.4129L52.0238 79.6627C52.2828 79.7793 52.5501 79.8875 52.8132 79.9958L54.3251 77.9931V77.9639V77.9681Z" fill="#8C6D3A"/>
<path d="M52.3132 80.9448C52.3132 80.9642 52.3035 80.9836 52.284 81.0031H52.2255L51.954 80.8823L51.2022 80.5825L50.8096 80.8823L50.1789 81.3611L50.1497 81.3903C50.1497 81.3903 50.1497 81.3611 50.1205 81.3611L50.0912 81.332L50.1205 80.0413L49.1264 79.5C49.0972 79.5 49.0972 79.4709 49.0972 79.4709C49.0972 79.4417 49.0972 79.4126 49.1264 79.4126L49.4731 79.3043C49.1933 79.1419 48.9218 78.9754 48.6503 78.8047C47.9403 79.0045 47.1425 79.2377 47.1425 79.2544C47.123 79.2544 47.1133 79.2641 47.1133 79.2835V79.3418C47.1133 79.3418 48.8257 80.3327 49.3102 80.57C49.3102 80.899 49.3394 82.9683 49.3394 82.9683C49.3394 82.9974 49.3687 82.9974 49.3979 83.0266H49.4271L51.3233 81.5568L53.6706 82.5478C53.6999 82.5478 53.7291 82.5478 53.7291 82.5186C53.7583 82.5186 53.7583 82.4895 53.7291 82.4603C53.7291 82.4603 53.4326 81.7109 53.1569 81.028C52.8353 80.9115 52.522 80.7866 52.2088 80.6575L52.3174 80.9406L52.3132 80.9448Z" fill="#8C6D3A"/>
<path d="M52.8137 79.9991C52.5464 79.895 52.2832 79.7826 52.0243 79.666L51.8906 79.8367L52.0702 80.3155L52.2039 80.6611C52.5171 80.7902 52.8346 80.9151 53.152 81.0317C52.9933 80.632 52.8387 80.2531 52.7635 80.0657L52.8137 79.9991Z" fill="#8C6D3A"/>
<path d="M49.6987 79.2372L50.2417 79.0581L50.3085 78.8166C50.083 78.6917 49.8616 78.5668 49.6403 78.4336L49.611 78.5418C49.4189 78.596 49.0472 78.7001 48.6504 78.8125C48.9219 78.9832 49.1934 79.1497 49.4732 79.3121L49.6987 79.2413V79.2372Z" fill="#8C6D3A"/>
<path d="M72.6397 79.4163C72.669 79.4163 72.669 79.4454 72.669 79.4746V79.5037H72.6397L71.6457 80.045L71.6749 81.3357L71.6457 81.3648L71.6164 81.394C71.5872 81.394 71.5872 81.3648 71.5872 81.3648L70.5639 80.5862L69.9625 80.8277L69.5406 81.0068H69.4488V80.9485L69.5031 80.8027C69.1856 80.9277 68.864 81.0484 68.5424 81.1608C68.2793 81.8062 68.0078 82.4723 68.0078 82.4723C68.0078 82.5015 68.0078 82.5306 68.037 82.5306C68.037 82.5598 68.0663 82.5598 68.0955 82.5598L70.4428 81.5688L72.3056 83.0386H72.3641C72.3933 83.0386 72.3933 83.0094 72.3933 82.9803C72.3933 82.9803 72.4225 80.911 72.4225 80.5821C72.9028 80.3406 74.6195 79.3538 74.6195 79.3538C74.6487 79.3538 74.6487 79.3247 74.6487 79.2955C74.6487 79.2664 74.6487 79.2664 74.6195 79.2664C74.6195 79.2664 73.9554 79.0707 73.2955 78.875C73.024 79.0457 72.7525 79.2081 72.4727 79.3705L72.6314 79.4246L72.6397 79.4163Z" fill="#8C6D3A"/>
<path d="M71.5301 76.0817C71.5301 76.0526 71.5008 76.0526 71.4716 76.0234C71.4424 76.0234 71.4424 76.0526 71.4131 76.0526C71.4131 76.0526 70.3314 77.6431 70.0014 78.0927C69.4292 78.0636 67.5038 77.9429 67.5038 77.9429C67.4843 77.9429 67.4648 77.9526 67.4453 77.972V78.0303L68.9781 80.0704C68.9781 80.0704 68.9656 80.1038 68.9614 80.1204C69.2455 80.0122 69.5295 79.8997 69.8093 79.779L69.1327 78.8505V78.8214C69.1327 78.8214 69.1034 78.7922 69.1327 78.7922V78.7631H69.1619L70.3648 78.7922L71.1166 77.8346C71.1166 77.8055 71.1458 77.8055 71.1458 77.8055C71.1751 77.8055 71.2043 77.8346 71.2043 77.8346L71.3839 78.5549L71.505 78.9671C71.7473 78.838 71.9853 78.7006 72.2192 78.5632C72.2025 78.5591 72.1816 78.5507 72.1649 78.5466L71.5343 76.0901L71.5301 76.0817Z" fill="#8C6D3A"/>
<path d="M69.6331 80.4663L69.8419 79.8376L69.8001 79.7793C69.5203 79.9 69.2363 80.0125 68.9523 80.1207C68.8729 80.3414 68.71 80.7452 68.543 81.1574C68.8687 81.045 69.1862 80.9243 69.5036 80.7994L69.6289 80.4663H69.6331Z" fill="#8C6D3A"/>
<path d="M71.5 78.9586L71.5292 79.0585L72.3729 79.3291L72.4857 79.3666C72.7613 79.2084 73.037 79.0418 73.3085 78.8711C72.8783 78.7462 72.4565 78.6213 72.2226 78.5547C71.9845 78.6921 71.7506 78.8295 71.5084 78.9586H71.5Z" fill="#8C6D3A"/>
<path d="M41.5793 46.2292C41.5599 46.2292 41.5404 46.2194 41.5209 46.2V46.1417L42.2142 45.2424L41.642 44.1016C41.6225 44.0821 41.6225 44.0627 41.642 44.0433C41.642 44.0141 41.6712 44.0141 41.7005 44.0141L42.9618 44.3139L43.6844 43.4437C43.7136 43.4437 43.7429 43.4146 43.7429 43.4437C43.7721 43.4437 43.8013 43.4729 43.8013 43.4729L43.8514 44.1474C44.0812 43.8934 44.3151 43.6477 44.5531 43.4021L44.432 41.695C44.432 41.6659 44.4028 41.6367 44.3735 41.6367C44.3735 41.6367 44.3443 41.6367 44.3443 41.6659C44.3443 41.6659 43.0203 43.1065 42.6611 43.5228L40.3472 43.0149H40.2888C40.2888 43.044 40.2595 43.0732 40.2888 43.0732C40.2888 43.0732 41.0406 44.7511 41.2828 45.2632C40.9821 45.7129 39.8711 47.3325 39.8711 47.3325V47.3908H39.9296C39.9296 47.3908 40.8443 47.2367 41.596 47.1202C41.8049 46.7954 42.0221 46.4748 42.2434 46.1625L41.5835 46.2292H41.5793Z" fill="#8C6D3A"/>
<path d="M44.0728 48.919H44.102C44.102 48.919 44.1312 48.919 44.1312 48.8899C44.1312 48.8899 44.4612 46.9996 44.5823 46.4625C45.0919 46.2543 46.8962 45.534 46.8962 45.534C46.9254 45.534 46.9547 45.5049 46.9547 45.4757L46.9254 45.4466L44.8079 44.3516C44.6408 44.5306 44.4779 44.7096 44.315 44.897L45 45.2467C45.0292 45.2467 45.0292 45.2759 45.0292 45.305C45.0292 45.3342 45.0292 45.3342 45 45.3342L43.889 45.8421L43.6467 47.0412C43.6467 47.0704 43.6175 47.0704 43.6175 47.0704H43.559L43.0495 46.4708C42.8824 46.6998 42.7154 46.933 42.5566 47.1703L44.0394 48.9232H44.0686L44.0728 48.919Z" fill="#8C6D3A"/>
<path d="M43.8933 44.6722L44.3193 44.8929C44.4822 44.7097 44.6451 44.5265 44.8122 44.3475L44.6117 44.2434L44.5532 43.4023C44.3152 43.6438 44.0813 43.8936 43.8516 44.1476L43.8892 44.6722H43.8933Z" fill="#8C6D3A"/>
<path d="M42.5608 47.1708C42.7195 46.9335 42.8866 46.7003 43.0536 46.4714L42.7487 46.1133L42.2392 46.1674C42.0136 46.4797 41.8006 46.8003 41.5918 47.125C41.9385 47.0709 42.2475 47.0251 42.4188 47.0085L42.5608 47.175V47.1708Z" fill="#8C6D3A"/>
<path d="M38.6925 66.3465L38.6633 66.3757C38.634 66.3757 38.6048 66.3465 38.6048 66.3174L38.3333 65.239L37.072 64.9684C37.0427 64.9684 37.0427 64.9392 37.0135 64.9101C37.0135 64.9101 37.0135 64.881 37.0427 64.8518L38.066 64.0732L37.8237 62.9657C37.8237 62.9366 37.853 62.9366 37.853 62.9074H37.9449L38.2832 63.1322C38.2331 62.8158 38.1913 62.4994 38.1537 62.1788C37.5606 61.7666 36.9216 61.3086 36.9216 61.3086H36.8297V61.3669C36.8297 61.3669 37.1012 63.2863 37.1889 63.8234L35.3261 65.3223C35.2969 65.3223 35.2969 65.3514 35.2969 65.3806C35.2969 65.4097 35.3261 65.4097 35.3261 65.4097C35.3261 65.4097 37.1304 65.8594 37.6734 65.9801C37.8237 66.5214 38.4252 68.3784 38.4252 68.3784C38.4252 68.3978 38.4349 68.4075 38.4544 68.4075C38.4837 68.4075 38.5129 68.4075 38.5129 68.3784C38.5129 68.3784 38.9139 67.6497 39.273 67.0169C39.1519 66.6713 39.0392 66.3174 38.9306 65.9635L38.6925 66.3465Z" fill="#8C6D3A"/>
<path d="M42.3303 66.0986V66.007C42.3303 66.007 41.0356 64.5997 40.6764 64.1792C40.8267 63.6379 41.3697 61.7809 41.3697 61.7809C41.3697 61.7809 41.3697 61.7518 41.3405 61.7518C41.3405 61.7227 41.3112 61.7227 41.282 61.7227L39.0684 62.7094C39.1059 62.9551 39.1519 63.2007 39.1937 63.4422L40.0749 63.0467C40.0749 63.0175 40.1042 63.0467 40.1334 63.0467V63.105L39.8327 64.2749L40.6137 65.2034C40.6332 65.2228 40.6332 65.2423 40.6137 65.2617C40.5942 65.2811 40.5845 65.2909 40.5845 65.2909L39.6197 65.3158C39.699 65.6073 39.7826 65.8946 39.8745 66.1819L42.2969 66.1236L42.3261 66.0944L42.3303 66.0986Z" fill="#8C6D3A"/>
<path d="M38.9297 63.5583L39.1887 63.4418C39.1428 63.1961 39.101 62.9546 39.0634 62.709L38.9882 62.7423C38.8128 62.634 38.487 62.4092 38.1445 62.1719C38.1821 62.4925 38.2239 62.8089 38.274 63.1253L38.9256 63.5583H38.9297Z" fill="#8C6D3A"/>
<path d="M39.8778 66.1844C39.7859 65.8971 39.7024 65.6098 39.623 65.3184L39.3223 65.3267L38.9297 65.9595C39.0341 66.3135 39.1469 66.6632 39.2722 67.0129C39.4685 66.6674 39.6481 66.3468 39.7441 66.1885H39.8778V66.1844Z" fill="#8C6D3A"/>
<path d="M77.9363 43.8728L77.9656 43.4731L77.9948 43.444C78.024 43.4148 78.0533 43.444 78.0533 43.444L78.8051 44.3142L80.0664 44.0144C80.0956 44.0144 80.1249 44.0144 80.1249 44.0435C80.1444 44.063 80.1444 44.0824 80.1249 44.1018L79.5527 45.2426L80.246 46.142V46.2003C80.2265 46.2197 80.207 46.2294 80.1875 46.2294L79.8158 46.1919C80.0414 46.5125 80.2627 46.8373 80.4715 47.1662C81.1482 47.2745 81.8415 47.3911 81.8415 47.3911H81.9V47.3328C81.9 47.3328 80.789 45.684 80.4548 45.2635C80.7263 44.7555 81.4781 43.0734 81.4781 43.0734V43.0151H81.4197L79.1058 43.5231C78.7466 43.1026 77.4226 41.6328 77.4226 41.6328H77.3641C77.3641 41.6328 77.3349 41.662 77.3349 41.6911L77.2305 43.14C77.4727 43.3774 77.7066 43.623 77.9363 43.8687V43.8728Z" fill="#8C6D3A"/>
<path d="M74.8086 45.4721C74.8086 45.5013 74.8378 45.5304 74.8671 45.5304C74.8671 45.5304 76.6714 46.2507 77.1809 46.4589C77.3021 47.0002 77.632 48.8863 77.632 48.8863C77.632 48.9057 77.6418 48.9154 77.6612 48.9154H77.7197L79.3444 46.996C79.3444 46.996 79.3611 46.996 79.3695 46.996C79.2066 46.7545 79.0354 46.5172 78.8599 46.284L78.2 47.0626H78.1416C78.1221 47.0626 78.1123 47.0529 78.1123 47.0335L77.8701 45.8344L76.7591 45.3264C76.7396 45.3264 76.7299 45.3167 76.7299 45.2973C76.7299 45.2681 76.7299 45.239 76.7591 45.239L77.6404 44.7893C77.4775 44.6061 77.3104 44.4271 77.1433 44.248L74.8378 45.443L74.8086 45.4721Z" fill="#8C6D3A"/>
<path d="M79.0178 46.1116L78.8633 46.2906C79.0387 46.5238 79.2058 46.7611 79.3728 47.0026C79.5984 47.0276 80.0327 47.0942 80.4755 47.165C80.2666 46.8361 80.0453 46.5113 79.8197 46.1907L79.0178 46.1074V46.1116Z" fill="#8C6D3A"/>
<path d="M77.1428 44.252C77.3099 44.4311 77.477 44.6101 77.6399 44.7933L77.8738 44.6726L77.9322 43.8732C77.7025 43.6233 77.4686 43.3819 77.2264 43.1445L77.147 44.2437H77.1387L77.1428 44.252Z" fill="#8C6D3A"/>
<path d="M81.1229 65.2659V65.2076L81.9332 64.2791L81.6325 63.1091C81.6032 63.08 81.6325 63.0508 81.6325 63.0508C81.6617 63.0508 81.6617 63.0217 81.6909 63.0508L82.8186 63.5546C82.8771 63.2424 82.9314 62.9259 82.9773 62.6095C82.898 62.6636 82.827 62.7094 82.7727 62.7427L80.4588 61.7227H80.4296C80.4004 61.7518 80.4004 61.7809 80.4004 61.7809C80.4004 61.8101 80.9433 63.6379 81.0603 64.1792C80.7011 64.5997 79.4355 66.007 79.4355 66.007V66.0986C79.4355 66.0986 79.4648 66.1277 79.494 66.1277L81.9917 66.186C82.0209 66.2277 82.0585 66.2901 82.0961 66.3526C82.2088 66.0112 82.3133 65.6697 82.4051 65.3242L81.1772 65.295C81.148 65.295 81.1187 65.295 81.1187 65.2659H81.1229Z" fill="#8C6D3A"/>
<path d="M86.4434 65.3184L84.5806 63.8195C84.6725 63.2782 84.9398 61.363 84.9398 61.363C84.9398 61.3338 84.9398 61.3047 84.9106 61.3047H84.8521C84.8521 61.3047 84.4052 61.6253 83.9123 61.9709C83.8789 62.2915 83.8372 62.6121 83.7912 62.9285L83.833 62.8993H83.9249V62.9576L83.716 64.0651L84.7393 64.8437C84.7393 64.8729 84.7686 64.902 84.7686 64.902C84.7393 64.9312 84.7393 64.9603 84.7101 64.9603L83.4487 65.231L83.1772 66.3093C83.1772 66.3385 83.148 66.3676 83.1188 66.3676L83.0895 66.3385L83.0311 66.2469C82.9183 66.6049 82.8014 66.9588 82.6719 67.3086C82.9809 67.854 83.2691 68.3703 83.2691 68.3703C83.2691 68.3994 83.2984 68.3994 83.3276 68.3994C83.3276 68.3994 83.3568 68.3994 83.3568 68.3703C83.3568 68.3703 83.9583 66.5133 84.0794 65.9721C84.6516 65.8513 86.4267 65.4017 86.4559 65.4017C86.4559 65.4017 86.4852 65.4017 86.4852 65.3725C86.4852 65.3434 86.4852 65.3142 86.4559 65.3142L86.4434 65.3184Z" fill="#8C6D3A"/>
<path d="M82.8225 63.5529H82.8351L83.7873 62.9283C83.8375 62.6119 83.8751 62.2913 83.9085 61.9707C83.5785 62.2039 83.2277 62.4454 82.9771 62.6119C82.9311 62.9283 82.8768 63.2448 82.8184 63.557L82.8225 63.5529Z" fill="#8C6D3A"/>
<path d="M82.448 65.3264H82.4145C82.3185 65.672 82.2141 66.0176 82.1055 66.3548C82.2517 66.5963 82.4647 66.9586 82.6651 67.3125C82.7946 66.9627 82.9116 66.6088 83.0243 66.2507L82.448 65.3223V65.3264Z" fill="#8C6D3A"/>
<path d="M99.358 123.684C99.809 124.941 99.7172 125.84 99.358 126.382C98.9654 126.981 98.1843 127.16 97.4952 126.981C96.6765 126.785 96.5011 125.503 96.5345 124.279C96.2631 124.42 95.9874 124.558 95.7159 124.695C95.7786 125.012 95.8537 125.291 95.9623 125.511C96.0208 125.632 96.0835 125.782 96.1419 125.903C96.3842 126.652 96.3842 127.281 96.1419 127.672C95.9331 127.972 95.5405 128.151 94.9975 128.093C94.6049 128.064 94.3376 127.735 94.1539 127.252C93.9701 126.81 93.8573 126.236 93.7821 125.645C93.5441 125.757 93.3102 125.869 93.0721 125.982C93.4062 127.11 93.5441 128.251 92.8006 128.78C92.4999 128.959 92.0781 129.08 91.5059 129.05H91.3555C90.7541 129.009 90.6371 128.184 90.5828 127.106C90.3197 127.223 90.0524 127.335 89.7851 127.447C89.7725 127.714 89.7851 128.034 89.9104 128.513C90.1819 129.654 90.7833 130.041 91.4724 130.041C91.4432 130.462 91.3221 130.882 91.5017 130.999C91.5602 131.028 91.652 131.028 91.7439 130.97C92.195 130.728 92.525 130.491 92.7964 130.191C92.976 129.983 93.0972 129.742 93.1556 129.442C93.2475 129.413 93.306 129.35 93.3645 129.292C93.5441 129.171 93.6944 128.992 93.7863 128.784C93.9074 128.876 94.0286 128.934 94.1455 128.992C94.2666 129.05 94.417 129.084 94.5381 129.113C94.417 129.804 93.9367 130.553 94.6592 130.22C95.3526 129.771 95.7117 129.413 95.8913 128.992C95.9832 128.963 96.0417 128.934 96.1336 128.871C96.4343 128.663 96.7058 128.33 96.7935 127.914C96.9146 127.972 97.0357 128.005 97.1861 128.034C97.1569 128.726 97.0942 129.175 97.6372 128.963C98.1467 128.755 98.5393 128.363 98.7482 127.914C98.957 127.793 99.17 127.672 99.3496 127.522C99.8592 127.102 100.281 126.473 100.402 125.695C100.598 124.404 99.7422 123.767 99.7339 122.547C99.5376 122.659 99.3413 122.768 99.1408 122.88C99.1742 123.096 99.2201 123.296 99.287 123.48C99.3162 123.538 99.3162 123.6 99.3454 123.688L99.358 123.684Z" fill="#8C6D3A"/>
<path d="M89.9144 122.992C89.7307 122.159 89.1167 124.608 88.0684 125.619C88.8536 125.29 89.6304 124.949 90.4031 124.599C90.3154 124.016 90.1692 123.458 89.9144 122.992Z" fill="#8C6D3A"/>
<path d="M34.4609 125.81C33.9179 125.602 33.4668 124.969 33.1076 124.34C32.5647 123.383 32.2347 122.421 32.0844 122.991C31.8296 123.453 31.6834 124.011 31.5957 124.59C32.4812 124.994 33.375 125.381 34.2771 125.756C34.3565 125.781 34.4191 125.802 34.4609 125.806V125.81Z" fill="#8C6D3A"/>
<path d="M28.3594 122.963C28.3594 122.983 28.3594 123.008 28.3594 123.033C28.5097 123.108 28.6643 123.187 28.8146 123.262C28.5807 122.717 28.3594 122.284 28.3594 122.963Z" fill="#8C6D3A"/>
<path d="M93.1973 123.267C93.3476 123.192 93.498 123.117 93.6442 123.042C93.6442 123.013 93.6442 122.984 93.6442 122.963C93.6442 122.285 93.4312 122.722 93.2014 123.267H93.1973Z" fill="#8C6D3A"/>
<path d="M21.6215 125.689C21.7426 126.468 22.131 127.097 22.6448 127.517C22.8244 127.667 23.0374 127.788 23.2462 127.875C23.455 128.354 23.8477 128.746 24.3572 128.954C24.9002 129.162 24.8375 128.712 24.8375 128.025C24.9586 127.996 25.0798 127.967 25.1967 127.904C25.3178 128.325 25.5559 128.625 25.8566 128.862C25.9485 128.92 26.007 128.954 26.0989 128.983C26.3077 129.403 26.6418 129.761 27.3602 130.211C28.0535 130.54 27.569 129.791 27.4521 129.104C27.6943 129.045 27.9617 128.925 28.2331 128.775C28.325 128.983 28.442 129.166 28.6257 129.283C28.6842 129.341 28.7761 129.403 28.8346 129.433C28.893 129.732 29.0142 129.974 29.2272 130.182C29.4694 130.482 29.7994 130.723 30.2505 130.961C30.76 131.14 30.5512 130.569 30.5219 130.032C31.2153 130.032 31.8167 129.641 32.1174 128.504C32.2344 128.021 32.2385 127.696 32.2093 127.43C31.9462 127.317 31.6789 127.205 31.4157 127.088C31.3614 128.175 31.2445 129.004 30.6431 129.045C29.9832 129.074 29.5321 128.987 29.2314 128.775C28.4629 128.25 28.6174 127.093 28.9515 125.977C28.7093 125.864 28.4712 125.748 28.229 125.635C28.0786 126.855 27.7486 128.025 27.0344 128.088C26.4622 128.146 26.0738 127.967 25.8608 127.638C25.6186 127.247 25.6186 126.647 25.8608 125.96C25.9193 125.81 25.9819 125.66 26.0696 125.51C26.174 125.29 26.2492 125.011 26.3077 124.69C26.0279 124.549 25.7439 124.403 25.4682 124.261C25.5016 125.49 25.3262 126.784 24.5076 126.98C23.8142 127.159 23.0332 126.98 22.6448 126.351C22.2856 125.81 22.1937 124.944 22.6448 123.712C22.674 123.62 22.674 123.533 22.7367 123.47C22.8035 123.291 22.8453 123.087 22.8745 122.867C22.674 122.754 22.4735 122.642 22.2731 122.529C22.2814 123.758 21.4043 124.395 21.6257 125.685L21.6215 125.689Z" fill="#8C6D3A"/>
<path d="M120.529 86.6895C121.101 86.8977 121.611 87.0809 122.004 87.2308C120.408 84.8325 120.529 80.9646 120.529 80.0361V70.7721C121.101 70.9803 121.611 71.1635 122.004 71.3133C120.408 68.9443 120.529 65.0471 120.529 64.1478V42.5346C120.529 40.1655 119.084 36.4474 116.862 32.8209C115.15 30.0646 113.011 27.3333 110.668 25.2973C108.772 23.6194 106.73 22.4203 104.775 22.0289C104.382 21.9373 103.994 21.9082 103.631 21.9082C102.277 21.879 100.832 22.2995 99.362 22.9574C98.3095 23.4362 97.257 24.0066 96.146 24.6062C95.4861 24.9351 94.822 25.264 94.1621 25.5971C93.711 25.8386 93.2599 26.0468 92.8088 26.255C92.387 26.434 91.9359 26.613 91.5141 26.7629C89.1083 27.6914 86.523 28.1702 83.7873 27.4832C81.2604 26.8254 79.218 24.094 77.5641 20.7673C76.9334 19.5099 76.3319 18.1609 75.6679 16.7786C74.465 14.2014 73.1702 11.5325 71.4578 9.01352C70.6475 7.8144 69.7746 6.67358 68.7513 5.59521C68.1206 4.93736 67.4566 4.27535 66.7048 3.64665C66.0741 3.10538 65.3515 2.59742 64.629 2.11861C63.4261 1.34002 62.194 0.79875 61.0203 0.469827C59.0657 -0.0714403 57.111 -0.100585 55.3067 0.140903C54.5841 0.232502 53.895 0.382391 53.2601 0.532281C52.2661 0.773769 51.3639 1.10269 50.5537 1.43162C48.4194 2.27266 46.9158 3.28858 46.5232 3.62167C46.4313 3.71326 46.3144 3.82985 46.2225 3.95059C45.3203 4.97067 44.1174 6.94838 43.4241 7.30644C40.9599 8.59716 40.538 10.7539 40.538 11.5616C40.538 12.3694 40.7469 14.3804 42.2505 15.517C42.0416 14.5261 41.979 13.989 42.192 13.5102C43.0649 13.6601 44.84 13.989 46.2225 13.7184C46.4021 13.6601 46.5817 13.5976 46.7654 13.5393C47.4588 14.2305 49.1127 15.5462 49.8311 16.8952C50.161 17.553 50.4033 18.0027 50.5537 18.3649C50.8251 19.0228 50.8251 19.3226 50.8251 19.8055C50.8251 20.4051 50.7333 21.063 50.5537 21.7541C50.1026 23.3113 49.0793 25.0225 47.1873 26.2508C46.9158 26.459 46.5858 26.6713 46.2266 26.8503C43.5494 28.1993 38.8883 28.8905 33.1161 27.6914C31.884 27.4208 30.56 27.0627 29.236 26.613C29.1441 26.613 29.0857 26.5839 28.9938 26.5547C27.7909 26.1342 26.7969 25.6262 25.8655 25.085C24.6918 24.3938 23.6685 23.6777 22.6494 23.0781C21.3547 22.3578 20.0641 21.8499 18.3809 21.9082C18.0802 21.9082 17.7795 21.9373 17.4787 21.9998C15.4322 22.3287 13.3606 23.5278 11.3725 25.239C9.0252 27.3083 6.8617 30.0355 5.14927 32.8251C2.92312 36.4516 1.48217 40.1697 1.48217 42.5388V64.152C1.48217 65.0513 1.60329 68.9484 0.0078125 71.3175C0.400418 71.1676 0.909969 70.9886 1.48217 70.7762V80.0402C1.48217 80.9687 1.60329 84.8367 0.0078125 87.2349C0.400418 87.085 0.909969 86.906 1.48217 86.6937V98.5932C1.48217 99.4925 1.60329 103.39 0.0078125 105.788C0.400418 105.638 0.909969 105.488 1.48217 105.247V129.229C1.48217 129.92 1.54064 132.285 0.909969 134.417C0.667724 135.137 1.18145 136.007 1.93325 135.707C2.92729 135.316 4.06752 134.808 5.14927 134.059C7.46314 132.502 9.53893 129.92 9.53893 125.336V121.56C10.1404 121.289 10.771 120.989 11.3725 120.569C13.0557 119.49 14.6804 117.721 15.2818 114.665C16.0044 114.307 16.7562 113.857 17.4787 113.345C19.2538 111.996 20.7867 109.989 21.2377 106.841C21.718 106.571 22.1691 106.271 22.6494 105.913C24.0027 104.864 25.2056 103.423 25.8655 101.387C26.2247 100.309 26.4377 99.1095 26.4377 97.7313C27.6405 96.832 28.5719 95.8411 29.236 94.8834C29.8082 94.0133 30.1674 93.2055 30.2885 92.4852C30.4681 91.436 30.6185 88.9462 30.6477 86.0691C31.6418 85.3488 32.4813 84.5702 33.112 83.7916C33.5338 83.2837 33.8638 82.8007 34.1352 82.3219C34.0141 85.1115 33.6842 88.3175 33.112 92.0938C32.3894 96.7113 31.3076 102.136 29.6829 108.523C30.1925 108.523 30.8858 108.432 31.6084 108.253C31.3369 109.872 30.2844 113.049 29.2318 115.689C28.7515 116.859 28.2712 117.908 27.8786 118.687C27.699 118.687 27.486 118.687 27.2772 118.716C26.8553 118.807 26.5254 119.224 26.3165 119.736C26.1662 119.528 26.0451 119.286 25.8655 119.078C25.3225 118.27 24.5707 117.488 23.1882 117.908C22.9794 118 22.7956 118.087 22.6453 118.208C22.1733 118.549 21.9645 119.061 21.8935 119.599C21.9603 119.557 22.0062 119.528 22.0146 119.524C22.0731 119.582 22.1065 119.582 22.165 119.615C22.3988 119.757 22.6327 119.894 22.8666 120.036C22.8708 119.365 22.9627 118.866 23.3386 118.782C24.4496 118.512 25.4144 119.982 25.8655 121.21C25.8947 121.331 25.9574 121.418 25.9866 121.51C26.0116 121.61 26.0284 121.722 26.0409 121.834C26.2121 121.926 26.3792 122.018 26.5504 122.109C26.6298 120.881 26.7426 119.832 27.2229 119.803C28.125 119.744 28.8184 120.523 29.236 121.422C29.2653 121.514 29.2945 121.601 29.3279 121.664C29.3571 122.113 29.449 122.563 29.3571 123.312C29.3488 123.383 29.3321 123.458 29.3154 123.529C29.4574 123.6 29.5952 123.666 29.7372 123.733C29.7748 123.6 29.7999 123.487 29.8082 123.4C29.9878 121.901 29.8375 119.682 31.3118 120.131C31.884 120.311 32.5147 121.21 33.1161 122.288C33.9264 123.666 34.649 125.378 35.1293 126.094C35.1376 126.102 35.1502 126.119 35.1669 126.131C35.8477 126.406 36.5326 126.668 37.2218 126.922C37.2218 126.914 37.2301 126.91 37.2343 126.901C35.4885 125.161 34.436 122.434 34.2564 121.535C33.9849 120.306 34.0768 119.707 34.4652 118.778C34.8244 117.908 36.9628 114.132 37.8316 112.304C38.0738 113.053 38.3119 113.711 38.433 114.282C38.7045 110.593 42.5846 103.848 46.2225 99.4134C46.4647 99.0845 46.7028 98.7847 46.9743 98.4849C46.7654 99.1761 46.4939 100.013 46.2225 100.941C44.627 106.129 42.2546 114.311 41.5321 116.888C40.8095 119.345 39.1263 121.955 38.7337 122.342C40.1789 122.913 42.8519 123.333 44.7481 122.584C44.4766 123.575 44.5059 124.441 45.3203 125.282C45.5626 125.523 45.8633 125.702 46.2225 125.881C47.4838 126.481 49.4093 126.539 50.5537 124.832C50.5829 124.774 50.6455 124.711 50.6748 124.653C51.1259 126.273 52.1199 127.201 53.2601 127.559C53.92 127.767 54.6134 127.768 55.3067 127.588C56.3007 127.318 57.2614 126.66 57.8628 125.669C58.6146 127.976 60.1474 128.275 61.0203 129.175C61.864 128.275 63.3969 127.976 64.1487 125.669C64.7501 126.66 65.7107 127.318 66.7048 127.588C67.3981 127.768 68.1165 127.767 68.7513 127.559C69.8957 127.201 70.8856 126.269 71.3367 124.653C71.3659 124.711 71.4286 124.774 71.4578 124.832C72.5395 126.481 74.4065 126.481 75.6679 125.94C76.0897 125.761 76.4489 125.519 76.6911 125.282C77.5348 124.441 77.5348 123.541 77.2633 122.584C79.1595 123.333 81.8326 122.913 83.2777 122.342C82.8851 121.951 81.2019 119.345 80.4794 116.888C79.7276 114.248 77.2299 105.617 75.6679 100.492C75.4256 99.7424 75.246 99.0512 75.0664 98.4849C75.246 98.7264 75.459 98.9638 75.6679 99.2344C79.335 103.673 83.307 110.568 83.5784 114.282C83.6996 113.711 83.9376 113.053 84.1799 112.304C85.082 114.132 87.1871 117.908 87.5463 118.778C87.9389 119.707 88.0266 120.306 87.7551 121.535C87.5755 122.426 86.7777 125.078 85.0695 126.818C85.6835 126.589 86.2974 126.352 86.9072 126.11C87.7843 124.603 89.4341 120.531 90.6996 120.127C91.0588 120.007 91.3303 120.069 91.5099 120.219C92.1406 120.698 92.0821 122.259 92.2032 123.396C92.2116 123.487 92.2366 123.604 92.2784 123.733C92.4246 123.662 92.5708 123.591 92.717 123.516C92.7044 123.446 92.6961 123.375 92.6835 123.304C92.5624 122.555 92.6543 122.105 92.6835 121.655C92.7128 121.597 92.742 121.505 92.8047 121.414C93.1054 120.756 93.5565 120.123 94.1579 119.886C94.3667 119.828 94.5797 119.765 94.7886 119.794C95.2814 119.823 95.3942 120.873 95.4735 122.105C95.6364 122.018 95.8035 121.93 95.9664 121.839C95.9873 121.743 96.0123 121.635 96.0499 121.501C96.0499 121.41 96.0792 121.322 96.1418 121.231C96.5636 120.002 97.5535 118.504 98.6687 118.774C99.0446 118.857 99.1365 119.365 99.1406 120.04C99.3829 119.894 99.6293 119.753 99.8716 119.607C99.93 119.578 99.9634 119.578 100.022 119.515C100.03 119.519 100.072 119.549 100.135 119.59C100.064 119.041 99.8465 118.52 99.3578 118.175C99.2075 118.083 99.0279 117.966 98.8149 117.904C97.4324 117.454 96.6806 118.262 96.1376 119.074C95.958 119.315 95.8369 119.524 95.6866 119.732C95.4777 119.224 95.1436 118.803 94.7259 118.712C94.5171 118.683 94.3333 118.683 94.1537 118.683C93.7319 117.904 93.2516 116.855 92.8005 115.685C92.3494 114.577 91.8983 113.378 91.5057 112.237C90.9962 110.647 90.5743 109.181 90.3947 108.249C90.7873 108.34 91.1758 108.398 91.5057 108.457C91.8064 108.515 92.0779 108.515 92.316 108.515C92.0445 107.374 91.773 106.267 91.5057 105.188C89.1584 95.2956 88.1059 87.9219 87.8679 82.3136C88.5612 83.5418 89.7014 84.8617 91.3261 86.0608C91.3554 87.8303 91.418 89.45 91.5057 90.6782C91.5642 91.4568 91.6268 92.0564 91.6853 92.4769C91.8357 93.1972 92.1949 94.0341 92.7963 94.9043C93.1555 95.4122 93.6066 95.9826 94.1495 96.4947C94.5714 96.9153 95.0517 97.3358 95.5613 97.723C95.5613 99.1012 95.7701 100.3 96.1335 101.349C96.7934 103.419 97.9962 104.855 99.3495 105.904C99.8006 106.263 100.281 106.562 100.732 106.833C101.212 110.101 102.866 112.137 104.762 113.486C105.393 113.936 106.057 114.327 106.688 114.656C107.348 117.746 108.972 119.511 110.656 120.623C111.257 120.981 111.888 121.314 112.46 121.551V125.328C112.46 129.883 114.536 132.464 116.85 134.05C117.902 134.771 118.984 135.279 119.978 135.67C120.759 135.97 121.423 135.37 121.21 134.8C120.458 132.551 120.517 129.945 120.517 129.225V105.272C121.089 105.48 121.598 105.63 121.991 105.78C120.396 103.381 120.517 99.4842 120.517 98.5849V86.6853L120.529 86.6895ZM47.2708 12.4318C47.0912 12.4901 46.6986 12.5817 46.2183 12.64C45.195 12.819 43.8418 12.9398 43.6037 12.7316C44.2051 12.4027 44.627 12.2236 45.8006 11.4742C45.951 11.4742 46.0721 11.5033 46.2225 11.5325C46.945 11.7115 47.6968 12.1903 48.8078 12.8524C48.056 12.5526 47.9975 12.3111 47.275 12.4318H47.2708ZM7.51743 108.782V115.527C7.51743 116.397 7.42555 118.853 7.42555 121.701H7.39631V126.227C7.39631 127.967 6.40227 129.583 5.14092 130.782C4.33065 131.561 3.45773 132.131 2.67669 132.46C3.0693 131.981 3.48696 130.57 3.48696 128.534V104.372C4.02993 104.102 4.59795 103.773 5.14092 103.415C5.83424 102.936 6.52339 102.336 7.15406 101.645C7.27519 101.587 7.39631 101.554 7.54667 101.495C7.51743 105.272 7.51743 108.211 7.51743 108.782ZM7.51743 88.1259C7.51743 89.2334 7.39631 94.9001 7.39631 95.5913C7.39631 97.3899 6.40227 99.0096 5.14092 100.18C4.33065 100.929 3.45773 101.499 2.67669 101.828C3.0693 101.35 3.48696 99.938 3.48696 97.902V85.8193C4.02993 85.5487 4.59795 85.2197 5.14092 84.8617C5.65047 84.5036 6.1642 84.0831 6.64451 83.6334C6.94523 83.5127 7.30442 83.3919 7.66779 83.242C7.54667 84.7992 7.51743 86.8977 7.51743 88.1301V88.1259ZM2.67669 83.3003C3.0693 82.7924 3.48696 81.4101 3.48696 79.3449V69.931C4.02993 69.6604 4.59795 69.3315 5.14092 68.9734C5.65047 68.6153 6.1642 68.1948 6.64451 67.716C6.94523 67.6244 7.24595 67.5078 7.60514 67.3579C7.54667 68.1365 7.51326 68.9776 7.51326 69.9352V75.7517C7.51326 78.4206 6.46074 80.34 5.13674 81.6557C4.35571 82.4052 3.48279 82.9464 2.67252 83.3045L2.67669 83.3003ZM9.47211 66.5419C10.1028 66.2421 10.7669 65.884 11.3683 65.4344C11.9405 65.043 12.4793 64.5933 12.9638 64.0562C13.1726 63.9979 13.4149 63.9063 13.6237 63.8147C13.5945 64.5642 13.5318 65.4344 13.5318 66.4836V72.3584C13.5318 74.9065 12.6004 76.7635 11.3683 78.0542C10.6457 78.8328 9.80624 79.3741 8.99179 79.7613C9.35098 78.7121 9.53476 77.5421 9.53476 76.1639V70.3765C9.53476 69.0858 9.47628 67.7993 9.47628 66.5377L9.47211 66.5419ZM13.5318 105.334V111.238C13.5318 113.815 12.5378 115.706 11.3683 116.934C10.6165 117.742 9.80624 118.312 9.14215 118.583C9.53475 118.104 9.53476 116.905 9.53476 114.835V109.26C9.53476 108.602 9.50552 105.093 9.50552 100.717C10.107 100.446 10.7669 100.117 11.3683 99.7257C12.1786 99.1844 12.9638 98.4974 13.6237 97.6272C13.5652 100.504 13.5318 104.281 13.5318 105.33V105.334ZM13.5318 84.6493V90.5533C13.5318 93.0431 12.5712 94.9917 11.3683 96.3074C10.6457 97.086 9.83547 97.6564 9.11291 97.9853C9.3844 97.0277 9.53476 95.9452 9.53476 94.6878V88.5714C9.53476 87.1308 9.44287 84.4328 9.50552 82.4551C10.107 82.1553 10.7669 81.764 11.3683 81.3476C11.9405 80.9562 12.4793 80.4774 12.9638 79.9695C13.1726 79.8779 13.4149 79.7904 13.6571 79.6988C13.5986 81.3767 13.536 83.5959 13.536 84.6452L13.5318 84.6493ZM15.1273 76.1348C15.428 75.1439 15.5784 74.0363 15.5784 72.7789V62.9445C16.209 62.6156 16.8397 62.2242 17.4746 61.7454C17.5038 61.7163 17.5665 61.6871 17.5957 61.6538C18.2264 61.5039 18.7986 61.2957 19.3415 61.1125V68.9068C19.3415 71.2467 18.5605 72.9829 17.4787 74.2737C16.7562 75.0814 15.9459 75.681 15.1315 76.1306L15.1273 76.1348ZM19.3374 99.1886V104.555C19.3374 106.895 18.5563 108.661 17.4746 109.922C16.9024 110.614 16.2425 111.121 15.5784 111.542V95.1124C16.209 94.7835 16.8397 94.3921 17.4746 93.9133C18.1679 93.4054 18.8278 92.7725 19.4 92.0231C19.3708 94.1215 19.3415 97.6272 19.3415 99.1886H19.3374ZM19.3374 79.7946V85.1323C19.3374 87.5014 18.5563 89.2709 17.4746 90.5283C16.8731 91.2195 16.2132 91.7566 15.5199 92.1771C15.5491 91.7857 15.5784 91.3985 15.5784 90.978V78.837C16.209 78.508 16.8397 78.1167 17.4746 77.667C17.5957 77.5754 17.7168 77.488 17.8045 77.3672C18.2848 77.2173 18.8278 77.0091 19.4 76.7677C19.4 77.7586 19.3415 77.7586 19.3415 79.7946H19.3374ZM24.3869 91.8149V97.2109C24.3869 99.4884 23.6644 101.2 22.6411 102.457C22.2485 102.936 21.7974 103.356 21.3463 103.685V97.061C21.3463 96.3698 21.3463 92.4144 21.4382 90.1369C21.8308 89.8955 22.2485 89.629 22.6411 89.3292C23.2718 88.8213 23.9024 88.2217 24.4454 87.5014C24.4162 88.942 24.3869 90.8281 24.3869 91.819V91.8149ZM21.2586 87.1974C21.3171 86.6562 21.3505 86.1482 21.3505 85.5778V77.6628C21.3505 77.0633 21.3505 76.4054 21.409 75.7434C21.8308 75.5019 22.2192 75.2354 22.6411 74.9024C22.971 74.6317 23.301 74.3611 23.6351 74.0322C23.9066 73.9114 24.1447 73.7615 24.4162 73.6117C24.3869 74.0905 24.3869 74.6317 24.3869 75.2313V80.5982C24.3869 82.8756 23.6644 84.616 22.6411 85.8734C22.2192 86.3814 21.7389 86.8019 21.2586 87.1933V87.1974ZM24.3869 60.8794V66.2463C24.3869 68.5237 23.6644 70.2017 22.6411 71.4924C22.0689 72.1502 21.4382 72.7206 20.7783 73.1412C21.1375 72.0336 21.3505 70.7721 21.3505 69.3356V61.4207C21.3505 61.0001 21.3505 60.5505 21.3797 60.1008C21.8308 59.8302 22.2527 59.5304 22.6411 59.2306C23.0922 58.8392 23.514 58.452 23.8732 58.0315C24.082 57.9107 24.295 57.8233 24.5039 57.7026C24.412 58.4812 24.3828 59.5012 24.3828 60.8794H24.3869ZM26.4043 72.3584C27.6071 71.4299 28.5678 70.439 29.2318 69.5105C29.3822 69.3023 29.5033 69.09 29.6245 68.8527C29.5952 71.7588 29.566 74.4277 29.566 75.1772C29.566 75.6851 29.4449 76.1681 29.236 76.6761C28.7265 77.8169 27.674 78.9244 26.4377 79.882V74.5151C26.4377 73.9156 26.4084 73.137 26.4084 72.3584H26.4043ZM29.5618 90.2244C29.5618 90.7323 29.4407 91.2445 29.2318 91.7233C28.7223 92.8641 27.6698 93.9716 26.4335 94.9292V91.1237C26.4335 90.1952 26.375 85.0699 26.4627 82.6383C27.6364 81.739 28.5678 80.748 29.2277 79.7904C29.378 79.5489 29.5284 79.3116 29.6495 79.0701C29.6495 83.267 29.5576 89.0836 29.5576 90.2202L29.5618 90.2244ZM29.5618 64.8639C29.5618 65.3719 29.4407 65.884 29.2318 66.392C28.6596 67.6494 27.4275 68.8818 26.0158 69.931C26.2873 68.9734 26.4377 67.8909 26.4377 66.6626V60.1591C26.4377 59.1099 26.3458 57.6401 26.4961 56.441C27.6698 55.5999 28.5427 54.6715 29.2318 53.7138C29.3822 53.4724 29.5326 53.235 29.6829 52.9935C29.6537 57.1904 29.5618 63.6648 29.5618 64.8639ZM36.5076 112.142C36.0273 113.041 36.2653 113.549 35.8143 114.448C35.3632 115.377 34.6406 115.556 34.2814 116.155C33.7719 116.934 34.0099 118.225 33.4085 118.824C33.2874 118.945 33.1997 119.032 33.1078 119.182C32.9282 119.482 32.8363 119.873 32.9574 120.623C32.5982 120.023 32.1137 119.632 31.7253 119.395C30.9735 118.887 29.921 119.003 29.4992 119.936C29.4073 119.786 29.3196 119.636 29.2277 119.515C29.1692 119.424 29.1065 119.365 29.0481 119.307C29.1065 119.215 29.1692 119.099 29.2277 118.978C29.2861 118.828 29.378 118.649 29.4365 118.499C29.708 117.9 29.6453 117.03 29.8583 116.701C30.0087 116.43 30.5809 116.101 30.819 115.593C31.0612 115.085 30.9986 114.003 31.2408 113.466C31.4831 112.924 31.813 112.687 32.0511 111.996C32.1096 111.754 32.2933 110.376 32.4729 109.897C32.5941 109.568 32.8029 109.177 33.1036 108.79C33.5254 108.219 34.0976 107.62 34.6364 107.141C34.6364 109.031 34.6657 109.539 34.9664 111.729C35.8978 110.801 36.5911 110.172 37.1633 109.389C37.1341 110.797 37.0129 111.13 36.5034 112.146L36.5076 112.142ZM45.951 119.036C45.3788 121.226 43.6956 121.676 41.2898 121.226C42.0416 120.477 42.522 118.828 42.9438 117.059C43.1526 116.13 44.7773 110.072 46.2225 104.739C47.0661 101.499 47.8764 98.5016 48.2356 97.1235C48.837 96.4948 49.4385 96.0159 49.9815 95.6537C50.1318 95.5038 50.3406 95.3831 50.5537 95.2956C50.7959 95.1749 51.0966 95.1166 51.3973 95.0542C51.2177 95.7745 50.917 96.9736 50.5537 98.5016C49.2297 104.106 47.0661 113.849 46.2225 117.837C46.1013 118.345 46.0136 118.737 45.951 119.036ZM50.5495 120.473C50.5202 120.744 50.491 120.923 50.491 120.923C50.0692 123.113 49.8311 124.549 47.2416 123.92C45.5876 123.529 47.062 120.952 47.3627 119.124C47.5131 118.133 49.1962 110.01 50.5495 103.356C51.3597 99.4592 52.0531 96.0409 52.2619 94.9334H53.2559C53.6778 94.9625 54.1581 95.025 54.6092 95.1124C54.4588 95.8619 53.8866 99.1886 53.2559 103.206C52.1742 109.86 50.8502 118.404 50.5495 120.473ZM57.6456 117.925C57.4952 120.082 57.3449 121.701 57.2238 122.242C56.9523 123.65 56.1712 124.549 55.2983 124.94C54.605 125.24 53.8532 125.211 53.2518 124.849C52.2285 124.308 51.5686 122.929 51.9278 120.681C52.0489 120.052 52.5877 116.276 53.2518 111.746C53.9743 106.708 54.8138 100.804 55.2983 97.3858C55.4194 96.5156 55.5072 95.7953 55.599 95.3165C56.71 95.6162 57.796 96.0659 58.7274 96.6363C58.6689 98.8555 58.0674 110.518 57.6456 117.921V117.925ZM61.0162 126.26C59.9344 125.632 59.12 124.491 59.12 121.372C59.12 118.495 59.5418 100.267 59.6295 97.2983C60.3813 97.9562 60.8616 98.7056 61.012 99.5175C61.1331 98.7098 61.6427 97.9603 62.3652 97.2983C62.4571 100.238 62.8748 118.491 62.8748 121.372C62.8748 124.491 62.0645 125.627 61.012 126.26H61.0162ZM68.743 124.882C68.1415 125.211 67.3897 125.24 66.6964 124.94C65.8235 124.582 65.0425 123.65 64.771 122.242C64.6499 121.701 64.4995 120.086 64.3491 117.925C63.9273 110.551 63.3259 98.8597 63.2966 96.6405C64.1988 96.0701 65.3098 95.6204 66.4249 95.3206C66.4834 95.7994 66.5753 96.5197 66.6964 97.3899C67.206 100.808 68.0496 106.712 68.743 111.75C69.4029 116.276 69.9458 120.052 70.067 120.685C70.4596 122.934 69.7662 124.312 68.743 124.882ZM74.7574 123.92C72.172 124.549 71.9298 123.113 71.5413 120.923C71.5413 120.893 71.5121 120.744 71.4494 120.444C71.1195 118.374 69.8247 109.86 68.743 103.236C68.1123 99.1886 67.5693 95.8619 67.3897 95.1124C67.8408 95.0208 68.3211 94.9625 68.743 94.9334H69.737C69.9458 95.9243 70.6392 99.3385 71.4494 103.298C72.8027 109.985 74.4859 118.195 74.6362 119.128C74.9369 120.956 76.4113 123.533 74.7574 123.925V123.92ZM75.6595 104.227C77.1339 109.681 78.8463 116.097 79.0593 117.059C79.4811 118.828 79.9615 120.477 80.7133 121.226C78.3075 121.676 76.6243 121.226 76.0521 119.036C75.9602 118.616 75.8433 117.987 75.6595 117.209C74.7281 112.862 72.7108 103.839 71.4494 98.5016C71.0903 96.9736 70.7895 95.7745 70.6058 95.0542C70.9065 95.1124 71.2072 95.1749 71.4494 95.2956C71.6583 95.3872 71.8713 95.5038 72.0509 95.6537C72.5604 96.0118 73.1619 96.5239 73.7633 97.1235C74.1225 98.4433 74.8451 101.17 75.6595 104.227ZM90.7581 113.457C91.0003 113.998 90.9377 115.077 91.1799 115.585C91.2718 115.764 91.3888 115.914 91.5099 116.034C91.7521 116.305 92.0529 116.513 92.1406 116.692C92.3494 117.021 92.2909 117.891 92.5624 118.491C92.6209 118.641 92.7128 118.82 92.8047 118.97C92.8339 119.091 92.8965 119.211 92.955 119.299C92.8965 119.357 92.8339 119.419 92.8047 119.507C92.6835 119.628 92.5958 119.778 92.5039 119.927C92.2951 119.478 91.9317 119.207 91.5099 119.12C91.1173 119.028 90.6662 119.149 90.2778 119.39C89.8852 119.632 89.4049 120.019 89.0749 120.619C89.2253 119.569 89.0164 119.24 88.5946 118.82C87.9932 118.22 88.2354 116.93 87.7217 116.151C87.3625 115.552 86.6399 115.372 86.1888 114.444C85.7378 113.545 85.98 113.037 85.4955 112.137C84.986 111.117 84.8648 110.788 84.8356 109.381C85.437 110.16 86.097 110.788 87.0325 111.721C87.3625 109.531 87.3917 109.023 87.3917 107.133C88.2939 107.94 89.2253 109.081 89.5552 109.889C89.7056 110.368 89.8852 111.746 89.9478 111.987C90.1901 112.679 90.52 112.916 90.7581 113.457ZM91.5099 75.7184V75.6268C91.5099 75.6851 91.5099 75.7184 91.5391 75.7767C91.5099 75.7767 91.5099 75.7476 91.5099 75.7184ZM95.5696 91.1237V94.9626C95.0601 94.542 94.5756 94.1215 94.1579 93.6718C93.5565 93.0723 93.1054 92.4144 92.8047 91.7524C92.5624 91.2736 92.4455 90.7323 92.4455 90.2244C92.4455 89.0836 92.3243 83.2712 92.3243 79.0743C92.4747 79.3158 92.6251 79.5822 92.8047 79.8237C93.1639 80.365 93.6149 80.9021 94.1579 81.4434C94.5797 81.8639 95.0308 82.2511 95.5404 82.6425C95.6323 85.099 95.5696 90.1952 95.5696 91.1279V91.1237ZM95.5696 74.5193V79.8862C95.0601 79.4948 94.5756 79.0784 94.1579 78.6288C93.5565 78.0292 93.1054 77.3714 92.8047 76.7094C92.5624 76.2014 92.4455 75.6893 92.4455 75.1813C92.4455 74.4319 92.387 71.763 92.3536 68.8568C92.4747 69.0983 92.6251 69.3065 92.8047 69.548C93.1639 70.0559 93.6149 70.5972 94.1579 71.1052C94.5797 71.5548 95.0601 71.9462 95.603 72.3626C95.603 73.1412 95.5738 73.9198 95.5738 74.5193H95.5696ZM94.1537 68.3405C93.5523 67.7118 93.1012 67.0831 92.8005 66.4211C92.5582 65.9132 92.4413 65.401 92.4413 64.8639C92.4413 63.6648 92.3202 57.1904 92.3202 52.9935C92.4705 53.235 92.6209 53.4724 92.8005 53.7138C93.1597 54.2843 93.6108 54.7922 94.1537 55.3335C94.5463 55.7249 94.9974 56.0829 95.4777 56.441C95.6573 57.6401 95.5696 59.1099 95.5696 60.1591V66.6626C95.5696 67.8909 95.72 68.9692 95.9914 69.931C95.2981 69.4231 94.6967 68.8818 94.1579 68.3405H94.1537ZM100.619 97.061V103.685C100.168 103.356 99.7463 102.936 99.3578 102.457C98.3345 101.2 97.5828 99.4592 97.5828 97.2109V91.8149C97.5828 90.8239 97.5828 88.9378 97.5535 87.4972C98.0965 88.2175 98.6979 88.8171 99.3578 89.2959C99.7504 89.6248 100.168 89.8955 100.561 90.1369C100.653 92.4144 100.619 96.374 100.619 97.061ZM99.3578 85.8776C98.3345 84.5869 97.5828 82.8798 97.5828 80.6023V73.6158C97.825 73.7657 98.0923 73.9156 98.3638 74.0363C98.6937 74.3653 99.0237 74.6359 99.3578 74.9065C99.7504 75.2355 100.168 75.5061 100.59 75.7476C100.619 76.4054 100.619 77.0674 100.619 77.667V85.582C100.619 86.1524 100.678 86.6603 100.74 87.2016C100.26 86.8102 99.7797 86.3939 99.3578 85.8818V85.8776ZM99.3578 71.4882C98.3345 70.2308 97.5828 68.5196 97.5828 66.2421V60.8752C97.5828 59.4971 97.5828 58.477 97.4909 57.6984C97.6997 57.8191 97.9127 57.9066 98.1215 58.0273C98.4807 58.4478 98.9026 58.8351 99.3537 59.2264C99.7463 59.5262 100.164 59.826 100.615 60.0966V69.3315C100.615 70.7721 100.857 72.0295 101.216 73.137C100.557 72.7165 99.9217 72.1461 99.3537 71.4882H99.3578ZM106.425 102.365V111.538C105.853 111.18 105.28 110.73 104.771 110.189C103.568 108.898 102.666 107.041 102.666 104.551V99.1844C102.666 97.6272 102.636 94.1173 102.607 92.0189C103.238 92.8599 103.99 93.5178 104.771 94.0882C105.314 94.4796 105.853 94.8085 106.425 95.1083V102.361V102.365ZM104.771 90.7948C103.568 89.5041 102.666 87.6471 102.666 85.1281V79.7904C102.666 77.7503 102.607 77.7503 102.607 76.7635C103.179 77.005 103.718 77.2132 104.203 77.3922C104.382 77.5421 104.562 77.692 104.775 77.8127C105.318 78.2041 105.857 78.5622 106.429 78.8328V90.9738C106.429 91.3944 106.429 91.7816 106.487 92.1729C105.886 91.8149 105.284 91.3319 104.775 90.7948H104.771ZM104.771 74.5193C103.568 73.2286 102.666 71.4008 102.666 68.9151V63.5482C102.666 62.4699 102.666 61.7204 102.637 61.1209C103.209 61.2999 103.781 61.5123 104.412 61.6621C104.533 61.7537 104.654 61.8412 104.771 61.9328C105.314 62.3242 105.853 62.6531 106.425 62.9529V72.7873C106.425 74.0447 106.575 75.1563 106.876 76.1431C106.124 75.7517 105.401 75.2146 104.771 74.5235V74.5193ZM110.664 116.996C109.49 115.768 108.438 113.849 108.438 111.242V105.338C108.438 104.289 108.409 100.513 108.346 97.6356C109.039 98.5349 109.85 99.2261 110.66 99.7632C111.291 100.155 111.892 100.483 112.493 100.721C112.464 105.097 112.464 108.607 112.464 109.264V114.84C112.464 116.909 112.464 118.108 112.857 118.587C112.197 118.316 111.412 117.779 110.66 116.996H110.664ZM110.664 96.3698C109.432 95.05 108.438 93.1014 108.438 90.5533V84.6493C108.438 83.6001 108.409 81.3809 108.346 79.703C108.588 79.7946 108.826 79.882 109.039 79.9736C109.549 80.5149 110.092 80.9646 110.664 81.3809C111.265 81.8014 111.896 82.1595 112.498 82.4593C112.556 84.437 112.468 87.135 112.468 88.5756V94.6919C112.468 95.9493 112.619 97.0319 112.89 97.9895C112.168 97.6606 111.387 97.1193 110.664 96.3698ZM110.664 78.1167C109.403 76.8259 108.438 74.9398 108.438 72.3626V66.4877C108.438 65.4385 108.409 64.5683 108.346 63.8189C108.588 63.9105 108.826 63.9979 109.039 64.0604C109.549 64.6308 110.092 65.0805 110.664 65.501C111.265 65.9215 111.896 66.2504 112.498 66.5502C112.527 67.8076 112.468 69.0983 112.468 70.389V76.1764C112.468 77.5546 112.648 78.7245 112.978 79.7738C112.197 79.4157 111.382 78.8453 110.664 78.125V78.1167ZM116.858 130.786C115.597 129.587 114.573 127.967 114.573 126.231V121.705C114.573 118.857 114.481 116.401 114.481 115.531V108.786C114.481 108.215 114.481 105.28 114.452 101.499C114.603 101.558 114.724 101.591 114.845 101.649C115.446 102.34 116.14 102.94 116.858 103.419C117.401 103.777 117.969 104.11 118.512 104.376V128.538C118.512 130.578 118.934 131.985 119.322 132.464C118.541 132.135 117.639 131.565 116.858 130.786ZM116.858 100.18C115.597 99.0096 114.573 97.3899 114.573 95.5913C114.573 94.9001 114.481 89.2376 114.481 88.1259C114.481 86.8977 114.423 84.7992 114.331 83.2379C114.69 83.3878 115.024 83.5085 115.354 83.6293C115.835 84.0789 116.348 84.4994 116.858 84.8575C117.401 85.2156 117.969 85.5487 118.512 85.8151V97.8979C118.512 99.938 118.934 101.345 119.322 101.824C118.541 101.495 117.639 100.925 116.858 100.175V100.18ZM116.858 81.6515C115.534 80.3608 114.511 78.4456 114.481 75.7476V69.931C114.481 68.9734 114.452 68.1324 114.39 67.3538C114.72 67.5037 115.05 67.6244 115.35 67.7118C115.831 68.1907 116.344 68.6112 116.854 68.9692C117.397 69.3273 117.965 69.6604 118.508 69.9269V79.3408C118.508 81.4101 118.93 82.7882 119.318 83.2962C118.474 82.9381 117.606 82.3968 116.854 81.6474L116.858 81.6515ZM116.858 65.7341C115.534 64.4434 114.481 62.5282 114.481 59.8302V55.1253C114.511 53.1476 114.181 50.5079 112.285 49.2213C112.857 51.4405 112.464 51.8277 112.464 55.6083V60.2548C112.464 61.633 112.644 62.8321 112.974 63.8813C112.193 63.49 111.378 62.9529 110.66 62.2326C109.399 60.9418 108.434 59.0557 108.434 56.4452C108.434 55.0962 108.133 49.4587 106.421 47.152V56.8657C106.421 58.1564 106.571 59.2931 106.872 60.284C106.028 59.8343 105.339 59.2348 104.767 58.5145C101.818 54.888 101.968 48.2637 100.557 45.3825C100.557 48.3511 100.615 50.4496 100.615 53.4182C100.615 54.888 100.857 56.1454 101.216 57.2238C100.494 56.7741 99.8924 56.2328 99.3537 55.6666C97.2779 53.3891 96.4968 50.2997 96.1376 47.3935C95.9873 46.4026 95.8954 45.4449 95.8369 44.5456C95.3858 46.0737 94.6925 50.1831 95.8954 54.0469C95.2647 53.5681 94.6633 52.9394 94.1495 52.2483C93.6066 51.528 93.1555 50.7494 92.7963 49.9416C92.1364 48.5343 91.7146 47.0354 91.5015 45.624C91.3804 44.8162 91.3512 44.0335 91.4097 43.3174C90.9586 45.2368 90.4783 48.143 91.4389 51.0533C91.2593 54.3509 91.2885 80.4025 91.2885 83.2504C89.5761 81.8431 87.8303 79.2616 88.0099 75.3978C88.0683 74.74 88.131 74.1404 88.2187 73.57C89.4508 65.476 89.6931 53.7263 86.2933 44.3416C89.029 59.0016 85.6333 74.0488 85.1489 77.0758C84.3052 82.4718 86.1429 93.7135 89.9896 106.154C89.2378 105.405 86.6817 104.356 85.6584 103.336C85.6584 104.443 86.0803 105.642 86.0803 108.103C84.7563 105.913 84.2467 105.825 82.8642 103.398C83.2861 106.246 83.1649 106.517 83.1649 108.973C81.8117 106.425 81.0892 103.007 77.9608 98.1519C77.209 97.011 76.428 96.0534 75.647 95.2748C74.2645 93.9258 72.8486 93.0848 71.4369 92.606C70.5348 92.3062 69.6326 92.1563 68.7304 92.1563C68.0371 92.1271 67.348 92.1854 66.6839 92.3062C63.4052 92.9057 60.9995 95.0042 60.9995 95.9327C60.9995 95.0042 58.5645 92.9057 55.2858 92.3062C54.6259 92.1854 53.9326 92.1271 53.2392 92.1563C52.3663 92.1563 51.4349 92.3062 50.5328 92.606C49.0876 93.0848 47.6175 93.9841 46.2016 95.4247C45.4498 96.1742 44.7272 97.0735 44.0381 98.1519C40.8805 103.007 40.158 106.425 38.8047 108.973C38.8047 106.517 38.6836 106.246 39.1055 103.398C37.723 105.825 37.2093 105.917 35.8894 108.103C35.8894 105.646 36.3113 104.447 36.3113 103.336C35.5887 104.027 34.177 104.743 33.0952 105.376C32.6149 105.646 32.2223 105.917 31.9843 106.154C32.3769 104.897 32.7653 103.635 33.0952 102.407C36.1609 91.4943 37.5768 81.9305 36.825 77.0758C36.3447 74.0488 32.9449 58.9974 35.6806 44.3416C34.2062 48.4802 33.396 53.0352 33.0952 57.561C32.853 60.9169 32.9157 64.2769 33.0952 67.3621C33.2456 69.5813 33.4879 71.6506 33.7552 73.5659C33.847 74.1363 33.9055 74.7358 33.964 75.3937C34.0559 77.2839 33.6925 78.8411 33.0911 80.1318C32.4604 81.51 31.5582 82.5301 30.6561 83.2795C30.6561 80.4316 30.7146 54.4092 30.535 51.0533C31.4956 48.1471 31.0153 45.2368 30.5642 43.3174C30.6853 45.2951 30.205 47.7557 29.211 49.9125C28.4299 51.5613 27.3774 53.0602 26.0534 54.0511C27.2855 50.1831 26.563 46.0778 26.1453 44.5498C26.0534 45.42 25.9657 46.3776 25.8446 47.3685C25.4854 50.2747 24.7336 53.3932 22.6286 55.6707C22.0856 56.2411 21.4842 56.7782 20.7658 57.2279C21.125 56.1495 21.338 54.888 21.338 53.4224C21.338 50.4537 21.4299 48.3553 21.4299 45.3867C20.0474 48.1763 20.1351 54.559 17.462 58.248C16.8314 59.089 16.0796 59.8052 15.1148 60.2882C15.3862 59.2972 15.5658 58.1606 15.5658 56.8698V47.1562C13.8534 49.4628 13.5193 55.1003 13.5193 56.4493C13.5193 59.0266 12.5879 60.8877 11.3558 62.1743C10.6332 62.9237 9.79371 63.4941 8.97926 63.8813C9.33845 62.8321 9.52222 61.633 9.52222 60.2548V55.6083C9.52222 51.8319 9.12962 51.4405 9.70182 49.2213C7.80562 50.512 7.47567 53.1476 7.5049 55.1253V59.8302C7.5049 62.5282 6.45239 64.4476 5.12839 65.7341C4.34735 66.4836 3.47443 67.0248 2.66416 67.3829C3.05677 66.875 3.47443 65.4926 3.47443 63.4566V43.0134C3.47443 41.2147 4.13434 39.3245 5.12839 37.4967C6.81158 34.349 9.48881 31.3512 11.3516 29.2527C11.8612 28.6823 12.3122 28.1744 12.7048 27.7538C14.5091 25.6554 16.042 24.5479 17.4579 24.0982C19.2914 23.4987 20.9161 24.0399 22.6286 24.9684C23.6518 25.5097 24.7044 26.1967 25.8446 26.8587C26.8679 27.4582 27.9789 28.0286 29.211 28.4783C29.3029 28.5075 29.4198 28.5366 29.5409 28.5991C30.773 29.0196 31.9759 29.3485 33.0911 29.59C39.8573 31.0597 44.3096 29.59 46.2016 28.7198C46.8949 28.3909 47.2249 28.1494 47.2249 28.1494C48.6366 27.2792 49.6891 26.409 50.5328 25.5721C52.2452 23.865 52.9385 22.2746 53.2392 20.8673C53.4188 19.9096 53.4188 19.0686 53.4188 18.3483C53.4188 17.8403 53.3604 17.2699 53.2392 16.6995C52.9678 15.5295 52.4582 14.3596 51.7064 13.5227C51.3472 13.1646 50.9546 12.8648 50.5328 12.5942C49.0584 11.6366 47.3168 11.1245 46.2016 10.9454C45.7213 10.8538 45.3579 10.8247 45.1783 10.8538C43.7666 11.5741 42.5303 11.5741 42.263 11.7823C41.6323 10.4916 41.7827 8.54303 44.698 6.92756C45.2702 6.59863 45.2994 5.99908 46.2016 5.09974C46.5315 4.77082 47.0119 4.40858 47.6759 4.02137C48.6366 3.45096 49.6014 3.00129 50.5328 2.64322C51.4349 2.28515 52.3371 2.04366 53.2392 1.86463C53.9326 1.71474 54.5925 1.62314 55.2858 1.56485C57.2989 1.44411 59.2536 1.74389 60.9995 2.37259C62.9834 3.12203 64.7292 4.35029 66.1701 5.94079C64.725 5.39952 63.3426 4.92071 60.9995 4.68338H60.8491C60.9076 4.71253 60.941 4.71253 60.9995 4.74167C62.8038 5.39952 64.8169 6.5112 66.6839 8.13084C67.4064 8.75954 68.0956 9.4507 68.7304 10.2001C69.5741 11.1578 70.3552 12.2694 71.0443 13.4977C71.1654 13.7059 71.2865 13.9474 71.4369 14.218C72.6398 16.4663 74.6863 20.7548 75.4381 22.1621C75.53 22.2829 75.5885 22.4036 75.647 22.5202C77.4805 25.9094 80.8511 32.0548 91.4932 28.9072C91.7939 28.7864 92.1239 28.699 92.4246 28.6074C92.5457 28.5491 92.6668 28.5158 92.7838 28.4866C93.2349 28.3076 93.6859 28.1286 94.137 27.9162C94.8303 27.5873 95.4902 27.2251 96.1209 26.8961C97.2653 26.205 98.3178 25.5471 99.3369 24.9767C101.141 24.0191 102.795 23.4778 104.75 24.169C106.074 24.677 107.548 25.7595 109.261 27.7663C109.653 28.216 110.134 28.724 110.643 29.3235C112.539 31.422 115.154 34.3906 116.837 37.5091C117.831 39.337 118.491 41.2272 118.491 43.0259V63.4691C118.491 65.5093 118.913 66.8874 119.301 67.3954C118.458 67.0373 117.618 66.4961 116.837 65.7466L116.858 65.7341Z" fill="#8C6D3A"/>
<path d="M91.4469 138.371C90.9958 139.15 90.5448 139.899 90.0644 140.678C90.4236 140.557 90.7578 140.707 90.8747 141.069C91.1754 141.998 91.4469 142.96 91.7476 143.888C91.9565 144.517 91.5054 145.237 90.7536 145.445C90.1522 145.624 89.58 145.445 89.25 145.054C89.7011 145.745 90.6617 146.103 91.6265 145.803C92.7709 145.445 93.4016 144.396 93.1009 143.463C92.5287 141.756 91.9899 140.074 91.4469 138.367V138.371Z" fill="#8C6D3A"/>
<path d="M54.2206 148.831C53.828 148.801 53.498 149.039 53.4688 149.372C53.4395 149.701 53.7402 149.971 54.1287 150.001C54.5213 150.03 54.8512 149.792 54.8805 149.459C54.8805 149.13 54.5798 148.86 54.2206 148.831Z" fill="#8C6D3A"/>
<path d="M35.3339 138.309C35.6639 138.401 36.0273 138.217 36.115 137.918C36.2069 137.589 35.9939 137.26 35.6639 137.168C35.3047 137.077 34.9413 137.26 34.8536 137.56C34.7617 137.889 35.004 138.217 35.3339 138.309Z" fill="#8C6D3A"/>
<path d="M81.4364 140.559C81.7664 140.467 82.0086 140.138 81.946 139.838C81.8541 139.509 81.5242 139.297 81.165 139.389C80.8058 139.447 80.5928 139.78 80.6554 140.109C80.7139 140.409 81.0772 140.617 81.4364 140.559Z" fill="#8C6D3A"/>
<path d="M56.9862 148.98C56.5936 148.98 56.2929 149.222 56.2637 149.551C56.2637 149.88 56.5351 150.15 56.9236 150.15C57.3454 150.18 57.6461 149.942 57.6461 149.609C57.6754 149.28 57.3747 149.01 56.9862 148.98Z" fill="#8C6D3A"/>
<path d="M52.5662 148.682C52.1736 148.653 51.8144 148.89 51.7852 149.223C51.7559 149.552 52.0567 149.852 52.4451 149.881C52.8377 149.91 53.1676 149.673 53.1969 149.34C53.2261 149.011 52.9254 148.74 52.5662 148.682Z" fill="#8C6D3A"/>
<path d="M36.8378 138.731C37.197 138.823 37.5311 138.639 37.6188 138.31C37.7107 138.011 37.4977 137.682 37.1677 137.59C36.8085 137.498 36.4452 137.682 36.3574 137.981C36.299 138.31 36.5078 138.639 36.8378 138.731Z" fill="#8C6D3A"/>
<path d="M82.9385 140.2C83.2976 140.142 83.5399 139.809 83.448 139.48C83.3561 139.151 83.0262 138.972 82.6962 139.03C82.337 139.122 82.124 139.451 82.1867 139.78C82.2451 140.08 82.6085 140.288 82.9385 140.2Z" fill="#8C6D3A"/>
<path d="M107.206 137.052C107.628 136.844 108.05 136.631 108.467 136.394C107.206 133.996 105.911 131.568 104.65 129.141C104.5 128.812 104.441 128.45 104.859 128.092C104.015 127.913 103.205 127.7 102.395 127.492C103.806 130.311 105.222 133.159 106.663 135.978C106.843 136.336 107.022 136.698 107.206 137.056V137.052Z" fill="#8C6D3A"/>
<path d="M74.3356 137.952C73.613 137.503 72.9239 137.024 72.2598 136.545C72.6816 140.084 73.1035 143.619 73.5211 147.158C74.0014 147.1 74.4525 147.037 74.9036 146.979C74.5444 144.281 74.181 141.583 73.8218 138.856C73.7634 138.527 73.8511 138.135 74.3314 137.956L74.3356 137.952Z" fill="#8C6D3A"/>
<path d="M45.3496 146.615C45.8007 146.674 46.2518 146.765 46.7028 146.823C47.0954 144.125 47.4839 141.398 47.8765 138.7C47.935 138.342 48.1187 138.009 48.6283 137.98C48.0853 137.322 47.5465 136.689 47.0328 136.061C46.4606 139.566 45.8884 143.076 45.3496 146.611V146.615Z" fill="#8C6D3A"/>
<path d="M87.9899 135.853C87.8688 135.524 87.898 135.132 88.3491 134.862C87.568 134.533 86.8163 134.17 86.0645 133.783C86.9374 136.839 87.8103 139.9 88.6498 142.956C88.7709 143.347 88.8586 143.705 88.9798 144.096C89.4308 143.976 89.8527 143.855 90.3038 143.705C89.5227 141.099 88.7417 138.488 87.9899 135.853Z" fill="#8C6D3A"/>
<path d="M84.5935 140.8C85.1365 140.8 85.3453 141.128 85.4372 141.457C85.6168 142.178 85.7964 142.927 85.9802 143.647C83.9962 144.155 82.0123 144.576 80.0243 144.967C79.7528 145.026 79.4813 145.059 79.214 145.117C78.7921 144.876 78.3703 144.609 77.9819 144.368C78.9133 143.41 79.4855 141.728 79.1263 140.321C78.9174 142.269 78.0153 143.677 75.8184 144.459C76.8124 145.117 77.8315 145.75 78.884 146.379C79.3351 146.32 79.7862 146.229 80.2373 146.137C82.7015 145.658 85.1699 145.117 87.6341 144.459C87.1246 142.54 86.6108 140.62 86.1013 138.734C85.621 139.426 85.1072 140.113 84.5977 140.804L84.5935 140.8Z" fill="#8C6D3A"/>
<path d="M98.126 137.382C97.8838 137.29 97.6457 137.232 97.4035 137.14C96.9816 137.919 96.5598 138.731 96.1087 139.509C96.2298 139.809 96.3509 140.109 96.4679 140.409C96.0168 140.588 95.595 140.738 95.1439 140.887C94.3629 138.697 93.5818 136.482 92.7966 134.292C92.6755 133.963 92.6755 133.572 93.1266 133.272C92.3163 132.972 91.5311 132.673 90.7793 132.344C91.8026 135.342 92.8259 138.339 93.845 141.337C93.9661 141.728 94.1164 142.087 94.2376 142.478C94.5675 142.357 94.8975 142.236 95.2316 142.12C95.3527 142.091 95.4404 142.062 95.5323 141.999C96.4052 141.699 97.2448 141.4 98.1177 141.071C98.3599 140.979 98.598 140.892 98.8402 140.771C99.4709 140.529 100.135 140.263 100.766 139.992C100.494 139.334 100.223 138.672 99.9554 138.015C99.3247 137.806 98.7233 137.594 98.1218 137.386L98.126 137.382ZM98.3933 139.688C98.3014 139.717 98.2137 139.747 98.1218 139.78C98.0007 139.838 97.8796 139.872 97.7627 139.93C97.7042 139.78 97.6415 139.63 97.5831 139.48C97.7334 139.21 97.8545 138.939 98.0049 138.672C98.0341 138.702 98.0634 138.702 98.126 138.731C98.3683 138.822 98.6063 138.881 98.8778 138.972C98.9363 139.122 98.9989 139.272 99.0574 139.422C98.8152 139.513 98.6063 139.601 98.3975 139.693L98.3933 139.688Z" fill="#8C6D3A"/>
<path d="M69.345 138.521C69.8545 138.58 70.0049 138.942 70.0383 139.3C70.2805 141.607 70.4894 143.947 70.6982 146.253C69.4953 146.374 68.2924 146.461 67.0896 146.524C67.7495 145.233 68.3843 143.917 68.9523 142.598C68.4428 142.627 67.9291 142.656 67.3903 142.689C67.2107 142.36 66.6385 141.94 66.1874 141.848H66.037C65.586 141.906 64.9553 142.419 64.8049 142.839C64.262 142.839 63.7524 142.868 63.2429 142.868C63.9362 144.126 64.688 145.387 65.469 146.615C64.2954 146.645 63.1217 146.674 61.9523 146.674C61.9523 145.504 61.9523 144.305 61.923 143.106C61.2924 143.705 60.6617 144.305 59.9684 144.904C60.361 144.904 60.6283 145.146 60.6283 145.504C60.6283 146.495 60.599 147.481 60.599 148.472C60.599 149.13 59.9684 149.672 59.2166 149.642C58.5859 149.642 58.0722 149.284 57.8926 148.801C58.0722 149.609 58.9159 150.242 59.9057 150.242C61.0794 150.271 61.9815 149.463 61.9523 148.472V147.873C63.364 147.873 64.7799 147.844 66.1916 147.781C66.2501 147.781 66.2835 147.781 66.3419 147.752C67.8163 147.694 69.3199 147.602 70.8235 147.452C70.882 147.452 70.9446 147.452 71.0031 147.423C71.3957 147.394 71.7841 147.365 72.1767 147.302C71.8175 143.763 71.4249 140.229 71.0323 136.689C70.4894 137.289 69.9213 137.918 69.3491 138.517L69.345 138.521ZM66.2166 145.383L66.1874 145.354C65.9159 144.904 65.6444 144.455 65.3437 144.005C65.4941 144.005 65.6152 143.976 65.7656 143.976C65.7656 143.647 65.8867 143.468 66.0955 143.255C66.1248 143.285 66.154 143.285 66.1874 143.314C66.367 143.464 66.5174 143.643 66.5466 143.942C66.6677 143.942 66.8181 143.942 66.9392 143.913C66.697 144.421 66.4589 144.904 66.2166 145.383Z" fill="#8C6D3A"/>
<path d="M43.6628 137.139C44.1431 137.347 44.2058 137.739 44.1431 138.097C43.6921 140.374 43.2702 142.652 42.8484 144.963C42.3973 144.871 41.9462 144.784 41.4951 144.692C41.5536 144.392 41.6163 144.092 41.6747 143.764C41.1318 143.043 40.593 142.323 40.0793 141.607C39.9289 141.698 39.8078 141.786 39.6574 141.848C39.0267 142.206 38.3627 142.539 37.7027 142.897C37.6443 143.197 37.5524 143.497 37.4939 143.826C37.0428 143.705 36.5918 143.584 36.1407 143.468C36.4706 142.177 36.834 140.861 37.164 139.571C36.3829 139.929 35.6019 140.291 34.8167 140.649C35.297 140.92 35.3262 141.278 35.2385 141.64C35.0882 142.148 34.9378 142.631 34.8167 143.139C34.6078 143.081 34.4241 143.018 34.2152 142.989V142.96C33.856 142.868 33.4927 142.752 33.1335 142.66C33.1043 142.181 33.192 141.703 33.2838 141.22C33.5846 139.779 33.9772 138.101 32.1394 136.152C31.5965 136.394 31.0577 136.631 30.5147 136.873C31.8387 137.264 32.3483 138.492 32.5613 139.421C32.7409 140.591 32.1102 141.461 32.4402 142.448C31.8095 142.269 31.1788 142.056 30.5147 141.877V141.848C30.5732 141.698 30.6358 141.548 30.6651 141.399C30.995 140.408 30.3351 139.3 29.22 138.909C29.1281 138.88 29.0404 138.85 28.9485 138.817C26.4843 137.947 24.0159 136.989 21.5809 135.911C21.7312 135.553 21.9108 135.191 22.0612 134.803C22.2115 134.504 22.5415 134.412 22.9049 134.562C22.5457 133.754 22.1823 132.942 21.8231 132.105C21.1632 133.546 20.4991 134.983 19.8392 136.423C22.7879 137.772 25.7951 139 28.8315 140.05C29.2534 140.17 29.4914 140.591 29.3745 140.978C29.316 141.128 29.2534 141.278 29.2241 141.428C29.0738 141.819 28.9234 142.235 28.8023 142.656C28.5308 142.777 28.2301 142.897 27.9586 143.014C27.8083 142.714 27.6579 142.444 27.5075 142.173C27.6287 141.782 27.779 141.365 27.9294 140.974C27.5994 140.853 27.2695 140.732 26.9688 140.616C26.8476 140.587 26.7265 140.558 26.6388 140.495C24.1746 139.596 21.7354 138.605 19.3631 137.497C19.1835 137.855 19.0039 138.218 18.8535 138.605C21.2885 139.712 23.7235 140.703 26.2211 141.632C26.1627 141.811 26.0708 141.99 26.0123 142.173C26.4634 142.981 26.9437 143.793 27.424 144.571C28.2969 144.242 29.1364 143.913 29.9801 143.58C30.0386 143.372 30.1012 143.189 30.1597 142.981C31.1203 143.281 32.0852 143.58 33.0458 143.851C33.2254 144.151 33.4676 144.359 33.7683 144.571C33.6472 144.392 33.5261 144.18 33.4384 143.972C34.2487 144.213 35.0339 144.421 35.8441 144.63C36.9885 144.929 38.0995 145.2 39.2439 145.437C39.3651 145.466 39.5154 145.496 39.6658 145.529C40.6598 145.737 41.6497 145.949 42.6145 146.128C42.673 146.158 42.7356 146.158 42.7648 146.158C43.1867 146.249 43.5751 146.307 43.9677 146.366H43.997C44.5984 142.86 45.1998 139.35 45.8013 135.844C45.108 136.294 44.3896 136.715 43.667 137.135L43.6628 137.139ZM40.1753 144.426C39.9957 144.396 39.8454 144.367 39.6658 144.305C39.6073 144.305 39.5446 144.305 39.4862 144.276C39.2773 144.217 39.0643 144.184 38.8263 144.126C38.8555 143.976 38.9182 143.826 38.9474 143.676C39.1896 143.526 39.4277 143.405 39.67 143.285C39.6894 143.265 39.7089 143.246 39.7284 143.226C39.908 143.497 40.0876 143.734 40.2714 143.976C40.2421 144.126 40.2129 144.276 40.1795 144.426H40.1753Z" fill="#8C6D3A"/>
<path d="M59.2125 147.873C59.2417 146.104 59.2709 144.368 59.3043 142.627C58.6444 143.168 57.9803 143.706 57.2912 144.218C57.8007 144.368 57.9219 144.726 57.9219 145.088C57.8926 145.596 57.8634 146.137 57.8634 146.645C57.4123 146.616 56.9612 146.616 56.4809 146.587C56.5728 145.238 56.6313 143.889 56.6898 142.54C56.0298 143.048 55.3365 143.589 54.614 144.068C55.1569 144.218 55.2739 144.609 55.2446 144.967C55.2154 145.475 55.1862 145.987 55.1527 146.495C54.4302 146.466 53.6784 146.404 52.9558 146.345C53.2273 143.198 53.4988 140.05 53.7661 136.873C53.1062 137.381 52.4421 137.864 51.753 138.343C52.2333 138.522 52.3252 138.884 52.2959 139.242C52.1748 140.383 52.0537 141.52 51.966 142.66C51.9075 143.202 51.5149 143.439 51.1849 143.56C51.1265 143.589 51.0638 143.618 51.0053 143.651C50.8842 143.681 50.7965 143.71 50.7965 143.743C49.8651 143.801 49.0841 144.434 48.9629 145.3C48.8711 145.9 48.8126 146.499 48.7207 147.099C49.2637 147.157 49.8025 147.22 50.3454 147.278C50.4958 147.307 50.6461 147.307 50.7965 147.336H51.0053C51.6987 147.428 52.3878 147.486 53.1104 147.544C55.1235 147.723 57.1701 147.815 59.2166 147.873H59.2125ZM51.6026 146.224C51.3938 146.195 51.1808 146.195 51.0012 146.166H50.9093C50.7004 146.137 50.4582 146.108 50.2159 146.075C50.2452 145.866 50.2744 145.654 50.3078 145.446C50.3371 145.175 50.6085 144.938 50.9385 144.905H50.997C50.997 144.905 51.0262 144.905 51.0554 144.875C51.2977 144.875 51.5358 144.784 51.7488 144.726C51.6903 145.204 51.6569 145.717 51.5984 146.224H51.6026Z" fill="#8C6D3A"/>
<path d="M19.7256 128.988C20.1183 129.317 20.0556 129.708 19.9052 130.008C19.3957 131.057 18.882 132.077 18.4016 133.097C18.1594 133.576 17.6791 133.668 17.3491 133.668C17.1069 133.668 16.8981 133.639 16.8981 133.668C16.7477 133.639 16.6266 133.61 16.4762 133.576C15.6952 133.485 14.9434 133.818 14.58 134.476C14.3085 135.017 14.0078 135.525 13.7363 136.095C14.367 136.395 14.9977 136.724 15.6325 137.053C15.904 137.203 16.2047 137.323 16.4762 137.473C16.8354 137.652 17.1988 137.831 17.558 137.981C19.0908 134.775 20.6236 131.565 22.1606 128.33C21.3504 128.572 20.5359 128.78 19.7256 128.988ZM16.8103 136.303C16.6892 136.245 16.6015 136.183 16.4804 136.153C16.3885 136.095 16.2716 136.033 16.1797 135.974C15.9708 135.883 15.7578 135.766 15.549 135.646C15.6409 135.466 15.7286 135.287 15.8205 135.104C15.9416 134.896 16.2131 134.775 16.4804 134.804C16.5389 134.804 16.6015 134.804 16.6307 134.834C16.6892 134.834 16.7226 134.863 16.7519 134.863C16.9941 134.921 17.2322 134.954 17.4744 134.954C17.2656 135.404 17.0234 135.854 16.8145 136.303H16.8103Z" fill="#8C6D3A"/>
<path d="M50.5791 137.739C50.9091 137.768 51.2098 137.56 51.239 137.197C51.2683 136.898 51.0594 136.598 50.6961 136.54C50.3661 136.51 50.0654 136.748 50.0362 137.081C49.9777 137.41 50.2158 137.68 50.5791 137.739Z" fill="#8C6D3A"/>
<path d="M50.3987 139.151C50.7579 139.209 51.0586 138.972 51.092 138.643C51.1213 138.314 50.8832 138.015 50.549 137.985C50.2191 137.927 49.8891 138.164 49.8557 138.493C49.7973 138.822 50.0646 139.122 50.3987 139.151Z" fill="#8C6D3A"/>
<path d="M18.1008 129.229C18.4308 129.408 18.8234 129.288 18.9445 128.988C19.0949 128.717 18.9738 128.359 18.673 128.18C18.3431 128.03 17.9797 128.122 17.8294 128.422C17.6498 128.692 17.8001 129.08 18.1008 129.229Z" fill="#8C6D3A"/>
<path d="M18.7657 127.968C19.0957 128.118 19.4591 128.026 19.6094 127.726C19.7598 127.456 19.6387 127.068 19.3379 126.918C19.008 126.769 18.6446 126.86 18.4942 127.16C18.3439 127.431 18.465 127.818 18.7657 127.968Z" fill="#8C6D3A"/>
<path d="M102.093 132.734C102.302 133.213 102.544 133.691 102.753 134.174C102.632 134.445 102.511 134.745 102.394 135.015C102.302 134.986 102.185 134.957 102.093 134.924C101.913 134.866 101.734 134.803 101.521 134.745C100.677 132.855 99.8375 130.998 98.9938 129.107C98.6346 129.977 98.2712 130.814 97.8828 131.655C98.3924 131.597 98.785 131.805 98.9353 132.134C99.4156 133.242 99.9294 134.383 100.41 135.49C100.439 135.582 100.468 135.64 100.502 135.732C100.953 135.881 101.404 136.031 101.884 136.152C101.675 136.602 101.462 137.022 101.253 137.472C101.525 138.101 101.796 138.729 102.097 139.362C102.097 139.391 102.126 139.421 102.126 139.454C102.757 139.154 103.421 138.883 104.052 138.584C104.682 138.284 105.313 137.984 105.948 137.684C105.647 137.026 105.317 136.394 105.017 135.765C104.536 135.615 104.085 135.494 103.634 135.374C103.814 134.924 103.993 134.474 104.206 134.025C103.605 132.855 103.033 131.685 102.46 130.519C102.31 130.19 102.402 129.769 102.79 129.411C102.548 129.353 102.339 129.261 102.097 129.203C101.437 128.995 100.773 128.812 100.142 128.604C100.802 129.982 101.437 131.36 102.097 132.742L102.093 132.734ZM103.989 136.781C104.048 136.902 104.11 137.051 104.198 137.201C103.956 137.293 103.747 137.38 103.538 137.501C103.329 137.593 103.116 137.68 102.907 137.772C102.849 137.622 102.786 137.501 102.728 137.351C102.849 137.081 102.97 136.81 103.087 136.51C103.388 136.602 103.688 136.689 103.989 136.781Z" fill="#8C6D3A"/>
<path d="M105.16 140.287C104.98 140.379 104.767 140.316 104.709 140.166C104.65 140.017 104.738 139.838 104.918 139.746C104.976 139.717 105.068 139.717 105.127 139.717C104.467 139.509 103.895 140.225 104.375 140.645C104.224 140.766 104.074 140.766 103.982 140.674C103.861 140.883 103.74 141.124 103.623 141.366C104.496 140.974 105.369 140.587 106.208 140.196C105.937 140.104 105.636 140.017 105.365 139.925C105.423 140.046 105.335 140.225 105.156 140.283L105.16 140.287Z" fill="#8C6D3A"/>
<path d="M33.1074 125.331C32.8651 125.24 32.6563 125.181 32.5644 125.152C31.9087 126.476 32.1426 126.801 32.2052 127.434C40.6086 130.994 49.6845 133.404 58.5766 133.675C58.9066 133.917 61.0116 135.503 61.0116 135.503C61.0116 135.503 63.1166 133.912 63.4466 133.675C72.3053 133.404 81.3811 131.002 89.7845 127.446C89.818 126.805 90.0268 126.476 89.3711 125.123C89.1915 125.181 87.809 125.902 87.5667 125.964C87.7422 125.893 87.9092 125.773 88.0679 125.623C87.6795 125.785 87.2911 125.943 86.8985 126.101C86.8609 126.168 86.8191 126.239 86.7815 126.293C86.6604 126.472 85.0983 127.371 85.0065 126.863C85.0232 126.847 85.0399 126.826 85.0566 126.809C78.0523 129.42 70.6805 131.044 63.1166 131.231C62.5152 131.739 61.0116 132.88 61.0116 132.88C61.0116 132.88 59.508 131.739 58.8773 131.231C51.4095 131.044 44.1296 129.462 37.213 126.909C37.0501 127.305 35.438 126.376 35.1581 126.118C34.8616 126.002 34.5692 125.881 34.2768 125.756C33.997 125.664 33.5083 125.469 33.1074 125.327V125.331Z" fill="#8C6D3A"/>
<path d="M99.8975 121.585C99.7847 121.947 99.7388 122.259 99.7429 122.543C99.9852 122.405 100.227 122.268 100.47 122.13L109.341 128.184V140.925C95.2363 148.898 79.4193 153.516 63.0886 153.874H62.8464C62.8464 153.874 61.585 154.894 61.0128 155.373C60.4114 154.894 59.1793 153.874 59.1793 153.874H58.9078C42.6105 153.516 26.7894 148.898 12.689 140.925V128.184L21.5602 122.13C21.7941 122.264 22.0322 122.397 22.266 122.53C22.266 122.251 22.2159 121.939 22.099 121.581C21.9612 121.098 21.7941 120.315 21.8901 119.582C20.6831 120.344 10.4336 126.698 10.4336 126.698V141.957C25.1688 150.651 41.3784 155.897 58.8786 156.255C59.4215 156.763 60.7121 157.783 60.9836 157.996H61.0421C61.3136 157.787 62.6041 156.767 63.1179 156.255C80.618 155.897 96.8569 150.651 111.592 141.957V126.698C111.592 126.698 101.305 120.319 100.127 119.578C100.219 120.315 100.048 121.098 99.8933 121.581L99.8975 121.585Z" fill="#8C6D3A"/>
<path d="M90.4023 124.6C89.6297 124.95 88.8528 125.291 88.0676 125.62C87.9089 125.77 87.7418 125.891 87.5664 125.961C87.8087 125.903 89.1911 125.183 89.3707 125.12C90.0306 126.473 89.8176 126.798 89.7842 127.444C90.0515 127.331 90.3146 127.219 90.5819 127.102C90.5402 126.332 90.5276 125.437 90.4023 124.596V124.6Z" fill="#8C6D3A"/>
<path d="M32.5685 125.148C32.6604 125.177 32.8692 125.239 33.1115 125.327C33.5124 125.468 34.0011 125.66 34.2809 125.756C33.3788 125.381 32.485 124.994 31.5995 124.59C31.47 125.427 31.4575 126.322 31.4199 127.088C31.6831 127.205 31.9462 127.317 32.2135 127.429C32.1508 126.797 31.9169 126.472 32.5727 125.148H32.5685Z" fill="#8C6D3A"/>
<path d="M86.7865 126.289C86.8241 126.231 86.8617 126.164 86.9035 126.098C86.2937 126.343 85.6797 126.576 85.0657 126.805C85.049 126.822 85.0323 126.843 85.0156 126.86C85.1075 127.368 86.6696 126.468 86.7907 126.289H86.7865Z" fill="#8C6D3A"/>
<path d="M37.217 126.91C36.5279 126.656 35.8429 126.394 35.1621 126.119C35.4461 126.373 37.0541 127.306 37.217 126.91Z" fill="#8C6D3A"/>
<path d="M26.0115 122.513C25.9822 122.454 25.9196 122.363 25.8611 122.271C25.5604 121.763 25.1678 121.164 25.2012 122.001C25.268 122.259 25.4435 123.237 25.4685 124.257C25.7484 124.403 26.0282 124.545 26.308 124.686C26.4459 123.933 26.4834 122.962 26.5419 122.088C26.3707 121.996 26.2036 121.905 26.0324 121.813C26.0616 122.113 26.0533 122.421 26.0073 122.509L26.0115 122.513Z" fill="#8C6D3A"/>
<path d="M29.1699 124.099C29.0739 123.895 28.9444 123.562 28.8149 123.262C28.6604 123.187 28.51 123.108 28.3597 123.033C28.3597 123.462 28.3639 124.565 28.2344 125.635C28.4724 125.752 28.7147 125.864 28.9569 125.977C29.0405 125.694 29.1365 125.415 29.2368 125.148C29.4331 124.578 29.6336 124.07 29.738 123.712C29.596 123.645 29.4581 123.574 29.3161 123.508C29.2869 123.645 29.2577 123.783 29.2368 123.92C29.2075 123.978 29.2075 124.041 29.1783 124.099H29.1699Z" fill="#8C6D3A"/>
<path d="M99.8672 119.599C99.625 119.745 99.3785 119.891 99.1363 120.032C99.1447 120.882 99.0194 121.993 99.1488 122.876C99.3451 122.768 99.5456 122.655 99.7419 122.543C99.7419 122.26 99.7837 121.944 99.8964 121.585C100.051 121.107 100.226 120.32 100.13 119.583C100.068 119.541 100.022 119.516 100.018 119.508C99.9591 119.566 99.9257 119.566 99.8672 119.599Z" fill="#8C6D3A"/>
<path d="M22.1028 121.585C22.2197 121.944 22.2657 122.256 22.2698 122.535C22.4703 122.647 22.6708 122.76 22.8713 122.872C22.9882 121.989 22.8587 120.869 22.8629 120.02C22.629 119.883 22.3951 119.741 22.1612 119.599C22.1028 119.57 22.0693 119.57 22.0109 119.508C22.0025 119.512 21.9608 119.541 21.8898 119.583C21.7937 120.316 21.9608 121.098 22.0986 121.581L22.1028 121.585Z" fill="#8C6D3A"/>
<path d="M93.077 125.981C93.3151 125.868 93.549 125.756 93.7871 125.643C93.6576 124.573 93.6659 123.47 93.6492 123.041C93.4989 123.116 93.3527 123.191 93.2023 123.266C93.0729 123.566 92.9434 123.899 92.8348 124.103C92.8348 124.044 92.8056 123.982 92.8056 123.924C92.7638 123.786 92.7387 123.645 92.7178 123.507C92.5717 123.578 92.4255 123.653 92.2793 123.724C92.3921 124.094 92.6051 124.598 92.8056 125.152C92.9016 125.423 92.9935 125.702 93.077 125.981Z" fill="#8C6D3A"/>
<path d="M96.5296 124.279C96.5547 123.251 96.7301 122.264 96.7969 122.006C96.8262 121.165 96.4377 121.798 96.137 122.305C96.0785 122.364 96.0451 122.455 95.9867 122.514C95.9407 122.326 95.8948 122.172 95.9616 121.831C95.7987 121.918 95.6358 122.01 95.4688 122.097C95.523 122.976 95.5648 123.942 95.7068 124.7C95.9825 124.562 96.254 124.421 96.5254 124.283L96.5296 124.279Z" fill="#8C6D3A"/>
</g>
<defs>
<clipPath id="clip0_958_64362">
<rect width="122" height="158" fill="white"/>
</clipPath>
</defs>
</svg>
