<svg width="24" height="24" viewBox="0 0 24 24" fill="none" xmlns="http://www.w3.org/2000/svg">
<path fill-rule="evenodd" clip-rule="evenodd" d="M13.0118 3.75003C13.0972 3.75003 13.1764 3.75009 13.25 3.75028V4.80012V4.83055C13.25 5.3647 13.25 5.81055 13.2797 6.17479C13.3108 6.55467 13.3779 6.91133 13.5497 7.24859C13.8134 7.76604 14.2341 8.18673 14.7515 8.45038C15.0888 8.62223 15.4454 8.68934 15.8253 8.72038C16.1896 8.75014 16.6354 8.75013 17.1696 8.75012H17.2H18.2498C18.2499 8.82369 18.25 8.90285 18.25 8.98826V16.2C18.25 17.0525 18.2494 17.6467 18.2116 18.1094C18.1745 18.5632 18.1054 18.824 18.0048 19.0215C17.789 19.4449 17.4448 19.7891 17.0215 20.0048C16.824 20.1054 16.5632 20.1746 16.1093 20.2117C15.6467 20.2494 15.0525 20.25 14.2 20.25H9.8C8.94755 20.25 8.35331 20.2494 7.89068 20.2117C7.43681 20.1746 7.17604 20.1054 6.97852 20.0048C6.55516 19.7891 6.21095 19.4449 5.99524 19.0215C5.8946 18.824 5.82547 18.5632 5.78838 18.1094C5.75058 17.6467 5.75 17.0525 5.75 16.2V7.80003C5.75 6.94758 5.75058 6.35334 5.78838 5.89071C5.82547 5.43684 5.8946 5.17607 5.99524 4.97855C6.21095 4.55519 6.55516 4.21098 6.97852 3.99527C7.17604 3.89463 7.43681 3.8255 7.89068 3.78841C8.35331 3.75062 8.94755 3.75003 9.8 3.75003H13.0118ZM17.9184 7.06705C17.9549 7.12655 17.9885 7.18765 18.0192 7.25012H17.2C16.6276 7.25012 16.2434 7.24953 15.9475 7.22536C15.6604 7.2019 15.5231 7.16002 15.4325 7.11387C15.1973 6.99403 15.0061 6.80281 14.8862 6.5676C14.8401 6.47704 14.7982 6.33976 14.7748 6.05264C14.7506 5.75676 14.75 5.37254 14.75 4.80012V3.98083C14.8124 4.01153 14.8735 4.04514 14.933 4.08159C15.1424 4.20995 15.3315 4.39215 15.8756 4.93625L17.0638 6.12447C17.6079 6.66857 17.7901 6.85759 17.9184 7.06705ZM13.0972 2.25002C13.7488 2.24983 14.1998 2.2497 14.6328 2.35364C15.0154 2.44551 15.3812 2.59702 15.7167 2.80263C16.0964 3.03529 16.4152 3.35429 16.8758 3.81514L16.8758 3.81515L16.9362 3.87559L18.1244 5.06381L18.1849 5.12424C18.6457 5.58483 18.9647 5.90364 19.1974 6.2833C19.403 6.61882 19.5545 6.98462 19.6464 7.36725C19.7503 7.80023 19.7502 8.25123 19.75 8.90279V8.9028L19.75 8.98826V16.2V16.2322C19.75 17.045 19.75 17.7006 19.7066 18.2315C19.662 18.7781 19.5676 19.2583 19.3413 19.7025C18.9817 20.4081 18.4081 20.9818 17.7025 21.3413C17.2582 21.5676 16.7781 21.662 16.2315 21.7067C15.7006 21.75 15.045 21.75 14.2321 21.75H14.2H9.8H9.76788C8.95505 21.75 8.29944 21.75 7.76853 21.7067C7.2219 21.662 6.74175 21.5676 6.29754 21.3413C5.59193 20.9818 5.01825 20.4081 4.65873 19.7025C4.43239 19.2583 4.33803 18.7781 4.29336 18.2315C4.24999 17.7006 4.24999 17.045 4.25 16.2321V16.2321V16.2V7.80003V7.76793V7.76792C4.24999 6.95508 4.24999 6.29947 4.29336 5.76856C4.33803 5.22193 4.43239 4.74179 4.65873 4.29757C5.01825 3.59196 5.59193 3.01828 6.29754 2.65876C6.74175 2.43242 7.2219 2.33806 7.76853 2.2934C8.29944 2.25002 8.95506 2.25002 9.7679 2.25003L9.8 2.25003H13.0118L13.0972 2.25002ZM15.5303 12.5305C15.8232 12.2376 15.8232 11.7627 15.5303 11.4698C15.2374 11.1769 14.7626 11.1769 14.4697 11.4698L11 14.9395L10.0303 13.9698C9.73744 13.6769 9.26256 13.6769 8.96967 13.9698C8.67678 14.2627 8.67678 14.7376 8.96967 15.0305L10.4697 16.5305C10.6103 16.6711 10.8011 16.7501 11 16.7501C11.1989 16.7501 11.3897 16.6711 11.5303 16.5305L15.5303 12.5305Z" fill="white"/>
</svg>
