<svg width="24" height="24" viewBox="0 0 24 24" fill="none" xmlns="http://www.w3.org/2000/svg">
<path fill-rule="evenodd" clip-rule="evenodd" d="M5.99985 2.14979L5.87466 2.14975C5.06631 2.14942 4.49522 2.14919 4.00339 2.28097C2.67479 2.63697 1.63703 3.67473 1.28103 5.00333C1.14925 5.49516 1.14948 6.06625 1.14981 6.8746L1.14985 6.99979V15.1998L1.14985 15.2356C1.14984 16.0453 1.14983 16.7044 1.19354 17.2394C1.23871 17.7922 1.33475 18.287 1.56947 18.7477C1.93858 19.4721 2.52756 20.061 3.25198 20.4302C3.71265 20.6649 4.20741 20.7609 4.76024 20.8061C5.1002 20.8339 5.49027 20.844 5.93722 20.8477C5.95796 20.8492 5.97883 20.85 5.9998 20.85H17.0647H17.0964C17.2183 20.85 17.3361 20.85 17.4502 20.8498H17.9998C18.0321 20.8498 18.0639 20.848 18.0951 20.8445C18.344 20.8399 18.5704 20.8316 18.7765 20.8163C19.2482 20.7812 19.6727 20.7067 20.0822 20.5278C20.7323 20.2437 21.2912 19.7854 21.6973 19.2037C21.9531 18.8373 22.1094 18.4356 22.2363 17.9799C22.3583 17.5415 22.4666 17 22.5988 16.3393L22.605 16.308L23.0678 13.9943L23.0751 13.9574C23.2001 13.3328 23.3046 12.8102 23.3521 12.3808C23.4014 11.9358 23.4022 11.4978 23.2536 11.0682C23.0316 10.4265 22.5878 9.88517 22.0021 9.54164C21.643 9.331 21.2523 9.24189 20.8464 9.19844C20.8381 8.7261 20.8103 8.3454 20.7186 8.0031C20.3626 6.67468 19.325 5.63707 17.9965 5.28103C17.5046 5.14919 16.9334 5.14942 16.1248 5.14975L15.9996 5.14979H12.9881C12.2138 5.14979 11.9653 5.14432 11.7406 5.09038C11.5212 5.03771 11.3115 4.95084 11.1191 4.83296C10.9221 4.71223 10.7425 4.54032 10.195 3.99286L9.84353 3.64139L9.79839 3.59623C9.48399 3.28168 9.25867 3.05625 9.00276 2.87249C8.52104 2.52659 7.96591 2.29665 7.38069 2.20061C7.0698 2.14958 6.75107 2.14966 6.30634 2.14978L6.24249 2.14979H5.99985ZM19.1443 9.14998C19.1365 8.7856 19.1182 8.59857 19.0766 8.44319C18.8777 7.70135 18.2983 7.12191 17.5564 6.92308C17.3102 6.85709 16.9845 6.84979 15.9996 6.84979H12.9881L12.8956 6.84981C12.251 6.85004 11.7886 6.85021 11.3437 6.74341C10.9509 6.6491 10.5753 6.49354 10.2309 6.28245C9.8408 6.04342 9.51389 5.71627 9.05833 5.26038L9.05832 5.26037L8.99292 5.19494L8.64145 4.84347C8.26395 4.46597 8.14048 4.34619 8.01122 4.25337C7.7422 4.06021 7.4322 3.9318 7.10539 3.87817C6.94836 3.8524 6.77635 3.84979 6.24249 3.84979H5.99985C5.01515 3.84979 4.68955 3.85709 4.44339 3.92305C3.70144 4.12185 3.12191 4.70138 2.92311 5.44332C2.85715 5.68949 2.84985 6.01509 2.84985 6.99979V15.1998C2.84985 16.0539 2.85051 16.6433 2.8879 17.101C2.92447 17.5487 2.99192 17.7948 3.08418 17.9759C3.29031 18.3804 3.61922 18.7093 4.02377 18.9154C4.20484 19.0077 4.45098 19.0752 4.89867 19.1117C5.0237 19.122 5.15856 19.1294 5.30598 19.1349L6.39458 13.6919L6.4008 13.6608C6.53296 13 6.64124 12.4585 6.76334 12.02C6.89022 11.5644 7.04652 11.1627 7.30228 10.7963C7.70837 10.2145 8.26733 9.75629 8.91743 9.47217C9.32686 9.29324 9.75142 9.21876 10.2231 9.1837C10.677 9.14997 11.2292 9.14997 11.9031 9.14998L11.9349 9.14998H19.0964L19.1339 9.14998H19.134C19.1374 9.14998 19.1408 9.14998 19.1443 9.14998ZM17.4178 19.1498H14.9998H7.03667L8.06156 14.0253C8.20147 13.3258 8.29788 12.8465 8.40103 12.4761C8.50131 12.116 8.59315 11.917 8.69625 11.7693C8.92303 11.4445 9.23517 11.1886 9.59822 11.0299C9.76325 10.9578 9.97634 10.9067 10.3491 10.879C10.7326 10.8505 11.2215 10.85 11.9349 10.85H19.0964C19.7808 10.85 20.2388 10.8507 20.5863 10.8811C20.9263 10.9108 21.0655 10.9631 21.142 11.008C21.3783 11.1466 21.5574 11.3651 21.647 11.624C21.676 11.7078 21.7 11.8545 21.6624 12.1938C21.6241 12.5405 21.535 12.9898 21.4008 13.6609L20.938 15.9746C20.7981 16.6742 20.7017 17.1535 20.5986 17.5239C20.4983 17.884 20.4064 18.0829 20.3033 18.2306C20.0766 18.5555 19.7644 18.8114 19.4014 18.9701C19.2363 19.0422 19.0233 19.0932 18.6505 19.1209C18.3338 19.1445 17.9453 19.1489 17.4178 19.1498Z" fill="#1F2222"/>
</svg>
