<svg width="24" height="24" viewBox="0 0 24 24" fill="none" xmlns="http://www.w3.org/2000/svg">
<path d="M22 9.66966C21.9369 9.48674 21.822 9.32608 21.6693 9.20716C21.5167 9.08823 21.3328 9.01615 21.14 8.99966L15.45 8.16966L12.9 2.99966C12.8181 2.83059 12.6903 2.688 12.5311 2.58823C12.3719 2.48846 12.1879 2.43555 12 2.43555C11.8122 2.43555 11.6281 2.48846 11.4689 2.58823C11.3097 2.688 11.1819 2.83059 11.1 2.99966L8.55001 8.15966L2.86001 8.99966C2.67493 9.02596 2.50093 9.10362 2.35776 9.22381C2.21458 9.34401 2.10797 9.50193 2.05001 9.67966C1.99695 9.85333 1.99219 10.0382 2.03624 10.2143C2.08028 10.3905 2.17147 10.5514 2.30001 10.6797L6.43001 14.6797L5.43001 20.3597C5.39431 20.5471 5.413 20.7409 5.48388 20.9181C5.55476 21.0953 5.67486 21.2485 5.83001 21.3597C5.98123 21.4678 6.15958 21.5316 6.34506 21.5439C6.53053 21.5563 6.71578 21.5167 6.88001 21.4297L12 18.7597L17.1 21.4397C17.2404 21.5188 17.3989 21.5602 17.56 21.5597C17.7718 21.5604 17.9784 21.4939 18.15 21.3697C18.3052 21.2585 18.4253 21.1053 18.4961 20.9281C18.567 20.7509 18.5857 20.5571 18.55 20.3697L17.55 14.6897L21.68 10.6897C21.8244 10.5673 21.9311 10.4066 21.9877 10.226C22.0444 10.0455 22.0486 9.85253 22 9.66966ZM15.85 13.6697C15.7327 13.7831 15.645 13.9235 15.5944 14.0786C15.5439 14.2338 15.5321 14.3989 15.56 14.5597L16.28 18.7497L12.52 16.7497C12.3753 16.6726 12.2139 16.6323 12.05 16.6323C11.8861 16.6323 11.7247 16.6726 11.58 16.7497L7.82001 18.7497L8.54001 14.5597C8.56794 14.3989 8.55612 14.2338 8.50557 14.0786C8.45502 13.9235 8.36728 13.7831 8.25001 13.6697L5.25001 10.6697L9.46001 10.0597C9.62201 10.0371 9.77601 9.9752 9.90851 9.87931C10.041 9.78342 10.148 9.65649 10.22 9.50966L12 5.69966L13.88 9.51966C13.952 9.66649 14.059 9.79342 14.1915 9.88931C14.324 9.9852 14.478 10.0471 14.64 10.0697L18.85 10.6797L15.85 13.6697Z" fill="#1F2937"/>
</svg>
