<svg width="24" height="24" viewBox="0 0 24 24" fill="none" xmlns="http://www.w3.org/2000/svg">
<path d="M21 10.9998H17.06C16.9903 10.9903 16.9197 10.9903 16.85 10.9998H16.68C16.6277 11.0296 16.5776 11.063 16.53 11.0998C16.4743 11.1366 16.4209 11.1766 16.37 11.2198C16.3366 11.2607 16.3065 11.3042 16.28 11.3498C16.2342 11.4128 16.194 11.4797 16.16 11.5498L14.56 15.9598L10.39 4.6598C10.3199 4.46675 10.1921 4.29996 10.0239 4.18208C9.85577 4.06421 9.65537 4.00098 9.45 4.00098C9.24463 4.00098 9.04423 4.06421 8.87605 4.18208C8.70788 4.29996 8.58007 4.46675 8.51 4.6598L6.2 10.9998H3C2.73478 10.9998 2.48043 11.1052 2.29289 11.2927C2.10536 11.4802 2 11.7346 2 11.9998C2 12.265 2.10536 12.5194 2.29289 12.7069C2.48043 12.8944 2.73478 12.9998 3 12.9998H7.3C7.35684 12.9724 7.4105 12.9389 7.46 12.8998C7.51568 12.863 7.56911 12.823 7.62 12.7798L7.71 12.6498C7.75766 12.588 7.79794 12.5209 7.83 12.4498L9.45 7.9198L13.61 19.3398C13.6799 19.5331 13.8076 19.7001 13.9758 19.8182C14.144 19.9363 14.3445 19.9997 14.55 19.9998C14.7555 19.9997 14.956 19.9363 15.1242 19.8182C15.2924 19.7001 15.4201 19.5331 15.49 19.3398L17.79 12.9998H21C21.2652 12.9998 21.5196 12.8944 21.7071 12.7069C21.8946 12.5194 22 12.265 22 11.9998C22 11.7346 21.8946 11.4802 21.7071 11.2927C21.5196 11.1052 21.2652 10.9998 21 10.9998Z" fill="white"/>
</svg>
