<svg width="24" height="24" viewBox="0 0 24 24" fill="none" xmlns="http://www.w3.org/2000/svg">
<path fill-rule="evenodd" clip-rule="evenodd" d="M4.84999 7.00039C4.84999 5.26069 6.2603 3.85039 7.99999 3.85039C9.73969 3.85039 11.15 5.26069 11.15 7.00039C11.15 8.74009 9.73969 10.1504 7.99999 10.1504C6.2603 10.1504 4.84999 8.74009 4.84999 7.00039ZM7.99999 2.15039C5.32141 2.15039 3.14999 4.32181 3.14999 7.00039C3.14999 9.67897 5.32141 11.8504 7.99999 11.8504C10.6786 11.8504 12.85 9.67897 12.85 7.00039C12.85 4.32181 10.6786 2.15039 7.99999 2.15039ZM14 2.15039C13.5306 2.15039 13.15 2.53095 13.15 3.00039C13.15 3.46983 13.5306 3.85039 14 3.85039C15.7397 3.85039 17.15 5.26069 17.15 7.00039C17.15 8.74009 15.7397 10.1504 14 10.1504C13.5306 10.1504 13.15 10.5309 13.15 11.0004C13.15 11.4698 13.5306 11.8504 14 11.8504C16.6786 11.8504 18.85 9.67897 18.85 7.00039C18.85 4.32181 16.6786 2.15039 14 2.15039ZM5.99999 15.8504C4.2603 15.8504 2.84999 17.2607 2.84999 19.0004C2.84999 19.6355 3.36487 20.1504 3.99999 20.1504H12C12.6351 20.1504 13.15 19.6355 13.15 19.0004C13.15 17.2607 11.7397 15.8504 9.99999 15.8504H5.99999ZM1.14999 19.0004C1.14999 16.3218 3.32141 14.1504 5.99999 14.1504H9.99999C12.6786 14.1504 14.85 16.3218 14.85 19.0004C14.85 20.5744 13.574 21.8504 12 21.8504H3.99999C2.42598 21.8504 1.14999 20.5744 1.14999 19.0004ZM16 14.1504C15.5306 14.1504 15.15 14.5309 15.15 15.0004C15.15 15.4698 15.5306 15.8504 16 15.8504H18C19.7397 15.8504 21.15 17.2607 21.15 19.0004C21.15 19.6355 20.6351 20.1504 20 20.1504H16C15.5306 20.1504 15.15 20.5309 15.15 21.0004C15.15 21.4698 15.5306 21.8504 16 21.8504H20C21.574 21.8504 22.85 20.5744 22.85 19.0004C22.85 16.3218 20.6786 14.1504 18 14.1504H16Z" fill="white"/>
</svg>
