<svg width="24" height="24" viewBox="0 0 25 25" fill="none" xmlns="http://www.w3.org/2000/svg">
<path d="M18.6334 3.24805H6.03338C5.31729 3.24805 4.63053 3.53251 4.12419 4.03886C3.61784 4.54521 3.33337 5.23196 3.33337 5.94805V14.9481C3.33337 15.6641 3.61784 16.3509 4.12419 16.8572C4.63053 17.3636 5.31729 17.6481 6.03338 17.6481H8.40938L7.88738 18.5481C7.72939 18.8217 7.64622 19.1321 7.64622 19.4481C7.64622 19.764 7.72939 20.0744 7.88738 20.3481C8.04672 20.6241 8.27649 20.8528 8.55321 21.011C8.82993 21.1691 9.14368 21.2509 9.46238 21.2481H15.2764C15.592 21.2477 15.9021 21.1644 16.1753 21.0064C16.4486 20.8485 16.6756 20.6214 16.8334 20.3481C16.9914 20.0744 17.0745 19.764 17.0745 19.4481C17.0745 19.1321 16.9914 18.8217 16.8334 18.5481L16.3024 17.6481H18.6334C19.3495 17.6481 20.0362 17.3636 20.5426 16.8572C21.0489 16.3509 21.3334 15.6641 21.3334 14.9481V5.94805C21.3334 5.23196 21.0489 4.54521 20.5426 4.03886C20.0362 3.53251 19.3495 3.24805 18.6334 3.24805ZM9.42638 19.4481L10.5334 17.6481H14.1334L15.2134 19.4481H9.42638ZM19.5334 14.9481C19.5334 15.1867 19.4386 15.4157 19.2698 15.5844C19.101 15.7532 18.8721 15.8481 18.6334 15.8481H6.03338C5.79468 15.8481 5.56576 15.7532 5.39698 15.5844C5.2282 15.4157 5.13337 15.1867 5.13337 14.9481V14.0481H19.5334V14.9481ZM19.5334 12.2481H5.13337V5.94805C5.13337 5.70935 5.2282 5.48043 5.39698 5.31165C5.56576 5.14287 5.79468 5.04805 6.03338 5.04805H18.6334C18.8721 5.04805 19.101 5.14287 19.2698 5.31165C19.4386 5.48043 19.5334 5.70935 19.5334 5.94805V12.2481Z" fill="#AF8848"/>
</svg>
