<svg width="21" height="20" viewBox="0 0 21 20" fill="none" xmlns="http://www.w3.org/2000/svg" className="favorite-icon">
<path d="M20.2998 7.23411C20.2366 7.0512 20.1218 6.89054 19.9691 6.77161C19.8165 6.65269 19.6326 6.58061 19.4398 6.56411L13.7498 5.73411L11.1998 0.56411C11.1179 0.395039 10.99 0.252452 10.8309 0.152683C10.6717 0.052915 10.4876 0 10.2998 0C10.1119 0 9.92787 0.052915 9.76869 0.152683C9.60952 0.252452 9.48167 0.395039 9.39978 0.56411L6.84978 5.72411L1.15978 6.56411C0.974704 6.59042 0.800706 6.66807 0.657532 6.78827C0.514358 6.90846 0.407743 7.06638 0.349783 7.24411C0.296727 7.41778 0.291966 7.60263 0.33601 7.7788C0.380053 7.95498 0.47124 8.11584 0.599783 8.24411L4.72978 12.2441L3.72978 17.9241C3.69408 18.1116 3.71278 18.3054 3.78365 18.4826C3.85453 18.6598 3.97464 18.813 4.12978 18.9241C4.281 19.0322 4.45936 19.096 4.64483 19.1084C4.83031 19.1208 5.01555 19.0812 5.17978 18.9941L10.2998 16.3241L15.3998 19.0041C15.5401 19.0833 15.6986 19.1246 15.8598 19.1241C16.0716 19.1249 16.2782 19.0583 16.4498 18.9341C16.6049 18.823 16.725 18.6698 16.7959 18.4926C16.8668 18.3154 16.8855 18.1216 16.8498 17.9341L15.8498 12.2541L19.9798 8.25411C20.1242 8.13179 20.2309 7.97101 20.2875 7.79046C20.3442 7.6099 20.3484 7.41698 20.2998 7.23411Z" fill="#B7945A"/>
</svg>
