<svg width="24" height="24" viewBox="0 0 25 25" fill="none" xmlns="http://www.w3.org/2000/svg">
<path d="M12.3334 6.12402C12.0682 6.12402 11.8138 6.22938 11.6263 6.41692C11.4387 6.60445 11.3334 6.85881 11.3334 7.12402V17.124C11.3334 17.3892 11.4387 17.6436 11.6263 17.8311C11.8138 18.0187 12.0682 18.124 12.3334 18.124C12.5986 18.124 12.8529 18.0187 13.0405 17.8311C13.228 17.6436 13.3334 17.3892 13.3334 17.124V7.12402C13.3334 6.85881 13.228 6.60445 13.0405 6.41692C12.8529 6.22938 12.5986 6.12402 12.3334 6.12402ZM7.33337 12.124C7.06816 12.124 6.8138 12.2294 6.62627 12.4169C6.43873 12.6045 6.33337 12.8588 6.33337 13.124V17.124C6.33337 17.3892 6.43873 17.6436 6.62627 17.8311C6.8138 18.0187 7.06816 18.124 7.33337 18.124C7.59859 18.124 7.85294 18.0187 8.04048 17.8311C8.22802 17.6436 8.33337 17.3892 8.33337 17.124V13.124C8.33337 12.8588 8.22802 12.6045 8.04048 12.4169C7.85294 12.2294 7.59859 12.124 7.33337 12.124ZM17.3334 10.124C17.0682 10.124 16.8138 10.2294 16.6263 10.4169C16.4387 10.6045 16.3334 10.8588 16.3334 11.124V17.124C16.3334 17.3892 16.4387 17.6436 16.6263 17.8311C16.8138 18.0187 17.0682 18.124 17.3334 18.124C17.5986 18.124 17.8529 18.0187 18.0405 17.8311C18.228 17.6436 18.3334 17.3892 18.3334 17.124V11.124C18.3334 10.8588 18.228 10.6045 18.0405 10.4169C17.8529 10.2294 17.5986 10.124 17.3334 10.124ZM19.3334 2.12402H5.33337C4.53772 2.12402 3.77466 2.44009 3.21205 3.0027C2.64944 3.56531 2.33337 4.32837 2.33337 5.12402V19.124C2.33337 19.9197 2.64944 20.6827 3.21205 21.2453C3.77466 21.808 4.53772 22.124 5.33337 22.124H19.3334C20.129 22.124 20.8921 21.808 21.4547 21.2453C22.0173 20.6827 22.3334 19.9197 22.3334 19.124V5.12402C22.3334 4.32837 22.0173 3.56531 21.4547 3.0027C20.8921 2.44009 20.129 2.12402 19.3334 2.12402ZM20.3334 19.124C20.3334 19.3892 20.228 19.6436 20.0405 19.8311C19.8529 20.0187 19.5986 20.124 19.3334 20.124H5.33337C5.06816 20.124 4.8138 20.0187 4.62627 19.8311C4.43873 19.6436 4.33337 19.3892 4.33337 19.124V5.12402C4.33337 4.85881 4.43873 4.60445 4.62627 4.41692C4.8138 4.22938 5.06816 4.12402 5.33337 4.12402H19.3334C19.5986 4.12402 19.8529 4.22938 20.0405 4.41692C20.228 4.60445 20.3334 4.85881 20.3334 5.12402V19.124Z" fill="#AF8848"/>
</svg>
