<svg width="24" height="24" viewBox="0 0 24 25" fill="none" xmlns="http://www.w3.org/2000/svg">
<path d="M20 8.37159L14 3.11159C13.45 2.61963 12.7379 2.34766 12 2.34766C11.262 2.34766 10.55 2.61963 9.99997 3.11159L3.99997 8.37159C3.68234 8.65566 3.42887 9.00415 3.25644 9.39383C3.08402 9.78352 2.99659 10.2055 2.99997 10.6316V19.3716C2.99997 20.1672 3.31604 20.9303 3.87865 21.4929C4.44126 22.0555 5.20432 22.3716 5.99997 22.3716H18C18.7956 22.3716 19.5587 22.0555 20.1213 21.4929C20.6839 20.9303 21 20.1672 21 19.3716V10.6216C21.0019 10.1972 20.9138 9.77713 20.7414 9.38927C20.5691 9.00141 20.3163 8.65454 20 8.37159ZM14 20.3716H9.99997V15.3716C9.99997 15.1064 10.1053 14.852 10.2929 14.6645C10.4804 14.4769 10.7348 14.3716 11 14.3716H13C13.2652 14.3716 13.5195 14.4769 13.7071 14.6645C13.8946 14.852 14 15.1064 14 15.3716V20.3716ZM19 19.3716C19 19.6368 18.8946 19.8912 18.7071 20.0787C18.5195 20.2662 18.2652 20.3716 18 20.3716H16V15.3716C16 14.5759 15.6839 13.8129 15.1213 13.2503C14.5587 12.6877 13.7956 12.3716 13 12.3716H11C10.2043 12.3716 9.44126 12.6877 8.87865 13.2503C8.31604 13.8129 7.99997 14.5759 7.99997 15.3716V20.3716H5.99997C5.73476 20.3716 5.4804 20.2662 5.29287 20.0787C5.10533 19.8912 4.99997 19.6368 4.99997 19.3716V10.6216C5.00015 10.4796 5.03057 10.3393 5.08919 10.21C5.14781 10.0806 5.2333 9.9653 5.33997 9.87159L11.34 4.62159C11.5225 4.46127 11.7571 4.37285 12 4.37285C12.2429 4.37285 12.4775 4.46127 12.66 4.62159L18.66 9.87159C18.7666 9.9653 18.8521 10.0806 18.9108 10.21C18.9694 10.3393 18.9998 10.4796 19 10.6216V19.3716Z" fill="#FFFFFF"/>
</svg>
