<svg width="24" height="24" viewBox="0 0 24 25" fill="none" xmlns="http://www.w3.org/2000/svg">
<path fill-rule="evenodd" clip-rule="evenodd" d="M4.85002 7.12441C4.85002 5.38472 6.26033 3.97441 8.00002 3.97441C9.73972 3.97441 11.15 5.38472 11.15 7.12441C11.15 8.86411 9.73972 10.2744 8.00002 10.2744C6.26033 10.2744 4.85002 8.86411 4.85002 7.12441ZM8.00002 2.27441C5.32144 2.27441 3.15002 4.44583 3.15002 7.12441C3.15002 9.803 5.32144 11.9744 8.00002 11.9744C10.6786 11.9744 12.85 9.803 12.85 7.12441C12.85 4.44583 10.6786 2.27441 8.00002 2.27441ZM14 2.27441C13.5306 2.27441 13.15 2.65497 13.15 3.12441C13.15 3.59386 13.5306 3.97441 14 3.97441C15.7397 3.97441 17.15 5.38472 17.15 7.12441C17.15 8.86411 15.7397 10.2744 14 10.2744C13.5306 10.2744 13.15 10.655 13.15 11.1244C13.15 11.5939 13.5306 11.9744 14 11.9744C16.6786 11.9744 18.85 9.803 18.85 7.12441C18.85 4.44583 16.6786 2.27441 14 2.27441ZM6.00002 15.9744C4.26033 15.9744 2.85002 17.3847 2.85002 19.1244C2.85002 19.7595 3.3649 20.2744 4.00002 20.2744H12C12.6352 20.2744 13.15 19.7595 13.15 19.1244C13.15 17.3847 11.7397 15.9744 10 15.9744H6.00002ZM1.15002 19.1244C1.15002 16.4458 3.32144 14.2744 6.00002 14.2744H10C12.6786 14.2744 14.85 16.4458 14.85 19.1244C14.85 20.6984 13.574 21.9744 12 21.9744H4.00002C2.42601 21.9744 1.15002 20.6984 1.15002 19.1244ZM16 14.2744C15.5306 14.2744 15.15 14.655 15.15 15.1244C15.15 15.5939 15.5306 15.9744 16 15.9744H18C19.7397 15.9744 21.15 17.3847 21.15 19.1244C21.15 19.7595 20.6352 20.2744 20 20.2744H16C15.5306 20.2744 15.15 20.655 15.15 21.1244C15.15 21.5939 15.5306 21.9744 16 21.9744H20C21.574 21.9744 22.85 20.6984 22.85 19.1244C22.85 16.4458 20.6786 14.2744 18 14.2744H16Z" fill="#FFFFFF"/>
</svg>
