<svg width="24" height="24" viewBox="0 0 21 17" fill="none" xmlns="http://www.w3.org/2000/svg">
<path d="M19.6667 7.12383H15.7267C15.657 7.11436 15.5864 7.11436 15.5167 7.12383H15.3467C15.2944 7.15365 15.2443 7.18706 15.1967 7.22383C15.141 7.26059 15.0876 7.30067 15.0367 7.34383C15.0033 7.38472 14.9732 7.42818 14.9467 7.47383C14.9009 7.53682 14.8607 7.60375 14.8267 7.67383L13.2267 12.0838L9.05669 0.783825C8.98662 0.590775 8.85881 0.423979 8.69063 0.306106C8.52245 0.188233 8.32206 0.125 8.11669 0.125C7.91131 0.125 7.71092 0.188233 7.54274 0.306106C7.37456 0.423979 7.24676 0.590775 7.17669 0.783825L4.86669 7.12383H1.66669C1.40147 7.12383 1.14712 7.22918 0.95958 7.41672C0.772044 7.60426 0.666687 7.85861 0.666687 8.12383C0.666687 8.38904 0.772044 8.6434 0.95958 8.83093C1.14712 9.01847 1.40147 9.12383 1.66669 9.12383H5.96669C6.02353 9.09646 6.07718 9.06293 6.12669 9.02382C6.18237 8.98706 6.2358 8.94699 6.28669 8.90383L6.37669 8.77382C6.42435 8.71207 6.46462 8.64495 6.49669 8.57383L8.11669 4.04383L12.2767 15.4638C12.3466 15.6571 12.4743 15.8241 12.6425 15.9422C12.8107 16.0603 13.0112 16.1237 13.2167 16.1238C13.4222 16.1237 13.6227 16.0603 13.7909 15.9422C13.9591 15.8241 14.0868 15.6571 14.1567 15.4638L16.4567 9.12383H19.6667C19.9319 9.12383 20.1863 9.01847 20.3738 8.83093C20.5613 8.6434 20.6667 8.38904 20.6667 8.12383C20.6667 7.85861 20.5613 7.60426 20.3738 7.41672C20.1863 7.22918 19.9319 7.12383 19.6667 7.12383Z" fill="#FFFFFF"/>
</svg>
