<svg width="24" height="24" viewBox="0 0 25 25" fill="none" xmlns="http://www.w3.org/2000/svg">
<path d="M19.9634 3.89836C19.8472 3.80438 19.7114 3.73763 19.5661 3.70302C19.4207 3.66841 19.2694 3.66681 19.1234 3.69836C18.0548 3.9223 16.9517 3.92515 15.882 3.70674C14.8123 3.48833 13.7986 3.05327 12.9034 2.42836C12.736 2.31223 12.5371 2.25 12.3334 2.25C12.1296 2.25 11.9308 2.31223 11.7634 2.42836C10.8681 3.05327 9.85445 3.48833 8.78475 3.70674C7.71504 3.92515 6.61194 3.9223 5.54338 3.69836C5.39732 3.66681 5.24605 3.66841 5.10068 3.70302C4.95532 3.73763 4.81956 3.80438 4.70338 3.89836C4.58736 3.99247 4.4939 4.11139 4.42987 4.24637C4.36584 4.38135 4.33287 4.52896 4.33338 4.67836V12.1284C4.33249 13.5621 4.67415 14.9753 5.32991 16.2503C5.98568 17.5253 6.93656 18.6252 8.10338 19.4584L11.7534 22.0584C11.9227 22.1789 12.1255 22.2437 12.3334 22.2437C12.5413 22.2437 12.744 22.1789 12.9134 22.0584L16.5634 19.4584C17.7302 18.6252 18.6811 17.5253 19.3368 16.2503C19.9926 14.9753 20.3343 13.5621 20.3334 12.1284V4.67836C20.3339 4.52896 20.3009 4.38135 20.2369 4.24637C20.1729 4.11139 20.0794 3.99247 19.9634 3.89836ZM18.3334 12.1284C18.3341 13.2431 18.0687 14.3419 17.559 15.3334C17.0494 16.3248 16.3103 17.1802 15.4034 17.8284L12.3334 20.0184L9.26338 17.8284C8.35642 17.1802 7.61736 16.3248 7.10773 15.3334C6.59809 14.3419 6.33261 13.2431 6.33338 12.1284V5.82836C8.42981 6.00779 10.5294 5.52138 12.3334 4.43836C14.1373 5.52138 16.237 6.00779 18.3334 5.82836V12.1284Z" fill="#FFFFFF"/>
</svg>
