<svg width="24" height="24" viewBox="0 0 25 25" fill="none" xmlns="http://www.w3.org/2000/svg">
<path d="M18.3334 2.12402H8.33337C7.27251 2.12402 6.25509 2.54545 5.50495 3.2956C4.7548 4.04574 4.33337 5.06316 4.33337 6.12402V18.124C4.33337 19.1849 4.7548 20.2023 5.50495 20.9524C6.25509 21.7026 7.27251 22.124 8.33337 22.124H18.3334C18.8638 22.124 19.3725 21.9133 19.7476 21.5382C20.1227 21.1632 20.3334 20.6545 20.3334 20.124V4.12402C20.3334 3.59359 20.1227 3.08488 19.7476 2.70981C19.3725 2.33474 18.8638 2.12402 18.3334 2.12402ZM6.33337 6.12402C6.33337 5.59359 6.54409 5.08488 6.91916 4.70981C7.29423 4.33474 7.80294 4.12402 8.33337 4.12402H18.3334V14.124H8.33337C7.62841 14.127 6.93737 14.3205 6.33337 14.684V6.12402ZM8.33337 20.124C7.80294 20.124 7.29423 19.9133 6.91916 19.5382C6.54409 19.1632 6.33337 18.6545 6.33337 18.124C6.33337 17.5936 6.54409 17.0849 6.91916 16.7098C7.29423 16.3347 7.80294 16.124 8.33337 16.124H18.3334V20.124H8.33337ZM10.3334 8.12402H14.3334C14.5986 8.12402 14.8529 8.01867 15.0405 7.83113C15.228 7.64359 15.3334 7.38924 15.3334 7.12402C15.3334 6.85881 15.228 6.60445 15.0405 6.41692C14.8529 6.22938 14.5986 6.12402 14.3334 6.12402H10.3334C10.0682 6.12402 9.8138 6.22938 9.62627 6.41692C9.43873 6.60445 9.33337 6.85881 9.33337 7.12402C9.33337 7.38924 9.43873 7.64359 9.62627 7.83113C9.8138 8.01867 10.0682 8.12402 10.3334 8.12402Z" fill="#FFFFFF"/>
</svg>
