<svg width="24" height="24" viewBox="0 0 25 25" fill="none" xmlns="http://www.w3.org/2000/svg">
<path d="M16.3767 12.9577C17.3571 12.1863 18.0727 11.1286 18.424 9.93163C18.7752 8.73465 18.7447 7.45795 18.3365 6.27915C17.9284 5.10035 17.163 4.07808 16.1468 3.35454C15.1306 2.631 13.9142 2.24219 12.6667 2.24219C11.4193 2.24219 10.2029 2.631 9.18667 3.35454C8.17049 4.07808 7.40509 5.10035 6.99696 6.27915C6.58882 7.45795 6.55826 8.73465 6.90951 9.93163C7.26075 11.1286 7.97635 12.1863 8.95674 12.9577C7.27682 13.6307 5.81103 14.747 4.71564 16.1876C3.62024 17.6282 2.93631 19.339 2.73674 21.1377C2.7223 21.269 2.73386 21.4019 2.77077 21.5287C2.80768 21.6556 2.86921 21.7739 2.95186 21.877C3.11876 22.0852 3.36153 22.2185 3.62674 22.2477C3.89196 22.2769 4.1579 22.1995 4.36607 22.0326C4.57424 21.8657 4.70757 21.6229 4.73674 21.3577C4.95633 19.4029 5.88843 17.5975 7.35496 16.2865C8.8215 14.9755 10.7196 14.2507 12.6867 14.2507C14.6538 14.2507 16.552 14.9755 18.0185 16.2865C19.4851 17.5975 20.4172 19.4029 20.6367 21.3577C20.6639 21.6034 20.7812 21.8303 20.9659 21.9947C21.1505 22.1591 21.3895 22.2492 21.6367 22.2477H21.7467C22.0089 22.2175 22.2485 22.085 22.4133 21.8789C22.5781 21.6729 22.6549 21.41 22.6267 21.1477C22.4262 19.3439 21.7386 17.6287 20.6376 16.1859C19.5366 14.7431 18.0637 13.6272 16.3767 12.9577ZM12.6667 12.2477C11.8756 12.2477 11.1023 12.0131 10.4445 11.5736C9.78667 11.134 9.27398 10.5093 8.97123 9.77842C8.66848 9.04751 8.58926 8.24325 8.7436 7.46732C8.89794 6.6914 9.27891 5.97867 9.83832 5.41926C10.3977 4.85985 11.1105 4.47888 11.8864 4.32454C12.6623 4.1702 13.4666 4.24941 14.1975 4.55217C14.9284 4.85492 15.5531 5.36761 15.9926 6.0254C16.4321 6.6832 16.6667 7.45656 16.6667 8.24768C16.6667 9.30855 16.2453 10.326 15.4952 11.0761C14.745 11.8263 13.7276 12.2477 12.6667 12.2477Z" fill="#FFFFFF"/>
</svg>
