<svg width="24" height="24" viewBox="0 0 21 20" fill="none" xmlns="http://www.w3.org/2000/svg">
<path d="M20.2998 7.23411C20.2366 7.0512 20.1218 6.89054 19.9691 6.77161C19.8165 6.65269 19.6326 6.58061 19.4398 6.56411L13.7498 5.73411L11.1998 0.56411C11.1179 0.395039 10.99 0.252452 10.8309 0.152683C10.6717 0.052915 10.4876 0 10.2998 0C10.1119 0 9.92787 0.052915 9.76869 0.152683C9.60952 0.252452 9.48167 0.395039 9.39978 0.56411L6.84978 5.72411L1.15978 6.56411C0.974705 6.59042 0.800706 6.66807 0.657532 6.78827C0.514358 6.90846 0.407742 7.06638 0.349782 7.24411C0.296727 7.41778 0.291966 7.60263 0.33601 7.7788C0.380054 7.95498 0.47124 8.11584 0.599782 8.24411L4.72978 12.2441L3.72978 17.9241C3.69408 18.1116 3.71278 18.3054 3.78365 18.4826C3.85453 18.6598 3.97464 18.813 4.12978 18.9241C4.281 19.0322 4.45936 19.096 4.64483 19.1084C4.8303 19.1208 5.01555 19.0812 5.17978 18.9941L10.2998 16.3241L15.3998 19.0041C15.5401 19.0833 15.6986 19.1246 15.8598 19.1241C16.0716 19.1249 16.2782 19.0583 16.4498 18.9341C16.6049 18.823 16.725 18.6698 16.7959 18.4926C16.8668 18.3154 16.8855 18.1216 16.8498 17.9341L15.8498 12.2541L19.9798 8.25411C20.1242 8.13179 20.2309 7.97101 20.2875 7.79046C20.3442 7.6099 20.3484 7.41698 20.2998 7.23411ZM14.1498 11.2341C14.0325 11.3475 13.9448 11.488 13.8942 11.6431C13.8437 11.7982 13.8318 11.9634 13.8598 12.1241L14.5798 16.3141L10.8198 14.3141C10.6751 14.2371 10.5137 14.1968 10.3498 14.1968C10.1859 14.1968 10.0245 14.2371 9.87978 14.3141L6.11978 16.3141L6.83978 12.1241C6.86772 11.9634 6.8559 11.7982 6.80535 11.6431C6.7548 11.488 6.66706 11.3475 6.54978 11.2341L3.54978 8.23411L7.75978 7.62411C7.92178 7.60158 8.07578 7.53965 8.20828 7.44376C8.34078 7.34787 8.44774 7.22095 8.51978 7.07411L10.2998 3.26411L12.1798 7.08411C12.2518 7.23095 12.3588 7.35787 12.4913 7.45376C12.6238 7.54965 12.7778 7.61158 12.9398 7.63411L17.1498 8.24411L14.1498 11.2341Z" fill="#9CA3AF"/>
</svg>
