<svg width="24" height="24" viewBox="0 0 24 25" fill="none" xmlns="http://www.w3.org/2000/svg">
<path d="M19 6.12402H16V5.12402C16 4.59359 15.7893 4.08488 15.4142 3.70981C15.0391 3.33474 14.5304 3.12402 14 3.12402H10C9.46957 3.12402 8.96086 3.33474 8.58579 3.70981C8.21071 4.08488 8 4.59359 8 5.12402V6.12402H5C4.20435 6.12402 3.44129 6.44009 2.87868 7.0027C2.31607 7.56531 2 8.32837 2 9.12402V18.124C2 18.9197 2.31607 19.6827 2.87868 20.2453C3.44129 20.808 4.20435 21.124 5 21.124H19C19.7956 21.124 20.5587 20.808 21.1213 20.2453C21.6839 19.6827 22 18.9197 22 18.124V9.12402C22 8.32837 21.6839 7.56531 21.1213 7.0027C20.5587 6.44009 19.7956 6.12402 19 6.12402ZM10 5.12402H14V6.12402H10V5.12402ZM20 18.124C20 18.3892 19.8946 18.6436 19.7071 18.8311C19.5196 19.0187 19.2652 19.124 19 19.124H5C4.73478 19.124 4.48043 19.0187 4.29289 18.8311C4.10536 18.6436 4 18.3892 4 18.124V12.514L8.68 14.124C8.78618 14.1384 8.89382 14.1384 9 14.124H15C15.1084 14.122 15.2161 14.1052 15.32 14.074L20 12.514V18.124ZM20 10.404L14.84 12.124H9.16L4 10.404V9.12402C4 8.85881 4.10536 8.60445 4.29289 8.41692C4.48043 8.22938 4.73478 8.12402 5 8.12402H19C19.2652 8.12402 19.5196 8.22938 19.7071 8.41692C19.8946 8.60445 20 8.85881 20 9.12402V10.404Z" fill="#AF8848"/>
</svg>
