<svg width="24" height="24" viewBox="0 0 24 25" fill="none" xmlns="http://www.w3.org/2000/svg">
<path d="M19 6.24805H16V5.24805C16 4.71761 15.7893 4.20891 15.4142 3.83383C15.0391 3.45876 14.5304 3.24805 14 3.24805H10C9.46957 3.24805 8.96086 3.45876 8.58579 3.83383C8.21071 4.20891 8 4.71761 8 5.24805V6.24805H5C4.20435 6.24805 3.44129 6.56412 2.87868 7.12673C2.31607 7.68934 2 8.4524 2 9.24805V18.248C2 19.0437 2.31607 19.8068 2.87868 20.3694C3.44129 20.932 4.20435 21.248 5 21.248H19C19.7956 21.248 20.5587 20.932 21.1213 20.3694C21.6839 19.8068 22 19.0437 22 18.248V9.24805C22 8.4524 21.6839 7.68934 21.1213 7.12673C20.5587 6.56412 19.7956 6.24805 19 6.24805ZM10 5.24805H14V6.24805H10V5.24805ZM20 18.248C20 18.5133 19.8946 18.7676 19.7071 18.9552C19.5196 19.1427 19.2652 19.248 19 19.248H5C4.73478 19.248 4.48043 19.1427 4.29289 18.9552C4.10536 18.7676 4 18.5133 4 18.248V12.638L8.68 14.248C8.78618 14.2625 8.89382 14.2625 9 14.248H15C15.1084 14.246 15.2161 14.2292 15.32 14.198L20 12.638V18.248ZM20 10.528L14.84 12.248H9.16L4 10.528V9.24805C4 8.98283 4.10536 8.72848 4.29289 8.54094C4.48043 8.3534 4.73478 8.24805 5 8.24805H19C19.2652 8.24805 19.5196 8.3534 19.7071 8.54094C19.8946 8.72848 20 8.98283 20 9.24805V10.528Z" fill="#AF8848"/>
</svg>
