<svg width="25" height="24" viewBox="0 0 25 25" fill="none" xmlns="http://www.w3.org/2000/svg">
<path fill-rule="evenodd" clip-rule="evenodd" d="M12.6667 2.39844C7.22671 2.39844 2.81671 6.80843 2.81671 12.2484C2.81671 17.6884 7.22671 22.0984 12.6667 22.0984C18.1067 22.0984 22.5167 17.6884 22.5167 12.2484C22.5167 6.80843 18.1067 2.39844 12.6667 2.39844ZM4.51671 12.2484C4.51671 7.74732 8.16559 4.09844 12.6667 4.09844C17.1678 4.09844 20.8167 7.74732 20.8167 12.2484C20.8167 16.7496 17.1678 20.3984 12.6667 20.3984C8.16559 20.3984 4.51671 16.7496 4.51671 12.2484ZM13.5167 8.24844C13.5167 7.779 13.1362 7.39844 12.6667 7.39844C12.1973 7.39844 11.8167 7.779 11.8167 8.24844V12.2484C11.8167 12.5326 11.9587 12.798 12.1952 12.9557L15.1952 14.9557C15.5858 15.2161 16.1136 15.1105 16.374 14.7199C16.6344 14.3293 16.5288 13.8016 16.1382 13.5412L13.5167 11.7935V8.24844Z" fill="#B7945A"/>
</svg>
