<svg width="24" height="24" viewBox="0 0 24 25" fill="none" xmlns="http://www.w3.org/2000/svg">
<path d="M16.29 9.08226C16.383 9.17598 16.4936 9.25038 16.6154 9.30115C16.7373 9.35192 16.868 9.37805 17 9.37805C17.132 9.37805 17.2627 9.35192 17.3846 9.30115C17.5064 9.25038 17.617 9.17598 17.71 9.08226L21.71 5.08226C21.8983 4.89395 22.0041 4.63856 22.0041 4.37226C22.0041 4.10595 21.8983 3.85056 21.71 3.66226C21.5217 3.47395 21.2663 3.36816 21 3.36816C20.7337 3.36816 20.4783 3.47395 20.29 3.66226L17 6.96226L15.71 5.66226C15.6168 5.56902 15.5061 5.49506 15.3842 5.4446C15.2624 5.39414 15.1319 5.36816 15 5.36816C14.7337 5.36816 14.4783 5.47395 14.29 5.66226C14.1968 5.75549 14.1228 5.86618 14.0723 5.98801C14.0219 6.10983 13.9959 6.2404 13.9959 6.37226C13.9959 6.63856 14.1017 6.89395 14.29 7.08226L16.29 9.08226ZM21 8.37226C20.7348 8.37226 20.4804 8.47761 20.2929 8.66515C20.1054 8.85269 20 9.10704 20 9.37226V18.3723C20 18.6375 19.8946 18.8918 19.7071 19.0794C19.5196 19.2669 19.2652 19.3723 19 19.3723H5C4.73478 19.3723 4.48043 19.2669 4.29289 19.0794C4.10536 18.8918 4 18.6375 4 18.3723V8.78226L9.88 14.6723C10.4412 15.2289 11.1995 15.5416 11.99 15.5423C12.8004 15.5381 13.5764 15.2147 14.15 14.6423L15.87 12.9223C16.0583 12.734 16.1641 12.4786 16.1641 12.2123C16.1641 11.946 16.0583 11.6906 15.87 11.5023C15.6817 11.314 15.4263 11.2082 15.16 11.2082C14.8937 11.2082 14.6383 11.314 14.45 11.5023L12.7 13.2523C12.5131 13.4355 12.2618 13.5381 12 13.5381C11.7382 13.5381 11.4869 13.4355 11.3 13.2523L5.41 7.37226H11C11.2652 7.37226 11.5196 7.2669 11.7071 7.07936C11.8946 6.89183 12 6.63747 12 6.37226C12 6.10704 11.8946 5.85269 11.7071 5.66515C11.5196 5.47761 11.2652 5.37226 11 5.37226H5C4.20435 5.37226 3.44129 5.68833 2.87868 6.25094C2.31607 6.81354 2 7.57661 2 8.37226V18.3723C2 19.1679 2.31607 19.931 2.87868 20.4936C3.44129 21.0562 4.20435 21.3723 5 21.3723H19C19.7956 21.3723 20.5587 21.0562 21.1213 20.4936C21.6839 19.931 22 19.1679 22 18.3723V9.37226C22 9.10704 21.8946 8.85269 21.7071 8.66515C21.5196 8.47761 21.2652 8.37226 21 8.37226Z" fill="#AF8848"/>
</svg>
