<svg width="24" height="24" viewBox="0 0 25 25" fill="none" xmlns="http://www.w3.org/2000/svg">
<path d="M20.6667 9.06402C20.6563 8.97216 20.6362 8.88165 20.6067 8.79402V8.70402C20.5587 8.6012 20.4945 8.50669 20.4167 8.42402L14.4167 2.42402C14.3341 2.34624 14.2396 2.2821 14.1367 2.23402C14.1069 2.22978 14.0766 2.22978 14.0467 2.23402C13.9452 2.17576 13.833 2.13837 13.7167 2.12402H7.66675C6.8711 2.12402 6.10804 2.44009 5.54543 3.0027C4.98282 3.56531 4.66675 4.32837 4.66675 5.12402V19.124C4.66675 19.9197 4.98282 20.6827 5.54543 21.2453C6.10804 21.808 6.8711 22.124 7.66675 22.124H17.6667C18.4624 22.124 19.2255 21.808 19.7881 21.2453C20.3507 20.6827 20.6667 19.9197 20.6667 19.124V9.12402V9.06402ZM14.6667 5.53402L17.2567 8.12402H15.6667C15.4015 8.12402 15.1472 8.01867 14.9596 7.83113C14.7721 7.64359 14.6667 7.38924 14.6667 7.12402V5.53402ZM18.6667 19.124C18.6667 19.3892 18.5614 19.6436 18.3739 19.8311C18.1863 20.0187 17.932 20.124 17.6667 20.124H7.66675C7.40153 20.124 7.14718 20.0187 6.95964 19.8311C6.7721 19.6436 6.66675 19.3892 6.66675 19.124V5.12402C6.66675 4.85881 6.7721 4.60445 6.95964 4.41692C7.14718 4.22938 7.40153 4.12402 7.66675 4.12402H12.6667V7.12402C12.6667 7.91967 12.9828 8.68273 13.5454 9.24534C14.108 9.80795 14.8711 10.124 15.6667 10.124H18.6667V19.124ZM14.9567 12.414L11.6667 15.714L10.3767 14.414C10.1884 14.2257 9.93305 14.1199 9.66675 14.1199C9.40045 14.1199 9.14505 14.2257 8.95675 14.414C8.76844 14.6023 8.66266 14.8577 8.66266 15.124C8.66266 15.3903 8.76844 15.6457 8.95675 15.834L10.9567 17.834C11.0497 17.9278 11.1603 18.0021 11.2822 18.0529C11.404 18.1037 11.5347 18.1298 11.6667 18.1298C11.7988 18.1298 11.9295 18.1037 12.0513 18.0529C12.1732 18.0021 12.2838 17.9278 12.3767 17.834L16.3767 13.834C16.5651 13.6457 16.6708 13.3903 16.6708 13.124C16.6708 12.8577 16.5651 12.6023 16.3767 12.414C16.1884 12.2257 15.9331 12.1199 15.6667 12.1199C15.4004 12.1199 15.1451 12.2257 14.9567 12.414Z" fill="#AF8848"/>
</svg>
