<svg width="24" height="24" viewBox="0 0 24 25" fill="none" xmlns="http://www.w3.org/2000/svg">
<path fill-rule="evenodd" clip-rule="evenodd" d="M4.85002 7.24844C4.85002 5.50874 6.26033 4.09844 8.00002 4.09844C9.73972 4.09844 11.15 5.50874 11.15 7.24844C11.15 8.98813 9.73972 10.3984 8.00002 10.3984C6.26033 10.3984 4.85002 8.98813 4.85002 7.24844ZM8.00002 2.39844C5.32144 2.39844 3.15002 4.56986 3.15002 7.24844C3.15002 9.92702 5.32144 12.0984 8.00002 12.0984C10.6786 12.0984 12.85 9.92702 12.85 7.24844C12.85 4.56986 10.6786 2.39844 8.00002 2.39844ZM14 2.39844C13.5306 2.39844 13.15 2.779 13.15 3.24844C13.15 3.71788 13.5306 4.09844 14 4.09844C15.7397 4.09844 17.15 5.50874 17.15 7.24844C17.15 8.98813 15.7397 10.3984 14 10.3984C13.5306 10.3984 13.15 10.779 13.15 11.2484C13.15 11.7179 13.5306 12.0984 14 12.0984C16.6786 12.0984 18.85 9.92702 18.85 7.24844C18.85 4.56986 16.6786 2.39844 14 2.39844ZM6.00002 16.0984C4.26033 16.0984 2.85002 17.5087 2.85002 19.2484C2.85002 19.8836 3.3649 20.3984 4.00002 20.3984H12C12.6352 20.3984 13.15 19.8836 13.15 19.2484C13.15 17.5087 11.7397 16.0984 10 16.0984H6.00002ZM1.15002 19.2484C1.15002 16.5699 3.32144 14.3984 6.00002 14.3984H10C12.6786 14.3984 14.85 16.5699 14.85 19.2484C14.85 20.8225 13.574 22.0984 12 22.0984H4.00002C2.42601 22.0984 1.15002 20.8224 1.15002 19.2484ZM16 14.3984C15.5306 14.3984 15.15 14.779 15.15 15.2484C15.15 15.7179 15.5306 16.0984 16 16.0984H18C19.7397 16.0984 21.15 17.5087 21.15 19.2484C21.15 19.8836 20.6352 20.3984 20 20.3984H16C15.5306 20.3984 15.15 20.779 15.15 21.2484C15.15 21.7179 15.5306 22.0984 16 22.0984H20C21.574 22.0984 22.85 20.8225 22.85 19.2484C22.85 16.5699 20.6786 14.3984 18 14.3984H16Z" fill="#B7945A"/>
</svg>
