<svg width="20" height="22" viewBox="0 0 20 22" fill="none" xmlns="http://www.w3.org/2000/svg">
<path fill-rule="evenodd" clip-rule="evenodd" d="M5.99997 0.150024C6.46941 0.150024 6.84997 0.530582 6.84997 1.00002V2.15002H12.6L12.637 2.15002C12.8137 2.15002 12.9846 2.15002 13.15 2.15027V1.00002C13.15 0.530582 13.5305 0.150024 14 0.150024C14.4694 0.150024 14.85 0.530582 14.85 1.00002V2.17913C15.0059 2.18651 15.1546 2.19576 15.2964 2.20734C16.016 2.26614 16.6342 2.38943 17.2018 2.67864C18.1144 3.14363 18.8564 3.88558 19.3214 4.79817C19.6106 5.36579 19.7339 5.98404 19.7927 6.70362C19.85 7.40535 19.85 8.27432 19.85 9.3631V9.40003V14.6V14.637C19.85 15.7257 19.85 16.5947 19.7927 17.2964C19.7339 18.016 19.6106 18.6343 19.3214 19.2019C18.8564 20.1145 18.1144 20.8564 17.2018 21.3214C16.6342 21.6106 16.016 21.7339 15.2964 21.7927C14.5947 21.85 13.7257 21.85 12.637 21.85H12.6H7.39997H7.36294C6.27421 21.85 5.40527 21.85 4.70356 21.7927C3.98399 21.7339 3.36574 21.6106 2.79812 21.3214C1.88553 20.8564 1.14357 20.1145 0.678588 19.2019C0.389371 18.6343 0.266081 18.016 0.20729 17.2964C0.149957 16.5947 0.149963 15.7258 0.14997 14.637L0.14997 14.6V8.64708L0.149935 8.47571C0.149519 7.10812 0.149246 6.21103 0.401391 5.45873C0.884735 4.01663 2.01658 2.88479 3.45868 2.40145C3.9363 2.24136 4.47228 2.18302 5.14997 2.16187V1.00002C5.14997 0.530582 5.53053 0.150024 5.99997 0.150024ZM13.15 3.85033V4.00002C13.15 4.46947 13.5305 4.85002 14 4.85002C14.4694 4.85002 14.85 4.46947 14.85 4.00002V3.88118C14.9574 3.88691 15.0598 3.89368 15.1579 3.9017C15.7724 3.9519 16.142 4.0466 16.43 4.19335C17.0228 4.49536 17.5046 4.97724 17.8066 5.56995C17.9534 5.85798 18.0481 6.22761 18.0983 6.84205C18.1493 7.46642 18.15 8.26589 18.15 9.40003V14.6C18.15 15.7342 18.1493 16.5336 18.0983 17.158C18.0481 17.7724 17.9534 18.1421 17.8066 18.4301C17.5046 19.0228 17.0228 19.5047 16.43 19.8067C16.142 19.9535 15.7724 20.0481 15.1579 20.0984C14.5336 20.1494 13.7341 20.15 12.6 20.15H7.39997C6.26584 20.15 5.46636 20.1494 4.84199 20.0984C4.22755 20.0481 3.85793 19.9535 3.5699 19.8067C2.97719 19.5047 2.4953 19.0228 2.1933 18.4301C2.04654 18.1421 1.95185 17.7724 1.90164 17.158C1.85063 16.5336 1.84997 15.7342 1.84997 14.6V8.64708C1.84997 7.04585 1.86108 6.45304 2.01326 5.99898C2.32719 5.06236 3.0623 4.32724 3.99893 4.01332C4.27072 3.92222 4.59223 3.88167 5.14997 3.8638V4.00002C5.14997 4.46947 5.53053 4.85002 5.99997 4.85002C6.46941 4.85002 6.84997 4.46947 6.84997 4.00002V3.85002H12.6C12.7927 3.85002 12.9758 3.85004 13.15 3.85033ZM4.14998 8.00002C4.14998 7.53058 4.53054 7.15002 4.99998 7.15002H15C15.4694 7.15002 15.85 7.53058 15.85 8.00002C15.85 8.46947 15.4694 8.85003 15 8.85003H4.99998C4.53054 8.85003 4.14998 8.46947 4.14998 8.00002ZM13 16.15C12.5305 16.15 12.15 16.5306 12.15 17C12.15 17.4695 12.5305 17.85 13 17.85H15C15.4694 17.85 15.85 17.4695 15.85 17C15.85 16.5306 15.4694 16.15 15 16.15H13Z" fill="#1F2937"/>
</svg>