<svg width="24" height="24" viewBox="0 0 24 24" fill="none" xmlns="http://www.w3.org/2000/svg">
<path fill-rule="evenodd" clip-rule="evenodd" d="M12 2.15039C11.5306 2.15039 11.15 2.53095 11.15 3.00039L11.15 12.0004C11.15 12.4698 11.5306 12.8504 12 12.8504L21 12.8504C21.4694 12.8504 21.85 12.4698 21.85 12.0004C21.85 6.56039 17.44 2.15039 12 2.15039ZM12.85 11.1504L12.85 3.89418C16.6723 4.29029 19.7101 7.32811 20.1062 11.1504L12.85 11.1504ZM9.31449 4.30296C9.75774 4.14833 9.99171 3.66366 9.83709 3.22042C9.68246 2.77717 9.19779 2.5432 8.75454 2.69782C8.36516 2.83366 7.98697 2.99321 7.62172 3.17473C4.38046 4.7855 2.14999 8.13169 2.14999 12.0004C2.14999 17.4404 6.55999 21.8504 12 21.8504C16.2901 21.8504 19.9375 19.1082 21.2893 15.2836C21.4457 14.841 21.2137 14.3554 20.7711 14.199C20.3285 14.0425 19.8429 14.2745 19.6865 14.7171C18.5672 17.8837 15.5472 20.1504 12 20.1504C7.49887 20.1504 3.84999 16.5015 3.84999 12.0004C3.84999 8.80166 5.69265 6.03174 8.37827 4.6971C8.68026 4.54703 8.99281 4.41518 9.31449 4.30296Z" fill="#1F2937"/>
</svg>