<svg width="20" height="20" viewBox="0 0 20 20" fill="none" xmlns="http://www.w3.org/2000/svg">
<path fill-rule="evenodd" clip-rule="evenodd" d="M1.85002 10C1.85002 5.4989 5.4989 1.85002 10 1.85002C14.5011 1.85002 18.15 5.4989 18.15 10C18.15 14.5011 14.5011 18.15 10 18.15C5.4989 18.15 1.85002 14.5011 1.85002 10ZM10 0.150024C4.56002 0.150024 0.150024 4.56002 0.150024 10C0.150024 15.44 4.56002 19.85 10 19.85C15.44 19.85 19.85 15.44 19.85 10C19.85 4.56002 15.44 0.150024 10 0.150024ZM10.85 6.00002C10.85 5.53058 10.4694 5.15002 10 5.15002C9.53056 5.15002 9.15 5.53058 9.15 6.00002V9.15002H6C5.53056 9.15002 5.15 9.53058 5.15 10C5.15 10.4695 5.53056 10.85 6 10.85H9.15V14C9.15 14.4695 9.53056 14.85 10 14.85C10.4694 14.85 10.85 14.4695 10.85 14V10.85H14C14.4694 10.85 14.85 10.4695 14.85 10C14.85 9.53058 14.4694 9.15002 14 9.15002H10.85V6.00002Z" fill="#1F2937"/>
</svg>
