<svg width="20" height="20" viewBox="0 0 20 20" fill="none" xmlns="http://www.w3.org/2000/svg">
<path fill-rule="evenodd" clip-rule="evenodd" d="M17.0448 1.87482C16.7539 1.85105 16.3745 1.85039 15.8004 1.85039H10.0004C9.52282 1.85039 9.20721 1.85085 8.96394 1.86745C8.7283 1.88353 8.62324 1.91186 8.56031 1.93793C8.27852 2.05465 8.05465 2.27852 7.93793 2.56031C7.91186 2.62324 7.88353 2.72831 7.86745 2.96394C7.86351 3.02163 7.86049 3.08338 7.85815 3.15039H12.8004L12.8342 3.15039C13.3654 3.15038 13.8148 3.15037 14.1832 3.18046C14.5693 3.21201 14.9406 3.2808 15.2943 3.46102C15.8305 3.73426 16.2665 4.17026 16.5398 4.70652C16.72 5.06023 16.7888 5.43151 16.8203 5.81758C16.8504 6.18594 16.8504 6.63534 16.8504 7.16662V7.20039V12.1426C16.9174 12.1403 16.9792 12.1373 17.0368 12.1333C17.2725 12.1173 17.3775 12.0889 17.4405 12.0629C17.7223 11.9461 17.9461 11.7223 18.0629 11.4405C18.0889 11.3775 18.1173 11.2725 18.1333 11.0368C18.1499 10.7936 18.1504 10.478 18.1504 10.0004V4.20039C18.1504 3.62631 18.1497 3.24688 18.126 2.95601C18.103 2.67507 18.0628 2.55242 18.025 2.4783C17.9148 2.26192 17.7389 2.08599 17.5225 1.97573C17.4484 1.93797 17.3257 1.89777 17.0448 1.87482ZM6.17139 2.84822C6.16481 2.94472 6.16029 3.04768 6.15718 3.15719C6.04768 3.16029 5.94472 3.16481 5.84822 3.17139C5.52603 3.19338 5.21435 3.24116 4.90974 3.36734C4.21141 3.65659 3.65659 4.21141 3.36733 4.90974C3.24116 5.21435 3.19338 5.52603 3.17139 5.84822C3.16473 5.94589 3.16018 6.0502 3.15707 6.16119C3.03713 6.16559 2.92398 6.17177 2.81758 6.18046C2.43151 6.21201 2.06023 6.2808 1.70652 6.46102C1.17026 6.73426 0.734263 7.17026 0.461024 7.70652C0.2808 8.06023 0.212007 8.43151 0.180464 8.81758C0.150368 9.18594 0.150378 9.63533 0.150391 10.1666V10.1666V10.2004V15.8004V15.8342V15.8342C0.150378 16.3655 0.150368 16.8148 0.180464 17.1832C0.212007 17.5693 0.2808 17.9406 0.461024 18.2943C0.734263 18.8305 1.17026 19.2665 1.70652 19.5398C2.06023 19.72 2.43151 19.7888 2.81758 19.8203C3.18594 19.8504 3.63534 19.8504 4.16662 19.8504H4.20039H9.80039H9.83417C10.3654 19.8504 10.8148 19.8504 11.1832 19.8203C11.5693 19.7888 11.9406 19.72 12.2943 19.5398C12.8305 19.2665 13.2665 18.8305 13.5398 18.2943C13.72 17.9406 13.7888 17.5693 13.8203 17.1832C13.829 17.0768 13.8352 16.9637 13.8396 16.8437C13.9506 16.8406 14.0549 16.8361 14.1526 16.8294C14.4748 16.8074 14.7864 16.7596 15.091 16.6334C15.7894 16.3442 16.3442 15.7894 16.6334 15.091C16.7596 14.7864 16.8074 14.4748 16.8294 14.1526C16.836 14.0561 16.8405 13.9531 16.8436 13.8436C16.9531 13.8405 17.0561 13.836 17.1526 13.8294C17.4748 13.8074 17.7864 13.7596 18.091 13.6334C18.7894 13.3442 19.3442 12.7894 19.6334 12.091C19.7596 11.7864 19.8074 11.4748 19.8294 11.1526C19.8504 10.8445 19.8504 10.4705 19.8504 10.0285V10.0284V10.0004V4.20039V4.16662V4.16653C19.8504 3.63529 19.8504 3.18592 19.8203 2.81758C19.7888 2.43151 19.72 2.06023 19.5398 1.70652C19.2665 1.17026 18.8305 0.734263 18.2943 0.461024C17.9406 0.2808 17.5693 0.212007 17.1832 0.180464C16.8148 0.150368 16.3655 0.150378 15.8342 0.150391H15.8342H15.8004H10.0004H9.97236H9.97232C9.53027 0.150383 9.15628 0.150375 8.84822 0.171394C8.52603 0.193377 8.21435 0.241164 7.90974 0.367336C7.21141 0.656593 6.65659 1.21141 6.36733 1.90974C6.24116 2.21435 6.19338 2.52603 6.17139 2.84822ZM13.8504 15.1426C13.9174 15.1403 13.9792 15.1373 14.0368 15.1333C14.2725 15.1173 14.3775 15.0889 14.4405 15.0629C14.7223 14.9461 14.9461 14.7223 15.0629 14.4405C15.0889 14.3775 15.1173 14.2725 15.1333 14.0368C15.1499 13.7936 15.1504 13.478 15.1504 13.0004V7.20039C15.1504 6.62631 15.1497 6.24688 15.126 5.95601C15.103 5.67507 15.0628 5.55242 15.025 5.4783C14.9148 5.26192 14.7389 5.08599 14.5225 4.97573C14.4484 4.93797 14.3257 4.89777 14.0448 4.87482C13.7539 4.85105 13.3745 4.85039 12.8004 4.85039H7.00039C6.52282 4.85039 6.20721 4.85085 5.96394 4.86745C5.7283 4.88353 5.62324 4.91186 5.56031 4.93793C5.27852 5.05465 5.05465 5.27852 4.93793 5.56031C4.91186 5.62324 4.88353 5.72831 4.86745 5.96394C4.86351 6.02163 4.86049 6.08338 4.85816 6.15039H9.80039L9.83418 6.15039H9.83418C10.3654 6.15038 10.8148 6.15037 11.1832 6.18046C11.5693 6.21201 11.9406 6.2808 12.2943 6.46102C12.8305 6.73426 13.2665 7.17026 13.5398 7.70652C13.72 8.06023 13.7888 8.43151 13.8203 8.81758C13.8504 9.18594 13.8504 9.63534 13.8504 10.1666V10.1666V10.2004V15.1426ZM2.4783 7.97574C2.55242 7.93797 2.67507 7.89777 2.95601 7.87482C3.24688 7.85105 3.62631 7.85039 4.20039 7.85039H9.80039C10.3745 7.85039 10.7539 7.85105 11.0448 7.87482C11.3257 7.89777 11.4484 7.93797 11.5225 7.97574C11.7389 8.08599 11.9148 8.26192 12.0251 8.4783C12.0628 8.55242 12.103 8.67507 12.126 8.95601C12.1497 9.24688 12.1504 9.62632 12.1504 10.2004V15.8004C12.1504 16.3745 12.1497 16.7539 12.126 17.0448C12.103 17.3257 12.0628 17.4484 12.0251 17.5225C11.9148 17.7389 11.7389 17.9148 11.5225 18.025C11.4484 18.0628 11.3257 18.103 11.0448 18.126C10.7539 18.1497 10.3745 18.1504 9.80039 18.1504H4.20039C3.62631 18.1504 3.24688 18.1497 2.95601 18.126C2.67507 18.103 2.55242 18.0628 2.4783 18.025C2.26192 17.9148 2.08599 17.7389 1.97573 17.5225C1.93797 17.4484 1.89777 17.3257 1.87482 17.0448C1.85105 16.7539 1.85039 16.3745 1.85039 15.8004V10.2004C1.85039 9.62632 1.85105 9.24688 1.87482 8.95601C1.89777 8.67507 1.93797 8.55242 1.97573 8.4783C2.08599 8.26192 2.26192 8.08599 2.4783 7.97574Z" fill="#B7945A"/>
</svg>
