<svg width="21" height="21" viewBox="0 0 21 21" fill="none" xmlns="http://www.w3.org/2000/svg">
<path fill-rule="evenodd" clip-rule="evenodd" d="M15.0555 3.11592C13.8254 1.88577 11.8309 1.88577 10.6007 3.11592L3.52967 10.187C1.51847 12.1982 1.51847 15.459 3.52967 17.4702C5.54087 19.4814 8.80167 19.4814 10.8129 17.4702L18.591 9.69202C18.923 9.36007 19.4612 9.36007 19.7931 9.69202C20.1251 10.024 20.1251 10.5622 19.7931 10.8941L12.015 18.6723C9.33986 21.3474 5.00268 21.3474 2.32759 18.6723C-0.347502 15.9972 -0.347502 11.66 2.32759 8.98491L9.39866 1.91384C11.2927 0.0198 14.3636 0.0198002 16.2576 1.91384C18.1516 3.80789 18.1516 6.87874 16.2576 8.77278L9.18653 15.8438C8.07353 16.9568 6.26901 16.9568 5.15602 15.8438C4.04302 14.7309 4.04302 12.9263 5.15602 11.8133L12.2271 4.74227C12.559 4.41032 13.0972 4.41032 13.4292 4.74227C13.7611 5.07422 13.7611 5.61241 13.4292 5.94435L6.3581 13.0154C5.909 13.4645 5.909 14.1927 6.3581 14.6418C6.8072 15.0909 7.53534 15.0909 7.98444 14.6418L15.0555 7.5707C16.2857 6.34055 16.2857 4.34608 15.0555 3.11592Z" fill="#9CA3AF"/>
</svg>
