<svg width="23" height="24" viewBox="0 0 23 24" fill="none" xmlns="http://www.w3.org/2000/svg">
<path d="M18.2096 4.33317H16.293V3.37484C16.293 3.12067 16.192 2.87692 16.0123 2.69719C15.8326 2.51747 15.5888 2.4165 15.3346 2.4165C15.0805 2.4165 14.8367 2.51747 14.657 2.69719C14.4773 2.87692 14.3763 3.12067 14.3763 3.37484V4.33317H8.6263V3.37484C8.6263 3.12067 8.52534 2.87692 8.34561 2.69719C8.16589 2.51747 7.92213 2.4165 7.66797 2.4165C7.4138 2.4165 7.17005 2.51747 6.99032 2.69719C6.8106 2.87692 6.70964 3.12067 6.70964 3.37484V4.33317H4.79297C4.03047 4.33317 3.2992 4.63607 2.76004 5.17524C2.22087 5.71441 1.91797 6.44567 1.91797 7.20817V18.7082C1.91797 19.4707 2.22087 20.2019 2.76004 20.7411C3.2992 21.2803 4.03047 21.5832 4.79297 21.5832H18.2096C18.9721 21.5832 19.7034 21.2803 20.2426 20.7411C20.7817 20.2019 21.0846 19.4707 21.0846 18.7082V7.20817C21.0846 6.44567 20.7817 5.71441 20.2426 5.17524C19.7034 4.63607 18.9721 4.33317 18.2096 4.33317ZM19.168 18.7082C19.168 18.9623 19.067 19.2061 18.8873 19.3858C18.7076 19.5655 18.4638 19.6665 18.2096 19.6665H4.79297C4.5388 19.6665 4.29505 19.5655 4.11532 19.3858C3.9356 19.2061 3.83464 18.9623 3.83464 18.7082V11.9998H19.168V18.7082ZM19.168 10.0832H3.83464V7.20817C3.83464 6.954 3.9356 6.71025 4.11532 6.53053C4.29505 6.3508 4.5388 6.24984 4.79297 6.24984H6.70964V7.20817C6.70964 7.46234 6.8106 7.70609 6.99032 7.88581C7.17005 8.06554 7.4138 8.1665 7.66797 8.1665C7.92213 8.1665 8.16589 8.06554 8.34561 7.88581C8.52534 7.70609 8.6263 7.46234 8.6263 7.20817V6.24984H14.3763V7.20817C14.3763 7.46234 14.4773 7.70609 14.657 7.88581C14.8367 8.06554 15.0805 8.1665 15.3346 8.1665C15.5888 8.1665 15.8326 8.06554 16.0123 7.88581C16.192 7.70609 16.293 7.46234 16.293 7.20817V6.24984H18.2096C18.4638 6.24984 18.7076 6.3508 18.8873 6.53053C19.067 6.71025 19.168 6.954 19.168 7.20817V10.0832Z" fill="white"/>
</svg>
