<svg width="25" height="24" viewBox="0 0 25 24" fill="none" xmlns="http://www.w3.org/2000/svg">
<path d="M12.5 19C12.6978 19 12.8911 18.9414 13.0556 18.8315C13.22 18.7216 13.3482 18.5654 13.4239 18.3827C13.4996 18.2 13.5194 17.9989 13.4808 17.8049C13.4422 17.6109 13.347 17.4327 13.2071 17.2929C13.0673 17.153 12.8891 17.0578 12.6951 17.0192C12.5011 16.9806 12.3 17.0004 12.1173 17.0761C11.9346 17.1518 11.7784 17.28 11.6685 17.4444C11.5586 17.6089 11.5 17.8022 11.5 18C11.5 18.2652 11.6054 18.5196 11.7929 18.7071C11.9804 18.8946 12.2348 19 12.5 19ZM17.5 19C17.6978 19 17.8911 18.9414 18.0556 18.8315C18.22 18.7216 18.3482 18.5654 18.4239 18.3827C18.4996 18.2 18.5194 17.9989 18.4808 17.8049C18.4422 17.6109 18.347 17.4327 18.2071 17.2929C18.0673 17.153 17.8891 17.0578 17.6951 17.0192C17.5011 16.9806 17.3 17.0004 17.1173 17.0761C16.9346 17.1518 16.7784 17.28 16.6685 17.4444C16.5586 17.6089 16.5 17.8022 16.5 18C16.5 18.2652 16.6054 18.5196 16.7929 18.7071C16.9804 18.8946 17.2348 19 17.5 19ZM17.5 15C17.6978 15 17.8911 14.9414 18.0556 14.8315C18.22 14.7216 18.3482 14.5654 18.4239 14.3827C18.4996 14.2 18.5194 13.9989 18.4808 13.8049C18.4422 13.6109 18.347 13.4327 18.2071 13.2929C18.0673 13.153 17.8891 13.0578 17.6951 13.0192C17.5011 12.9806 17.3 13.0004 17.1173 13.0761C16.9346 13.1518 16.7784 13.28 16.6685 13.4444C16.5586 13.6089 16.5 13.8022 16.5 14C16.5 14.2652 16.6054 14.5196 16.7929 14.7071C16.9804 14.8946 17.2348 15 17.5 15ZM12.5 15C12.6978 15 12.8911 14.9414 13.0556 14.8315C13.22 14.7216 13.3482 14.5654 13.4239 14.3827C13.4996 14.2 13.5194 13.9989 13.4808 13.8049C13.4422 13.6109 13.347 13.4327 13.2071 13.2929C13.0673 13.153 12.8891 13.0578 12.6951 13.0192C12.5011 12.9806 12.3 13.0004 12.1173 13.0761C11.9346 13.1518 11.7784 13.28 11.6685 13.4444C11.5586 13.6089 11.5 13.8022 11.5 14C11.5 14.2652 11.6054 14.5196 11.7929 14.7071C11.9804 14.8946 12.2348 15 12.5 15ZM19.5 3H18.5V2C18.5 1.73478 18.3946 1.48043 18.2071 1.29289C18.0196 1.10536 17.7652 1 17.5 1C17.2348 1 16.9804 1.10536 16.7929 1.29289C16.6054 1.48043 16.5 1.73478 16.5 2V3H8.5V2C8.5 1.73478 8.39464 1.48043 8.20711 1.29289C8.01957 1.10536 7.76522 1 7.5 1C7.23478 1 6.98043 1.10536 6.79289 1.29289C6.60536 1.48043 6.5 1.73478 6.5 2V3H5.5C4.70435 3 3.94129 3.31607 3.37868 3.87868C2.81607 4.44129 2.5 5.20435 2.5 6V20C2.5 20.7956 2.81607 21.5587 3.37868 22.1213C3.94129 22.6839 4.70435 23 5.5 23H19.5C20.2956 23 21.0587 22.6839 21.6213 22.1213C22.1839 21.5587 22.5 20.7956 22.5 20V6C22.5 5.20435 22.1839 4.44129 21.6213 3.87868C21.0587 3.31607 20.2956 3 19.5 3ZM20.5 20C20.5 20.2652 20.3946 20.5196 20.2071 20.7071C20.0196 20.8946 19.7652 21 19.5 21H5.5C5.23478 21 4.98043 20.8946 4.79289 20.7071C4.60536 20.5196 4.5 20.2652 4.5 20V11H20.5V20ZM20.5 9H4.5V6C4.5 5.73478 4.60536 5.48043 4.79289 5.29289C4.98043 5.10536 5.23478 5 5.5 5H6.5V6C6.5 6.26522 6.60536 6.51957 6.79289 6.70711C6.98043 6.89464 7.23478 7 7.5 7C7.76522 7 8.01957 6.89464 8.20711 6.70711C8.39464 6.51957 8.5 6.26522 8.5 6V5H16.5V6C16.5 6.26522 16.6054 6.51957 16.7929 6.70711C16.9804 6.89464 17.2348 7 17.5 7C17.7652 7 18.0196 6.89464 18.2071 6.70711C18.3946 6.51957 18.5 6.26522 18.5 6V5H19.5C19.7652 5 20.0196 5.10536 20.2071 5.29289C20.3946 5.48043 20.5 5.73478 20.5 6V9ZM7.5 15C7.69778 15 7.89112 14.9414 8.05557 14.8315C8.22002 14.7216 8.34819 14.5654 8.42388 14.3827C8.49957 14.2 8.51937 13.9989 8.48079 13.8049C8.4422 13.6109 8.34696 13.4327 8.20711 13.2929C8.06725 13.153 7.88907 13.0578 7.69509 13.0192C7.50111 12.9806 7.30004 13.0004 7.11732 13.0761C6.93459 13.1518 6.77841 13.28 6.66853 13.4444C6.55865 13.6089 6.5 13.8022 6.5 14C6.5 14.2652 6.60536 14.5196 6.79289 14.7071C6.98043 14.8946 7.23478 15 7.5 15ZM7.5 19C7.69778 19 7.89112 18.9414 8.05557 18.8315C8.22002 18.7216 8.34819 18.5654 8.42388 18.3827C8.49957 18.2 8.51937 17.9989 8.48079 17.8049C8.4422 17.6109 8.34696 17.4327 8.20711 17.2929C8.06725 17.153 7.88907 17.0578 7.69509 17.0192C7.50111 16.9806 7.30004 17.0004 7.11732 17.0761C6.93459 17.1518 6.77841 17.28 6.66853 17.4444C6.55865 17.6089 6.5 17.8022 6.5 18C6.5 18.2652 6.60536 18.5196 6.79289 18.7071C6.98043 18.8946 7.23478 19 7.5 19Z" fill="#DC2626"/>
</svg>
