<svg width="24" height="24" viewBox="0 0 24 24" fill="none" xmlns="http://www.w3.org/2000/svg">
<path fill-rule="evenodd" clip-rule="evenodd" d="M3.85039 12.0004C3.85039 7.49927 7.49927 3.85039 12.0004 3.85039C16.5015 3.85039 20.1504 7.49927 20.1504 12.0004C20.1504 16.5015 16.5015 20.1504 12.0004 20.1504C7.49927 20.1504 3.85039 16.5015 3.85039 12.0004ZM12.0004 2.15039C6.56039 2.15039 2.15039 6.56039 2.15039 12.0004C2.15039 17.4404 6.56039 21.8504 12.0004 21.8504C17.4404 21.8504 21.8504 17.4404 21.8504 12.0004C21.8504 6.56039 17.4404 2.15039 12.0004 2.15039Z" fill="#F372B5"/>
<path d="M5.00037 7.00037C4.25283 6.56877 4.08511 6.75499 3.85039 7.16154C3.61567 7.56809 3.40283 8.04102 4.15037 8.47261L19.0004 17.0004C19.7479 17.432 19.6369 17.061 19.8716 16.6544C20.1063 16.2479 20.2479 15.932 19.5004 15.5004L5.00037 7.00037Z" fill="#F372B5"/>
</svg>
