<svg width="24" height="24" viewBox="0 0 24 24" fill="none" xmlns="http://www.w3.org/2000/svg">
<path fill-rule="evenodd" clip-rule="evenodd" d="M3.8499 12.0004C3.8499 7.49927 7.49878 3.85039 11.9999 3.85039C16.501 3.85039 20.1499 7.49927 20.1499 12.0004C20.1499 16.5015 16.501 20.1504 11.9999 20.1504C7.49878 20.1504 3.8499 16.5015 3.8499 12.0004ZM11.9999 2.15039C6.5599 2.15039 2.1499 6.56039 2.1499 12.0004C2.1499 17.4404 6.5599 21.8504 11.9999 21.8504C17.4399 21.8504 21.8499 17.4404 21.8499 12.0004C21.8499 6.56039 17.4399 2.15039 11.9999 2.15039Z" fill="#6B7280"/>
<path d="M4.99988 7.00037C4.25234 6.56877 4.08462 6.75499 3.8499 7.16154C3.61518 7.56809 3.40234 8.04102 4.14988 8.47261L18.9999 17.0004C19.7474 17.432 19.6364 17.061 19.8711 16.6544C20.1059 16.2479 20.2474 15.932 19.4999 15.5004L4.99988 7.00037Z" fill="#6B7280"/>
</svg>
