 <svg
                
                width="24"
                height="24"
                viewBox="0 0 24 24"
                fill="none"
                xmlns="http://www.w3.org/2000/svg"
              >
                <path
                  fill-rule="evenodd"
                  clip-rule="evenodd"
                  d="M6.16624 2.14844H6.20003H12H17.8H17.8338H17.8338C18.3651 2.14843 18.8145 2.14841 19.1828 2.17851C19.5689 2.21005 19.9402 2.27885 20.2939 2.45907C20.8302 2.73231 21.2662 3.1683 21.5394 3.70457C21.7196 4.05828 21.7884 4.42956 21.82 4.81563C21.85 5.184 21.85 5.63342 21.85 6.16471V6.19844V11.9984V17.7984V17.8322C21.85 18.3635 21.85 18.8129 21.82 19.1813C21.7884 19.5673 21.7196 19.9386 21.5394 20.2923C21.2662 20.8286 20.8302 21.2646 20.2939 21.5378C19.9402 21.718 19.5689 21.7868 19.1828 21.8184C18.8145 21.8485 18.365 21.8485 17.8338 21.8484H17.8H12H6.20003H6.1663C5.635 21.8485 5.18559 21.8485 4.81721 21.8184C4.43114 21.7868 4.05986 21.718 3.70615 21.5378C3.16989 21.2646 2.7339 20.8286 2.46066 20.2923C2.28043 19.9386 2.21164 19.5673 2.1801 19.1813C2.15 18.8129 2.15001 18.3635 2.15002 17.8323V17.8322V17.7984V11.9984V6.19844V6.16466V6.16463C2.15001 5.63337 2.15 5.18398 2.1801 4.81563C2.21164 4.42956 2.28043 4.05828 2.46066 3.70457C2.7339 3.1683 3.16989 2.73231 3.70615 2.45907C4.05986 2.27885 4.43114 2.21005 4.81721 2.17851C5.18557 2.14841 5.63496 2.14843 6.16621 2.14844H6.16624ZM3.85003 12.8484V17.7984C3.85003 18.3725 3.85069 18.752 3.87445 19.0428C3.89741 19.3238 3.93761 19.4464 3.97537 19.5205C4.08562 19.7369 4.26155 19.9128 4.47794 20.0231C4.55205 20.0609 4.67471 20.1011 4.95565 20.124C5.24651 20.1478 5.62595 20.1484 6.20003 20.1484H11.15V12.8484H3.85003ZM11.15 11.1484H3.85003V6.19844C3.85003 5.62436 3.85069 5.24492 3.87445 4.95406C3.89741 4.67312 3.93761 4.55046 3.97537 4.47635C4.08562 4.25996 4.26155 4.08404 4.47794 3.97378C4.55205 3.93602 4.67471 3.89582 4.95565 3.87286C5.24651 3.8491 5.62595 3.84844 6.20003 3.84844H11.15V11.1484ZM12.85 12.8484V20.1484H17.8C18.3741 20.1484 18.7535 20.1478 19.0444 20.124C19.3253 20.1011 19.448 20.0609 19.5221 20.0231C19.7385 19.9128 19.9144 19.7369 20.0247 19.5205C20.0624 19.4464 20.1026 19.3238 20.1256 19.0428C20.1494 18.752 20.15 18.3725 20.15 17.7984V12.8484H12.85ZM20.15 11.1484H12.85V3.84844H17.8C18.3741 3.84844 18.7535 3.8491 19.0444 3.87286C19.3253 3.89582 19.448 3.93602 19.5221 3.97378C19.7385 4.08404 19.9144 4.25996 20.0247 4.47635C20.0624 4.55046 20.1026 4.67312 20.1256 4.95406C20.1494 5.24492 20.15 5.62436 20.15 6.19844V11.1484Z"
                  fill="#9CA3AF"
                />
              </svg>