<svg width="19" height="20" viewBox="0 0 19 20" fill="none" xmlns="http://www.w3.org/2000/svg">
<path fill-rule="evenodd" clip-rule="evenodd" d="M9.49818 0.560547C4.28484 0.560547 0.0585938 4.78679 0.0585938 10.0001C0.0585938 15.2135 4.28484 19.4397 9.49818 19.4397C14.7115 19.4397 18.9378 15.2135 18.9378 10.0001C18.9378 4.78679 14.7115 0.560547 9.49818 0.560547ZM1.68776 10.0001C1.68776 5.68656 5.1846 2.18971 9.49818 2.18971C13.8118 2.18971 17.3086 5.68656 17.3086 10.0001C17.3086 14.3137 13.8118 17.8105 9.49818 17.8105C5.1846 17.8105 1.68776 14.3137 1.68776 10.0001ZM10.3128 6.1668C10.3128 5.71691 9.94806 5.35221 9.49818 5.35221C9.0483 5.35221 8.68359 5.71691 8.68359 6.1668V10.0001C8.68359 10.2725 8.81971 10.5268 9.04633 10.6779L11.9213 12.5946C12.2957 12.8441 12.8014 12.743 13.051 12.3686C13.3005 11.9943 13.1994 11.4886 12.825 11.239L10.3128 9.56418V6.1668Z" fill="white"/>
</svg>
