<svg width="24" height="24" viewBox="0 0 24 24" fill="none" xmlns="http://www.w3.org/2000/svg">
<path fill-rule="evenodd" clip-rule="evenodd" d="M5.39898 5.39895C5.73093 5.06701 6.26912 5.06701 6.60107 5.39895L12 10.7979L17.399 5.39895C17.7309 5.06701 18.2691 5.06701 18.6011 5.39895C18.933 5.7309 18.933 6.26909 18.6011 6.60103L13.2021 12L18.6011 17.399C18.933 17.7309 18.933 18.2691 18.6011 18.601C18.2691 18.933 17.7309 18.933 17.399 18.601L12 13.2021L6.60107 18.601C6.26912 18.933 5.73093 18.933 5.39898 18.601C5.06704 18.2691 5.06704 17.7309 5.39898 17.399L10.7979 12L5.39898 6.60103C5.06704 6.26909 5.06704 5.7309 5.39898 5.39895Z" fill="#1F2937"/>
</svg>
