<svg width="20" height="21" viewBox="0 0 20 21" fill="none" xmlns="http://www.w3.org/2000/svg">
<path fill-rule="evenodd" clip-rule="evenodd" d="M17.0428 2.37433C16.752 2.35057 16.3725 2.3499 15.7984 2.3499H9.99844C9.52087 2.3499 9.20526 2.35036 8.96199 2.36696C8.72635 2.38304 8.62129 2.41137 8.55835 2.43744C8.27657 2.55416 8.05269 2.77804 7.93598 3.05982C7.90991 3.12276 7.88157 3.22782 7.8655 3.46345C7.86156 3.52114 7.85853 3.58289 7.8562 3.6499H12.7984L12.8322 3.6499C13.3635 3.64989 13.8129 3.64988 14.1813 3.67998C14.5673 3.71152 14.9386 3.78031 15.2923 3.96054C15.8286 4.23377 16.2646 4.66977 16.5378 5.20603C16.718 5.55974 16.7868 5.93102 16.8184 6.31709C16.8485 6.68546 16.8485 7.13486 16.8484 7.66613V7.6999V12.6421C16.9155 12.6398 16.9772 12.6368 17.0349 12.6328C17.2705 12.6168 17.3756 12.5884 17.4385 12.5624C17.7203 12.4456 17.9442 12.2218 18.0609 11.94C18.087 11.8771 18.1153 11.772 18.1314 11.5364C18.148 11.2931 18.1484 10.9775 18.1484 10.4999V4.6999C18.1484 4.12583 18.1478 3.74639 18.124 3.45552C18.1011 3.17459 18.0609 3.05193 18.0231 2.97781C17.9128 2.76143 17.7369 2.5855 17.5205 2.47525C17.4464 2.43748 17.3238 2.39728 17.0428 2.37433ZM6.16944 3.34773C6.16286 3.44423 6.15833 3.5472 6.15523 3.6567C6.04573 3.6598 5.94276 3.66432 5.84627 3.67091C5.52407 3.69289 5.21239 3.74068 4.90779 3.86685C4.20946 4.15611 3.65464 4.71093 3.36538 5.40926C3.23921 5.71386 3.19142 6.02554 3.16944 6.34773C3.16278 6.44541 3.15822 6.54971 3.15512 6.66071C3.03518 6.6651 2.92202 6.67128 2.81563 6.67998C2.42956 6.71152 2.05828 6.78031 1.70457 6.96054C1.1683 7.23377 0.73231 7.66977 0.459071 8.20603C0.278847 8.55974 0.210054 8.93102 0.17851 9.31709C0.148414 9.68545 0.148425 10.1348 0.148438 10.6661V10.6661V10.6999V16.2999V16.3337V16.3337C0.148425 16.865 0.148414 17.3144 0.17851 17.6827C0.210054 18.0688 0.278847 18.4401 0.459071 18.7938C0.73231 19.33 1.1683 19.766 1.70457 20.0393C2.05828 20.2195 2.42956 20.2883 2.81563 20.3198C3.18399 20.3499 3.63339 20.3499 4.16466 20.3499H4.19844H9.79844H9.83221C10.3635 20.3499 10.8129 20.3499 11.1813 20.3198C11.5673 20.2883 11.9386 20.2195 12.2923 20.0393C12.8286 19.766 13.2646 19.33 13.5378 18.7938C13.718 18.4401 13.7868 18.0688 13.8184 17.6827C13.8271 17.5763 13.8332 17.4632 13.8376 17.3432C13.9486 17.3401 14.0529 17.3356 14.1506 17.3289C14.4728 17.3069 14.7845 17.2591 15.0891 17.133C15.7874 16.8437 16.3422 16.2889 16.6315 15.5906C16.7577 15.2859 16.8055 14.9743 16.8274 14.6521C16.834 14.5556 16.8385 14.4526 16.8416 14.3431C16.9511 14.34 17.0541 14.3355 17.1506 14.3289C17.4728 14.3069 17.7845 14.2591 18.0891 14.133C18.7874 13.8437 19.3422 13.2889 19.6315 12.5906C19.7577 12.2859 19.8055 11.9743 19.8274 11.6521C19.8485 11.344 19.8484 10.97 19.8484 10.528V10.5279V10.4999V4.6999V4.66613V4.66604C19.8484 4.1348 19.8485 3.68543 19.8184 3.31709C19.7868 2.93102 19.718 2.55974 19.5378 2.20603C19.2646 1.66977 18.8286 1.23377 18.2923 0.960535C17.9386 0.780311 17.5673 0.711518 17.1813 0.679975C16.8129 0.649879 16.3635 0.64989 15.8322 0.649903H15.8322H15.7984H9.99844H9.97041H9.97037C9.52832 0.649894 9.15432 0.649887 8.84627 0.670906C8.52407 0.692889 8.21239 0.740676 7.90779 0.866847C7.20946 1.15611 6.65464 1.71093 6.36538 2.40926C6.23921 2.71386 6.19142 3.02554 6.16944 3.34773ZM13.8484 15.6421C13.9155 15.6398 13.9772 15.6368 14.0349 15.6328C14.2705 15.6168 14.3756 15.5884 14.4385 15.5624C14.7203 15.4456 14.9442 15.2218 15.0609 14.94C15.087 14.8771 15.1153 14.772 15.1314 14.5364C15.148 14.2931 15.1484 13.9775 15.1484 13.4999V7.6999C15.1484 7.12583 15.1478 6.74639 15.124 6.45552C15.1011 6.17459 15.0609 6.05193 15.0231 5.97781C14.9128 5.76143 14.7369 5.5855 14.5205 5.47525C14.4464 5.43748 14.3238 5.39728 14.0428 5.37433C13.752 5.35056 13.3725 5.3499 12.7984 5.3499H6.99844C6.52087 5.3499 6.20526 5.35036 5.96199 5.36696C5.72635 5.38304 5.62129 5.41137 5.55835 5.43744C5.27657 5.55416 5.05269 5.77804 4.93598 6.05982C4.90991 6.12276 4.88157 6.22782 4.8655 6.46345C4.86156 6.52114 4.85853 6.58289 4.8562 6.6499H9.79844L9.83222 6.6499H9.83223C10.3635 6.64989 10.8129 6.64988 11.1813 6.67998C11.5673 6.71152 11.9386 6.78031 12.2923 6.96054C12.8286 7.23377 13.2646 7.66977 13.5378 8.20603C13.718 8.55974 13.7868 8.93102 13.8184 9.31709C13.8485 9.68546 13.8485 10.1349 13.8484 10.6661V10.6661V10.6999V15.6421ZM2.47635 8.47525C2.55046 8.43748 2.67312 8.39728 2.95406 8.37433C3.24492 8.35057 3.62436 8.3499 4.19844 8.3499H9.79844C10.3725 8.3499 10.752 8.35057 11.0428 8.37433C11.3238 8.39728 11.4464 8.43748 11.5205 8.47525C11.7369 8.5855 11.9128 8.76143 12.0231 8.97782C12.0609 9.05193 12.1011 9.17459 12.124 9.45553C12.1478 9.74639 12.1484 10.1258 12.1484 10.6999V16.2999C12.1484 16.874 12.1478 17.2534 12.124 17.5443C12.1011 17.8252 12.0609 17.9479 12.0231 18.022C11.9128 18.2384 11.7369 18.4143 11.5205 18.5246C11.4464 18.5623 11.3238 18.6025 11.0428 18.6255C10.752 18.6492 10.3725 18.6499 9.79844 18.6499H4.19844C3.62436 18.6499 3.24492 18.6492 2.95406 18.6255C2.67312 18.6025 2.55046 18.5623 2.47635 18.5246C2.25996 18.4143 2.08404 18.2384 1.97378 18.022C1.93602 17.9479 1.89582 17.8252 1.87286 17.5443C1.8491 17.2534 1.84844 16.874 1.84844 16.2999V10.6999C1.84844 10.1258 1.8491 9.74639 1.87286 9.45553C1.89582 9.17459 1.93602 9.05193 1.97378 8.97782C2.08404 8.76143 2.25996 8.5855 2.47635 8.47525Z" fill="white"/>
</svg>
