<svg width="20" height="20" viewBox="0 0 20 20" fill="none" xmlns="http://www.w3.org/2000/svg">
<g id="Group">
<path id="Vector" d="M12 10.5H11V9.50002C11 9.23481 10.8946 8.98045 10.7071 8.79292C10.5196 8.60538 10.2652 8.50002 10 8.50002C9.73478 8.50002 9.48043 8.60538 9.29289 8.79292C9.10536 8.98045 9 9.23481 9 9.50002V10.5H8C7.73478 10.5 7.48043 10.6054 7.29289 10.7929C7.10536 10.9805 7 11.2348 7 11.5C7 11.7652 7.10536 12.0196 7.29289 12.2071C7.48043 12.3947 7.73478 12.5 8 12.5H9V13.5C9 13.7652 9.10536 14.0196 9.29289 14.2071C9.48043 14.3947 9.73478 14.5 10 14.5C10.2652 14.5 10.5196 14.3947 10.7071 14.2071C10.8946 14.0196 11 13.7652 11 13.5V12.5H12C12.2652 12.5 12.5196 12.3947 12.7071 12.2071C12.8946 12.0196 13 11.7652 13 11.5C13 11.2348 12.8946 10.9805 12.7071 10.7929C12.5196 10.6054 12.2652 10.5 12 10.5ZM17 3.50002H10.72L10.4 2.50002C10.1926 1.91325 9.80775 1.40553 9.2989 1.04718C8.79005 0.688841 8.18236 0.497623 7.56 0.500022H3C2.20435 0.500022 1.44129 0.816093 0.87868 1.3787C0.316071 1.94131 0 2.70437 0 3.50002V16.5C0 17.2957 0.316071 18.0587 0.87868 18.6213C1.44129 19.184 2.20435 19.5 3 19.5H17C17.7956 19.5 18.5587 19.184 19.1213 18.6213C19.6839 18.0587 20 17.2957 20 16.5V6.50002C20 5.70437 19.6839 4.94131 19.1213 4.3787C18.5587 3.81609 17.7956 3.50002 17 3.50002ZM18 16.5C18 16.7652 17.8946 17.0196 17.7071 17.2071C17.5196 17.3947 17.2652 17.5 17 17.5H3C2.73478 17.5 2.48043 17.3947 2.29289 17.2071C2.10536 17.0196 2 16.7652 2 16.5V3.50002C2 3.23481 2.10536 2.98045 2.29289 2.79292C2.48043 2.60538 2.73478 2.50002 3 2.50002H7.56C7.76964 2.49948 7.97416 2.56484 8.14463 2.68686C8.3151 2.80889 8.44291 2.9814 8.51 3.18002L9.05 4.82002C9.11709 5.01864 9.2449 5.19116 9.41537 5.31318C9.58584 5.4352 9.79036 5.50056 10 5.50002H17C17.2652 5.50002 17.5196 5.60538 17.7071 5.79292C17.8946 5.98045 18 6.23481 18 6.50002V16.5Z" fill="#ffff"/>
</g>
</svg>
