<svg width="24" height="24" viewBox="0 0 24 24" fill="none" xmlns="http://www.w3.org/2000/svg">
<path fill-rule="evenodd" clip-rule="evenodd" d="M3.8499 12.0004C3.8499 7.49927 7.49878 3.85039 11.9999 3.85039C16.501 3.85039 20.1499 7.49927 20.1499 12.0004C20.1499 16.5015 16.501 20.1504 11.9999 20.1504C7.49878 20.1504 3.8499 16.5015 3.8499 12.0004ZM11.9999 2.15039C6.5599 2.15039 2.1499 6.56039 2.1499 12.0004C2.1499 17.4404 6.5599 21.8504 11.9999 21.8504C17.4399 21.8504 21.8499 17.4404 21.8499 12.0004C21.8499 6.56039 17.4399 2.15039 11.9999 2.15039ZM9.60094 8.39935C9.269 8.0674 8.73081 8.0674 8.39886 8.39935C8.06692 8.7313 8.06692 9.26949 8.39886 9.60143L10.7978 12.0004L8.39886 14.3994C8.06692 14.7313 8.06692 15.2695 8.39886 15.6014C8.73081 15.9334 9.269 15.9334 9.60094 15.6014L11.9999 13.2025L14.3989 15.6014C14.7308 15.9334 15.269 15.9334 15.6009 15.6014C15.9329 15.2695 15.9329 14.7313 15.6009 14.3994L13.202 12.0004L15.6009 9.60143C15.9329 9.26949 15.9329 8.7313 15.6009 8.39935C15.269 8.0674 14.7308 8.0674 14.3989 8.39935L11.9999 10.7983L9.60094 8.39935Z" fill="#2F4858"/>
</svg>
