<svg width="24" height="24" viewBox="0 0 24 24" fill="none" xmlns="http://www.w3.org/2000/svg">
<path fill-rule="evenodd" clip-rule="evenodd" d="M9.7192 3.8499C9.65463 3.8499 9.59731 3.89122 9.57689 3.95247L9.17775 5.1499H14.8191L14.42 3.95247C14.3996 3.89122 14.3422 3.8499 14.2777 3.8499H9.7192ZM16.6111 5.1499L16.0327 3.41488C15.7809 2.65945 15.074 2.1499 14.2777 2.1499H9.7192C8.9229 2.1499 8.21594 2.65945 7.96413 3.41488L7.38579 5.1499H4.99844H2.99844C2.529 5.1499 2.14844 5.53046 2.14844 5.9999C2.14844 6.46934 2.529 6.8499 2.99844 6.8499H4.20322L4.96362 18.256C5.09845 20.2784 6.77821 21.8499 8.8051 21.8499H15.1918C17.2187 21.8499 18.8984 20.2784 19.0333 18.256L19.7937 6.8499H20.9984C21.4679 6.8499 21.8484 6.46934 21.8484 5.9999C21.8484 5.53046 21.4679 5.1499 20.9984 5.1499H18.9984H16.6111ZM18.0899 6.8499H15.9984H7.99844H5.90699L6.65986 18.1429C6.73515 19.2723 7.6732 20.1499 8.8051 20.1499H15.1918C16.3237 20.1499 17.2617 19.2723 17.337 18.1429L18.0899 6.8499Z" fill="#9CA3AF"/>
</svg>
