<svg width="20" height="18" viewBox="0 0 20 18" fill="none" xmlns="http://www.w3.org/2000/svg">
<g id="Group">
<path id="Vector" d="M7.99999 10H12C12.2652 10 12.5196 9.89464 12.7071 9.70711C12.8946 9.51957 13 9.26522 13 9C13 8.73478 12.8946 8.48043 12.7071 8.29289C12.5196 8.10536 12.2652 8 12 8H7.99999C7.73477 8 7.48042 8.10536 7.29288 8.29289C7.10534 8.48043 6.99999 8.73478 6.99999 9C6.99999 9.26522 7.10534 9.51957 7.29288 9.70711C7.48042 9.89464 7.73477 10 7.99999 10ZM17 0H2.99999C2.29644 0.00545837 1.6172 0.258013 1.08099 0.713516C0.544786 1.16902 0.185728 1.79849 0.0665872 2.49189C-0.052554 3.18529 0.075801 3.89851 0.429214 4.50687C0.782628 5.11523 1.33862 5.58002 1.99999 5.82V15C1.99999 15.7956 2.31606 16.5587 2.87867 17.1213C3.44127 17.6839 4.20434 18 4.99999 18H15C15.7956 18 16.5587 17.6839 17.1213 17.1213C17.6839 16.5587 18 15.7956 18 15V5.82C18.6614 5.58002 19.2173 5.11523 19.5708 4.50687C19.9242 3.89851 20.0525 3.18529 19.9334 2.49189C19.8142 1.79849 19.4552 1.16902 18.919 0.713516C18.3828 0.258013 17.7035 0.00545837 17 0ZM16 15C16 15.2652 15.8946 15.5196 15.7071 15.7071C15.5196 15.8946 15.2652 16 15 16H4.99999C4.73477 16 4.48042 15.8946 4.29288 15.7071C4.10534 15.5196 3.99999 15.2652 3.99999 15V6H16V15ZM17 4H2.99999C2.73477 4 2.48042 3.89464 2.29288 3.70711C2.10534 3.51957 1.99999 3.26522 1.99999 3C1.99999 2.73478 2.10534 2.48043 2.29288 2.29289C2.48042 2.10536 2.73477 2 2.99999 2H17C17.2652 2 17.5196 2.10536 17.7071 2.29289C17.8946 2.48043 18 2.73478 18 3C18 3.26522 17.8946 3.51957 17.7071 3.70711C17.5196 3.89464 17.2652 4 17 4Z" fill="#1F2937"/>
</g>
</svg>
