<svg width="24" height="24" viewBox="0 0 24 24" fill="none" xmlns="http://www.w3.org/2000/svg">
<g id="icon / stroke / Trash - 2">
<path id="Union" fill-rule="evenodd" clip-rule="evenodd" d="M9.72066 3.84844C9.6561 3.84844 9.59878 3.88975 9.57836 3.951L9.17921 5.14844H14.8206L14.4214 3.951C14.401 3.88975 14.3437 3.84844 14.2791 3.84844H9.72066ZM16.6125 5.14844L16.0342 3.41342C15.7824 2.65798 15.0754 2.14844 14.2791 2.14844H9.72066C8.92437 2.14844 8.21741 2.65798 7.9656 3.41342L7.38726 5.14844H4.9999H2.9999C2.53046 5.14844 2.1499 5.529 2.1499 5.99844C2.1499 6.46788 2.53046 6.84844 2.9999 6.84844H4.20468L4.96509 18.2545C5.09992 20.2769 6.77968 21.8484 8.80656 21.8484H15.1932C17.2201 21.8484 18.8999 20.2769 19.0347 18.2545L19.7951 6.84844H20.9999C21.4693 6.84844 21.8499 6.46788 21.8499 5.99844C21.8499 5.529 21.4693 5.14844 20.9999 5.14844H18.9999H16.6125ZM18.0913 6.84844H15.9999H7.9999H5.90846L6.66132 18.1415C6.73662 19.2708 7.67466 20.1484 8.80656 20.1484H15.1932C16.3251 20.1484 17.2632 19.2708 17.3385 18.1415L18.0913 6.84844Z" fill="#9CA3AF"/>
</g>
</svg>
