<svg width="24" height="24" viewBox="0 0 24 24" fill="none" xmlns="http://www.w3.org/2000/svg">
<g id="icon / stroke / Edit">
<path id="Union" fill-rule="evenodd" clip-rule="evenodd" d="M19.7734 3.97559C19.3348 3.57689 18.665 3.57689 18.2264 3.97559C18.2099 3.99058 18.1875 4.01259 18.1009 4.09917L17.8228 4.37735C17.8223 5.36561 18.6324 6.17577 19.6207 6.17527L19.8989 5.89709C19.9854 5.81051 20.0075 5.78816 20.0225 5.77166C20.4212 5.33304 20.4212 4.66323 20.0225 4.22461C20.0075 4.20811 19.9854 4.18576 19.8989 4.09918C19.8123 4.01259 19.7899 3.99058 19.7734 3.97559ZM18.2152 7.58073C17.4157 7.22757 16.7705 6.58238 16.4173 5.78281L13.8544 8.34569C13.369 8.83114 13.1942 9.00957 13.054 9.20449C12.9214 9.38897 12.8092 9.58726 12.7192 9.79588C12.6242 10.0163 12.5611 10.258 12.3946 10.9241L12.1681 11.8299L13.074 11.6035C13.74 11.437 13.9817 11.3739 14.2022 11.2788C14.4108 11.1889 14.6091 11.0766 14.7935 10.944C14.9885 10.8039 15.1669 10.6291 15.6523 10.1436L18.2152 7.58073ZM17.0829 2.71762C18.1699 1.72954 19.8299 1.72954 20.9169 2.71762C20.9675 2.76361 21.021 2.81708 21.0873 2.88342L21.0875 2.88364L21.0875 2.88369L21.1009 2.89709L21.1143 2.91047L21.1144 2.91058C21.1809 2.97699 21.2344 3.0305 21.2804 3.08114C22.2685 4.16816 22.2685 5.82811 21.2804 6.91513C21.2344 6.9658 21.1808 7.01935 21.1143 7.08581L21.1009 7.09917L16.8544 11.3457L16.8063 11.3939C16.3858 11.8145 16.1065 12.0938 15.7858 12.3243C15.5018 12.5285 15.1965 12.7014 14.8753 12.8399C14.5126 12.9963 14.1294 13.092 13.5524 13.2362L13.4863 13.2527L11.2061 13.8228C10.9164 13.8952 10.61 13.8103 10.3989 13.5992C10.1877 13.3881 10.1029 13.0816 10.1753 12.792L10.7453 10.5118L10.7619 10.4457C10.906 9.86862 11.0018 9.48546 11.1581 9.12277C11.2967 8.80154 11.4695 8.49625 11.6737 8.21221C11.9042 7.89151 12.1835 7.61228 12.6042 7.19178L12.6523 7.14361L16.8989 2.89709L16.9122 2.88373C16.9787 2.81725 17.0322 2.76368 17.0829 2.71762ZM9.36291 2.14814L9.3999 2.14814H11.9999C12.4693 2.14814 12.8499 2.52869 12.8499 2.99814C12.8499 3.46758 12.4693 3.84814 11.9999 3.84814H9.3999C8.26577 3.84814 7.46629 3.8488 6.84193 3.89981C6.22748 3.95001 5.85786 4.04471 5.56983 4.19146C4.97712 4.49347 4.49523 4.97535 4.19323 5.56807C4.04648 5.85609 3.95178 6.22572 3.90158 6.84016C3.85056 7.46453 3.8499 8.264 3.8499 9.39814V14.5981C3.8499 15.7323 3.85056 16.5317 3.90158 17.1561C3.95178 17.7706 4.04648 18.1402 4.19323 18.4282C4.49523 19.0209 4.97712 19.5028 5.56983 19.8048C5.85786 19.9516 6.22748 20.0463 6.84193 20.0965C7.46629 20.1475 8.26577 20.1481 9.3999 20.1481H14.5999C15.734 20.1481 16.5335 20.1475 17.1579 20.0965C17.7723 20.0463 18.1419 19.9516 18.43 19.8048C19.0227 19.5028 19.5046 19.0209 19.8066 18.4282C19.9533 18.1402 20.048 17.7706 20.0982 17.1561C20.1492 16.5317 20.1499 15.7323 20.1499 14.5981V11.9981C20.1499 11.5287 20.5305 11.1481 20.9999 11.1481C21.4693 11.1481 21.8499 11.5287 21.8499 11.9981V14.5981V14.6351C21.8499 15.7238 21.8499 16.5928 21.7926 17.2945C21.7338 18.0141 21.6105 18.6324 21.3213 19.2C20.8563 20.1126 20.1143 20.8545 19.2018 21.3195C18.6341 21.6087 18.0159 21.732 17.2963 21.7908C16.5946 21.8481 15.7256 21.8481 14.6368 21.8481H14.5999H9.3999H9.36297C8.2742 21.8481 7.40523 21.8481 6.70349 21.7908C5.98392 21.732 5.36567 21.6087 4.79805 21.3195C3.88546 20.8545 3.14351 20.1126 2.67852 19.2C2.3893 18.6324 2.26601 18.0141 2.20722 17.2945C2.14989 16.5928 2.1499 15.7239 2.1499 14.6351V14.6351V14.5981V9.39814V9.36115V9.36114C2.1499 8.27239 2.14989 7.40345 2.20722 6.70173C2.26601 5.98215 2.3893 5.3639 2.67852 4.79628C3.14351 3.8837 3.88546 3.14174 4.79805 2.67675C5.36567 2.38754 5.98392 2.26425 6.70349 2.20545C7.40521 2.14812 8.27417 2.14813 9.36291 2.14814Z" fill="#000"/>
</g>
</svg>
