<svg width="24" height="24" viewBox="0 0 24 24" fill="none" xmlns="http://www.w3.org/2000/svg">
<g id="icon / stroke / Gear - 2">
<path id="Union" fill-rule="evenodd" clip-rule="evenodd" d="M6.16612 2.14844H6.1999H11.9999H17.7999H17.8337H17.8337C18.365 2.14843 18.8144 2.14841 19.1827 2.17851C19.5688 2.21005 19.9401 2.27885 20.2938 2.45907C20.83 2.73231 21.266 3.1683 21.5393 3.70457C21.7195 4.05828 21.7883 4.42956 21.8198 4.81563C21.8499 5.184 21.8499 5.63342 21.8499 6.16471V6.19844V11.9984V17.7984V17.8322C21.8499 18.3635 21.8499 18.8129 21.8198 19.1813C21.7883 19.5673 21.7195 19.9386 21.5393 20.2923C21.266 20.8286 20.83 21.2646 20.2938 21.5378C19.9401 21.718 19.5688 21.7868 19.1827 21.8184C18.8143 21.8485 18.3649 21.8485 17.8336 21.8484H17.7999H11.9999H6.1999H6.16618C5.63488 21.8485 5.18547 21.8485 4.81709 21.8184C4.43102 21.7868 4.05974 21.718 3.70603 21.5378C3.16977 21.2646 2.73377 20.8286 2.46054 20.2923C2.28031 19.9386 2.21152 19.5673 2.17998 19.1813C2.14988 18.8129 2.14989 18.3635 2.1499 17.8323V17.8322V17.7984V11.9984V6.19844V6.16466V6.16463C2.14989 5.63337 2.14988 5.18398 2.17998 4.81563C2.21152 4.42956 2.28031 4.05828 2.46054 3.70457C2.73377 3.1683 3.16977 2.73231 3.70603 2.45907C4.05974 2.27885 4.43102 2.21005 4.81709 2.17851C5.18545 2.14841 5.63484 2.14843 6.16609 2.14844H6.16612ZM3.8499 12.8484V17.7984C3.8499 18.3725 3.85057 18.752 3.87433 19.0428C3.89728 19.3238 3.93748 19.4464 3.97525 19.5205C4.0855 19.7369 4.26143 19.9128 4.47781 20.0231C4.55193 20.0609 4.67459 20.1011 4.95552 20.124C5.24639 20.1478 5.62583 20.1484 6.1999 20.1484H11.1499V12.8484H3.8499ZM11.1499 11.1484H3.8499V6.19844C3.8499 5.62436 3.85057 5.24492 3.87433 4.95406C3.89728 4.67312 3.93748 4.55046 3.97525 4.47635C4.0855 4.25996 4.26143 4.08404 4.47781 3.97378C4.55193 3.93602 4.67459 3.89582 4.95552 3.87286C5.24639 3.8491 5.62583 3.84844 6.1999 3.84844H11.1499V11.1484ZM12.8499 12.8484V20.1484H17.7999C18.374 20.1484 18.7534 20.1478 19.0443 20.124C19.3252 20.1011 19.4479 20.0609 19.522 20.0231C19.7384 19.9128 19.9143 19.7369 20.0246 19.5205C20.0623 19.4464 20.1025 19.3238 20.1255 19.0428C20.1492 18.752 20.1499 18.3725 20.1499 17.7984V12.8484H12.8499ZM20.1499 11.1484H12.8499V3.84844H17.7999C18.374 3.84844 18.7534 3.8491 19.0443 3.87286C19.3252 3.89582 19.4479 3.93602 19.522 3.97378C19.7384 4.08404 19.9143 4.25996 20.0246 4.47635C20.0623 4.55046 20.1025 4.67312 20.1255 4.95406C20.1492 5.24492 20.1499 5.62436 20.1499 6.19844V11.1484Z" fill="#B7945A"/>
</g>
</svg>
