<svg width="24" height="24" viewBox="0 0 24 24" fill="none" xmlns="http://www.w3.org/2000/svg">
<g id="icon / / stroke / External Link">
<path id="Union" fill-rule="evenodd" clip-rule="evenodd" d="M7.7999 2.14844L7.76404 2.14844C6.95441 2.14843 6.29531 2.14842 5.76029 2.19213C5.20747 2.2373 4.7127 2.33334 4.25204 2.56806C3.52762 2.93718 2.93864 3.52615 2.56953 4.25057C2.33481 4.71124 2.23877 5.20601 2.1936 5.75883C2.14989 6.29385 2.14989 6.95295 2.1499 7.76257L2.1499 7.79844V16.1984L2.1499 16.2343C2.14989 17.0439 2.14989 17.703 2.1936 18.2381C2.23877 18.7909 2.33481 19.2856 2.56953 19.7463C2.93864 20.4707 3.52762 21.0597 4.25204 21.4288C4.7127 21.6635 5.20747 21.7596 5.76029 21.8047C6.29532 21.8485 6.95444 21.8484 7.7641 21.8484H7.7999H16.1999H16.2357C17.0454 21.8484 17.7045 21.8485 18.2395 21.8047C18.7923 21.7596 19.2871 21.6635 19.7478 21.4288C20.4722 21.0597 21.0612 20.4707 21.4303 19.7463C21.665 19.2856 21.761 18.7909 21.8062 18.2381C21.8499 17.703 21.8499 17.0439 21.8499 16.2342V16.1984V13.9984C21.8499 13.529 21.4693 13.1484 20.9999 13.1484C20.5305 13.1484 20.1499 13.529 20.1499 13.9984V16.1984C20.1499 17.0525 20.1492 17.642 20.1119 18.0996C20.0753 18.5473 20.0078 18.7934 19.9156 18.9745C19.7094 19.3791 19.3805 19.708 18.976 19.9141C18.7949 20.0064 18.5488 20.0738 18.1011 20.1104C17.6435 20.1478 17.054 20.1484 16.1999 20.1484H7.7999C6.9458 20.1484 6.35634 20.1478 5.89873 20.1104C5.45103 20.0738 5.20489 20.0064 5.02382 19.9141C4.61927 19.708 4.29037 19.3791 4.08424 18.9745L3.32688 19.3604L4.08424 18.9745C3.99198 18.7934 3.92453 18.5473 3.88795 18.0996C3.85056 17.642 3.8499 17.0525 3.8499 16.1984V7.79844C3.8499 6.94433 3.85056 6.35488 3.88795 5.89726C3.92453 5.44957 3.99198 5.20343 4.08424 5.02236C4.29037 4.61781 4.61927 4.2889 5.02382 4.08277C5.20489 3.99051 5.45103 3.92307 5.89873 3.88649C6.35634 3.8491 6.9458 3.84844 7.7999 3.84844H9.9999C10.4693 3.84844 10.8499 3.46788 10.8499 2.99844C10.8499 2.529 10.4693 2.14844 9.9999 2.14844H7.7999ZM14.1499 2.99844C14.1499 3.46788 14.5305 3.84844 14.9999 3.84844H18.9478L11.3989 11.3974C11.0669 11.7293 11.0669 12.2675 11.3989 12.5995C11.7308 12.9314 12.269 12.9314 12.6009 12.5995L20.1499 5.05052V8.99844C20.1499 9.46788 20.5305 9.84844 20.9999 9.84844C21.4693 9.84844 21.8499 9.46788 21.8499 8.99844V2.99844C21.8499 2.529 21.4693 2.14844 20.9999 2.14844H14.9999C14.5305 2.14844 14.1499 2.529 14.1499 2.99844Z" fill="#9CA3AF"/>
</g>
</svg>
