<svg
    class="icon-stroke-chart-pie"
    width="24"
    height="24"
    viewBox="0 0 24 24"
    fill="none"
    xmlns="http://www.w3.org/2000/svg"
  >
    <path
      fill-rule="evenodd"
      clip-rule="evenodd"
      d="M12 2.15002C11.5306 2.15002 11.15 2.53058 11.15 3.00002V12C11.15 12.4695 11.5306 12.85 12 12.85H21C21.4695 12.85 21.85 12.4695 21.85 12C21.85 6.56002 17.44 2.15002 12 2.15002ZM12.85 11.15V3.89382C16.6723 4.28992 19.7101 7.32774 20.1062 11.15H12.85ZM9.31452 4.30259C9.75777 4.14797 9.99174 3.6633 9.83712 3.22005C9.68249 2.77681 9.19782 2.54283 8.75458 2.69746C8.36519 2.83329 7.987 2.99284 7.62175 3.17436C4.38049 4.78513 2.15002 8.13132 2.15002 12C2.15002 17.44 6.56002 21.85 12 21.85C16.2901 21.85 19.9375 19.1079 21.2893 15.2833C21.4458 14.8407 21.2138 14.355 20.7712 14.1986C20.3286 14.0422 19.8429 14.2742 19.6865 14.7168C18.5673 17.8834 15.5473 20.15 12 20.15C7.4989 20.15 3.85002 16.5012 3.85002 12C3.85002 8.80129 5.69268 6.03138 8.3783 4.69674C8.68029 4.54666 8.99284 4.41481 9.31452 4.30259Z"
      fill="#9CA3AF"
    />
  </svg>