  <svg
    className="icon-stroke-chevron-right"
    width="24"
    height="24"
    viewBox="0 0 24 24"
    fill="none"
    xmlns="http://www.w3.org/2000/svg"
  >
    <path
      fill-rule="evenodd"
      clip-rule="evenodd"
      d="M9.46967 5.46967C9.76256 5.17678 10.2374 5.17678 10.5303 5.46967L16.5303 11.4697C16.8232 11.7626 16.8232 12.2374 16.5303 12.5303L10.5303 18.5303C10.2374 18.8232 9.76256 18.8232 9.46967 18.5303C9.17678 18.2374 9.17678 17.7626 9.46967 17.4697L14.9393 12L9.46967 6.53033C9.17678 6.23744 9.17678 5.76256 9.46967 5.46967Z"
      fill="#6B7280"
    />
    <path
      fill-rule="evenodd"
      clip-rule="evenodd"
      d="M9.39886 5.39935C9.73081 5.0674 10.269 5.0674 10.6009 5.39935L16.6009 11.3993C16.9329 11.7313 16.9329 12.2695 16.6009 12.6014L10.6009 18.6014C10.269 18.9334 9.73081 18.9334 9.39886 18.6014C9.06692 18.2695 9.06692 17.7313 9.39886 17.3994L14.7978 12.0004L9.39886 6.60143C9.06692 6.26949 9.06692 5.7313 9.39886 5.39935Z"
      fill="#6B7280"
    />
  </svg>