<svg xmlns="http://www.w3.org/2000/svg" width="14" height="14" viewBox="0 0 14 14" fill="none">
  <path d="M13.4734 4.04683L9.96004 0.526829C9.83229 0.405007 9.66322 0.335952 9.48671 0.333496H4.51337C4.33686 0.335952 4.1678 0.405007 4.04004 0.526829L0.526707 4.04683C0.403545 4.171 0.33411 4.3386 0.333374 4.5135V9.48683C0.33411 9.66172 0.403545 9.82932 0.526707 9.9535L4.04004 13.4735C4.1678 13.5953 4.33686 13.6644 4.51337 13.6668H9.48671C9.66322 13.6644 9.83229 13.5953 9.96004 13.4735L13.4734 9.9535C13.5965 9.82932 13.666 9.66172 13.6667 9.48683V4.5135C13.666 4.3386 13.5965 4.171 13.4734 4.04683ZM12.3334 9.20683L9.20671 12.3335H4.79337L1.66671 9.20683V4.7935L4.79337 1.66683H9.20671L12.3334 4.7935V9.20683Z" fill="#059669"/>
</svg>