 <svg
    class="icon-stroke-filter"
    width="24"
    height="24"
    viewBox="0 0 24 24"
    fill="none"
    xmlns="http://www.w3.org/2000/svg"
  >
    <path
      fill-rule="evenodd"
      clip-rule="evenodd"
      d="M2.84408 5.22946C1.78358 4.0364 2.63052 2.15039 4.22679 2.15039H19.7731C21.3694 2.15039 22.2163 4.0364 21.1558 5.22946L15.6456 11.4284C15.1331 12.0051 14.8499 12.7497 14.8499 13.5212V19.0004C14.8499 20.5744 13.574 21.8504 11.9999 21.8504C10.4259 21.8504 9.14994 20.5744 9.14994 19.0004V13.5212C9.14994 12.7497 8.86683 12.0051 8.35428 11.4284L2.84408 5.22946ZM4.07589 4.02307C4.07842 4.04252 4.08618 4.06799 4.11468 4.10005L9.62488 10.299C10.414 11.1868 10.8499 12.3334 10.8499 13.5212V19.0004C10.8499 19.6355 11.3648 20.1504 11.9999 20.1504C12.6351 20.1504 13.1499 19.6355 13.1499 19.0004V13.5212C13.1499 12.3334 13.5859 11.1868 14.375 10.299L19.8852 4.10005C19.9137 4.06799 19.9215 4.04252 19.924 4.02307C19.9271 3.9995 19.9237 3.96966 19.9099 3.93894C19.8961 3.90823 19.876 3.88591 19.8564 3.87255C19.8402 3.86151 19.816 3.85039 19.7731 3.85039H4.22679C4.1839 3.85039 4.1597 3.86151 4.14349 3.87255C4.12384 3.88591 4.10374 3.90822 4.08995 3.93894C4.07616 3.96966 4.07283 3.9995 4.07589 4.02307Z"
      fill="#9CA3AF"
    />
  </svg>