  <svg
    class="icon-stroke-share"
    width="24"
    height="24"
    viewBox="0 0 24 24"
    fill="none"
    xmlns="http://www.w3.org/2000/svg"
  >
    <path
      fill-rule="evenodd"
      clip-rule="evenodd"
      d="M14.2044 4.09961C14.6107 2.37959 16.1559 1.09961 18 1.09961C20.1539 1.09961 21.9 2.8457 21.9 4.99961C21.9 7.15352 20.1539 8.89961 18 8.89961C16.1559 8.89961 14.6107 7.61963 14.2044 5.89961L9 5.89961C7.55426 5.89961 6.33966 6.8893 5.99676 8.22814C7.66781 8.6686 8.90001 10.1902 8.90001 11.9996C8.90001 13.809 7.66781 15.3306 5.99676 15.7711C6.33966 17.1099 7.55425 18.0996 9 18.0996H14.2044C14.6107 16.3796 16.1559 15.0996 18 15.0996C20.1539 15.0996 21.9 16.8457 21.9 18.9996C21.9 21.1535 20.1539 22.8996 18 22.8996C16.1559 22.8996 14.6107 21.6196 14.2044 19.8996L9 19.8996C6.57 19.8996 4.55314 18.1308 4.16677 15.8104C2.41321 15.4288 1.10001 13.8675 1.10001 11.9996C1.10001 10.1317 2.41321 8.57046 4.16677 8.18882C4.55315 5.86846 6.57001 4.09961 9 4.09961L14.2044 4.09961ZM18 2.89961C16.8402 2.89961 15.9 3.83981 15.9 4.99961C15.9 6.15941 16.8402 7.09961 18 7.09961C19.1598 7.09961 20.1 6.15941 20.1 4.99961C20.1 3.83981 19.1598 2.89961 18 2.89961ZM5.00001 9.89961C3.84021 9.89961 2.90001 10.8398 2.90001 11.9996C2.90001 13.1594 3.84021 14.0996 5.00001 14.0996C6.1598 14.0996 7.10001 13.1594 7.10001 11.9996C7.10001 10.8398 6.1598 9.89961 5.00001 9.89961ZM15.9 18.9996C15.9 17.8398 16.8402 16.8996 18 16.8996C19.1598 16.8996 20.1 17.8398 20.1 18.9996C20.1 20.1594 19.1598 21.0996 18 21.0996C16.8402 21.0996 15.9 20.1594 15.9 18.9996Z"
      fill="#1F2937"
    />
  </svg>