                                <svg
                                    width="24"
                                    height="24"
                                    viewBox="0 0 24 24"
                                    fill="none"
                                    xmlns="http://www.w3.org/2000/svg"
                                >
                                    <path
                                        fillRule="evenodd"
                                        clipRule="evenodd"
                                        d="M10 0.150391C9.53058 0.150391 9.15002 0.530949 9.15002 1.00039C9.15002 1.46983 9.53058 1.85039 10 1.85039H14C14.4695 1.85039 14.85 1.46983 14.85 1.00039C14.85 0.530949 14.4695 0.150391 14 0.150391H10ZM12 4.85039C7.4989 4.85039 3.85002 8.49927 3.85002 13.0004C3.85002 17.5015 7.4989 21.1504 12 21.1504C16.5011 21.1504 20.15 17.5015 20.15 13.0004C20.15 10.7496 19.2387 8.71326 17.7629 7.23747C16.2872 5.76168 14.2508 4.85039 12 4.85039ZM2.15002 13.0004C2.15002 7.56039 6.56002 3.15039 12 3.15039C14.4137 3.15039 16.6256 4.01941 18.3381 5.4602L19.899 3.89935C20.2309 3.5674 20.7691 3.5674 21.1011 3.89935C21.433 4.2313 21.433 4.76949 21.1011 5.10143L19.5402 6.66228C20.981 8.3748 21.85 10.5867 21.85 13.0004C21.85 18.4404 17.44 22.8504 12 22.8504C6.56002 22.8504 2.15002 18.4404 2.15002 13.0004ZM12 9.15039C12.4695 9.15039 12.85 9.53095 12.85 10.0004V14.0004C12.85 14.4698 12.4695 14.8504 12 14.8504C11.5306 14.8504 11.15 14.4698 11.15 14.0004V10.0004C11.15 9.53095 11.5306 9.15039 12 9.15039Z"
                                        fill="#2563EB"
                                    />
                                </svg>