  <svg
    class="icon-stroke-paperclip"
    width="24"
    height="24"
    viewBox="0 0 24 24"
    fill="none"
    xmlns="http://www.w3.org/2000/svg"
  >
    <path
      fill-rule="evenodd"
      clip-rule="evenodd"
      d="M17.056 4.11592C15.8258 2.88577 13.8314 2.88577 12.6012 4.11592L5.53016 11.187C3.51896 13.1982 3.51896 16.459 5.53016 18.4702C7.54136 20.4814 10.8022 20.4814 12.8134 18.4702L20.5915 10.692C20.9235 10.3601 21.4617 10.3601 21.7936 10.692C22.1256 11.024 22.1256 11.5622 21.7936 11.8941L14.0154 19.6723C11.3403 22.3474 7.00317 22.3474 4.32808 19.6723C1.65299 16.9972 1.65299 12.66 4.32808 9.98491L11.3991 2.91384C13.2932 1.0198 16.364 1.0198 18.2581 2.91384C20.1521 4.80789 20.1521 7.87874 18.2581 9.77278L11.187 16.8438C10.074 17.9568 8.2695 17.9568 7.1565 16.8438C6.04351 15.7309 6.04351 13.9263 7.1565 12.8133L14.2276 5.74227C14.5595 5.41032 15.0977 5.41032 15.4297 5.74227C15.7616 6.07422 15.7616 6.61241 15.4297 6.94435L8.35859 14.0154C7.90948 14.4645 7.90948 15.1927 8.35859 15.6418C8.80769 16.0909 9.53583 16.0909 9.98493 15.6418L17.056 8.5707C18.2862 7.34055 18.2862 5.34608 17.056 4.11592Z"
      fill="white"
    />
  </svg>