<svg width="24" height="24" viewBox="0 0 24 24" fill="none" xmlns="http://www.w3.org/2000/svg">
<path fill-rule="evenodd" clip-rule="evenodd" d="M21.4378 13.9159C21.4378 13.466 21.0731 13.1013 20.6232 13.1013C20.1733 13.1013 19.8086 13.466 19.8086 13.9159L19.8086 15.0659C19.8086 15.8844 19.808 16.4493 19.7721 16.8878C19.7371 17.3169 19.6724 17.5528 19.584 17.7263C19.3865 18.114 19.0713 18.4292 18.6836 18.6267C18.5101 18.7151 18.2742 18.7798 17.8451 18.8148C17.4066 18.8507 16.8417 18.8513 16.0232 18.8513L7.97318 18.8513C7.15466 18.8513 6.58976 18.8507 6.15122 18.8148C5.72218 18.7798 5.48629 18.7151 5.31277 18.6267C4.92508 18.4292 4.60987 18.114 4.41233 17.7263C4.32392 17.5528 4.25928 17.3169 4.22423 16.8878C4.18839 16.4493 4.18776 15.8844 4.18776 15.0659L4.18776 13.9159C4.18776 13.466 3.82306 13.1013 3.37318 13.1013C2.9233 13.1013 2.55859 13.466 2.55859 13.9159L2.55859 15.0659L2.55859 15.1003C2.55858 15.8761 2.55858 16.5078 2.60047 17.0205C2.64375 17.5503 2.73579 18.0244 2.96073 18.4659C3.31447 19.1602 3.8789 19.7246 4.57314 20.0783C5.01461 20.3033 5.48876 20.3953 6.01855 20.4386C6.53128 20.4805 7.16292 20.4805 7.93882 20.4805L7.97318 20.4805L16.0232 20.4805L16.0575 20.4805C16.8334 20.4805 17.4651 20.4805 17.9778 20.4386C18.5076 20.3953 18.9817 20.3033 19.4232 20.0783C20.1175 19.7246 20.6819 19.1602 21.0356 18.4659C21.2606 18.0244 21.3526 17.5503 21.3959 17.0205C21.4378 16.5078 21.4378 15.8761 21.4378 15.1002L21.4378 15.0659L21.4378 13.9159ZM12.5742 3.75653C12.2561 3.43842 11.7403 3.43842 11.4222 3.75653L7.58886 7.58987C7.27075 7.90798 7.27075 8.42374 7.58886 8.74186C7.90698 9.05998 8.42274 9.05998 8.74086 8.74186L11.1836 6.29911L11.1836 13.9159C11.1836 14.3657 11.5483 14.7304 11.9982 14.7304C12.4481 14.7304 12.8128 14.3657 12.8128 13.9159L12.8128 6.29911L15.2555 8.74186C15.5736 9.05998 16.0894 9.05998 16.4075 8.74186C16.7256 8.42375 16.7256 7.90798 16.4075 7.58987L12.5742 3.75653Z" fill="#1F2937"/>
</svg>
