    <svg
      class="group"
      width="18"
      height="18"
      viewBox="0 0 18 18"
      fill="none"
      xmlns="http://www.w3.org/2000/svg"
    >
      <path
        d="M15.3 0H2.7C1.98392 0 1.29716 0.284464 0.790812 0.790812C0.284464 1.29716 0 1.98392 0 2.7V11.7C0 12.4161 0.284464 13.1028 0.790812 13.6092C1.29716 14.1155 1.98392 14.4 2.7 14.4H5.076L4.554 15.3C4.39602 15.5736 4.31285 15.884 4.31285 16.2C4.31285 16.516 4.39602 16.8264 4.554 17.1C4.71335 17.376 4.94312 17.6048 5.21984 17.7629C5.49656 17.921 5.8103 18.0029 6.129 18H11.943C12.2587 17.9997 12.5687 17.9164 12.842 17.7584C13.1152 17.6004 13.3422 17.3734 13.5 17.1C13.658 16.8264 13.7412 16.516 13.7412 16.2C13.7412 15.884 13.658 15.5736 13.5 15.3L12.969 14.4H15.3C16.0161 14.4 16.7028 14.1155 17.2092 13.6092C17.7155 13.1028 18 12.4161 18 11.7V2.7C18 1.98392 17.7155 1.29716 17.2092 0.790812C16.7028 0.284464 16.0161 0 15.3 0ZM6.093 16.2L7.2 14.4H10.8L11.88 16.2H6.093ZM16.2 11.7C16.2 11.9387 16.1052 12.1676 15.9364 12.3364C15.7676 12.5052 15.5387 12.6 15.3 12.6H2.7C2.46131 12.6 2.23239 12.5052 2.06361 12.3364C1.89482 12.1676 1.8 11.9387 1.8 11.7V10.8H16.2V11.7ZM16.2 9H1.8V2.7C1.8 2.46131 1.89482 2.23239 2.06361 2.06361C2.23239 1.89482 2.46131 1.8 2.7 1.8H15.3C15.5387 1.8 15.7676 1.89482 15.9364 2.06361C16.1052 2.23239 16.2 2.46131 16.2 2.7V9Z"
        fill="#1F2937"
      />
    </svg>