  <svg
    class="icon-stroke-lock"
    width="16"
    height="16"
    viewBox="0 0 16 16"
    fill="none"
    xmlns="http://www.w3.org/2000/svg"
  >
    <path
      fill-rule="evenodd"
      clip-rule="evenodd"
      d="M6.66664 1.90091C6.24322 1.90091 5.89998 2.24416 5.89998 2.66758V4.77278C6.2006 4.76757 6.53523 4.76758 6.90865 4.76758L6.93331 4.76758H9.06664L9.0913 4.76758C9.46472 4.76758 9.79935 4.76757 10.1 4.77278V2.66758C10.1 2.24416 9.75673 1.90091 9.33331 1.90091H6.66664ZM4.76664 2.66758V4.84746C4.43913 4.89653 4.14318 4.97846 3.86541 5.11999C3.25702 5.42998 2.76238 5.92462 2.45239 6.53301C2.25958 6.91142 2.17738 7.32359 2.13819 7.80331C2.09997 8.27112 2.09997 8.85042 2.09998 9.57625L2.09998 9.60091V10.4009L2.09998 10.4256C2.09997 11.1514 2.09997 11.7307 2.13819 12.1985C2.17738 12.6782 2.25958 13.0904 2.45239 13.4688C2.76238 14.0772 3.25702 14.5718 3.86541 14.8818C4.24382 15.0746 4.65599 15.1568 5.1357 15.196C5.60352 15.2343 6.18282 15.2343 6.90866 15.2342H6.93331H9.06664H9.0913C9.81713 15.2343 10.3964 15.2343 10.8642 15.196C11.344 15.1568 11.7561 15.0746 12.1345 14.8818C12.7429 14.5718 13.2376 14.0772 13.5476 13.4688C13.7404 13.0904 13.8226 12.6782 13.8618 12.1985C13.9 11.7307 13.9 11.1514 13.9 10.4255V10.4009V9.60091V9.57629C13.9 8.85044 13.9 8.27113 13.8618 7.80331C13.8226 7.32359 13.7404 6.91142 13.5476 6.53301C13.2376 5.92462 12.7429 5.42998 12.1345 5.11999C11.8568 4.97846 11.5608 4.89653 11.2333 4.84746V2.66758C11.2333 1.61824 10.3826 0.767578 9.33331 0.767578H6.66664C5.6173 0.767578 4.76664 1.61824 4.76664 2.66758ZM5.22799 5.93536C4.81836 5.96883 4.57195 6.03196 4.37993 6.1298C3.98479 6.33113 3.66353 6.65239 3.4622 7.04753C3.36436 7.23955 3.30123 7.48597 3.26776 7.8956C3.23375 8.31184 3.23331 8.84482 3.23331 9.60091V10.4009C3.23331 11.157 3.23375 11.69 3.26776 12.1062C3.30123 12.5159 3.36436 12.7623 3.4622 12.9543C3.66353 13.3494 3.98479 13.6707 4.37993 13.872C4.57195 13.9699 4.81836 14.033 5.22799 14.0665C5.64424 14.1005 6.17722 14.1009 6.93331 14.1009H9.06664C9.82273 14.1009 10.3557 14.1005 10.772 14.0665C11.1816 14.033 11.428 13.9699 11.62 13.872C12.0152 13.6707 12.3364 13.3494 12.5378 12.9543C12.6356 12.7623 12.6987 12.5159 12.7322 12.1062C12.7662 11.69 12.7666 11.157 12.7666 10.4009V9.60091C12.7666 8.84482 12.7662 8.31184 12.7322 7.8956C12.6987 7.48597 12.6356 7.23955 12.5378 7.04753C12.3364 6.65239 12.0152 6.33113 11.62 6.1298C11.428 6.03196 11.1816 5.96883 10.772 5.93536C10.3557 5.90135 9.82273 5.90091 9.06664 5.90091H6.93331C6.17722 5.90091 5.64424 5.90135 5.22799 5.93536ZM8.56664 9.33425C8.56664 9.02128 8.31294 8.76758 7.99998 8.76758C7.68701 8.76758 7.43331 9.02128 7.43331 9.33425V10.6676C7.43331 10.9805 7.68701 11.2342 7.99998 11.2342C8.31294 11.2342 8.56664 10.9805 8.56664 10.6676V9.33425Z"
      fill="#DC2626"
    />
  </svg>