<svg
  class="group"
  width="18"
  height="21"
  viewBox="0 0 18 21"
  fill="none"
  xmlns="http://www.w3.org/2000/svg"
>
  <path
    d="M17 7.00049L11 1.74049C10.45 1.24854 9.73794 0.976563 9 0.976562C8.26207 0.976563 7.55003 1.24854 7 1.74049L1 7.00049C0.682372 7.28457 0.428903 7.63305 0.256475 8.02274C0.084047 8.41243 -0.00338411 8.83438 3.24138e-06 9.26049V18.0005C3.24138e-06 18.7961 0.316074 19.5592 0.878683 20.1218C1.44129 20.6844 2.20435 21.0005 3 21.0005H15C15.7957 21.0005 16.5587 20.6844 17.1213 20.1218C17.6839 19.5592 18 18.7961 18 18.0005V9.25049C18.002 8.82606 17.9139 8.40603 17.7415 8.01818C17.5691 7.63032 17.3164 7.28345 17 7.00049ZM11 19.0005H7V14.0005C7 13.7353 7.10536 13.4809 7.2929 13.2934C7.48043 13.1059 7.73479 13.0005 8 13.0005H10C10.2652 13.0005 10.5196 13.1059 10.7071 13.2934C10.8946 13.4809 11 13.7353 11 14.0005V19.0005ZM16 18.0005C16 18.2657 15.8946 18.5201 15.7071 18.7076C15.5196 18.8951 15.2652 19.0005 15 19.0005H13V14.0005C13 13.2048 12.6839 12.4418 12.1213 11.8792C11.5587 11.3166 10.7957 11.0005 10 11.0005H8C7.20435 11.0005 6.44129 11.3166 5.87868 11.8792C5.31607 12.4418 5 13.2048 5 14.0005V19.0005H3C2.73479 19.0005 2.48043 18.8951 2.2929 18.7076C2.10536 18.5201 2 18.2657 2 18.0005V9.25049C2.00018 9.10851 2.0306 8.96819 2.08922 8.83887C2.14784 8.70956 2.23333 8.5942 2.34 8.50049L8.34 3.25049C8.52249 3.09018 8.7571 3.00176 9 3.00176C9.24291 3.00176 9.47751 3.09018 9.66 3.25049L15.66 8.50049C15.7667 8.5942 15.8522 8.70956 15.9108 8.83887C15.9694 8.96819 15.9998 9.10851 16 9.25049V18.0005Z"
    fill="#1F2937"
  />
</svg>
