<svg xmlns="http://www.w3.org/2000/svg" width="16" height="16" viewBox="0 0 16 16" fill="none">
  <path fill-rule="evenodd" clip-rule="evenodd" d="M5.33359 1.43359C5.1833 1.43359 5.03917 1.4933 4.9329 1.59957L1.59957 4.9329C1.4933 5.03917 1.43359 5.1833 1.43359 5.33359V10.6669C1.43359 10.8172 1.4933 10.9614 1.59957 11.0676L4.9329 14.401C5.03917 14.5072 5.1833 14.5669 5.33359 14.5669H10.6669C10.8172 14.5669 10.9614 14.5072 11.0676 14.401L14.401 11.0676C14.5072 10.9614 14.5669 10.8172 14.5669 10.6669V5.33359C14.5669 5.1833 14.5072 5.03917 14.401 4.9329L11.0676 1.59957C10.9614 1.4933 10.8172 1.43359 10.6669 1.43359H5.33359ZM2.56693 5.56832L5.56832 2.56693H10.4322L13.4336 5.56831V10.4322L10.4322 13.4336H5.56831L2.56693 10.4322V5.56832ZM5.33358 7.43359C5.02062 7.43359 4.76691 7.6873 4.76691 8.00026C4.76691 8.31322 5.02062 8.56693 5.33358 8.56693H10.6669C10.9799 8.56693 11.2336 8.31322 11.2336 8.00026C11.2336 7.6873 10.9799 7.43359 10.6669 7.43359H5.33358Z" fill="#F59E0B"/>
</svg>