  <svg
    class="icon-stroke-globe"
    width="24"
    height="24"
    viewBox="0 0 24 24"
    fill="none"
    xmlns="http://www.w3.org/2000/svg"
  >
    <path
      fill-rule="evenodd"
      clip-rule="evenodd"
      d="M11.029 4.32339C11.3976 3.97257 11.7243 3.85039 12 3.85039C12.2757 3.85039 12.6024 3.97257 12.971 4.32339C13.344 4.67838 13.7186 5.23223 14.0517 5.98165C14.2287 6.37997 14.3893 6.82295 14.5297 7.30376C13.7203 7.20335 12.8718 7.15039 12 7.15039C11.1282 7.15039 10.2797 7.20335 9.47032 7.30376C9.61069 6.82295 9.77128 6.37997 9.94831 5.98165C10.2814 5.23223 10.656 4.67838 11.029 4.32339ZM7.62852 7.62891C7.82861 6.77152 8.08694 5.98399 8.39483 5.29121C8.51617 5.01821 8.64681 4.7563 8.78677 4.50828C6.86933 5.33172 5.33134 6.86972 4.5079 8.78716C4.75592 8.6472 5.01782 8.51656 5.29082 8.39522C5.9836 8.08732 6.77113 7.829 7.62852 7.62891ZM3.85 12.0004C3.85 12.0006 3.85 12.0007 3.85 12.0009C3.85015 12.2765 3.97239 12.603 4.323 12.9714C4.67799 13.3444 5.23184 13.719 5.98126 14.0521C6.37958 14.2291 6.82256 14.3897 7.30337 14.5301C7.20296 13.7207 7.15 12.8722 7.15 12.0004C7.15 11.1286 7.20296 10.2801 7.30337 9.47071C6.82256 9.61108 6.37958 9.77167 5.98126 9.9487C5.23184 10.2818 4.67799 10.6564 4.323 11.0294C3.97218 11.398 3.85 11.7247 3.85 12.0004ZM9.07616 14.9242C8.93079 14.019 8.85 13.0347 8.85 12.0004C8.85 10.9661 8.93079 9.98176 9.07616 9.07655C9.98137 8.93117 10.9657 8.85039 12 8.85039C13.0343 8.85039 14.0186 8.93117 14.9238 9.07655C15.0692 9.98176 15.15 10.9661 15.15 12.0004C15.15 13.0347 15.0692 14.019 14.9238 14.9242C14.0186 15.0696 13.0343 15.1504 12 15.1504C10.9657 15.1504 9.98137 15.0696 9.07616 14.9242ZM7.62852 16.3719C6.77113 16.1718 5.9836 15.9135 5.29082 15.6056C5.01782 15.4842 4.75591 15.3536 4.50789 15.2136C5.33133 17.1311 6.86933 18.6691 8.78677 19.4925C8.64681 19.2445 8.51617 18.9826 8.39483 18.7096C8.08694 18.0168 7.82861 17.2293 7.62852 16.3719ZM2.15 12.0028C2.15 12.002 2.15 12.0012 2.15 12.0004C2.15 11.9996 2.15 11.9988 2.15 11.998C2.15131 6.55907 6.56081 2.15039 12 2.15039C17.44 2.15039 21.85 6.56039 21.85 12.0004C21.85 17.4404 17.44 21.8504 12 21.8504C6.56081 21.8504 2.15131 17.4417 2.15 12.0028ZM19.4921 8.78716C18.6687 6.86972 17.1307 5.33172 15.2132 4.50828C15.3532 4.7563 15.4838 5.01821 15.6052 5.29121C15.9131 5.98399 16.1714 6.77152 16.3715 7.62891C17.2289 7.829 18.0164 8.08732 18.7092 8.39522C18.9822 8.51656 19.2441 8.6472 19.4921 8.78716ZM16.6966 9.47071C17.1774 9.61108 17.6204 9.77167 18.0187 9.9487C18.7682 10.2818 19.322 10.6564 19.677 11.0294C20.0278 11.398 20.15 11.7247 20.15 12.0004C20.15 12.2761 20.0278 12.6028 19.677 12.9714C19.322 13.3444 18.7682 13.719 18.0187 14.0521C17.6204 14.2291 17.1774 14.3897 16.6966 14.5301C16.797 13.7207 16.85 12.8722 16.85 12.0004C16.85 11.1286 16.797 10.2801 16.6966 9.47071ZM16.3715 16.3719C17.2289 16.1718 18.0164 15.9135 18.7092 15.6056C18.9822 15.4842 19.2441 15.3536 19.4921 15.2136C18.6687 17.1311 17.1307 18.6691 15.2132 19.4925C15.3532 19.2445 15.4838 18.9826 15.6052 18.7096C15.9131 18.0168 16.1714 17.2293 16.3715 16.3719ZM14.5297 16.697C14.3893 17.1778 14.2287 17.6208 14.0517 18.0191C13.7186 18.7686 13.344 19.3224 12.971 19.6774C12.6024 20.0282 12.2757 20.1504 12 20.1504C11.7243 20.1504 11.3976 20.0282 11.029 19.6774C10.656 19.3224 10.2814 18.7686 9.94831 18.0191C9.77128 17.6208 9.61069 17.1778 9.47032 16.697C10.2797 16.7974 11.1282 16.8504 12 16.8504C12.8718 16.8504 13.7203 16.7974 14.5297 16.697Z"
      fill="#1F2937"
    />
  </svg>