<svg width="16" height="17" viewBox="0 0 16 17" fill="none" xmlns="http://www.w3.org/2000/svg">
	<path d="M9.47984 2.46088L13.3332 7.40088H13.2932C13.5142 7.72351 13.6358 8.10386 13.6429 8.49488C13.65 8.8859 13.5423 9.27042 13.3332 9.60088L9.50651 14.5009C9.31553 14.7107 9.0829 14.8783 8.82347 14.9931C8.56405 15.1079 8.28353 15.1673 7.99984 15.1675C7.72546 15.1693 7.45366 15.1145 7.20134 15.0067C6.94902 14.8989 6.72158 14.7404 6.53318 14.5409L2.70651 9.60088L2.66651 9.55421C2.46391 9.23931 2.35098 8.87515 2.33984 8.50088C2.34087 8.11045 2.45427 7.72858 2.66651 7.40088L6.49984 2.50088C6.68793 2.29422 6.91646 2.1284 7.17128 2.01372C7.42609 1.89903 7.70175 1.83792 7.98116 1.83417C8.26057 1.83042 8.53777 1.88411 8.79557 1.99192C9.05337 2.09972 9.28628 2.25934 9.47984 2.46088Z" fill="#B7945A"/>
</svg>
