<svg width="16" height="17" viewBox="0 0 16 17" fill="none" xmlns="http://www.w3.org/2000/svg">
	<path d="M6.80634 10.334C6.86832 10.3965 6.94205 10.4461 7.02329 10.4799C7.10453 10.5138 7.19167 10.5312 7.27967 10.5312C7.36768 10.5312 7.45482 10.5138 7.53606 10.4799C7.6173 10.4461 7.69103 10.3965 7.75301 10.334L10.473 7.61398C10.5985 7.48845 10.6691 7.31819 10.6691 7.14065C10.6691 6.96312 10.5985 6.79285 10.473 6.66732C10.3475 6.54178 10.1772 6.47126 9.99967 6.47126C9.82214 6.47126 9.65188 6.54178 9.52634 6.66732L7.27967 8.92065L6.47301 8.10732C6.34747 7.98178 6.17721 7.91126 5.99967 7.91126C5.82214 7.91126 5.65188 7.98178 5.52634 8.10732C5.40081 8.23285 5.33028 8.40312 5.33028 8.58065C5.33028 8.75819 5.40081 8.92845 5.52634 9.05398L6.80634 10.334ZM13.9997 1.83398H1.99967C1.82286 1.83398 1.65329 1.90422 1.52827 2.02925C1.40325 2.15427 1.33301 2.32384 1.33301 2.50065V14.5007C1.33301 14.6775 1.40325 14.847 1.52827 14.9721C1.65329 15.0971 1.82286 15.1673 1.99967 15.1673H13.9997C14.1765 15.1673 14.3461 15.0971 14.4711 14.9721C14.5961 14.847 14.6663 14.6775 14.6663 14.5007V2.50065C14.6663 2.32384 14.5961 2.15427 14.4711 2.02925C14.3461 1.90422 14.1765 1.83398 13.9997 1.83398ZM13.333 13.834H2.66634V3.16732H13.333V13.834Z" fill="#B7945A"/>
</svg>
