<svg
    class="icon-stroke-plus"
    width="24"
    height="24"
    viewBox="0 0 24 24"
    fill="none"
    xmlns="http://www.w3.org/2000/svg"
  >
    <path
      fill-rule="evenodd"
      clip-rule="evenodd"
      d="M12 5.15039C12.4695 5.15039 12.85 5.53095 12.85 6.00039V11.1504H18C18.4695 11.1504 18.85 11.5309 18.85 12.0004C18.85 12.4698 18.4695 12.8504 18 12.8504H12.85V18.0004C12.85 18.4698 12.4695 18.8504 12 18.8504C11.5306 18.8504 11.15 18.4698 11.15 18.0004V12.8504H6.00002C5.53058 12.8504 5.15002 12.4698 5.15002 12.0004C5.15002 11.5309 5.53058 11.1504 6.00002 11.1504H11.15V6.00039C11.15 5.53095 11.5306 5.15039 12 5.15039Z"
      fill="white"
    />
  </svg>