      <svg
        class="group"
        width="20"
        height="20"
        viewBox="0 0 20 20"
        fill="none"
        xmlns="http://www.w3.org/2000/svg"
      >
        <path
          d="M15 20.0007H3C2.20435 20.0007 1.44129 19.6846 0.87868 19.122C0.316071 18.5594 0 17.7963 0 17.0007V7.0007C0 6.20505 0.316071 5.44199 0.87868 4.87938C1.44129 4.31677 2.20435 4.0007 3 4.0007H4C4.01682 3.15334 4.30235 2.33322 4.81541 1.65863C5.32848 0.984037 6.04255 0.489846 6.85464 0.247331C7.66673 0.00481649 8.53486 0.026514 9.33382 0.309294C10.1328 0.592074 10.8213 1.12132 11.3 1.8207C11.7484 2.45985 11.9925 3.21996 12 4.0007H15C15.2652 4.0007 15.5196 4.10605 15.7071 4.29359C15.8946 4.48113 16 4.73548 16 5.0007V8.0007C16.8474 8.01752 17.6675 8.30305 18.3421 8.81611C19.0167 9.32917 19.5109 10.0432 19.7534 10.8553C19.9959 11.6674 19.9742 12.5356 19.6914 13.3345C19.4086 14.1335 18.8794 14.822 18.18 15.3007C17.5409 15.7491 16.7807 15.9932 16 16.0007V19.0007C16 19.2659 15.8946 19.5203 15.7071 19.7078C15.5196 19.8953 15.2652 20.0007 15 20.0007ZM3 6.0007C2.73478 6.0007 2.48043 6.10605 2.29289 6.29359C2.10536 6.48113 2 6.73548 2 7.0007V17.0007C2 17.2659 2.10536 17.5203 2.29289 17.7078C2.48043 17.8953 2.73478 18.0007 3 18.0007H14V14.8207C13.9991 14.6604 14.0368 14.5022 14.1099 14.3594C14.183 14.2167 14.2894 14.0937 14.42 14.0007C14.5502 13.9078 14.7008 13.8476 14.8592 13.8249C15.0175 13.8023 15.179 13.818 15.33 13.8707C15.615 13.987 15.9254 14.0269 16.2305 13.9866C16.5357 13.9462 16.825 13.827 17.07 13.6407C17.3139 13.492 17.523 13.2928 17.6834 13.0565C17.8439 12.8202 17.9518 12.5522 18 12.2707C18.0386 11.9868 18.0157 11.6978 17.9329 11.4235C17.85 11.1492 17.7092 10.8959 17.52 10.6807C17.2641 10.3698 16.9155 10.1488 16.5252 10.0499C16.1349 9.95092 15.7231 9.97925 15.35 10.1307C15.199 10.1834 15.0375 10.1991 14.8792 10.1765C14.7208 10.1538 14.5702 10.0936 14.44 10.0007C14.3094 9.9077 14.203 9.78466 14.1299 9.64195C14.0568 9.49924 14.0191 9.34104 14.02 9.1807V6.0007H10.82C10.6557 6.01001 10.4915 5.97861 10.3422 5.90928C10.1929 5.83995 10.0631 5.73483 9.96414 5.60326C9.86522 5.47169 9.8003 5.31773 9.77516 5.15505C9.75001 4.99237 9.76541 4.826 9.82 4.6707C9.93626 4.38571 9.97619 4.07532 9.93586 3.77018C9.89552 3.46504 9.77632 3.17569 9.59 2.9307C9.44235 2.67986 9.24016 2.46547 8.9984 2.30339C8.75663 2.14132 8.4815 2.03572 8.19338 1.99442C7.90527 1.95313 7.61155 1.97719 7.33399 2.06483C7.05644 2.15247 6.80216 2.30144 6.59 2.5007C6.39298 2.69611 6.23877 2.93039 6.1372 3.18863C6.03562 3.44687 5.9889 3.72342 6 4.0007C6.00232 4.23007 6.04637 4.4571 6.13 4.6707C6.18287 4.82192 6.19863 4.98362 6.17597 5.1422C6.1533 5.30078 6.09287 5.4516 5.99976 5.58195C5.90665 5.71231 5.78358 5.81839 5.64093 5.89126C5.49827 5.96413 5.34019 6.00166 5.18 6.0007H3Z"
          fill="#2563EB"
        />
      </svg>