<svg width="44" height="44" viewBox="0 0 44 44" fill="none" xmlns="http://www.w3.org/2000/svg">
	<g filter="url(#filter0_d_708_91313)">
		<rect x="2" y="1" width="40" height="40" rx="8" fill="white"/>
		<path fill-rule="evenodd" clip-rule="evenodd" d="M21.9999 14.1504C22.4693 14.1504 22.8499 14.5309 22.8499 15.0004V20.1504H27.9999C28.4693 20.1504 28.8499 20.5309 28.8499 21.0004C28.8499 21.4698 28.4693 21.8504 27.9999 21.8504H22.8499V27.0004C22.8499 27.4698 22.4693 27.8504 21.9999 27.8504C21.5305 27.8504 21.1499 27.4698 21.1499 27.0004V21.8504H15.9999C15.5305 21.8504 15.1499 21.4698 15.1499 21.0004C15.1499 20.5309 15.5305 20.1504 15.9999 20.1504H21.1499V15.0004C21.1499 14.5309 21.5305 14.1504 21.9999 14.1504Z" fill="#9CA3AF"/>
		<rect x="2.25" y="1.25" width="39.5" height="39.5" rx="7.75" stroke="#E5E7EB" stroke-width="0.5"/>
	</g>
	<defs>
		<filter id="filter0_d_708_91313" x="0" y="0" width="44" height="44" filterUnits="userSpaceOnUse" color-interpolation-filters="sRGB">
			<feFlood flood-opacity="0" result="BackgroundImageFix"/>
			<feColorMatrix in="SourceAlpha" type="matrix" values="0 0 0 0 0 0 0 0 0 0 0 0 0 0 0 0 0 0 127 0" result="hardAlpha"/>
			<feOffset dy="1"/>
			<feGaussianBlur stdDeviation="1"/>
			<feColorMatrix type="matrix" values="0 0 0 0 0.0248438 0 0 0 0 0.0970504 0 0 0 0 0.220833 0 0 0 0.05 0"/>
			<feBlend mode="normal" in2="BackgroundImageFix" result="effect1_dropShadow_708_91313"/>
			<feBlend mode="normal" in="SourceGraphic" in2="effect1_dropShadow_708_91313" result="shape"/>
		</filter>
	</defs>
</svg>