   <svg
        class="icon-stroke-export"
        width="24"
        height="24"
        viewBox="0 0 24 24"
        fill="none"
        xmlns="http://www.w3.org/2000/svg"
      >
        <path
          fill-rule="evenodd"
          clip-rule="evenodd"
          d="M21.8499 13.9996C21.8499 13.5302 21.4693 13.1496 20.9999 13.1496C20.5305 13.1496 20.1499 13.5302 20.1499 13.9996L20.1499 15.1996C20.1499 16.0537 20.1492 16.6432 20.1119 17.1008C20.0753 17.5485 20.0078 17.7946 19.9156 17.9757C19.7094 18.3802 19.3805 18.7091 18.976 18.9153C18.7949 19.0075 18.5488 19.075 18.1011 19.1116C17.6435 19.1489 17.054 19.1496 16.1999 19.1496L7.7999 19.1496C6.9458 19.1496 6.35634 19.1489 5.89873 19.1116C5.45103 19.075 5.20489 19.0075 5.02382 18.9153C4.61927 18.7091 4.29037 18.3802 4.08424 17.9757C3.99198 17.7946 3.92453 17.5485 3.88795 17.1008C3.85056 16.6432 3.8499 16.0537 3.8499 15.1996L3.8499 13.9996C3.8499 13.5302 3.46934 13.1496 2.9999 13.1496C2.53046 13.1496 2.1499 13.5302 2.1499 13.9996L2.1499 15.1996L2.1499 15.2355C2.14989 16.0451 2.14989 16.7042 2.1936 17.2392C2.23877 17.792 2.33481 18.2868 2.56953 18.7475C2.93864 19.4719 3.52762 20.0609 4.25204 20.43C4.7127 20.6647 5.20747 20.7607 5.76029 20.8059C6.29531 20.8496 6.95442 20.8496 7.76405 20.8496L7.7999 20.8496L16.1999 20.8496L16.2358 20.8496C17.0454 20.8496 17.7045 20.8496 18.2395 20.8059C18.7923 20.7607 19.2871 20.6647 19.7478 20.43C20.4722 20.0609 21.0612 19.4719 21.4303 18.7475C21.665 18.2868 21.761 17.792 21.8062 17.2392C21.8499 16.7042 21.8499 16.0451 21.8499 15.2354L21.8499 15.1996L21.8499 13.9996ZM12.601 3.39855C12.269 3.0666 11.7308 3.0666 11.3989 3.39855L7.39888 7.39855C7.06693 7.73049 7.06693 8.26868 7.39888 8.60063C7.73082 8.93257 8.26902 8.93257 8.60096 8.60063L11.1499 6.05167L11.1499 13.9996C11.1499 14.469 11.5305 14.8496 11.9999 14.8496C12.4694 14.8496 12.8499 14.469 12.8499 13.9996L12.8499 6.05167L15.3989 8.60063C15.7308 8.93257 16.269 8.93257 16.601 8.60063C16.9329 8.26868 16.9329 7.73049 16.601 7.39854L12.601 3.39855Z"
          fill="#1F2937"
        />
      </svg>