<svg width="24" height="24" viewBox="0 0 24 24" fill="none" xmlns="http://www.w3.org/2000/svg">
	<path fill-rule="evenodd" clip-rule="evenodd" d="M18.7734 3.97751C18.3348 3.57878 17.665 3.57877 17.2263 3.97748C17.2099 3.99248 17.1875 4.01448 17.1009 4.10103L16.8229 4.37911C16.8223 5.36735 17.6324 6.17753 18.6206 6.17714L18.8988 5.8989C18.9854 5.81235 19.0074 5.79 19.0223 5.77351C19.4211 5.33489 19.4211 4.66508 19.0224 4.22646C19.0074 4.20996 18.9854 4.18761 18.8988 4.10106C18.8123 4.0145 18.7899 3.9925 18.7734 3.97751ZM17.2152 7.58254C16.4156 7.22935 15.7705 6.58416 15.4174 5.7846L9.85433 11.3476C9.36887 11.833 9.19405 12.0114 9.05393 12.2064C8.92131 12.3908 8.80904 12.5891 8.71908 12.7978C8.62403 13.0182 8.56096 13.2599 8.39445 13.926L8.16799 14.8318L9.07386 14.6053C9.73988 14.4388 9.98159 14.3758 10.202 14.2807C10.4107 14.1907 10.6089 14.0785 10.7934 13.9459C10.9883 13.8057 11.1668 13.6309 11.6522 13.1455L17.2152 7.58254ZM16.0829 2.71953C17.1699 1.73141 18.8299 1.73143 19.9169 2.71958C19.9676 2.76563 20.0211 2.81919 20.0876 2.88566L20.1009 2.89901L20.1143 2.9124L20.1144 2.91248L20.1145 2.9126C20.1809 2.97893 20.2343 3.0324 20.2803 3.08299C21.2684 4.17002 21.2684 5.83 20.2803 6.917C20.2343 6.96763 20.1808 7.02113 20.1144 7.08751L20.1143 7.08758L20.1142 7.08763L20.1009 7.10098L12.8543 14.3476L12.8061 14.3957L12.8061 14.3958C12.3856 14.8164 12.1064 15.0957 11.7857 15.3262C11.5017 15.5304 11.1964 15.7033 10.8751 15.8418C10.5125 15.9982 10.1293 16.0939 9.55227 16.238L9.48617 16.2546L7.20594 16.8246C6.91628 16.897 6.60986 16.8122 6.39874 16.601C6.18762 16.3899 6.10274 16.0835 6.17516 15.7939L6.74521 13.5136L6.76173 13.4475L6.76173 13.4475C6.9059 12.8705 7.00163 12.4873 7.15802 12.1246C7.29653 11.8034 7.46939 11.4981 7.67358 11.2141C7.90413 10.8934 8.18344 10.6141 8.60408 10.1936L8.65225 10.1455L15.8989 2.89894L15.9122 2.88557C15.9787 2.81912 16.0322 2.76557 16.0829 2.71953ZM3.14999 21C3.14999 20.5306 3.53055 20.15 3.99999 20.15H20C20.4694 20.15 20.85 20.5306 20.85 21C20.85 21.4694 20.4694 21.85 20 21.85H3.99999C3.53055 21.85 3.14999 21.4694 3.14999 21Z" fill="#1F2937"/>
</svg>