<svg width="44" height="44" viewBox="0 0 44 44" fill="none" xmlns="http://www.w3.org/2000/svg">
	<g filter="url(#filter0_d_4770_63621)">
		<rect x="2" y="1" width="40" height="40" rx="8" fill="white"/>
		<path d="M28.7099 16.2099C28.617 16.1161 28.5064 16.0417 28.3845 15.991C28.2627 15.9402 28.132 15.9141 27.9999 15.9141C27.8679 15.9141 27.7372 15.9402 27.6154 15.991C27.4935 16.0417 27.3829 16.1161 27.29 16.2099L19.84 23.6699L16.7099 20.5299C16.6134 20.4366 16.4995 20.3633 16.3746 20.3141C16.2498 20.2649 16.1165 20.2408 15.9823 20.2431C15.8481 20.2454 15.7157 20.2741 15.5926 20.3276C15.4695 20.3811 15.3582 20.4583 15.2649 20.5549C15.1717 20.6514 15.0984 20.7653 15.0492 20.8902C15 21.015 14.9759 21.1484 14.9782 21.2825C14.9805 21.4167 15.0092 21.5491 15.0627 21.6722C15.1162 21.7953 15.1934 21.9066 15.2899 21.9999L19.13 25.8399C19.2229 25.9336 19.3335 26.008 19.4554 26.0588C19.5772 26.1095 19.7079 26.1357 19.84 26.1357C19.972 26.1357 20.1027 26.1095 20.2245 26.0588C20.3464 26.008 20.457 25.9336 20.55 25.8399L28.7099 17.6799C28.8115 17.5862 28.8925 17.4726 28.9479 17.3461C29.0033 17.2196 29.0319 17.083 29.0319 16.9449C29.0319 16.8068 29.0033 16.6702 28.9479 16.5437C28.8925 16.4172 28.8115 16.3035 28.7099 16.2099Z" fill="#9CA3AF"/>
		<rect x="2.25" y="1.25" width="39.5" height="39.5" rx="7.75" stroke="#E5E7EB" stroke-width="0.5"/>
	</g>
	<defs>
		<filter id="filter0_d_4770_63621" x="0" y="0" width="44" height="44" filterUnits="userSpaceOnUse" color-interpolation-filters="sRGB">
			<feFlood flood-opacity="0" result="BackgroundImageFix"/>
			<feColorMatrix in="SourceAlpha" type="matrix" values="0 0 0 0 0 0 0 0 0 0 0 0 0 0 0 0 0 0 127 0" result="hardAlpha"/>
			<feOffset dy="1"/>
			<feGaussianBlur stdDeviation="1"/>
			<feColorMatrix type="matrix" values="0 0 0 0 0.0248438 0 0 0 0 0.0970504 0 0 0 0 0.220833 0 0 0 0.05 0"/>
			<feBlend mode="normal" in2="BackgroundImageFix" result="effect1_dropShadow_4770_63621"/>
			<feBlend mode="normal" in="SourceGraphic" in2="effect1_dropShadow_4770_63621" result="shape"/>
		</filter>
	</defs>
</svg>
