        <svg
          class="group"
          width="19"
          height="21"
          viewBox="0 0 19 21"
          fill="none"
          xmlns="http://www.w3.org/2000/svg"
        >
          <path
            d="M11.5 11.5008C11.5 11.2356 11.3946 10.9812 11.2071 10.7937C11.0196 10.6061 10.7652 10.5008 10.5 10.5008H5.5C5.23478 10.5008 4.98043 10.6061 4.79289 10.7937C4.60536 10.9812 4.5 11.2356 4.5 11.5008C4.5 11.766 4.60536 12.0204 4.79289 12.2079C4.98043 12.3954 5.23478 12.5008 5.5 12.5008H10.5C10.7652 12.5008 11.0196 12.3954 11.2071 12.2079C11.3946 12.0204 11.5 11.766 11.5 11.5008ZM16.5 16.5008C16.0752 16.5022 15.6619 16.6388 15.32 16.8908L13.57 16.0908L15.48 15.2108C15.7819 15.394 16.1269 15.4941 16.48 15.5008C16.8756 15.5008 17.2622 15.3835 17.5911 15.1637C17.92 14.944 18.1764 14.6316 18.3278 14.2661C18.4791 13.9007 18.5187 13.4986 18.4416 13.1106C18.3644 12.7226 18.1739 12.3663 17.8942 12.0866C17.6145 11.8069 17.2581 11.6164 16.8702 11.5392C16.4822 11.462 16.0801 11.5016 15.7146 11.653C15.3492 11.8044 15.0368 12.0607 14.8171 12.3896C14.5973 12.7185 14.48 13.1052 14.48 13.5008L12.59 14.3708C12.331 14.187 12.0321 14.0676 11.7178 14.0223C11.4035 13.9771 11.083 14.0073 10.7827 14.1105C10.4824 14.2137 10.211 14.3869 9.99095 14.6158C9.77089 14.8446 9.60848 15.1226 9.51717 15.4267C9.42585 15.7308 9.40825 16.0523 9.46583 16.3646C9.5234 16.6768 9.65449 16.9709 9.84826 17.2224C10.042 17.474 10.2929 17.6757 10.5801 17.8111C10.8673 17.9465 11.1827 18.0115 11.5 18.0008C11.8222 18.0009 12.139 17.9183 12.42 17.7608L14.52 18.7608C14.5643 19.1434 14.7182 19.5051 14.9631 19.8024C15.208 20.0997 15.5335 20.3199 15.9006 20.4367C16.2677 20.5534 16.6607 20.5617 17.0323 20.4604C17.4039 20.3592 17.7385 20.1528 17.9956 19.8661C18.2528 19.5793 18.4217 19.2244 18.482 18.844C18.5424 18.4635 18.4916 18.0738 18.3357 17.7215C18.1799 17.3693 17.9256 17.0695 17.6035 16.8583C17.2814 16.6471 16.9052 16.5333 16.52 16.5308L16.5 16.5008ZM8.5 18.5008H3.5C3.23478 18.5008 2.98043 18.3954 2.79289 18.2079C2.60536 18.0204 2.5 17.766 2.5 17.5008V3.50078C2.5 3.23556 2.60536 2.98121 2.79289 2.79367C2.98043 2.60614 3.23478 2.50078 3.5 2.50078H8.5V5.50078C8.5 6.29643 8.81607 7.05949 9.37868 7.6221C9.94129 8.18471 10.7044 8.50078 11.5 8.50078H14.5C14.5 8.766 14.6054 9.02035 14.7929 9.20789C14.9804 9.39542 15.2348 9.50078 15.5 9.50078C15.7652 9.50078 16.0196 9.39542 16.2071 9.20789C16.3946 9.02035 16.5 8.766 16.5 8.50078V7.50078V7.44078C16.4896 7.34892 16.4695 7.25841 16.44 7.17078V7.08078C16.3919 6.97796 16.3278 6.88345 16.25 6.80078L10.25 0.800781C10.1673 0.722997 10.0728 0.658862 9.97 0.610781C9.93692 0.604991 9.90308 0.604991 9.87 0.610781C9.78609 0.580305 9.69878 0.560157 9.61 0.550781H3.5C2.70435 0.550781 1.94129 0.866852 1.37868 1.42946C0.816071 1.99207 0.5 2.75513 0.5 3.55078V17.5508C0.5 18.3464 0.816071 19.1095 1.37868 19.6721C1.94129 20.2347 2.70435 20.5508 3.5 20.5508H8.5C8.76522 20.5508 9.01957 20.4454 9.20711 20.2579C9.39464 20.0704 9.5 19.816 9.5 19.5508C9.5 19.2856 9.39464 19.0312 9.20711 18.8437C9.01957 18.6561 8.76522 18.5508 8.5 18.5508V18.5008ZM10.5 3.91078L13.09 6.50078H11.5C11.2348 6.50078 10.9804 6.39542 10.7929 6.20789C10.6054 6.02035 10.5 5.766 10.5 5.50078V3.91078ZM5.5 14.5008C5.23478 14.5008 4.98043 14.6061 4.79289 14.7937C4.60536 14.9812 4.5 15.2356 4.5 15.5008C4.5 15.766 4.60536 16.0204 4.79289 16.2079C4.98043 16.3954 5.23478 16.5008 5.5 16.5008H6.5C6.76522 16.5008 7.01957 16.3954 7.20711 16.2079C7.39464 16.0204 7.5 15.766 7.5 15.5008C7.5 15.2356 7.39464 14.9812 7.20711 14.7937C7.01957 14.6061 6.76522 14.5008 6.5 14.5008H5.5ZM5.5 8.50078H6.5C6.76522 8.50078 7.01957 8.39542 7.20711 8.20789C7.39464 8.02035 7.5 7.766 7.5 7.50078C7.5 7.23556 7.39464 6.98121 7.20711 6.79367C7.01957 6.60614 6.76522 6.50078 6.5 6.50078H5.5C5.23478 6.50078 4.98043 6.60614 4.79289 6.79367C4.60536 6.98121 4.5 7.23556 4.5 7.50078C4.5 7.766 4.60536 8.02035 4.79289 8.20789C4.98043 8.39542 5.23478 8.50078 5.5 8.50078Z"
            fill="#1F2937"
          />
        </svg>