  <svg
    class="group"
    width="18"
    height="20"
    viewBox="0 0 18 20"
    fill="none"
    xmlns="http://www.w3.org/2000/svg"
  >
    <path
      d="M16.9998 8.35034L11.2198 0.940338C10.9294 0.638035 10.5801 0.398605 10.1934 0.236897C9.80666 0.0751886 9.39086 -0.00535004 8.97174 0.000275651C8.55263 0.00590134 8.13914 0.0975713 7.75692 0.269601C7.3747 0.44163 7.03189 0.690351 6.74977 1.00034L0.999766 8.35034C0.681409 8.84189 0.511301 9.4147 0.509766 10.0003C0.526468 10.5617 0.695872 11.108 0.999766 11.5803L1.05977 11.6503L6.79977 19.0603C7.08238 19.3596 7.42353 19.5974 7.80201 19.7591C8.18049 19.9208 8.58819 20.0029 8.99977 20.0003C9.4253 20 9.84607 19.9108 10.2352 19.7386C10.6243 19.5665 10.9733 19.315 11.2598 19.0003L16.9998 11.6503C17.3135 11.1547 17.475 10.5779 17.4644 9.99134C17.4537 9.40482 17.2713 8.83428 16.9398 8.35034H16.9998ZM15.4298 10.4903L9.75977 17.7103C9.56868 17.8863 9.32191 17.9897 9.06244 18.0025C8.80297 18.0153 8.54724 17.9367 8.33977 17.7803L2.64977 10.4703C2.56481 10.3277 2.5167 10.1662 2.50977 10.0003C2.51124 9.84499 2.54531 9.69169 2.60977 9.55034L8.27977 2.33034C8.47085 2.15435 8.71762 2.05095 8.97709 2.03816C9.23656 2.02537 9.49229 2.10399 9.69977 2.26034L15.3298 9.54034C15.4337 9.70129 15.4893 9.88873 15.4898 10.0803C15.483 10.2221 15.449 10.3613 15.3898 10.4903H15.4298Z"
      fill="#B7945A"
    />
  </svg>