<svg xmlns="http://www.w3.org/2000/svg" width="14" height="14" viewBox="0 0 14 14" fill="none">
  <path d="M7.00004 3.66683C6.82323 3.66683 6.65366 3.73707 6.52864 3.86209C6.40361 3.98712 6.33337 4.15669 6.33337 4.3335V7.00016C6.33337 7.17697 6.40361 7.34654 6.52864 7.47157C6.65366 7.59659 6.82323 7.66683 7.00004 7.66683C7.17685 7.66683 7.34642 7.59659 7.47145 7.47157C7.59647 7.34654 7.66671 7.17697 7.66671 7.00016V4.3335C7.66671 4.15669 7.59647 3.98712 7.47145 3.86209C7.34642 3.73707 7.17685 3.66683 7.00004 3.66683ZM7.00004 9.00016C6.86819 9.00016 6.73929 9.03926 6.62966 9.11252C6.52003 9.18577 6.43458 9.28989 6.38412 9.41171C6.33366 9.53352 6.32046 9.66757 6.34618 9.79689C6.37191 9.92621 6.4354 10.045 6.52864 10.1382C6.62187 10.2315 6.74066 10.295 6.86998 10.3207C6.9993 10.3464 7.13335 10.3332 7.25516 10.2827C7.37698 10.2323 7.4811 10.1468 7.55435 10.0372C7.62761 9.92758 7.66671 9.79868 7.66671 9.66683C7.66671 9.49002 7.59647 9.32045 7.47145 9.19543C7.34642 9.0704 7.17685 9.00016 7.00004 9.00016ZM13.4734 4.04016L9.96004 0.526829C9.83229 0.405007 9.66322 0.335952 9.48671 0.333496H4.51337C4.33686 0.335952 4.1678 0.405007 4.04004 0.526829L0.526707 4.04016C0.404885 4.16792 0.33583 4.33699 0.333374 4.5135V9.48683C0.33583 9.66334 0.404885 9.83241 0.526707 9.96016L4.04004 13.4735C4.1678 13.5953 4.33686 13.6644 4.51337 13.6668H9.48671C9.66322 13.6644 9.83229 13.5953 9.96004 13.4735L13.4734 9.96016C13.5952 9.83241 13.6643 9.66334 13.6667 9.48683V4.5135C13.6643 4.33699 13.5952 4.16792 13.4734 4.04016ZM12.3334 9.20683L9.20671 12.3335H4.79337L1.66671 9.20683V4.7935L4.79337 1.66683H9.20671L12.3334 4.7935V9.20683Z" fill="#FF8142"/>
</svg>