<svg width="44" height="44" viewBox="0 0 44 44" fill="none" xmlns="http://www.w3.org/2000/svg">
<g filter="url(#filter0_d_4768_63617)">
<rect x="2" y="1" width="40" height="40" rx="8" fill="white"/>
<path d="M23.4099 21.0002L27.7099 16.7102C27.8982 16.5219 28.004 16.2665 28.004 16.0002C28.004 15.7339 27.8982 15.4785 27.7099 15.2902C27.5216 15.1019 27.2662 14.9961 26.9999 14.9961C26.7336 14.9961 26.4782 15.1019 26.2899 15.2902L21.9999 19.5902L17.7099 15.2902C17.5216 15.1019 17.2662 14.9961 16.9999 14.9961C16.7336 14.9961 16.4782 15.1019 16.2899 15.2902C16.1016 15.4785 15.9958 15.7339 15.9958 16.0002C15.9958 16.2665 16.1016 16.5219 16.2899 16.7102L20.5899 21.0002L16.2899 25.2902C16.1962 25.3831 16.1218 25.4937 16.071 25.6156C16.0203 25.7375 15.9941 25.8682 15.9941 26.0002C15.9941 26.1322 16.0203 26.2629 16.071 26.3848C16.1218 26.5066 16.1962 26.6172 16.2899 26.7102C16.3829 26.8039 16.4935 26.8783 16.6154 26.9291C16.7372 26.9798 16.8679 27.006 16.9999 27.006C17.132 27.006 17.2627 26.9798 17.3845 26.9291C17.5064 26.8783 17.617 26.8039 17.7099 26.7102L21.9999 22.4102L26.2899 26.7102C26.3829 26.8039 26.4935 26.8783 26.6154 26.9291C26.7372 26.9798 26.8679 27.006 26.9999 27.006C27.132 27.006 27.2627 26.9798 27.3845 26.9291C27.5064 26.8783 27.617 26.8039 27.7099 26.7102C27.8037 26.6172 27.8781 26.5066 27.9288 26.3848C27.9796 26.2629 28.0057 26.1322 28.0057 26.0002C28.0057 25.8682 27.9796 25.7375 27.9288 25.6156C27.8781 25.4937 27.8037 25.3831 27.7099 25.2902L23.4099 21.0002Z" fill="#9CA3AF"/>
<rect x="2.25" y="1.25" width="39.5" height="39.5" rx="7.75" stroke="#E5E7EB" stroke-width="0.5"/>
</g>
<defs>
<filter id="filter0_d_4768_63617" x="0" y="0" width="44" height="44" filterUnits="userSpaceOnUse" color-interpolation-filters="sRGB">
<feFlood flood-opacity="0" result="BackgroundImageFix"/>
<feColorMatrix in="SourceAlpha" type="matrix" values="0 0 0 0 0 0 0 0 0 0 0 0 0 0 0 0 0 0 127 0" result="hardAlpha"/>
<feOffset dy="1"/>
<feGaussianBlur stdDeviation="1"/>
<feColorMatrix type="matrix" values="0 0 0 0 0.0248438 0 0 0 0 0.0970504 0 0 0 0 0.220833 0 0 0 0.05 0"/>
<feBlend mode="normal" in2="BackgroundImageFix" result="effect1_dropShadow_4768_63617"/>
<feBlend mode="normal" in="SourceGraphic" in2="effect1_dropShadow_4768_63617" result="shape"/>
</filter>
</defs>
</svg>
