<svg
      class="icon-stroke-eye-on"
      width="24"
      height="24"
      viewBox="0 0 24 24"
      fill="none"
      xmlns="http://www.w3.org/2000/svg"
    >
      <path
        fill-rule="evenodd"
        clip-rule="evenodd"
        d="M2.85002 12.0004C2.85002 11.6835 2.9789 11.1335 3.33203 10.4555C3.67722 9.79276 4.21089 9.05867 4.95156 8.37497C6.42272 7.01698 8.71799 5.85039 12 5.85039C15.2821 5.85039 17.5773 7.01698 19.0485 8.37497C19.7892 9.05867 20.3228 9.79276 20.668 10.4555C21.0212 11.1335 21.15 11.6835 21.15 12.0004C21.15 12.3173 21.0212 12.8672 20.668 13.5452C20.3228 14.208 19.7892 14.9421 19.0485 15.6258C17.5773 16.9838 15.2821 18.1504 12 18.1504C8.71799 18.1504 6.42272 16.9838 4.95156 15.6258C4.21089 14.9421 3.67722 14.208 3.33203 13.5452C2.9789 12.8672 2.85002 12.3173 2.85002 12.0004ZM12 4.15039C8.28206 4.15039 5.57733 5.4838 3.79849 7.12581C2.91416 7.94211 2.26033 8.83302 1.82427 9.67025C1.39615 10.4922 1.15002 11.3173 1.15002 12.0004C1.15002 12.6835 1.39615 13.5085 1.82427 14.3305C2.26033 15.1678 2.91416 16.0587 3.79849 16.875C5.57733 18.517 8.28206 19.8504 12 19.8504C15.718 19.8504 18.4227 18.517 20.2016 16.875C21.0859 16.0587 21.7397 15.1678 22.1758 14.3305C22.6039 13.5085 22.85 12.6835 22.85 12.0004C22.85 11.3173 22.6039 10.4922 22.1758 9.67025C21.7397 8.83302 21.0859 7.94211 20.2016 7.12581C18.4227 5.4838 15.718 4.15039 12 4.15039ZM9.84993 12.0004C9.84993 10.813 10.8125 9.85041 11.9999 9.85041C13.1873 9.85041 14.1499 10.813 14.1499 12.0004C14.1499 13.1878 13.1873 14.1504 11.9999 14.1504C10.8125 14.1504 9.84993 13.1878 9.84993 12.0004ZM11.9999 8.15041C9.87363 8.15041 8.14993 9.87412 8.14993 12.0004C8.14993 14.1267 9.87363 15.8504 11.9999 15.8504C14.1262 15.8504 15.8499 14.1267 15.8499 12.0004C15.8499 9.87412 14.1262 8.15041 11.9999 8.15041Z"
        fill="#6B7280"
      />
    </svg>