<svg
               
                width="24"
                height="24"
                viewBox="0 0 24 24"
                fill="none"
                xmlns="http://www.w3.org/2000/svg"
              >
                <path
                  fill-rule="evenodd"
                  clip-rule="evenodd"
                  d="M4.00002 2.14844C2.9783 2.14844 2.15002 2.97671 2.15002 3.99844V5.99844C2.15002 7.02016 2.9783 7.84844 4.00003 7.84844L6.00003 7.84844C7.02175 7.84844 7.85002 7.02016 7.85002 5.99844L7.85002 3.99844C7.85002 2.97671 7.02175 2.14844 6.00002 2.14844H4.00002ZM3.85002 3.99844C3.85002 3.9156 3.91718 3.84844 4.00002 3.84844L6.00002 3.84844C6.08287 3.84844 6.15002 3.91559 6.15002 3.99844L6.15002 5.99844C6.15002 6.08128 6.08287 6.14844 6.00002 6.14844L4.00002 6.14844C3.91718 6.14844 3.85002 6.08128 3.85002 5.99844L3.85002 3.99844ZM10.15 4.99844C10.15 4.529 10.5306 4.14844 11 4.14844L21 4.14844C21.4695 4.14844 21.85 4.52899 21.85 4.99844C21.85 5.46788 21.4695 5.84844 21 5.84844L11 5.84844C10.5306 5.84844 10.15 5.46788 10.15 4.99844ZM11 11.1484C10.5306 11.1484 10.15 11.529 10.15 11.9984C10.15 12.4679 10.5306 12.8484 11 12.8484L21 12.8484C21.4695 12.8484 21.85 12.4679 21.85 11.9984C21.85 11.529 21.4695 11.1484 21 11.1484L11 11.1484ZM11 18.1484C10.5306 18.1484 10.15 18.529 10.15 18.9984C10.15 19.4679 10.5306 19.8484 11 19.8484L21 19.8484C21.4695 19.8484 21.85 19.4679 21.85 18.9984C21.85 18.529 21.4695 18.1484 21 18.1484L11 18.1484ZM2.15002 10.9984C2.15002 9.97671 2.9783 9.14844 4.00003 9.14844H6.00003C7.02175 9.14843 7.85003 9.97671 7.85003 10.9984L7.85003 12.9984C7.85003 14.0202 7.02175 14.8484 6.00003 14.8484L4.00003 14.8484C2.9783 14.8484 2.15002 14.0202 2.15002 12.9984V10.9984ZM4.00003 10.8484C3.91718 10.8484 3.85003 10.9156 3.85003 10.9984L3.85003 12.9984C3.85003 13.0813 3.91718 13.1484 4.00003 13.1484L6.00003 13.1484C6.08287 13.1484 6.15003 13.0813 6.15003 12.9984L6.15003 10.9984C6.15003 10.9156 6.08287 10.8484 6.00003 10.8484H4.00003ZM4.00003 16.1484C2.9783 16.1484 2.15003 16.9767 2.15003 17.9984L2.15003 19.9984C2.15003 21.0202 2.9783 21.8484 4.00003 21.8484H6.00003C7.02175 21.8484 7.85003 21.0202 7.85003 19.9984L7.85003 17.9984C7.85003 16.9767 7.02175 16.1484 6.00003 16.1484H4.00003ZM3.85003 17.9984C3.85003 17.9156 3.91718 17.8484 4.00003 17.8484H6.00003C6.08287 17.8484 6.15003 17.9156 6.15003 17.9984L6.15003 19.9984C6.15003 20.0813 6.08287 20.1484 6.00003 20.1484L4.00003 20.1484C3.91718 20.1484 3.85003 20.0813 3.85003 19.9984L3.85003 17.9984Z"
                  fill="#9CA3AF"
                />
              </svg>