<svg width="18" height="22" viewBox="0 0 18 22" fill="none" xmlns="http://www.w3.org/2000/svg">
<path fill-rule="evenodd" clip-rule="evenodd" d="M1.84844 9.14808C1.84844 6.65727 2.75761 4.85426 4.06892 3.66706C5.3947 2.46675 7.18381 1.8499 8.99844 1.8499C10.8131 1.84991 12.6022 2.46677 13.928 3.66708C15.2393 4.85428 16.1484 6.6573 16.1484 9.14808C16.1484 11.2566 15.3244 13.2 14.177 14.8812C13.0299 16.562 11.5903 17.9348 10.4418 18.8826C9.58848 19.5867 8.40882 19.5867 7.55552 18.8826C6.40691 17.9348 4.96725 16.562 3.82007 14.8812C2.67254 13.2 1.84844 11.2566 1.84844 9.14808ZM17.8484 9.14808C17.8484 6.20677 16.7576 3.9357 15.0689 2.40684C13.3947 0.891082 11.1838 0.149908 8.99844 0.149902C6.81306 0.149897 4.60217 0.89106 2.92796 2.40682C1.23927 3.93567 0.148438 6.20675 0.148438 9.14808C0.148438 11.7073 1.14774 13.9815 2.41595 15.8396C3.68449 17.6982 5.25288 19.1866 6.47354 20.1938C7.95505 21.4163 10.0423 21.4163 11.5238 20.1938C12.7444 19.1865 14.3126 17.6981 15.5811 15.8395C16.8492 13.9815 17.8484 11.7073 17.8484 9.14808ZM6.84844 8.99993C6.84844 7.81252 7.81103 6.84993 8.99844 6.84993C10.1859 6.84993 11.1484 7.81252 11.1484 8.99993C11.1484 10.1873 10.1859 11.1499 8.99844 11.1499C7.81103 11.1499 6.84844 10.1873 6.84844 8.99993ZM8.99844 5.14993C6.87214 5.14993 5.14844 6.87364 5.14844 8.99993C5.14844 11.1262 6.87214 12.8499 8.99844 12.8499C11.1247 12.8499 12.8484 11.1262 12.8484 8.99993C12.8484 6.87364 11.1247 5.14993 8.99844 5.14993Z" fill="#6B7280"/>
</svg>
