<svg width="18" height="14" viewBox="0 0 18 14" fill="none" xmlns="http://www.w3.org/2000/svg">
<path fill-rule="evenodd" clip-rule="evenodd" d="M1 2C1.55228 2 2 1.55228 2 1C2 0.447715 1.55228 0 1 0C0.447715 0 0 0.447715 0 1C0 1.55228 0.447715 2 1 2ZM4.15 0.999999C4.15 0.530557 4.53056 0.149999 5 0.149999L17 0.149997C17.4694 0.149997 17.85 0.530555 17.85 0.999997C17.85 1.46944 17.4694 1.85 17 1.85L5 1.85C4.53056 1.85 4.15 1.46944 4.15 0.999999ZM5 6.15C4.53056 6.15 4.15 6.53056 4.15 7C4.15 7.46944 4.53056 7.85 5 7.85L17 7.85C17.4694 7.85 17.85 7.46944 17.85 7C17.85 6.53056 17.4694 6.15 17 6.15L5 6.15ZM5 12.15C4.53056 12.15 4.15 12.5306 4.15 13C4.15 13.4694 4.53056 13.85 5 13.85L17 13.85C17.4694 13.85 17.85 13.4694 17.85 13C17.85 12.5306 17.4694 12.15 17 12.15L5 12.15ZM2 7C2 7.55228 1.55229 8 1 8C0.447716 8 0 7.55228 0 7C0 6.44771 0.447716 6 1 6C1.55229 6 2 6.44771 2 7ZM1 14C1.55229 14 2 13.5523 2 13C2 12.4477 1.55229 12 1 12C0.447717 12 0 12.4477 0 13C1.94034e-06 13.5523 0.447717 14 1 14Z" fill="#000"/>
</svg>
