                                <svg
                                    width="24"
                                    height="24"
                                    viewBox="0 0 24 24"
                                    fill="none"
                                    xmlns="http://www.w3.org/2000/svg"
                                >
                                    <path
                                        fillRule="evenodd"
                                        clipRule="evenodd"
                                        d="M3.85002 12.0004C3.85002 7.49927 7.4989 3.85039 12 3.85039C16.5011 3.85039 20.15 7.49927 20.15 12.0004C20.15 16.5015 16.5011 20.1504 12 20.1504C7.4989 20.1504 3.85002 16.5015 3.85002 12.0004ZM12 2.15039C6.56002 2.15039 2.15002 6.56039 2.15002 12.0004C2.15002 17.4404 6.56002 21.8504 12 21.8504C17.44 21.8504 21.85 17.4404 21.85 12.0004C21.85 6.56039 17.44 2.15039 12 2.15039ZM9.85002 12.0004C9.85002 10.813 10.8126 9.85039 12 9.85039C13.1874 9.85039 14.15 10.813 14.15 12.0004C14.15 13.1878 13.1874 14.1504 12 14.1504C10.8126 14.1504 9.85002 13.1878 9.85002 12.0004ZM12 8.15039C9.87373 8.15039 8.15002 9.87409 8.15002 12.0004C8.15002 14.1267 9.87373 15.8504 12 15.8504C14.1263 15.8504 15.85 14.1267 15.85 12.0004C15.85 9.87409 14.1263 8.15039 12 8.15039Z"
                                        fill="#6B7280"
                                    />
                                </svg>