<svg width="24" height="24" viewBox="0 0 24 24" fill="none" xmlns="http://www.w3.org/2000/svg">
<path fill-rule="evenodd" clip-rule="evenodd" d="M11.1504 3.00039C11.1504 2.53095 11.5309 2.15039 12.0004 2.15039C17.4404 2.15039 21.8504 6.56039 21.8504 12.0004C21.8504 17.4404 17.4404 21.8504 12.0004 21.8504C6.56039 21.8504 2.15039 17.4404 2.15039 12.0004C2.15039 10.4294 2.5188 8.94198 3.17472 7.62211C3.38364 7.20172 3.8938 7.03029 4.31419 7.2392C4.73458 7.44812 4.90601 7.95828 4.6971 8.37867C4.15539 9.46872 3.85039 10.6977 3.85039 12.0004C3.85039 16.5015 7.49927 20.1504 12.0004 20.1504C16.5015 20.1504 20.1504 16.5015 20.1504 12.0004C20.1504 7.49927 16.5015 3.85039 12.0004 3.85039C11.5309 3.85039 11.1504 3.46983 11.1504 3.00039Z" fill="#A78BFA"/>
</svg>
