<svg width="20" height="18" viewBox="0 0 20 18" fill="none" xmlns="http://www.w3.org/2000/svg">
<path d="M17 0C16.2043 0 15.4413 0.316071 14.8787 0.87868C14.3161 1.44129 14 2.20435 14 3V5.84L5 0.47C4.50262 0.173178 3.93421 0.0164607 3.355 0.0164607C2.77579 0.0164607 2.20737 0.173178 1.71 0.47C1.18908 0.766028 0.756218 1.1952 0.455743 1.71357C0.155268 2.23193 -0.00201756 2.82085 -2.59536e-06 3.42V14.58C-0.00998998 15.1886 0.144547 15.7886 0.447289 16.3166C0.750032 16.8447 1.18975 17.2811 1.72 17.58C2.21095 17.8578 2.76592 18.0025 3.33 18C3.91876 17.9961 4.4956 17.8337 5 17.53L14 12.16V15C14 15.7956 14.3161 16.5587 14.8787 17.1213C15.4413 17.6839 16.2043 18 17 18C17.7956 18 18.5587 17.6839 19.1213 17.1213C19.6839 16.5587 20 15.7956 20 15V3C20 2.20435 19.6839 1.44129 19.1213 0.87868C18.5587 0.316071 17.7956 0 17 0ZM13.32 10.23L4 15.81C3.80719 15.9275 3.58577 15.9896 3.36 15.9896C3.13422 15.9896 2.9128 15.9275 2.72 15.81C2.50085 15.6882 2.31842 15.5098 2.19176 15.2935C2.06511 15.0771 1.99888 14.8307 2 14.58V3.42C1.99428 3.16692 2.05728 2.91703 2.18231 2.69691C2.30733 2.4768 2.4897 2.2947 2.71 2.17C2.89901 2.06192 3.1123 2.00344 3.33 2C3.56697 1.99747 3.79963 2.06344 4 2.19L13.33 7.77C13.5387 7.9003 13.7109 8.08157 13.8302 8.29675C13.9495 8.51193 14.0121 8.75394 14.0121 9C14.0121 9.24606 13.9495 9.48807 13.8302 9.70325C13.7109 9.91843 13.5387 10.0997 13.33 10.23H13.32ZM18 15C18 15.2652 17.8946 15.5196 17.7071 15.7071C17.5196 15.8946 17.2652 16 17 16C16.7348 16 16.4804 15.8946 16.2929 15.7071C16.1054 15.5196 16 15.2652 16 15V3C16 2.73478 16.1054 2.48043 16.2929 2.29289C16.4804 2.10536 16.7348 2 17 2C17.2652 2 17.5196 2.10536 17.7071 2.29289C17.8946 2.48043 18 2.73478 18 3V15Z" fill="#FFF"/>
</svg>
