<svg width="20" height="20" viewBox="0 0 20 20" fill="none" xmlns="http://www.w3.org/2000/svg">
<path fill-rule="evenodd" clip-rule="evenodd" d="M7.2 0.149994H7.16621H7.16618C6.63493 0.149982 6.18554 0.149971 5.81718 0.180067C5.43111 0.21161 5.05983 0.280403 4.70612 0.460627C4.16986 0.733866 3.73387 1.16986 3.46063 1.70612C3.2804 2.05983 3.21161 2.43111 3.18007 2.81718C3.14997 3.18555 3.14998 3.63494 3.14999 4.16621L3.14999 4.2V5.2728C2.83395 5.33265 2.53654 5.42471 2.25213 5.56962C1.52771 5.93873 0.938732 6.52771 0.56962 7.25213C0.334899 7.7128 0.238858 8.20756 0.19369 8.76038C0.149978 9.2954 0.149985 9.9545 0.149994 10.7641V10.7641V10.8V13C0.149994 14.8359 1.435 16.3716 3.15465 16.7569C3.15769 16.899 3.16271 17.0307 3.171 17.1522C3.19298 17.4744 3.24077 17.786 3.36694 18.0906C3.6562 18.789 4.21102 19.3438 4.90935 19.6331C5.21395 19.7592 5.52563 19.807 5.84782 19.829C6.15586 19.85 6.52983 19.85 6.97185 19.85H6.97195H6.99999H13H13.028H13.0281C13.4702 19.85 13.8441 19.85 14.1522 19.829C14.4744 19.807 14.786 19.7592 15.0906 19.6331C15.789 19.3438 16.3438 18.789 16.6331 18.0906C16.7592 17.786 16.807 17.4744 16.829 17.1522C16.8373 17.0307 16.8423 16.899 16.8453 16.7569C18.565 16.3716 19.85 14.8359 19.85 13V10.8V10.7642C19.85 9.95454 19.85 9.29542 19.8063 8.76038C19.7611 8.20756 19.6651 7.7128 19.4304 7.25213C19.0613 6.52771 18.4723 5.93873 17.7479 5.56962C17.4634 5.42471 17.166 5.33265 16.85 5.2728V4.2V4.16622C16.85 3.63495 16.85 3.18555 16.8199 2.81718C16.7884 2.43111 16.7196 2.05983 16.5394 1.70612C16.2661 1.16986 15.8301 0.733866 15.2939 0.460627C14.9402 0.280403 14.5689 0.21161 14.1828 0.180067C13.8145 0.149971 13.3651 0.149982 12.8338 0.149994H12.8338H12.8H7.2ZM15.15 5.15292V4.2C15.15 3.62592 15.1493 3.24648 15.1256 2.95562C15.1026 2.67468 15.0624 2.55202 15.0247 2.47791C14.9144 2.26152 14.7385 2.08559 14.5221 1.97534C14.448 1.93758 14.3253 1.89737 14.0444 1.87442C13.7535 1.85066 13.3741 1.85 12.8 1.85H7.2C6.62592 1.85 6.24648 1.85066 5.95562 1.87442C5.67468 1.89737 5.55202 1.93758 5.47791 1.97534C5.26152 2.08559 5.08559 2.26152 4.97534 2.47791C4.93757 2.55202 4.89737 2.67468 4.87442 2.95562C4.85066 3.24648 4.85 3.62592 4.85 4.2V5.15292C5.13104 5.14999 5.43516 5.14999 5.76413 5.15L5.8 5.15H14.2L14.2359 5.15C14.5648 5.14999 14.869 5.14999 15.15 5.15292ZM16.8366 14.9811C17.6084 14.6548 18.15 13.8906 18.15 13V10.8C18.15 9.94589 18.1493 9.35643 18.1119 8.89882C18.0754 8.45113 18.0079 8.20499 17.9157 8.02392C17.7095 7.61937 17.3806 7.29046 16.9761 7.08433C16.795 6.99207 16.5489 6.92462 16.1012 6.88805C15.6436 6.85066 15.0541 6.85 14.2 6.85H5.8C4.94589 6.85 4.35643 6.85066 3.89882 6.88805C3.45113 6.92462 3.20499 6.99207 3.02392 7.08433C2.61937 7.29046 2.29046 7.61937 2.08433 8.02392C1.99207 8.20499 1.92462 8.45113 1.88804 8.89882C1.85066 9.35643 1.84999 9.94589 1.84999 10.8V13C1.84999 13.8906 2.39156 14.6548 3.16335 14.9811C3.16552 14.9354 3.16805 14.891 3.171 14.8478C3.19298 14.5256 3.24077 14.214 3.36694 13.9093C3.6562 13.211 4.21102 12.6562 4.90935 12.3669C5.21395 12.2408 5.52563 12.193 5.84782 12.171C6.15589 12.15 6.5299 12.15 6.97196 12.15H6.99999H13H13.028C13.4701 12.15 13.8441 12.15 14.1522 12.171C14.4744 12.193 14.786 12.2408 15.0906 12.3669C15.789 12.6562 16.3438 13.211 16.6331 13.9093C16.7592 14.214 16.807 14.5256 16.829 14.8478C16.8319 14.891 16.8345 14.9354 16.8366 14.9811ZM5.55991 13.9375C5.62285 13.9115 5.72791 13.8831 5.96354 13.8671C6.20681 13.8505 6.52242 13.85 6.99999 13.85H13C13.4776 13.85 13.7932 13.8505 14.0364 13.8671C14.2721 13.8831 14.3771 13.9115 14.4401 13.9375C14.7219 14.0543 14.9457 14.2781 15.0625 14.5599C15.0885 14.6228 15.1169 14.7279 15.1329 14.9635C15.1495 15.2068 15.15 15.5224 15.15 16C15.15 16.4776 15.1495 16.7932 15.1329 17.0364C15.1169 17.2721 15.0885 17.3771 15.0625 17.4401C14.9457 17.7219 14.7219 17.9457 14.4401 18.0625C14.3771 18.0885 14.2721 18.1169 14.0364 18.1329C13.7932 18.1495 13.4776 18.15 13 18.15H6.99999C6.52242 18.15 6.20681 18.1495 5.96354 18.1329C5.72791 18.1169 5.62285 18.0885 5.55991 18.0625C5.27813 17.9457 5.05425 17.7219 4.93753 17.4401C4.91146 17.3771 4.88313 17.2721 4.86705 17.0364C4.85046 16.7932 4.85 16.4776 4.85 16C4.85 15.5224 4.85046 15.2068 4.86705 14.9635C4.88313 14.7279 4.91146 14.6228 4.93753 14.5599C5.05425 14.2781 5.27813 14.0543 5.55991 13.9375ZM3.14999 9C3.14999 8.53055 3.53055 8.15 3.99999 8.15H4.99999C5.46944 8.15 5.85 8.53055 5.85 9C5.85 9.46944 5.46944 9.85 4.99999 9.85H3.99999C3.53055 9.85 3.14999 9.46944 3.14999 9Z" fill="#9CA3AF"/>
</svg>
