<svg
  class="riskicon-stroke-trash-2"
  width="24"
  height="24"
  viewBox="0 0 24 24"
  fill="none"
  xmlns="http://www.w3.org/2000/svg"
>
  <path
    fill-rule="evenodd"
    clip-rule="evenodd"
    d="M18.7733 3.97757C18.3347 3.57884 17.6649 3.57883 17.2263 3.97755C17.2098 3.99254 17.1874 4.01454 17.1009 4.10109L16.8228 4.37917C16.8222 5.36741 17.6323 6.17759 18.6205 6.1772L18.8987 5.89896C18.9853 5.81241 19.0073 5.79006 19.0223 5.77357C19.421 5.33496 19.421 4.66514 19.0223 4.22652C19.0073 4.21002 18.9853 4.18768 18.8987 4.10112C18.8122 4.01457 18.7898 3.99256 18.7733 3.97757ZM17.2151 7.5826C16.4155 7.22941 15.7704 6.58422 15.4173 5.78466L9.85424 11.3476C9.36878 11.8331 9.19396 12.0115 9.05384 12.2064C8.92122 12.3909 8.80895 12.5892 8.71899 12.7978C8.62393 13.0183 8.56087 13.26 8.39436 13.926L8.1679 14.8319L9.07376 14.6054C9.73979 14.4389 9.98149 14.3758 10.2019 14.2808C10.4106 14.1908 10.6089 14.0785 10.7933 13.9459C10.9883 13.8058 11.1667 13.631 11.6521 13.1455L17.2151 7.5826ZM16.0828 2.71959C17.1698 1.73147 18.8298 1.73149 19.9169 2.71964C19.9675 2.76569 20.021 2.81925 20.0875 2.88572L20.1008 2.89907L20.1142 2.91247L20.1143 2.91255L20.1144 2.91266C20.1808 2.97899 20.2343 3.03246 20.2802 3.08305C21.2683 4.17008 21.2683 5.83006 20.2802 6.91706C20.2342 6.96769 20.1807 7.02119 20.1143 7.08757L20.1142 7.08764L20.1141 7.08769L20.1008 7.10104L12.8542 14.3476L12.806 14.3958L12.806 14.3958C12.3855 14.8164 12.1063 15.0957 11.7856 15.3263C11.5016 15.5305 11.1963 15.7033 10.8751 15.8418C10.5124 15.9982 10.1292 16.0939 9.55218 16.2381L9.48608 16.2546L7.20584 16.8247C6.91619 16.8971 6.60977 16.8122 6.39865 16.6011C6.18752 16.39 6.10265 16.0836 6.17507 15.7939L6.74512 13.5137L6.76164 13.4476L6.76164 13.4476C6.90581 12.8706 7.00154 12.4874 7.15793 12.1247C7.29644 11.8035 7.4693 11.4982 7.67349 11.2141C7.90404 10.8934 8.18335 10.6142 8.60399 10.1937L8.65216 10.1455L15.8988 2.89901L15.9122 2.88563C15.9786 2.81918 16.0321 2.76563 16.0828 2.71959ZM3.1499 21.0001C3.1499 20.5306 3.53046 20.1501 3.9999 20.1501H19.9999C20.4693 20.1501 20.8499 20.5306 20.8499 21.0001C20.8499 21.4695 20.4693 21.8501 19.9999 21.8501H3.9999C3.53046 21.8501 3.1499 21.4695 3.1499 21.0001Z"
    fill="#9CA3AF"
  />
</svg>