<svg width="20" height="20" viewBox="0 0 20 20" fill="none" xmlns="http://www.w3.org/2000/svg">
<path d="M17 1.99995H15.55C15.4306 1.63526 15.244 1.29611 15 0.999946C14.717 0.683582 14.3702 0.430861 13.9823 0.258479C13.5945 0.0860973 13.1744 -0.00202116 12.75 -5.41341e-05H7.27C6.8422 -0.00486888 6.41832 0.0818714 6.02681 0.254346C5.63529 0.426821 5.28519 0.68104 5 0.999946C4.74885 1.2945 4.55547 1.63376 4.43 1.99995H3C2.20435 1.99995 1.44129 2.31602 0.87868 2.87863C0.316071 3.44123 0 4.2043 0 4.99995V16.9999C0 17.7956 0.316071 18.5587 0.87868 19.1213C1.44129 19.6839 2.20435 19.9999 3 19.9999H17C17.7956 19.9999 18.5587 19.6839 19.1213 19.1213C19.6839 18.5587 20 17.7956 20 16.9999V4.99995C20 4.2043 19.6839 3.44123 19.1213 2.87863C18.5587 2.31602 17.7956 1.99995 17 1.99995ZM6.52 2.33995C6.61371 2.23328 6.72906 2.14779 6.85838 2.08916C6.9877 2.03054 7.12802 2.00013 7.27 1.99995H12.73C12.872 2.00013 13.0123 2.03054 13.1416 2.08916C13.2709 2.14779 13.3863 2.23328 13.48 2.33995C13.5744 2.44495 13.6454 2.56874 13.6885 2.70318C13.7316 2.83761 13.7457 2.97965 13.73 3.11995L13.23 7.11995C13.2005 7.36386 13.0823 7.58838 12.8979 7.75069C12.7134 7.91299 12.4757 8.00172 12.23 7.99995H10.59L11.73 5.59995C11.8224 5.36459 11.8223 5.10296 11.7296 4.86772C11.6369 4.63247 11.4585 4.44108 11.2303 4.33208C11.0022 4.22307 10.7412 4.20454 10.4999 4.28022C10.2587 4.3559 10.055 4.52016 9.93 4.73995L8.37 7.99995H7.77C7.52432 8.00172 7.28659 7.91299 7.10215 7.75069C6.91771 7.58838 6.79948 7.36386 6.77 7.11995L6.27 3.11995C6.25425 2.97965 6.26839 2.83761 6.31148 2.70318C6.35457 2.56874 6.42563 2.44495 6.52 2.33995ZM18 16.9999C18 17.2652 17.8946 17.5195 17.7071 17.7071C17.5196 17.8946 17.2652 17.9999 17 17.9999H3C2.73478 17.9999 2.48043 17.8946 2.29289 17.7071C2.10536 17.5195 2 17.2652 2 16.9999V4.99995C2 4.73473 2.10536 4.48038 2.29289 4.29284C2.48043 4.1053 2.73478 3.99995 3 3.99995H4.37L4.79 7.36995C4.88069 8.09986 5.23638 8.77103 5.78946 9.2559C6.34255 9.74077 7.05449 10.0056 7.79 9.99995H12.25C12.9855 10.0056 13.6975 9.74077 14.2505 9.2559C14.8036 8.77103 15.1593 8.09986 15.25 7.36995L15.63 3.99995H17C17.2652 3.99995 17.5196 4.1053 17.7071 4.29284C17.8946 4.48038 18 4.73473 18 4.99995V16.9999ZM12 13.9999H8C7.73478 13.9999 7.48043 14.1053 7.29289 14.2928C7.10536 14.4804 7 14.7347 7 14.9999C7 15.2652 7.10536 15.5195 7.29289 15.7071C7.48043 15.8946 7.73478 15.9999 8 15.9999H12C12.2652 15.9999 12.5196 15.8946 12.7071 15.7071C12.8946 15.5195 13 15.2652 13 14.9999C13 14.7347 12.8946 14.4804 12.7071 14.2928C12.5196 14.1053 12.2652 13.9999 12 13.9999Z" fill="#1F2937"/>
</svg>
