<svg width="20" height="20" viewBox="0 0 20 20" fill="none" xmlns="http://www.w3.org/2000/svg">
<g id="Group">
<path id="Vector" d="M7.99996 15.5501L6.22996 17.2701C5.76583 17.7342 5.13634 17.995 4.47996 17.995C3.82358 17.995 3.19409 17.7342 2.72996 17.2701C2.26583 16.806 2.00508 16.1765 2.00508 15.5201C2.00508 14.8637 2.26583 14.2342 2.72996 13.7701L7.26996 9.22009C7.71557 8.77304 8.31598 8.51437 8.94697 8.49762C9.57796 8.48087 10.1913 8.70731 10.66 9.13009L10.78 9.23009C10.9696 9.41575 11.2252 9.51846 11.4906 9.51565C11.7559 9.51284 12.0093 9.40472 12.195 9.21509C12.3806 9.02547 12.4833 8.76985 12.4805 8.50449C12.4777 8.23912 12.3696 7.98575 12.18 7.80009C12.1235 7.72712 12.0634 7.65703 12 7.59009C11.1463 6.84741 10.0423 6.45694 8.91153 6.49779C7.78076 6.53864 6.70779 7.00775 5.90996 7.81009L1.30996 12.3601C0.528315 13.2109 0.105579 14.3308 0.130033 15.4858C0.154487 16.6409 0.62424 17.7419 1.44119 18.5589C2.25814 19.3758 3.35912 19.8456 4.51421 19.87C5.66929 19.8945 6.78916 19.4717 7.63996 18.6901L9.36996 17.0001C9.54078 16.8137 9.63468 16.5696 9.63277 16.3168C9.63086 16.064 9.53328 15.8214 9.35967 15.6376C9.18606 15.4539 8.9493 15.3427 8.69703 15.3264C8.44475 15.3102 8.19569 15.3901 7.99996 15.5501ZM18.69 1.31009C17.8487 0.474102 16.7109 0.00488281 15.525 0.00488281C14.339 0.00488281 13.2012 0.474102 12.36 1.31009L10.63 3.00009C10.4591 3.18644 10.3652 3.43057 10.3672 3.68336C10.3691 3.93615 10.4666 4.17883 10.6402 4.36258C10.8139 4.54633 11.0506 4.65751 11.3029 4.67375C11.5552 4.68998 11.8042 4.61007 12 4.45009L13.73 2.73009C14.1941 2.26597 14.8236 2.00522 15.48 2.00522C16.1363 2.00522 16.7658 2.26597 17.23 2.73009C17.6941 3.19422 17.9548 3.82372 17.9548 4.48009C17.9548 5.13647 17.6941 5.76596 17.23 6.23009L12.69 10.7801C12.2443 11.2272 11.6439 11.4858 11.0129 11.5026C10.382 11.5193 9.76866 11.2929 9.29996 10.8701L9.17996 10.7701C8.99033 10.5844 8.73472 10.4817 8.46935 10.4845C8.20399 10.4874 7.95061 10.5955 7.76496 10.7851C7.57931 10.9747 7.47659 11.2303 7.4794 11.4957C7.48221 11.7611 7.59033 12.0144 7.77996 12.2001C7.8526 12.2744 7.92939 12.3445 8.00996 12.4101C8.86463 13.1505 9.96818 13.5395 11.0983 13.4987C12.2283 13.4579 13.3009 12.9903 14.1 12.1901L18.65 7.64009C19.4913 6.80417 19.9677 5.66932 19.9752 4.48334C19.9827 3.29736 19.5207 2.15659 18.69 1.31009Z" fill="#1F2937"/>
</g>
</svg>
