<svg width="21" height="20" viewBox="0 0 21 20" fill="none" xmlns="http://www.w3.org/2000/svg">
<path d="M20.0014 7.67015C19.9383 7.48723 19.8234 7.32657 19.6708 7.20765C19.5181 7.08872 19.3342 7.01664 19.1414 7.00014L13.4514 6.17015L10.9014 1.00015C10.8196 0.831074 10.6917 0.688487 10.5325 0.588719C10.3734 0.48895 10.1893 0.436035 10.0014 0.436035C9.81359 0.436035 9.62953 0.48895 9.47035 0.588719C9.31118 0.688487 9.18333 0.831074 9.10144 1.00015L6.55144 6.16014L0.861442 7.00014C0.676365 7.02645 0.502366 7.10411 0.359193 7.2243C0.216019 7.3445 0.109402 7.50242 0.0514423 7.68015C-0.00161275 7.85382 -0.00637381 8.03866 0.03767 8.21484C0.0817139 8.39101 0.1729 8.55187 0.301442 8.68015L4.43144 12.6801L3.43144 18.3601C3.39574 18.5476 3.41444 18.7414 3.48531 18.9186C3.55619 19.0958 3.6763 19.249 3.83144 19.3601C3.98266 19.4683 4.16102 19.5321 4.34649 19.5444C4.53196 19.5568 4.71721 19.5172 4.88144 19.4301L10.0014 16.7601L15.1014 19.4401C15.2418 19.5193 15.4003 19.5607 15.5614 19.5601C15.7733 19.5609 15.9799 19.4944 16.1514 19.3701C16.3066 19.259 16.4267 19.1058 16.4976 18.9286C16.5684 18.7514 16.5871 18.5576 16.5514 18.3701L15.5514 12.6901L19.6814 8.69014C19.8258 8.56782 19.9325 8.40705 19.9892 8.22649C20.0458 8.04594 20.0501 7.85302 20.0014 7.67015ZM13.8514 11.6701C13.7342 11.7836 13.6464 11.924 13.5959 12.0791C13.5453 12.2343 13.5335 12.3994 13.5614 12.5601L14.2814 16.7501L10.5214 14.7501C10.3768 14.6731 10.2154 14.6328 10.0514 14.6328C9.88753 14.6328 9.72612 14.6731 9.58144 14.7501L5.82144 16.7501L6.54144 12.5601C6.56938 12.3994 6.55756 12.2343 6.50701 12.0791C6.45646 11.924 6.36872 11.7836 6.25144 11.6701L3.25144 8.67015L7.46144 8.06015C7.62344 8.03761 7.77744 7.97569 7.90994 7.8798C8.04244 7.78391 8.1494 7.65698 8.22144 7.51015L10.0014 3.70015L11.8814 7.52015C11.9535 7.66698 12.0604 7.79391 12.1929 7.8898C12.3254 7.98569 12.4794 8.04761 12.6414 8.07014L16.8514 8.68015L13.8514 11.6701Z" fill="#1F2937"/>
</svg>
