<svg width="24" height="24" viewBox="0 0 24 24" fill="none" xmlns="http://www.w3.org/2000/svg">
<path fill-rule="evenodd" clip-rule="evenodd" d="M11.1499 3.00039C11.1499 2.53095 11.5305 2.15039 11.9999 2.15039C17.4399 2.15039 21.8499 6.56039 21.8499 12.0004C21.8499 17.4404 17.4399 21.8504 11.9999 21.8504C6.5599 21.8504 2.1499 17.4404 2.1499 12.0004C2.1499 10.4294 2.51832 8.94198 3.17423 7.62211C3.38315 7.20172 3.89331 7.03029 4.3137 7.2392C4.73409 7.44812 4.90553 7.95828 4.69661 8.37867C4.1549 9.46872 3.8499 10.6977 3.8499 12.0004C3.8499 16.5015 7.49878 20.1504 11.9999 20.1504C16.501 20.1504 20.1499 16.5015 20.1499 12.0004C20.1499 7.49927 16.501 3.85039 11.9999 3.85039C11.5305 3.85039 11.1499 3.46983 11.1499 3.00039Z" fill="#059669"/>
</svg>
