<svg width="20" height="20" viewBox="0 0 20 20" fill="none" xmlns="http://www.w3.org/2000/svg">
<path fill-rule="evenodd" clip-rule="evenodd" d="M7.39844 0.149903L7.36145 0.149903C6.2727 0.149895 5.40375 0.149889 4.70203 0.207222C3.98246 0.266014 3.36421 0.389304 2.79658 0.678521C1.884 1.14351 1.14204 1.88546 0.677056 2.79805C0.387839 3.36567 0.264549 3.98392 0.205757 4.70349C0.148424 5.40521 0.14843 6.27417 0.148438 7.36291L0.148438 7.3999V12.5999L0.148438 12.6369C0.14843 13.7256 0.148424 14.5946 0.205757 15.2963C0.264549 16.0159 0.387839 16.6341 0.677056 17.2018C1.14204 18.1143 1.884 18.8563 2.79658 19.3213C3.36421 19.6105 3.98246 19.7338 4.70203 19.7926C5.40376 19.8499 6.27273 19.8499 7.36151 19.8499H7.39844H12.5984H12.6354C13.7241 19.8499 14.5931 19.8499 15.2948 19.7926C16.0144 19.7338 16.6327 19.6105 17.2003 19.3213C18.1129 18.8563 18.8548 18.1143 19.3198 17.2018C19.609 16.6341 19.7323 16.0159 19.7911 15.2963C19.8485 14.5946 19.8484 13.7256 19.8484 12.6368V12.5999V8.9999C19.8484 8.53046 19.4679 8.1499 18.9984 8.1499C18.529 8.1499 18.1484 8.53046 18.1484 8.9999V12.5999C18.1484 13.734 18.1478 14.5335 18.0968 15.1579C18.0466 15.7723 17.9519 16.1419 17.8051 16.43C17.5031 17.0227 17.0212 17.5046 16.4285 17.8066C16.1405 17.9533 15.7709 18.048 15.1564 18.0982C14.532 18.1492 13.7326 18.1499 12.5984 18.1499H7.39844C6.26431 18.1499 5.46483 18.1492 4.84046 18.0982C4.22602 18.048 3.85639 17.9533 3.56837 17.8066C2.97566 17.5046 2.49377 17.0227 2.19177 16.43C2.04501 16.1419 1.95031 15.7723 1.90011 15.1579C1.8491 14.5335 1.84844 13.734 1.84844 12.5999V7.3999C1.84844 6.26577 1.8491 5.46629 1.90011 4.84193C1.95031 4.22748 2.04501 3.85786 2.19177 3.56983C2.49377 2.97712 2.97566 2.49523 3.56837 2.19323C3.85639 2.04648 4.22602 1.95178 4.84046 1.90158C5.46483 1.85056 6.26431 1.8499 7.39844 1.8499H13.9984C14.4679 1.8499 14.8484 1.46934 14.8484 0.999903C14.8484 0.530461 14.4679 0.149903 13.9984 0.149903H7.39844ZM19.5995 3.60094C19.9314 3.269 19.9314 2.73081 19.5995 2.39886C19.2675 2.06692 18.7293 2.06692 18.3974 2.39886L9.99844 10.7978L7.59948 8.39886C7.26753 8.06692 6.72934 8.06692 6.3974 8.39886C6.06545 8.73081 6.06545 9.269 6.3974 9.60094L9.3974 12.6009C9.5568 12.7603 9.773 12.8499 9.99844 12.8499C10.2239 12.8499 10.4401 12.7603 10.5995 12.6009L19.5995 3.60094Z" fill="#1F2937"/>
</svg>
