<svg width="24" height="24" viewBox="0 0 24 24" fill="none" xmlns="http://www.w3.org/2000/svg">
<g id="icon / stroke / Trash - 2">
<path id="Union" fill-rule="evenodd" clip-rule="evenodd" d="M9.72078 3.85039C9.65622 3.85039 9.5989 3.89171 9.57848 3.95296L9.17934 5.15039H14.8207L14.4216 3.95296C14.4012 3.89171 14.3438 3.85039 14.2793 3.85039H9.72078ZM16.6127 5.15039L16.0343 3.41537C15.7825 2.65994 15.0756 2.15039 14.2793 2.15039H9.72078C8.92449 2.15039 8.21753 2.65994 7.96572 3.41537L7.38738 5.15039H5.00002H3.00002C2.53058 5.15039 2.15002 5.53095 2.15002 6.00039C2.15002 6.46983 2.53058 6.85039 3.00002 6.85039H4.2048L4.96521 18.2565C5.10004 20.2789 6.7798 21.8504 8.80668 21.8504H15.1934C17.2203 21.8504 18.9 20.2789 19.0348 18.2565L19.7952 6.85039H21C21.4695 6.85039 21.85 6.46983 21.85 6.00039C21.85 5.53095 21.4695 5.15039 21 5.15039H19H16.6127ZM18.0915 6.85039H16H8.00002H5.90858L6.66145 18.1434C6.73674 19.2728 7.67479 20.1504 8.80668 20.1504H15.1934C16.3253 20.1504 17.2633 19.2728 17.3386 18.1434L18.0915 6.85039Z" fill="white"/>
</g>
</svg>
