<svg width="15" height="19" viewBox="0 0 15 19" fill="none" xmlns="http://www.w3.org/2000/svg">
<path fill-rule="evenodd" clip-rule="evenodd" d="M8.69788 1.59401C8.62734 1.59384 8.55145 1.59378 8.46958 1.59378H5.39163C4.57469 1.59378 4.00522 1.59434 3.56186 1.63056C3.1269 1.6661 2.877 1.73235 2.68771 1.8288C2.28199 2.03552 1.95212 2.36539 1.74539 2.77111C1.64895 2.9604 1.5827 3.2103 1.54716 3.64527C1.51094 4.08862 1.51038 4.65809 1.51038 5.47503V13.525C1.51038 14.342 1.51094 14.9114 1.54716 15.3548C1.5827 15.7898 1.64895 16.0397 1.74539 16.2289C1.95212 16.6347 2.28199 16.9645 2.68771 17.1713C2.877 17.2677 3.1269 17.334 3.56186 17.3695C4.00522 17.4057 4.57469 17.4063 5.39163 17.4063H9.60829C10.4252 17.4063 10.9947 17.4057 11.4381 17.3695C11.873 17.334 12.1229 17.2677 12.3122 17.1713C12.7179 16.9645 13.0478 16.6347 13.2545 16.2289C13.351 16.0397 13.4172 15.7898 13.4528 15.3548C13.489 14.9114 13.4895 14.342 13.4895 13.525V6.61375C13.4895 6.5319 13.4895 6.45604 13.4893 6.38553H12.4833H12.4541C11.9422 6.38554 11.515 6.38555 11.1659 6.35703C10.8018 6.32728 10.46 6.26297 10.1368 6.09828C9.64095 5.84562 9.23778 5.44245 8.98512 4.94656C8.82043 4.62335 8.75612 4.28156 8.72638 3.9175C8.69786 3.56845 8.69786 3.14118 8.69788 2.62928V2.60011V1.59401ZM10.1354 1.81496V2.60011C10.1354 3.14869 10.1359 3.51689 10.1591 3.80044C10.1816 4.0756 10.2217 4.20717 10.2659 4.29395C10.3808 4.51936 10.564 4.70261 10.7894 4.81746C10.8762 4.86168 11.0078 4.90182 11.283 4.9243C11.5665 4.94747 11.9347 4.94803 12.4833 4.94803H13.2684C13.239 4.88816 13.2067 4.82962 13.1718 4.77259C13.0488 4.57186 12.8742 4.39072 12.3527 3.86929L11.214 2.73057C10.6926 2.20915 10.5115 2.03453 10.3107 1.91153C10.2537 1.8766 10.1952 1.84438 10.1354 1.81496ZM8.55148 0.156265C9.17589 0.156084 9.6081 0.155959 10.023 0.255576C10.3897 0.343612 10.7403 0.488815 11.0618 0.685855C11.4257 0.908818 11.7312 1.21453 12.1726 1.65618L12.1726 1.65618L12.2305 1.71411L13.3692 2.85282L13.4271 2.91073C13.8688 3.35213 14.1745 3.65766 14.3975 4.0215C14.5945 4.34304 14.7397 4.69359 14.8277 5.06028C14.9274 5.47522 14.9272 5.90743 14.9271 6.53184V6.53185L14.927 6.61375V13.525V13.5558C14.927 14.3348 14.9271 14.9631 14.8855 15.4719C14.8427 15.9957 14.7523 16.4558 14.5353 16.8816C14.1908 17.5578 13.641 18.1075 12.9648 18.4521C12.5391 18.669 12.079 18.7594 11.5551 18.8022C11.0463 18.8438 10.418 18.8438 9.63908 18.8438H9.60829H5.39163H5.36084C4.58188 18.8438 3.95359 18.8438 3.4448 18.8022C2.92094 18.7594 2.46081 18.669 2.0351 18.4521C1.35889 18.1075 0.809117 17.5578 0.464572 16.8816C0.247662 16.4558 0.157234 15.9957 0.114433 15.4719C0.0728637 14.9631 0.0728692 14.3348 0.0728762 13.5558V13.5558V13.525V5.47503V5.44426V5.44425C0.0728692 4.66529 0.0728637 4.03699 0.114433 3.52821C0.157234 3.00435 0.247662 2.54421 0.464572 2.1185C0.809117 1.44229 1.35889 0.892521 2.0351 0.547976C2.46081 0.331066 2.92094 0.240638 3.4448 0.197837C3.95359 0.156268 4.58189 0.156273 5.36086 0.156281L5.39163 0.156281H8.46958L8.55148 0.156265ZM7.49996 7.82303C7.89691 7.82303 8.21871 8.14483 8.21871 8.54178V12.5566L9.38756 11.3877C9.66825 11.107 10.1233 11.107 10.404 11.3877C10.6847 11.6684 10.6847 12.1235 10.404 12.4042L8.00819 14.8C7.7275 15.0807 7.27242 15.0807 6.99173 14.8L4.59589 12.4042C4.3152 12.1235 4.3152 11.6684 4.59589 11.3877C4.87658 11.107 5.33167 11.107 5.61236 11.3877L6.78121 12.5566V8.54178C6.78121 8.14483 7.103 7.82303 7.49996 7.82303Z" fill="white"/>
</svg>
