<?xml version="1.0" encoding="UTF-8"?>
<!DOCTYPE svg PUBLIC "-//W3C//DTD SVG 1.1//EN" "http://www.w3.org/Graphics/SVG/1.1/DTD/svg11.dtd">
<svg xmlns="http://www.w3.org/2000/svg" version="1.1" width="24px" height="24px" style="shape-rendering:geometricPrecision; text-rendering:geometricPrecision; image-rendering:optimizeQuality; fill-rule:evenodd; clip-rule:evenodd" xmlns:xlink="http://www.w3.org/1999/xlink">
<g><path style="opacity:0.882" fill="#6B7280" d="M 5.5,3.5 C 10.5111,3.33407 15.5111,3.50074 20.5,4C 25.2361,6.68178 26.5694,10.5151 24.5,15.5C 23.5713,14.3112 23.238,12.9778 23.5,11.5C 21.5,11.5 19.5,11.5 17.5,11.5C 17.5,9.5 17.5,7.5 17.5,5.5C 14.4816,5.33537 11.4816,5.50204 8.5,6C 7.87023,9.12919 7.20356,12.2959 6.5,15.5C 5.50909,11.5546 5.17575,7.55461 5.5,3.5 Z"/></g>
<g><path style="opacity:0.884" fill="#6B7280" d="M 5.5,17.5 C 7.5,17.5 9.5,17.5 11.5,17.5C 11.5,20.8333 11.5,24.1667 11.5,27.5C 9.5,27.5 7.5,27.5 5.5,27.5C 5.5,24.1667 5.5,20.8333 5.5,17.5 Z M 7.5,19.5 C 9.92377,21.2276 10.0904,23.2276 8,25.5C 7.50454,23.5273 7.33788,21.5273 7.5,19.5 Z"/></g>
<g><path style="opacity:0.777" fill="#6B7280" d="M 13.5,17.5 C 15.5,17.5 17.5,17.5 19.5,17.5C 19.5,20.8333 19.5,24.1667 19.5,27.5C 17.5,27.5 15.5,27.5 13.5,27.5C 13.5,24.1667 13.5,20.8333 13.5,17.5 Z M 15.5,20.5 C 16.5862,20.62 17.2528,21.2867 17.5,22.5C 17.1667,23.1667 16.8333,23.8333 16.5,24.5C 15.5713,23.3112 15.238,21.9778 15.5,20.5 Z"/></g>
<g><path style="opacity:0.737" fill="#6B7280" d="M 21.5,17.5 C 23.5,17.5 25.5,17.5 27.5,17.5C 27.5,18.5 27.5,19.5 27.5,20.5C 26.1667,20.5 24.8333,20.5 23.5,20.5C 23.5,21.8333 23.5,23.1667 23.5,24.5C 24.8333,24.5 26.1667,24.5 27.5,24.5C 27.5,25.5 27.5,26.5 27.5,27.5C 25.5,27.5 23.5,27.5 21.5,27.5C 21.5,24.1667 21.5,20.8333 21.5,17.5 Z"/></g>
</svg>
