<svg viewBox="0 0 96 96" xmlns="http://www.w3.org/2000/svg"><g id="Layer_1"/><g id="Layer_2"/><g id="Layer_3"/><g id="Layer_4"><g><path d="m81.824 34.589h-19.63c-4.111 0-7.455-3.343-7.455-7.453v-21.204c0-.793.483-1.505 1.22-1.796s1.577-.108 2.12.469l25.152 26.726c.528.566.673 1.386.367 2.092-.306.708-1.003 1.166-1.774 1.166zm-23.219-23.782v16.329c0 1.979 1.61 3.592 3.59 3.592h15.155z"/><path d="m73.54 92h-51.081c-5.633 0-10.216-4.578-10.216-10.214v-67.571c0-5.635 4.582-10.214 10.216-10.214h34.213c.533 0 1.042.216 1.408.604l25.152 26.726c.337.361.525.836.525 1.327v49.128c-.001 5.636-4.583 10.214-10.217 10.214zm-51.081-84.137c-3.502 0-6.351 2.853-6.351 6.353v67.571c0 3.5 2.849 6.353 6.351 6.353h51.081c3.502 0 6.351-2.853 6.351-6.353v-48.363l-24.054-25.561z"/><g><path d="m36.932 62.966 1.887-10.338h3.942l-3.5 16.491h-4.12l-2.211-9.405-2.162 9.405h-4.109l-3.511-16.491h3.953l1.893 10.338 2.265-10.338h3.376z"/><path d="m53.196 66.034h-5.446l-.955 3.085h-4.244l6.045-16.491h3.737l6.094 16.491h-4.271zm-4.497-3.068h3.543l-1.774-5.722z"/><path d="m65.147 64.632 3.284-12.004h4.444l-5.549 16.491h-4.352l-5.501-16.491h4.406z"/></g></g></g></svg>