<svg viewBox="0 0 96 96" xmlns="http://www.w3.org/2000/svg"><g id="Layer_1"/><g id="Layer_2"/><g id="Layer_3"/><g id="Layer_4"><g><path d="m81.824 34.589h-19.629c-4.111 0-7.455-3.343-7.455-7.453v-21.204c0-.793.483-1.505 1.22-1.796s1.577-.108 2.12.469l25.151 26.726c.528.566.673 1.386.367 2.092-.306.708-1.003 1.166-1.774 1.166zm-23.219-23.782v16.329c0 1.979 1.61 3.592 3.59 3.592h15.156z"/><path d="m73.54 92h-51.081c-5.633 0-10.216-4.578-10.216-10.214v-67.571c0-5.635 4.582-10.214 10.216-10.214h34.213c.533 0 1.042.216 1.407.604l25.151 26.726c.337.361.525.836.525 1.327v49.128c.001 5.636-4.581 10.214-10.215 10.214zm-51.081-84.137c-3.502 0-6.351 2.853-6.351 6.353v67.571c0 3.5 2.849 6.353 6.351 6.353h51.081c3.502 0 6.351-2.853 6.351-6.353v-48.363l-24.053-25.561z"/><g><path d="m29.847 63.521v5.592h-3.974v-16.485h6.579c1.262 0 2.378.226 3.349.69s1.72 1.127 2.254 1.985c.528.857.798 1.828.798 2.917 0 1.607-.577 2.896-1.731 3.856-1.149.96-2.729 1.445-4.74 1.445zm0-3.074h2.605c.771 0 1.359-.189 1.763-.572.404-.388.604-.933.604-1.634 0-.771-.21-1.386-.626-1.85-.415-.453-.981-.69-1.699-.701h-2.648v4.757z"/><path d="m54.75 69.113h-3.953v-6.886h-5.856v6.886h-3.974v-16.485h3.974v6.541h5.856v-6.541h3.953z"/><path d="m61.238 63.521v5.592h-3.974v-16.485h6.579c1.262 0 2.378.226 3.349.69s1.72 1.127 2.254 1.985c.528.857.798 1.828.798 2.917 0 1.607-.577 2.896-1.731 3.856-1.149.96-2.729 1.445-4.74 1.445zm0-3.074h2.605c.771 0 1.359-.189 1.763-.572.404-.388.604-.933.604-1.634 0-.771-.21-1.386-.626-1.85-.415-.453-.981-.69-1.699-.701h-2.648v4.757z"/></g></g></g></svg>