<svg viewBox="0 0 96 96" xmlns="http://www.w3.org/2000/svg"><g id="Layer_1"/><g id="Layer_2"/><g id="Layer_3"/><g id="Layer_4"><g><path d="m81.823 34.59h-19.629c-4.111 0-7.455-3.343-7.455-7.453v-21.204c0-.793.483-1.505 1.22-1.796.737-.297 1.577-.102 2.12.469l25.151 26.726c.528.566.673 1.386.367 2.092-.306.708-1.003 1.166-1.774 1.166zm-23.219-23.782v16.329c0 1.979 1.61 3.591 3.589 3.591h15.157z"/><path d="m73.54 92h-51.08c-5.633 0-10.216-4.578-10.216-10.214v-67.57c0-5.635 4.582-10.214 10.216-10.214h34.212c.533 0 1.042.216 1.407.604l25.151 26.726c.337.361.525.836.525 1.327v49.127c.001 5.636-4.582 10.214-10.215 10.214zm-51.08-84.136c-3.502 0-6.351 2.853-6.351 6.353v67.57c0 3.5 2.849 6.353 6.351 6.353h51.08c3.502 0 6.351-2.853 6.351-6.353v-48.362l-24.054-25.561z"/><g><path d="m39.008 56.333h-4.713v12.781h-3.786v-12.781h-4.627v-2.923h13.126z"/><path d="m44.638 69.114h-3.775v-15.704h3.775z"/><path d="m57.159 62.858h-6.104v6.255h-3.786v-15.703h10.505v2.923h-6.719v3.613h6.104z"/><path d="m69.239 62.858h-6.104v6.255h-3.786v-15.703h10.505v2.923h-6.719v3.613h6.104z"/></g></g></g></svg>