<svg viewBox="0 0 96 96" xmlns="http://www.w3.org/2000/svg"><g id="Layer_1"/><g id="Layer_2"/><g id="Layer_3"/><g id="Layer_4"><g><path d="m81.824 34.583h-19.63c-4.111 0-7.455-3.344-7.455-7.453v-21.199c0-.793.483-1.505 1.22-1.796s1.577-.102 2.12.469l25.152 26.721c.528.561.673 1.386.367 2.092-.306.708-1.003 1.166-1.774 1.166zm-23.219-23.777v16.324c0 1.979 1.61 3.592 3.59 3.592h15.156z"/><path d="m73.541 92h-51.082c-5.633 0-10.216-4.578-10.216-10.214v-67.572c0-5.635 4.583-10.214 10.216-10.214h34.213c.533 0 1.042.216 1.408.604l25.152 26.721c.337.361.525.836.525 1.327v49.134c0 5.636-4.583 10.214-10.216 10.214zm-51.082-84.138c-3.502 0-6.351 2.853-6.351 6.353v67.572c0 3.5 2.849 6.353 6.351 6.353h51.082c3.502 0 6.351-2.853 6.351-6.353v-48.369l-24.055-25.556z"/><g><path d="m33.157 63.278h-2.152v5.835h-3.974v-16.491h6.488c1.958 0 3.484.437 4.589 1.305 1.1.863 1.65 2.092 1.65 3.678 0 1.143-.232 2.092-.696 2.847s-1.192 1.364-2.179 1.834l3.441 6.655v.173h-4.255zm-2.152-3.052h2.513c.755 0 1.327-.205 1.704-.599.383-.394.572-.955.572-1.666 0-.712-.189-1.267-.577-1.672-.383-.404-.949-.604-1.699-.604h-2.513z"/><path d="m50.667 64.734c0-.582-.205-1.035-.615-1.359-.415-.329-1.138-.663-2.168-1.014-1.035-.345-1.882-.679-2.54-1.003-2.136-1.052-3.203-2.491-3.203-4.325 0-.917.264-1.726.798-2.421.534-.696 1.283-1.246 2.26-1.634.971-.388 2.065-.582 3.284-.582 1.186 0 2.249.216 3.187.636.938.421 1.672 1.025 2.189 1.807.523.782.782 1.677.782 2.68h-3.964c0-.674-.205-1.197-.615-1.564-.415-.372-.971-.555-1.672-.555-.712 0-1.273.156-1.683.469s-.615.712-.615 1.197c0 .421.226.804.679 1.149.453.34 1.246.696 2.389 1.062 1.138.367 2.076.76 2.81 1.186 1.78 1.025 2.669 2.438 2.669 4.244 0 1.44-.545 2.572-1.629 3.397-1.089.825-2.578 1.235-4.476 1.235-1.332 0-2.545-.237-3.629-.723-1.084-.475-1.898-1.132-2.443-1.963-.55-.841-.825-1.801-.825-2.885h3.991c0 .879.226 1.537.685 1.952.453.421 1.197.631 2.222.631.658 0 1.176-.14 1.559-.426.385-.285.573-.684.573-1.191z"/><path d="m65.185 64.734c0-.582-.205-1.035-.615-1.359-.415-.329-1.138-.663-2.168-1.014-1.035-.345-1.882-.679-2.54-1.003-2.136-1.052-3.203-2.491-3.203-4.325 0-.917.264-1.726.798-2.421.534-.696 1.283-1.246 2.26-1.634.971-.388 2.065-.582 3.284-.582 1.186 0 2.249.216 3.187.636.938.421 1.672 1.025 2.189 1.807.523.782.782 1.677.782 2.68h-3.964c0-.674-.205-1.197-.615-1.564-.415-.372-.971-.555-1.672-.555-.712 0-1.273.156-1.683.469s-.615.712-.615 1.197c0 .421.226.804.679 1.149.453.34 1.246.696 2.389 1.062 1.138.367 2.076.76 2.81 1.186 1.78 1.025 2.669 2.438 2.669 4.244 0 1.44-.545 2.572-1.629 3.397-1.089.825-2.578 1.235-4.476 1.235-1.332 0-2.545-.237-3.629-.723-1.084-.475-1.898-1.132-2.443-1.963-.55-.841-.825-1.801-.825-2.885h3.991c0 .879.226 1.537.685 1.952.453.421 1.197.631 2.222.631.658 0 1.176-.14 1.559-.426.384-.285.573-.684.573-1.191z"/></g></g></g></svg>