<svg viewBox="0 0 96 96" xmlns="http://www.w3.org/2000/svg"><g id="Layer_1"/><g id="Layer_2"/><g id="Layer_3"/><g id="Layer_4"><g><path d="m81.824 34.589h-19.63c-4.111 0-7.455-3.343-7.455-7.453v-21.204c0-.793.483-1.505 1.22-1.796s1.577-.108 2.12.469l25.152 26.726c.528.566.673 1.386.367 2.092-.306.708-1.003 1.166-1.774 1.166zm-23.219-23.782v16.329c0 1.979 1.61 3.592 3.59 3.592h15.155z"/><path d="m73.54 92h-51.081c-5.633 0-10.216-4.578-10.216-10.214v-67.571c0-5.635 4.582-10.214 10.216-10.214h34.213c.533 0 1.042.216 1.408.604l25.152 26.726c.337.361.525.836.525 1.327v49.128c-.001 5.636-4.583 10.214-10.217 10.214zm-51.081-84.137c-3.502 0-6.351 2.853-6.351 6.353v67.571c0 3.5 2.849 6.353 6.351 6.353h51.081c3.502 0 6.351-2.853 6.351-6.353v-48.363l-24.054-25.561z"/><g><path d="m40.858 55.696h-4.945v13.422h-3.98v-13.422h-4.853v-3.068h13.778z"/><path d="m52.76 62.119h-6.25v3.937h7.383v3.063h-11.358v-16.491h11.384v3.068h-7.41v3.478h6.25v2.945z"/><path d="m61.663 58.107 2.696-5.479h4.541l-4.611 8.175 4.735 8.316h-4.584l-2.777-5.587-2.772 5.587h-4.578l4.724-8.316-4.6-8.175h4.53z"/></g></g></g></svg>