<svg viewBox="0 0 96 96" xmlns="http://www.w3.org/2000/svg"><g id="Layer_1"/><g id="Layer_2"/><g id="Layer_3"/><g id="Layer_4"><g><path d="m81.824 34.589h-19.629c-4.111 0-7.455-3.343-7.455-7.453v-21.204c0-.793.483-1.505 1.22-1.796s1.577-.108 2.12.469l25.151 26.726c.528.566.673 1.386.367 2.092-.306.708-1.003 1.166-1.774 1.166zm-23.219-23.782v16.329c0 1.979 1.61 3.592 3.59 3.592h15.156z"/><path d="m73.54 92h-51.081c-5.633 0-10.216-4.578-10.216-10.214v-67.571c0-5.635 4.582-10.214 10.216-10.214h34.213c.533 0 1.042.216 1.407.604l25.151 26.726c.337.361.525.836.525 1.327v49.128c.001 5.636-4.581 10.214-10.215 10.214zm-51.081-84.137c-3.502 0-6.351 2.853-6.351 6.353v67.571c0 3.5 2.849 6.353 6.351 6.353h51.081c3.502 0 6.351-2.853 6.351-6.353v-48.363l-24.053-25.561z"/><g><path d="m41.57 69.119h-4.53v-18.848h4.53z"/><path d="m44.725 69.119v-18.848h6.072c1.661 0 3.16.377 4.487 1.132 1.332.755 2.367 1.817 3.117 3.198.744 1.375 1.122 2.917 1.132 4.627v.863c0 1.726-.367 3.279-1.095 4.643s-1.758 2.438-3.079 3.209c-1.327.777-2.804 1.165-4.433 1.176zm4.541-15.337v11.842h1.58c1.305 0 2.303-.464 3.004-1.391.701-.928 1.046-2.308 1.046-4.142v-.809c0-1.823-.345-3.192-1.046-4.12-.701-.922-1.715-1.381-3.052-1.381h-1.532z"/></g></g></g></svg>