<svg viewBox="0 0 96 96" xmlns="http://www.w3.org/2000/svg"><g id="Layer_1"/><g id="Layer_2"/><g id="Layer_3"/><g id="Layer_4"><g><path d="m81.826 34.585h-19.631c-4.111 0-7.455-3.344-7.455-7.453v-21.2c0-.793.483-1.505 1.22-1.796s1.577-.102 2.12.469l25.153 26.723c.529.561.673 1.386.367 2.093s-1.003 1.164-1.774 1.164zm-23.221-23.778v16.325c0 1.979 1.611 3.592 3.59 3.592h15.157z"/><path d="m73.542 92h-51.085c-5.634 0-10.217-4.579-10.217-10.215v-67.57c0-5.636 4.583-10.215 10.217-10.215h34.215c.533 0 1.042.216 1.408.604l25.153 26.723c.337.361.525.836.525 1.327v49.131c.001 5.636-4.582 10.215-10.216 10.215zm-51.085-84.138c-3.502 0-6.351 2.853-6.351 6.353v67.57c0 3.5 2.849 6.353 6.351 6.353h51.085c3.502 0 6.351-2.853 6.351-6.353v-48.365l-24.056-25.558z"/><g><path d="m41.073 61.211c0 1.607-.297 3.031-.895 4.271-.593 1.24-1.44 2.19-2.54 2.858-1.1.669-2.351 1.003-3.754 1.003-1.408 0-2.653-.324-3.737-.971-1.089-.642-1.936-1.564-2.546-2.767-.604-1.203-.928-2.578-.955-4.137v-.928c0-1.618.297-3.042.89-4.271.593-1.24 1.44-2.19 2.546-2.858 1.106-.68 2.368-1.014 3.781-1.014 1.397 0 2.643.334 3.737.998 1.095.663 1.942 1.613 2.551 2.837.609 1.23.917 2.637.922 4.223zm-4.039-.691c0-1.64-.275-2.88-.825-3.732-.545-.852-1.327-1.273-2.346-1.273-1.995 0-3.047 1.494-3.16 4.487l-.011 1.208c0 1.618.264 2.858.804 3.727.534.868 1.332 1.3 2.389 1.3 1.003 0 1.774-.421 2.319-1.273.545-.858.82-2.082.831-3.684v-.76z"/><path d="m43.122 69.117v-16.492h5.922c2.125 0 3.737.388 4.843 1.165 1.106.782 1.661 1.909 1.661 3.387 0 .858-.2 1.586-.588 2.19-.394.604-.971 1.046-1.737 1.337.863.227 1.521.647 1.985 1.267.458.62.69 1.375.69 2.265 0 1.613-.512 2.831-1.537 3.64-1.019.809-2.54 1.224-4.546 1.24h-6.693zm3.975-9.616h2.071c.868-.005 1.488-.167 1.861-.48.367-.307.555-.766.555-1.37 0-.701-.2-1.197-.604-1.51-.399-.302-1.046-.453-1.936-.453h-1.947zm0 2.605v3.953h2.605c.717 0 1.267-.167 1.656-.491.383-.329.577-.793.577-1.391 0-1.37-.685-2.06-2.049-2.071z"/><path d="m64.652 52.625h3.964v11.315c0 1.052-.243 1.985-.728 2.81-.491.825-1.17 1.462-2.039 1.915-.874.453-1.844.68-2.918.68-1.796 0-3.193-.453-4.19-1.359s-1.494-2.19-1.494-3.851h3.986c0 .755.129 1.305.388 1.64.264.345.696.512 1.311.512.55 0 .976-.205 1.273-.62.297-.41.448-.982.448-1.726v-11.316z"/></g></g></g></svg>