<svg viewBox="0 0 96 96" xmlns="http://www.w3.org/2000/svg"><g id="Layer_1"/><g id="Layer_2"/><g id="Layer_3"/><g id="Layer_4"><g><path d="m81.823 34.591h-19.629c-4.11 0-7.455-3.343-7.455-7.453v-21.203c0-.793.483-1.505 1.22-1.796.736-.297 1.577-.108 2.12.469l25.151 26.726c.528.566.673 1.386.367 2.092s-1.003 1.165-1.774 1.165zm-23.219-23.782v16.329c0 1.979 1.61 3.591 3.589 3.591h15.157z"/><path d="m73.54 92h-51.08c-5.633 0-10.216-4.578-10.216-10.214v-67.568c0-5.635 4.582-10.214 10.216-10.214h34.212c.533 0 1.042.216 1.407.604l25.151 26.726c.337.361.525.836.525 1.327v49.126c0 5.635-4.582 10.213-10.215 10.213zm-51.08-84.135c-3.502 0-6.35 2.853-6.35 6.352v67.569c0 3.5 2.849 6.352 6.35 6.352h51.08c3.502 0 6.35-2.853 6.35-6.352v-48.36l-24.053-25.561z"/><g><path d="m23.926 69.114v-16.485h5.921c2.125 0 3.737.388 4.843 1.165 1.105.782 1.661 1.904 1.661 3.387 0 .857-.2 1.58-.588 2.184-.394.604-.971 1.052-1.736 1.337.863.226 1.521.647 1.984 1.273.458.615.69 1.37.69 2.265 0 1.612-.512 2.826-1.537 3.635-1.019.814-2.54 1.23-4.546 1.24h-6.692zm3.974-9.61h2.071c.868-.011 1.488-.173 1.86-.48.367-.307.555-.771.555-1.375 0-.696-.2-1.197-.604-1.505-.399-.307-1.046-.458-1.936-.458h-1.946zm0 2.6v3.958h2.605c.717 0 1.267-.167 1.656-.496.383-.324.577-.787.577-1.386 0-1.375-.685-2.065-2.049-2.076z"/><path d="m44.105 52.629 3.683 11.47 3.667-11.47h5.231v16.485h-3.985v-3.85l.383-7.879-3.985 11.729h-2.626l-3.996-11.74.383 7.889v3.85h-3.974v-16.484z"/><path d="m63.189 63.522v5.592h-3.974v-16.485h6.579c1.262 0 2.378.232 3.349.696s1.72 1.122 2.254 1.984c.528.852.798 1.823.798 2.912 0 1.607-.577 2.896-1.731 3.861-1.149.96-2.729 1.44-4.74 1.44zm0-3.069h2.605c.771 0 1.359-.194 1.763-.577s.604-.933.604-1.634c0-.766-.21-1.381-.626-1.844-.415-.458-.981-.69-1.699-.701h-2.648v4.756z"/></g></g></g></svg>