<svg viewBox="0 0 96 96" xmlns="http://www.w3.org/2000/svg"><g id="Layer_1"/><g id="Layer_2"/><g id="Layer_3"/><g id="Layer_4"><g><path d="m81.824 34.588h-19.63c-4.111 0-7.455-3.344-7.455-7.453v-21.204c0-.793.483-1.505 1.22-1.796.736-.291 1.577-.102 2.12.469l25.152 26.727c.528.566.673 1.386.367 2.092s-1.003 1.165-1.774 1.165zm-23.219-23.782v16.329c0 1.979 1.61 3.592 3.59 3.592h15.156z"/><path d="m73.541 92h-51.082c-5.633 0-10.216-4.578-10.216-10.214v-67.572c0-5.635 4.583-10.214 10.216-10.214h34.213c.533 0 1.042.216 1.408.604l25.152 26.727c.337.361.525.836.525 1.327v49.128c0 5.636-4.583 10.214-10.216 10.214zm-51.082-84.138c-3.502 0-6.351 2.853-6.351 6.353v67.572c0 3.5 2.849 6.353 6.351 6.353h51.082c3.502 0 6.351-2.853 6.351-6.353v-48.363l-24.055-25.562z"/><g><path d="m39.754 63.531c-.054 1.149-.361 2.163-.928 3.042-.566.879-1.364 1.559-2.384 2.044-1.025.485-2.195.723-3.505.723-2.168 0-3.877-.701-5.123-2.114s-1.866-3.408-1.866-5.981v-.814c0-1.618.28-3.031.841-4.239.566-1.219 1.375-2.152 2.432-2.815 1.057-.658 2.281-.987 3.667-.987 2.001 0 3.608.523 4.827 1.58 1.213 1.052 1.904 2.502 2.071 4.352h-3.964c-.032-1.003-.28-1.72-.76-2.163-.475-.437-1.197-.658-2.173-.658-.987 0-1.715.372-2.173 1.111-.458.744-.701 1.92-.723 3.548v1.165c0 1.758.221 3.015.658 3.77.442.755 1.203 1.132 2.287 1.132.911 0 1.607-.216 2.092-.642.485-.431.739-1.116.771-2.055h3.953z"/><path d="m45.605 63.521v5.592h-3.975v-16.486h6.579c1.262 0 2.378.232 3.349.696s1.72 1.122 2.254 1.985c.528.852.798 1.823.798 2.912 0 1.607-.577 2.896-1.731 3.861-1.149.96-2.729 1.44-4.74 1.44zm0-3.069h2.605c.771 0 1.359-.194 1.763-.577s.604-.933.604-1.634c0-.766-.21-1.381-.626-1.844-.415-.458-.981-.69-1.699-.701h-2.648v4.756z"/><path d="m60.705 63.521v5.592h-3.975v-16.486h6.579c1.262 0 2.378.232 3.349.696s1.72 1.122 2.254 1.985c.528.852.798 1.823.798 2.912 0 1.607-.577 2.896-1.731 3.861-1.149.96-2.729 1.44-4.74 1.44zm0-3.069h2.605c.771 0 1.359-.194 1.763-.577s.604-.933.604-1.634c0-.766-.21-1.381-.626-1.844-.415-.458-.981-.69-1.699-.701h-2.648v4.756z"/></g></g></g></svg>