<svg viewBox="0 0 96 96" xmlns="http://www.w3.org/2000/svg"><g id="Layer_1"/><g id="Layer_2"/><g id="Layer_3"/><g id="Layer_4"><g><path d="m81.823 34.59h-19.628c-4.111 0-7.455-3.343-7.455-7.453v-21.204c0-.793.483-1.505 1.22-1.796.736-.297 1.577-.102 2.12.469l25.151 26.726c.528.566.673 1.386.367 2.092-.307.708-1.004 1.166-1.775 1.166zm-23.218-23.782v16.329c0 1.979 1.61 3.591 3.589 3.591h15.156z"/><path d="m73.54 92h-51.08c-5.633 0-10.216-4.578-10.216-10.214v-67.57c0-5.635 4.582-10.214 10.216-10.214h34.213c.533 0 1.042.216 1.407.604l25.151 26.726c.337.361.525.836.525 1.327v49.127c0 5.636-4.583 10.214-10.216 10.214zm-51.08-84.136c-3.502 0-6.351 2.853-6.351 6.353v67.57c0 3.5 2.849 6.353 6.351 6.353h51.08c3.502 0 6.351-2.853 6.351-6.353v-48.362l-24.054-25.561z"/><g><path d="m38.044 62.114h-6.25v3.942h7.383v3.058h-11.357v-16.486h11.384v3.063h-7.409v3.478h6.25v2.945z"/><path d="m44.774 63.521v5.592h-3.974v-16.485h6.579c1.262 0 2.378.226 3.349.69s1.72 1.127 2.254 1.984c.528.857.798 1.828.798 2.917 0 1.607-.577 2.896-1.731 3.856-1.149.96-2.729 1.445-4.74 1.445h-2.535zm0-3.073h2.605c.771 0 1.359-.189 1.763-.572.404-.388.604-.933.604-1.634 0-.771-.21-1.386-.626-1.85-.415-.453-.981-.69-1.699-.701h-2.648v4.757z"/><path d="m64.398 64.729c0-.582-.205-1.035-.615-1.359-.415-.324-1.138-.658-2.168-1.003-1.035-.351-1.882-.69-2.54-1.014-2.135-1.046-3.203-2.491-3.203-4.325 0-.911.264-1.715.798-2.416s1.283-1.24 2.26-1.629c.971-.388 2.065-.582 3.284-.582 1.186 0 2.249.205 3.187.631s1.672 1.025 2.189 1.807c.523.782.782 1.672.782 2.675h-3.964c0-.669-.205-1.186-.615-1.558-.415-.372-.971-.555-1.672-.555-.712 0-1.273.156-1.683.469s-.615.712-.615 1.192c0 .426.226.809.679 1.154s1.246.701 2.389 1.062c1.138.367 2.076.76 2.81 1.181 1.78 1.03 2.669 2.448 2.669 4.249 0 1.445-.545 2.578-1.629 3.397-1.089.82-2.578 1.235-4.476 1.235-1.332 0-2.545-.243-3.629-.717-1.084-.48-1.898-1.138-2.443-1.974-.55-.83-.825-1.79-.825-2.88h3.991c0 .884.226 1.532.685 1.952.453.421 1.197.626 2.222.626.658 0 1.176-.14 1.558-.421.385-.28.574-.679.574-1.197z"/></g></g></g></svg>