<svg viewBox="0 0 96 96" xmlns="http://www.w3.org/2000/svg"><g id="Layer_1"/><g id="Layer_2"/><g id="Layer_3"/><g id="Layer_4"><g><path d="m81.826 34.585h-19.631c-4.111 0-7.455-3.344-7.455-7.453v-21.2c0-.793.483-1.505 1.22-1.796.736-.291 1.577-.102 2.12.469l25.153 26.723c.529.561.673 1.386.367 2.093s-1.003 1.164-1.774 1.164zm-23.221-23.778v16.325c0 1.979 1.611 3.592 3.59 3.592h15.157z"/><path d="m73.542 92h-51.085c-5.634 0-10.217-4.579-10.217-10.215v-67.57c0-5.636 4.583-10.215 10.217-10.215h34.215c.533 0 1.042.216 1.408.604l25.153 26.723c.337.361.525.836.525 1.327v49.131c.001 5.636-4.582 10.215-10.216 10.215zm-51.085-84.138c-3.502 0-6.351 2.853-6.351 6.353v67.57c0 3.5 2.849 6.353 6.351 6.353h51.085c3.502 0 6.351-2.853 6.351-6.353v-48.365l-24.056-25.558z"/><g><path d="m37.164 69.117h-3.964v-16.492h3.964z"/><path d="m50.318 62.548h-6.412v6.569h-3.976v-16.492h11.029v3.069h-7.054v3.791h6.412v3.063z"/><path d="m63.002 62.548h-6.412v6.569h-3.975v-16.492h11.029v3.069h-7.054v3.791h6.412z"/></g></g></g></svg>