<svg viewBox="0 0 96 96" xmlns="http://www.w3.org/2000/svg"><g id="Layer_1"/><g id="Layer_2"/><g id="Layer_3"/><g id="Layer_4"><g><path d="m81.825 34.586h-19.63c-4.111 0-7.455-3.344-7.455-7.453v-21.2c0-.793.483-1.505 1.22-1.796.735-.297 1.577-.102 2.12.469l25.152 26.722c.529.561.673 1.386.367 2.092-.306.708-1.003 1.166-1.774 1.166zm-23.219-23.777v16.325c0 1.979 1.61 3.592 3.59 3.592h15.156z"/><path d="m73.542 92h-51.084c-5.634 0-10.216-4.579-10.216-10.214v-67.569c0-5.636 4.583-10.214 10.216-10.214h34.215c.533 0 1.042.216 1.408.604l25.152 26.722c.337.361.525.836.525 1.327v49.13c0 5.635-4.583 10.214-10.216 10.214zm-51.084-84.136c-3.502 0-6.351 2.853-6.351 6.353v67.569c0 3.5 2.849 6.353 6.351 6.353h51.084c3.502 0 6.351-2.853 6.351-6.353v-48.364l-24.055-25.558z"/><g><path d="m41.899 61.206c0 1.612-.297 3.036-.895 4.271-.593 1.24-1.44 2.19-2.54 2.858-1.1.669-2.351 1.003-3.754 1.003-1.408 0-2.653-.324-3.737-.965-1.089-.642-1.936-1.569-2.545-2.767-.604-1.203-.928-2.578-.955-4.136v-.928c0-1.618.297-3.042.89-4.277s1.44-2.19 2.545-2.858c1.106-.674 2.368-1.008 3.78-1.008 1.397 0 2.643.329 3.737.998 1.095.663 1.941 1.607 2.551 2.837.609 1.23.917 2.632.922 4.217v.755zm-4.039-.69c0-1.634-.275-2.88-.825-3.732-.545-.847-1.327-1.273-2.346-1.273-1.995 0-3.047 1.499-3.16 4.487l-.011 1.208c0 1.618.264 2.858.804 3.732.534.863 1.332 1.3 2.389 1.3 1.003 0 1.774-.426 2.319-1.278s.82-2.082.831-3.678v-.766z"/><path d="m55.932 55.695h-4.945v13.418h-3.98v-13.418h-4.854v-3.069h13.779z"/><path d="m67.996 62.544h-6.412v6.569h-3.975v-16.487h11.029v3.069h-7.054v3.797h6.412z"/></g></g></g></svg>