<svg viewBox="0 0 96 96" xmlns="http://www.w3.org/2000/svg"><g id="Layer_1"/><g id="Layer_2"/><g id="Layer_3"/><g id="Layer_4"><g><path d="m81.824 34.588h-19.63c-4.111 0-7.455-3.344-7.455-7.453v-21.204c0-.793.483-1.505 1.22-1.796.735-.291 1.577-.102 2.12.469l25.152 26.727c.528.566.673 1.386.367 2.092s-1.003 1.165-1.774 1.165zm-23.219-23.782v16.329c0 1.979 1.61 3.592 3.59 3.592h15.156z"/><path d="m73.541 92h-51.082c-5.633 0-10.216-4.578-10.216-10.214v-67.572c0-5.635 4.583-10.214 10.216-10.214h34.213c.533 0 1.042.216 1.408.604l25.152 26.727c.337.361.525.836.525 1.327v49.128c0 5.636-4.583 10.214-10.216 10.214zm-51.082-84.138c-3.502 0-6.351 2.853-6.351 6.353v67.572c0 3.5 2.849 6.353 6.351 6.353h51.082c3.502 0 6.351-2.853 6.351-6.353v-48.363l-24.055-25.562z"/><g><path d="m41.003 55.696h-4.945v13.423h-3.98v-13.423h-4.854v-3.068h13.779z"/><path d="m55.807 55.696h-4.945v13.423h-3.98v-13.423h-4.854v-3.068h13.779z"/><path d="m67.87 62.55h-6.412v6.568h-3.974v-16.491h11.028v3.068h-7.054v3.791h6.412z"/></g></g></g></svg>