<svg viewBox="0 0 96 96" xmlns="http://www.w3.org/2000/svg"><g id="Layer_1"/><g id="Layer_2"/><g id="Layer_3"/><g id="Layer_4"><g><path d="m81.823 34.591h-19.629c-4.11 0-7.455-3.343-7.455-7.453v-21.203c0-.793.483-1.505 1.22-1.796.737-.297 1.577-.108 2.12.469l25.151 26.726c.528.566.673 1.386.367 2.092s-1.003 1.165-1.774 1.165zm-23.219-23.782v16.329c0 1.979 1.61 3.591 3.589 3.591h15.157z"/><path d="m73.54 92h-51.08c-5.633 0-10.216-4.578-10.216-10.214v-67.568c0-5.635 4.582-10.214 10.216-10.214h34.212c.533 0 1.042.216 1.407.604l25.151 26.726c.337.361.525.836.525 1.327v49.126c0 5.635-4.582 10.213-10.215 10.213zm-51.08-84.135c-3.502 0-6.35 2.853-6.35 6.352v67.569c0 3.5 2.849 6.352 6.35 6.352h51.08c3.502 0 6.35-2.853 6.35-6.352v-48.36l-24.053-25.561z"/><g><path d="m40.331 63.533c-.054 1.149-.361 2.162-.928 3.041s-1.364 1.558-2.384 2.044c-1.025.485-2.195.723-3.505.723-2.168 0-3.877-.701-5.123-2.114s-1.866-3.408-1.866-5.98v-.814c0-1.618.28-3.031.841-4.239.566-1.219 1.375-2.152 2.432-2.815 1.057-.658 2.281-.987 3.667-.987 2.001 0 3.608.523 4.826 1.58 1.213 1.052 1.904 2.502 2.071 4.352h-3.962c-.032-1.003-.28-1.72-.76-2.162-.475-.437-1.197-.658-2.173-.658-.987 0-1.715.372-2.173 1.111-.458.744-.701 1.92-.723 3.548v1.165c0 1.758.221 3.014.658 3.769.442.755 1.203 1.132 2.286 1.132.911 0 1.607-.216 2.092-.642.485-.431.739-1.116.771-2.055h3.953z"/><path d="m50.712 64.735c0-.582-.205-1.035-.615-1.359-.415-.324-1.138-.658-2.168-1.008-1.035-.351-1.882-.685-2.54-1.008-2.135-1.046-3.203-2.491-3.203-4.325 0-.917.264-1.72.798-2.416.534-.701 1.283-1.246 2.259-1.634.971-.388 2.065-.582 3.284-.582 1.186 0 2.249.21 3.187.631.938.426 1.672 1.025 2.189 1.812.523.777.782 1.672.782 2.675h-3.964c0-.669-.205-1.192-.615-1.564-.415-.367-.971-.55-1.672-.55-.712 0-1.273.151-1.682.464-.41.313-.615.712-.615 1.197 0 .421.226.809.679 1.154.453.34 1.246.696 2.389 1.057 1.138.367 2.076.766 2.81 1.186 1.78 1.025 2.669 2.443 2.669 4.249 0 1.44-.545 2.572-1.629 3.397-1.089.82-2.578 1.23-4.476 1.23-1.332 0-2.545-.237-3.629-.717s-1.898-1.138-2.443-1.968c-.55-.836-.825-1.796-.825-2.88h3.991c0 .879.226 1.531.685 1.952.453.421 1.197.626 2.222.626.658 0 1.176-.14 1.558-.421.385-.286.574-.686.574-1.198z"/><path d="m65.234 64.735c0-.582-.205-1.035-.615-1.359-.415-.324-1.138-.658-2.168-1.008-1.035-.351-1.882-.685-2.54-1.008-2.135-1.046-3.203-2.491-3.203-4.325 0-.917.264-1.72.798-2.416.534-.701 1.283-1.246 2.259-1.634.971-.388 2.065-.582 3.284-.582 1.186 0 2.249.21 3.187.631.938.426 1.672 1.025 2.189 1.812.523.777.782 1.672.782 2.675h-3.964c0-.669-.205-1.192-.615-1.564-.415-.367-.971-.55-1.672-.55-.712 0-1.273.151-1.682.464-.41.313-.615.712-.615 1.197 0 .421.226.809.679 1.154.453.34 1.246.696 2.389 1.057 1.138.367 2.076.766 2.81 1.186 1.78 1.025 2.669 2.443 2.669 4.249 0 1.44-.545 2.572-1.629 3.397-1.089.82-2.578 1.23-4.476 1.23-1.332 0-2.545-.237-3.629-.717s-1.898-1.138-2.443-1.968c-.55-.836-.825-1.796-.825-2.88h3.991c0 .879.226 1.531.685 1.952.453.421 1.197.626 2.222.626.658 0 1.176-.14 1.558-.421.385-.286.574-.686.574-1.198z"/></g></g></g></svg>