<svg viewBox="0 0 96 96" xmlns="http://www.w3.org/2000/svg"><g id="Layer_1"/><g id="Layer_2"/><g id="Layer_3"/><g id="Layer_4"><g><path d="m81.826 34.586h-19.631c-4.111 0-7.455-3.344-7.455-7.453v-21.2c0-.793.483-1.505 1.22-1.796s1.577-.108 2.12.469l25.153 26.723c.529.561.673 1.386.367 2.093-.306.705-1.003 1.164-1.774 1.164zm-23.221-23.778v16.325c0 1.979 1.611 3.592 3.59 3.592h15.157z"/><path d="m73.542 92h-51.084c-5.634 0-10.216-4.579-10.216-10.214v-67.57c0-5.636 4.583-10.214 10.216-10.214h34.215c.533 0 1.042.216 1.408.604l25.153 26.723c.337.361.525.836.525 1.327v49.131c-.001 5.634-4.583 10.213-10.217 10.213zm-51.084-84.137c-3.502 0-6.351 2.853-6.351 6.353v67.569c0 3.5 2.849 6.353 6.351 6.353h51.084c3.502 0 6.351-2.853 6.351-6.353v-48.364l-24.056-25.558z"/><g><path d="m28.728 69.112h-3.586v-14.917h3.586z"/><path d="m43.683 69.112h-3.576l-5.285-9.281v9.281h-3.597v-14.917h3.597l5.274 9.287v-9.287h3.586v14.917z"/><path d="m45.959 69.112v-14.917h4.805c1.321 0 2.502.302 3.554.895 1.052.599 1.877 1.445 2.465 2.535.593 1.089.89 2.308.901 3.662v.685c0 1.37-.291 2.589-.868 3.678-.577 1.079-1.391 1.925-2.438 2.535-1.052.615-2.222.928-3.511.928h-4.908zm3.597-12.14v9.379h1.251c1.03 0 1.823-.367 2.373-1.1.555-.739.831-1.828.831-3.279v-.647c0-1.435-.275-2.524-.831-3.257-.55-.728-1.359-1.095-2.416-1.095h-1.208z"/><path d="m59.528 69.112v-14.917h4.805c1.321 0 2.502.302 3.554.895 1.052.599 1.877 1.445 2.465 2.535.593 1.089.89 2.308.901 3.662v.685c0 1.37-.291 2.589-.868 3.678-.577 1.079-1.391 1.925-2.438 2.535-1.052.615-2.222.928-3.511.928h-4.908zm3.597-12.14v9.379h1.251c1.03 0 1.823-.367 2.373-1.1.555-.739.831-1.828.831-3.279v-.647c0-1.435-.275-2.524-.831-3.257-.55-.728-1.359-1.095-2.416-1.095h-1.208z"/></g></g></g></svg>