<svg viewBox="0 0 96 96" xmlns="http://www.w3.org/2000/svg"><g id="Layer_1"/><g id="Layer_2"/><g id="Layer_3"/><g id="Layer_4"><g><path d="m81.826 34.585h-19.631c-4.111 0-7.455-3.344-7.455-7.453v-21.2c0-.793.483-1.505 1.22-1.796.736-.291 1.576-.102 2.12.469l25.153 26.723c.529.561.673 1.386.367 2.093s-1.003 1.164-1.774 1.164zm-23.221-23.778v16.325c0 1.979 1.611 3.592 3.59 3.592h15.157z"/><path d="m73.542 92h-51.085c-5.634 0-10.217-4.579-10.217-10.215v-67.57c0-5.636 4.583-10.215 10.217-10.215h34.215c.533 0 1.042.216 1.408.604l25.153 26.723c.337.361.525.836.525 1.327v49.131c.001 5.636-4.582 10.215-10.216 10.215zm-51.085-84.138c-3.502 0-6.351 2.853-6.351 6.353v67.57c0 3.5 2.849 6.353 6.351 6.353h51.085c3.502 0 6.351-2.853 6.351-6.353v-48.365l-24.056-25.558z"/><g><path d="m34.581 69.117h-3.964v-16.487h3.964z"/><path d="m45.853 64.732c0-.582-.205-1.035-.615-1.359-.415-.324-1.138-.658-2.168-1.003-1.035-.351-1.882-.69-2.54-1.014-2.136-1.046-3.204-2.492-3.204-4.325 0-.911.264-1.715.798-2.416s1.284-1.24 2.26-1.629c.971-.388 2.066-.582 3.284-.582 1.186 0 2.249.205 3.187.631s1.672 1.025 2.19 1.807c.523.782.782 1.672.782 2.675h-3.964c0-.669-.205-1.186-.615-1.559-.415-.372-.971-.555-1.672-.555-.712 0-1.273.156-1.683.469s-.615.712-.615 1.192c0 .426.227.809.68 1.154s1.246.701 2.389 1.062c1.138.367 2.076.76 2.81 1.181 1.78 1.03 2.67 2.448 2.67 4.25 0 1.445-.545 2.578-1.629 3.398-1.089.82-2.578 1.235-4.476 1.235-1.332 0-2.546-.243-3.63-.717-1.084-.48-1.898-1.138-2.443-1.974-.55-.831-.825-1.791-.825-2.88h3.991c0 .884.227 1.532.685 1.952.453.421 1.197.626 2.222.626.658 0 1.176-.14 1.559-.421s.572-.68.572-1.198z"/><path d="m65.829 61.211c0 1.613-.297 3.036-.895 4.271-.593 1.235-1.44 2.19-2.54 2.858-1.1.669-2.351 1.003-3.754 1.003-1.408 0-2.653-.324-3.737-.965-1.089-.647-1.936-1.575-2.546-2.772-.604-1.197-.928-2.578-.955-4.131v-.928c0-1.618.297-3.042.89-4.282.593-1.23 1.44-2.184 2.546-2.858 1.106-.669 2.368-1.003 3.781-1.003 1.397 0 2.643.329 3.737.992 1.095.669 1.942 1.613 2.551 2.837.609 1.23.917 2.632.922 4.217zm-4.04-.691c0-1.634-.275-2.885-.825-3.732-.545-.847-1.327-1.273-2.346-1.273-1.995 0-3.047 1.494-3.16 4.482l-.011 1.213c0 1.618.264 2.858.804 3.727.534.868 1.332 1.305 2.389 1.305 1.003 0 1.774-.431 2.319-1.284s.82-2.082.831-3.678v-.76z"/></g></g></g></svg>