<svg viewBox="0 0 96 96" xmlns="http://www.w3.org/2000/svg"><g id="Layer_1"/><g id="Layer_2"/><g id="Layer_3"/><g id="Layer_4"><g><path d="m81.824 34.583h-19.629c-4.111 0-7.455-3.344-7.455-7.453v-21.199c0-.793.483-1.505 1.22-1.796s1.577-.102 2.12.469l25.151 26.721c.528.561.673 1.386.367 2.092-.306.708-1.003 1.166-1.774 1.166zm-23.219-23.777v16.324c0 1.979 1.61 3.592 3.59 3.592h15.156z"/><path d="m73.541 92h-51.082c-5.633 0-10.216-4.578-10.216-10.214v-67.572c0-5.635 4.583-10.214 10.216-10.214h34.214c.533 0 1.042.216 1.408.604l25.151 26.721c.337.361.525.836.525 1.327v49.134c0 5.636-4.583 10.214-10.216 10.214zm-51.082-84.138c-3.502 0-6.351 2.853-6.351 6.353v67.572c0 3.5 2.849 6.353 6.351 6.353h51.082c3.502 0 6.351-2.853 6.351-6.353v-48.369l-24.054-25.556z"/><g><path d="m40.491 52.627v10.786c0 1.23-.259 2.287-.782 3.182-.518.895-1.267 1.575-2.243 2.044-.971.469-2.125.701-3.451.701-2.006 0-3.592-.523-4.746-1.564s-1.742-2.465-1.769-4.276v-10.873h4.001v10.947c.043 1.801.884 2.707 2.513 2.707.825 0 1.445-.226 1.866-.679.426-.453.636-1.186.636-2.211v-10.764z"/><path d="m49.098 63.283h-2.152v5.83h-3.974v-16.486h6.488c1.958 0 3.484.431 4.589 1.294 1.1.874 1.65 2.092 1.65 3.678 0 1.149-.232 2.098-.696 2.853s-1.192 1.364-2.179 1.834l3.441 6.66v.167h-4.255zm-2.152-3.063h2.513c.755 0 1.327-.194 1.704-.593.383-.399.572-.949.572-1.661s-.189-1.273-.577-1.677c-.383-.404-.949-.609-1.699-.609h-2.513z"/><path d="m62.078 66.055h6.919v3.058h-10.893v-16.486h3.974z"/></g></g></g></svg>