<svg viewBox="0 0 96 96" xmlns="http://www.w3.org/2000/svg"><g id="Layer_1"/><g id="Layer_2"/><g id="Layer_3"/><g id="Layer_4"><g><path d="m81.823 34.59h-19.629c-4.111 0-7.455-3.343-7.455-7.453v-21.204c0-.793.483-1.505 1.22-1.796.737-.297 1.577-.102 2.12.469l25.151 26.726c.528.566.673 1.386.367 2.092-.306.708-1.003 1.166-1.774 1.166zm-23.219-23.782v16.329c0 1.979 1.61 3.591 3.589 3.591h15.157z"/><path d="m73.54 92h-51.08c-5.633 0-10.216-4.578-10.216-10.214v-67.57c0-5.635 4.582-10.214 10.216-10.214h34.212c.533 0 1.042.216 1.407.604l25.151 26.726c.337.361.525.836.525 1.327v49.127c.001 5.636-4.582 10.214-10.215 10.214zm-51.08-84.136c-3.502 0-6.351 2.853-6.351 6.353v67.57c0 3.5 2.849 6.353 6.351 6.353h51.08c3.502 0 6.351-2.853 6.351-6.353v-48.362l-24.054-25.561z"/><g><path d="m32.743 69.114h-3.575v-6.229h-5.296v6.229h-3.597v-14.922h3.597v5.927h5.296v-5.927h3.575z"/><path d="m46.435 56.975h-4.481v12.139h-3.591v-12.139h-4.4v-2.783h12.473v2.783z"/><path d="m52.675 54.192 3.327 10.386 3.322-10.386h4.735v14.921h-3.608v-3.483l.351-7.134-3.608 10.618h-2.378l-3.618-10.629.351 7.145v3.484h-3.597v-14.922z"/><path d="m69.936 66.347h6.261v2.766h-9.857v-14.921h3.597v12.155z"/></g></g></g></svg>