<svg viewBox="0 0 96 96" xmlns="http://www.w3.org/2000/svg"><g id="Layer_1"/><g id="Layer_2"/><g id="Layer_3"/><g id="Layer_4"><g><path d="m81.824 34.589h-19.63c-4.111 0-7.455-3.343-7.455-7.453v-21.204c0-.793.483-1.505 1.22-1.796.736-.291 1.576-.108 2.12.469l25.152 26.726c.528.566.673 1.386.367 2.092-.306.708-1.003 1.166-1.774 1.166zm-23.219-23.782v16.329c0 1.979 1.61 3.592 3.59 3.592h15.155z"/><path d="m73.54 92h-51.081c-5.633 0-10.216-4.578-10.216-10.214v-67.571c0-5.635 4.582-10.214 10.216-10.214h34.213c.533 0 1.042.216 1.408.604l25.152 26.726c.337.361.525.836.525 1.327v49.128c-.001 5.636-4.583 10.214-10.217 10.214zm-51.081-84.137c-3.502 0-6.351 2.853-6.351 6.353v67.571c0 3.5 2.849 6.353 6.351 6.353h51.081c3.502 0 6.351-2.853 6.351-6.353v-48.363l-24.054-25.561z"/><g><path d="m39.45 63.526c-.054 1.154-.361 2.168-.928 3.041-.566.884-1.364 1.564-2.384 2.049-1.025.48-2.195.723-3.505.723-2.168 0-3.877-.706-5.123-2.114-1.246-1.413-1.866-3.408-1.866-5.986v-.809c0-1.618.28-3.031.841-4.244.566-1.213 1.375-2.152 2.432-2.81s2.281-.992 3.667-.992c2.001 0 3.608.528 4.826 1.585 1.213 1.046 1.904 2.502 2.071 4.347h-3.964c-.032-1.003-.28-1.72-.76-2.157-.475-.442-1.197-.658-2.173-.658-.987 0-1.715.367-2.173 1.111-.458.739-.701 1.92-.723 3.543v1.165c0 1.763.221 3.015.658 3.77.442.755 1.203 1.132 2.287 1.132.911 0 1.607-.216 2.092-.642.485-.431.739-1.116.771-2.055h3.954z"/><path d="m50.694 66.034h-5.447l-.955 3.079h-4.244l6.045-16.491h3.737l6.094 16.491h-4.271zm-4.497-3.068h3.543l-1.774-5.722z"/><path d="m57.128 69.113v-16.491h5.312c1.456 0 2.766.334 3.931.992 1.159.658 2.071 1.596 2.723 2.799s.981 2.551.987 4.05v.755c0 1.51-.318 2.869-.955 4.061-.636 1.197-1.537 2.13-2.696 2.81s-2.454 1.014-3.877 1.025h-5.425zm3.974-13.417v10.359h1.381c1.143 0 2.017-.404 2.626-1.213.615-.814.922-2.022.922-3.624v-.712c0-1.596-.307-2.793-.922-3.602-.609-.809-1.499-1.208-2.669-1.208z"/></g></g></g></svg>