<svg viewBox="0 0 96 96" xmlns="http://www.w3.org/2000/svg"><g id="Layer_1"/><g id="Layer_2"/><g id="Layer_3"/><g id="Layer_4"><g><path d="m81.824 34.589h-19.63c-4.111 0-7.455-3.343-7.455-7.453v-21.204c0-.793.483-1.505 1.22-1.796s1.577-.108 2.12.469l25.152 26.726c.528.566.673 1.386.367 2.092-.306.708-1.003 1.166-1.774 1.166zm-23.219-23.782v16.329c0 1.979 1.61 3.592 3.59 3.592h15.155z"/><path d="m73.54 92h-51.081c-5.633 0-10.216-4.578-10.216-10.214v-67.571c0-5.635 4.582-10.214 10.216-10.214h34.213c.533 0 1.042.216 1.408.604l25.152 26.726c.337.361.525.836.525 1.327v49.128c-.001 5.636-4.583 10.214-10.217 10.214zm-51.081-84.137c-3.502 0-6.351 2.853-6.351 6.353v67.571c0 3.5 2.849 6.353 6.351 6.353h51.081c3.502 0 6.351-2.853 6.351-6.353v-48.363l-24.054-25.561z"/><g><path d="m31.41 54.197 3.327 10.376 3.322-10.376h4.735v14.916h-3.608v-3.483l.351-7.129-3.608 10.613h-2.378l-3.619-10.624.351 7.14v3.484h-3.597v-14.917z"/><path d="m48.909 69.113h-3.586v-14.916h3.586z"/><path d="m51.411 69.113v-14.916h4.805c1.321 0 2.502.297 3.554.895 1.052.593 1.877 1.44 2.464 2.529.593 1.089.89 2.313.901 3.662v.69c0 1.364-.291 2.589-.868 3.672-.577 1.084-1.391 1.925-2.438 2.54-1.052.615-2.222.922-3.511.928zm3.597-12.144v9.378h1.251c1.03 0 1.823-.367 2.373-1.1.555-.739.83-1.828.83-3.273v-.647c0-1.44-.275-2.524-.83-3.257-.55-.733-1.359-1.1-2.416-1.1h-1.208z"/><path d="m68.808 69.113h-3.586v-14.916h3.586z"/></g></g></g></svg>