<svg viewBox="0 0 96 96" xmlns="http://www.w3.org/2000/svg"><g id="Layer_1"/><g id="Layer_2"/><g id="Layer_3"/><g id="Layer_4"><g><path d="m81.823 34.585h-19.629c-4.111 0-7.455-3.343-7.455-7.453v-21.199c0-.793.484-1.505 1.22-1.796.737-.297 1.577-.102 2.121.469l25.151 26.721c.528.561.673 1.386.367 2.092-.307.707-1.004 1.166-1.775 1.166zm-23.218-23.777v16.324c0 1.979 1.61 3.591 3.589 3.591h15.156z"/><path d="m73.54 92h-51.08c-5.633 0-10.216-4.578-10.216-10.214v-67.57c0-5.635 4.584-10.214 10.216-10.214h34.212c.533 0 1.042.216 1.407.604l25.151 26.721c.337.361.526.836.526 1.327v49.132c.001 5.636-4.583 10.214-10.216 10.214zm-51.08-84.136c-3.501 0-6.35 2.853-6.35 6.353v67.57c0 3.5 2.849 6.353 6.35 6.353h51.08c3.501 0 6.35-2.853 6.35-6.353v-48.367l-24.052-25.556z"/><g><path d="m38.868 62.545h-6.412v6.568h-3.974v-16.485h11.028v3.063h-7.054v3.796h6.412z"/><path d="m45.14 66.056h6.919v3.058h-10.893v-16.486h3.974z"/><path d="m63.318 66.034h-5.447l-.954 3.079h-4.244l6.045-16.485h3.737l6.094 16.485h-4.271zm-4.497-3.073h3.543l-1.774-5.716z"/></g></g></g></svg>