<svg viewBox="0 0 96 96" xmlns="http://www.w3.org/2000/svg"><g id="Layer_1"/><g id="Layer_2"/><g id="Layer_3"/><g id="Layer_4"><g><path d="m81.825 34.586h-19.63c-4.111 0-7.456-3.344-7.456-7.453v-21.2c0-.793.484-1.505 1.22-1.796.736-.297 1.577-.102 2.121.469l25.153 26.722c.529.561.673 1.386.367 2.092-.306.708-1.003 1.166-1.775 1.166zm-23.219-23.777v16.325c0 1.979 1.61 3.592 3.589 3.592h15.157z"/><path d="m73.542 92h-51.084c-5.633 0-10.217-4.579-10.217-10.214v-67.569c0-5.636 4.584-10.214 10.217-10.214h34.214c.533 0 1.042.216 1.408.604l25.153 26.722c.337.361.526.836.526 1.327v49.13c0 5.635-4.584 10.214-10.217 10.214zm-51.084-84.136c-3.501 0-6.35 2.853-6.35 6.353v67.569c0 3.5 2.849 6.353 6.35 6.353h51.084c3.501 0 6.35-2.853 6.35-6.353v-48.364l-24.054-25.558z"/><g><path d="m28.719 52.626 3.683 11.471 3.667-11.471h5.231v16.492h-3.985v-3.851l.383-7.885-3.985 11.735h-2.626l-3.996-11.746.383 7.895v3.851h-3.975v-16.491z"/><path d="m47.8 63.52v5.598h-3.975v-16.492h6.579c1.262 0 2.378.232 3.349.696s1.72 1.127 2.254 1.979c.529.863.798 1.834.798 2.923 0 1.607-.577 2.891-1.731 3.851-1.149.965-2.729 1.445-4.74 1.445zm0-3.069h2.605c.771 0 1.359-.189 1.764-.577.404-.388.604-.928.604-1.629 0-.777-.21-1.391-.626-1.85-.415-.458-.982-.696-1.699-.701h-2.648z"/><path d="m72.424 67.079c-.609.68-1.505 1.224-2.686 1.639-1.176.415-2.465.626-3.872.626-2.157 0-3.883-.663-5.172-1.985-1.294-1.321-1.985-3.16-2.076-5.512l-.011-1.435c0-1.618.286-3.036.863-4.25.572-1.208 1.391-2.146 2.465-2.794 1.068-.658 2.303-.982 3.705-.982 2.055 0 3.651.469 4.789 1.413 1.133.938 1.796 2.341 1.985 4.207h-3.829c-.135-.928-.431-1.58-.884-1.974s-1.095-.588-1.925-.588c-.992 0-1.764.421-2.308 1.267s-.82 2.055-.825 3.624v.998c0 1.645.28 2.885.841 3.705.566.831 1.451 1.24 2.659 1.24 1.03 0 1.801-.227 2.308-.69v-2.556h-2.761v-2.729h6.736v6.776z"/></g></g></g></svg>