<svg viewBox="0 0 96 96" xmlns="http://www.w3.org/2000/svg"><g id="Layer_1"/><g id="Layer_2"/><g id="Layer_3"/><g id="Layer_4"><g><path d="m81.824 34.588h-19.63c-4.111 0-7.456-3.344-7.456-7.453v-21.204c0-.793.484-1.505 1.221-1.796.732-.291 1.577-.102 2.119.469l25.152 26.727c.528.566.673 1.386.367 2.092-.305.707-1.002 1.165-1.773 1.165zm-23.218-23.782v16.329c0 1.979 1.61 3.592 3.589 3.592h15.156z"/><path d="m73.541 92h-51.082c-5.633 0-10.217-4.578-10.217-10.214v-67.572c0-5.635 4.584-10.214 10.217-10.214h34.213c.533 0 1.042.216 1.408.604l25.152 26.727c.337.361.526.836.526 1.327v49.128c0 5.636-4.584 10.214-10.217 10.214zm-51.082-84.138c-3.501 0-6.35 2.853-6.35 6.353v67.572c0 3.5 2.849 6.353 6.35 6.353h51.082c3.501 0 6.35-2.853 6.35-6.353v-48.363l-24.053-25.562z"/><g><path d="m29.905 52.622 3.683 11.476 3.667-11.476h5.231v16.491h-3.985v-3.85l.383-7.884-3.985 11.735h-2.626l-3.996-11.745.383 7.895v3.85h-3.974v-16.492z"/><path d="m48.985 63.515v5.598h-3.975v-16.491h6.579c1.262 0 2.378.237 3.349.701s1.72 1.122 2.254 1.979c.528.857.798 1.828.798 2.917 0 1.607-.577 2.891-1.731 3.856-1.149.965-2.729 1.44-4.74 1.44zm0-3.063h2.605c.771 0 1.359-.194 1.763-.582.404-.383.604-.928.604-1.629 0-.771-.21-1.386-.626-1.844-.415-.464-.981-.696-1.699-.701h-2.648v4.756z"/><path d="m63.362 59.271h1.801c1.424 0 2.136-.696 2.136-2.098 0-.539-.167-.981-.507-1.327s-.82-.518-1.44-.518c-.507 0-.944.151-1.316.442-.377.297-.561.658-.561 1.1h-3.818c0-.868.243-1.639.723-2.319.485-.679 1.154-1.213 2.012-1.596.857-.377 1.801-.572 2.826-.572 1.834 0 3.279.421 4.325 1.262 1.052.836 1.575 1.985 1.575 3.451 0 .712-.216 1.381-.653 2.006-.431.636-1.062 1.143-1.893 1.537.874.318 1.564.804 2.06 1.445.496.642.744 1.44.744 2.394 0 1.472-.561 2.648-1.699 3.532-1.132.884-2.616 1.327-4.46 1.327-1.079 0-2.082-.205-3.004-.615-.928-.41-1.629-.981-2.103-1.715-.475-.723-.712-1.553-.712-2.481h3.84c0 .507.2.938.609 1.31.41.372.911.555 1.505.555.674 0 1.208-.183 1.607-.561.404-.372.604-.852.604-1.434 0-.83-.21-1.418-.626-1.763-.415-.351-.987-.523-1.72-.523h-1.855z"/></g></g></g></svg>