<svg viewBox="0 0 96 96" xmlns="http://www.w3.org/2000/svg"><g id="Layer_1"/><g id="Layer_2"/><g id="Layer_3"/><g id="Layer_4"><g><path d="m81.826 34.586h-19.631c-4.111 0-7.456-3.344-7.456-7.453v-21.2c0-.793.484-1.505 1.22-1.796.737-.291 1.577-.108 2.121.469l25.153 26.723c.529.561.673 1.386.367 2.093-.306.705-1.003 1.164-1.774 1.164zm-23.22-23.778v16.325c0 1.979 1.61 3.592 3.589 3.592h15.157z"/><path d="m73.542 92h-51.084c-5.633 0-10.217-4.579-10.217-10.214v-67.57c0-5.636 4.584-10.214 10.217-10.214h34.215c.533 0 1.042.216 1.408.604l25.153 26.723c.337.361.526.836.526 1.327v49.131c-.001 5.634-4.585 10.213-10.218 10.213zm-51.084-84.137c-3.501 0-6.35 2.853-6.35 6.353v67.569c0 3.5 2.849 6.353 6.35 6.353h51.084c3.501 0 6.35-2.853 6.35-6.353v-48.364l-24.054-25.558z"/><g><path d="m35.191 66.038h-5.447l-.955 3.079h-4.244l6.046-16.487h3.737l6.094 16.487h-4.271zm-4.498-3.074h3.543l-1.774-5.717z"/><path d="m50.987 66.038h-5.447l-.955 3.079h-4.244l6.046-16.487h3.737l6.094 16.487h-4.271zm-4.498-3.074h3.543l-1.774-5.717z"/><path d="m70.526 63.535c-.054 1.143-.361 2.157-.928 3.042-.566.874-1.364 1.559-2.384 2.039-1.025.485-2.195.728-3.505.728-2.168 0-3.878-.706-5.123-2.119-1.246-1.413-1.866-3.403-1.866-5.975v-.82c0-1.618.28-3.031.841-4.239.566-1.213 1.375-2.146 2.432-2.81s2.281-.987 3.667-.987c2.001 0 3.608.523 4.827 1.575 1.213 1.057 1.904 2.502 2.071 4.358h-3.964c-.032-1.003-.28-1.726-.76-2.168-.475-.431-1.197-.653-2.173-.653-.987 0-1.715.372-2.173 1.106-.458.744-.701 1.925-.723 3.549v1.165c0 1.758.221 3.02.658 3.775.442.755 1.203 1.133 2.287 1.133.911 0 1.607-.216 2.093-.647.485-.431.739-1.111.771-2.049h3.952z"/></g></g></g></svg>