<svg viewBox="0 0 96 96" xmlns="http://www.w3.org/2000/svg"><g id="Layer_1"/><g id="Layer_2"/><g id="Layer_3"/><g id="Layer_4"><g><path d="m81.826 34.585h-19.631c-4.111 0-7.456-3.344-7.456-7.453v-21.2c0-.793.484-1.505 1.22-1.796.738-.286 1.577-.102 2.121.469l25.154 26.723c.529.561.673 1.386.367 2.093-.306.705-1.003 1.164-1.775 1.164zm-23.22-23.779v16.325c0 1.979 1.61 3.592 3.589 3.592h15.157z"/><path d="m73.543 92h-51.086c-5.633 0-10.217-4.579-10.217-10.215v-67.57c0-5.636 4.584-10.215 10.217-10.215h34.215c.533 0 1.042.216 1.408.604l25.154 26.723c.337.361.526.836.526 1.327v49.132c0 5.635-4.584 10.214-10.217 10.214zm-51.086-84.139c-3.502 0-6.35 2.853-6.35 6.353v67.571c0 3.5 2.849 6.353 6.35 6.353h51.085c3.502 0 6.35-2.853 6.35-6.353v-48.365l-24.054-25.559z"/><g><path d="m30.197 59.269h1.801c1.424 0 2.136-.696 2.136-2.093 0-.539-.167-.987-.507-1.327-.34-.345-.82-.518-1.44-.518-.507 0-.944.146-1.316.442-.378.291-.561.658-.561 1.1h-3.818c0-.874.243-1.645.723-2.324.485-.68 1.154-1.213 2.012-1.591.858-.383 1.801-.572 2.826-.572 1.834 0 3.279.421 4.325 1.257 1.052.836 1.575 1.99 1.575 3.457 0 .707-.216 1.381-.653 2.006-.431.631-1.062 1.143-1.893 1.532.874.324 1.564.804 2.06 1.445.496.647.744 1.445.744 2.395 0 1.478-.561 2.653-1.699 3.538-1.133.884-2.616 1.327-4.46 1.327-1.079 0-2.082-.205-3.004-.62-.928-.41-1.629-.982-2.103-1.71-.475-.728-.712-1.559-.712-2.486h3.84c0 .507.2.944.609 1.311.41.372.911.561 1.505.561.674 0 1.208-.189 1.607-.561.404-.378.604-.852.604-1.435 0-.831-.21-1.424-.626-1.769s-.987-.518-1.72-.518h-1.855z"/><path d="m53.878 67.078c-.609.68-1.505 1.224-2.686 1.64-1.176.415-2.465.626-3.872.626-2.157 0-3.883-.663-5.172-1.985-1.294-1.321-1.985-3.16-2.076-5.512l-.011-1.435c0-1.618.286-3.036.863-4.25.572-1.208 1.391-2.146 2.465-2.794 1.068-.658 2.303-.982 3.705-.982 2.055 0 3.651.469 4.789 1.413 1.133.938 1.796 2.341 1.985 4.207h-3.829c-.135-.928-.431-1.58-.884-1.974s-1.095-.588-1.925-.588c-.992 0-1.764.421-2.308 1.267s-.82 2.055-.825 3.624v.998c0 1.645.28 2.885.841 3.705.566.831 1.451 1.24 2.659 1.24 1.03 0 1.801-.227 2.308-.69v-2.556h-2.761v-2.729h6.736v6.775z"/><path d="m60.161 63.519v5.598h-3.975v-16.492h6.58c1.262 0 2.378.232 3.349.696s1.72 1.127 2.254 1.979c.529.863.798 1.834.798 2.923 0 1.607-.577 2.891-1.731 3.851-1.149.965-2.729 1.445-4.741 1.445zm0-3.069h2.605c.771 0 1.359-.189 1.764-.577s.604-.928.604-1.629c0-.777-.21-1.391-.626-1.85-.415-.458-.982-.696-1.699-.701h-2.648z"/></g></g></g></svg>