<svg viewBox="0 0 96 96" xmlns="http://www.w3.org/2000/svg"><g id="Layer_1"/><g id="Layer_2"/><g id="Layer_3"/><g id="Layer_4"><g><path d="m81.824 34.589h-19.63c-4.111 0-7.455-3.343-7.455-7.453v-21.204c0-.793.484-1.505 1.221-1.796.733-.291 1.576-.108 2.119.469l25.152 26.726c.528.566.673 1.386.367 2.092-.306.708-1.003 1.166-1.774 1.166zm-23.219-23.782v16.329c0 1.979 1.61 3.592 3.589 3.592h15.156z"/><path d="m73.541 92h-51.082c-5.633 0-10.217-4.578-10.217-10.214v-67.571c0-5.635 4.584-10.214 10.217-10.214h34.213c.533 0 1.042.216 1.407.604l25.152 26.726c.337.361.526.836.526 1.327v49.128c0 5.636-4.584 10.214-10.216 10.214zm-51.082-84.137c-3.501 0-6.35 2.853-6.35 6.353v67.571c0 3.5 2.849 6.353 6.35 6.353h51.081c3.501 0 6.35-2.853 6.35-6.353v-48.363l-24.052-25.561z"/><g><path d="m30.894 59.277h1.801c1.424 0 2.136-.701 2.136-2.098 0-.545-.167-.987-.507-1.332s-.82-.512-1.44-.512c-.507 0-.944.146-1.316.437-.377.302-.561.663-.561 1.1h-3.818c0-.863.243-1.639.723-2.319.485-.679 1.154-1.208 2.011-1.591s1.801-.572 2.826-.572c1.834 0 3.279.415 4.325 1.257 1.052.841 1.575 1.99 1.575 3.451 0 .712-.216 1.381-.653 2.011-.431.631-1.062 1.143-1.893 1.537.874.313 1.564.798 2.06 1.445.496.642.744 1.44.744 2.394 0 1.467-.561 2.648-1.699 3.532-1.132.879-2.615 1.321-4.46 1.321-1.079 0-2.082-.205-3.004-.615-.928-.41-1.629-.981-2.103-1.709-.475-.728-.712-1.558-.712-2.486h3.84c0 .507.2.944.609 1.316.41.367.911.55 1.505.55.674 0 1.208-.183 1.607-.561.404-.367.604-.852.604-1.429 0-.83-.21-1.418-.626-1.763-.415-.351-.987-.528-1.72-.528h-1.855v-2.836z"/><path d="m41.075 69.113v-16.485h5.312c1.456 0 2.766.329 3.931.987 1.159.663 2.071 1.596 2.723 2.804.653 1.197.981 2.551.987 4.045v.76c0 1.51-.318 2.864-.955 4.061s-1.537 2.13-2.696 2.804c-1.159.679-2.454 1.019-3.877 1.025h-5.425zm3.975-13.417v10.365h1.381c1.143 0 2.017-.41 2.626-1.219.615-.809.922-2.017.922-3.619v-.717c0-1.591-.307-2.793-.922-3.602-.609-.804-1.499-1.208-2.669-1.208z"/><path d="m64.571 64.734c0-.582-.205-1.035-.615-1.359-.415-.324-1.138-.658-2.168-1.008-1.035-.351-1.882-.685-2.54-1.008-2.136-1.046-3.203-2.491-3.203-4.325 0-.917.264-1.72.798-2.416.534-.701 1.283-1.246 2.26-1.634.971-.388 2.065-.582 3.284-.582 1.186 0 2.249.21 3.187.631.938.426 1.672 1.025 2.189 1.812.523.777.782 1.672.782 2.675h-3.964c0-.669-.205-1.192-.615-1.564-.415-.367-.971-.55-1.672-.55-.712 0-1.273.151-1.683.464s-.615.712-.615 1.197c0 .421.226.809.679 1.154.453.34 1.246.696 2.389 1.057 1.138.367 2.076.766 2.81 1.186 1.78 1.025 2.669 2.443 2.669 4.249 0 1.44-.545 2.572-1.629 3.397-1.089.82-2.578 1.23-4.476 1.23-1.332 0-2.545-.237-3.629-.717s-1.898-1.138-2.443-1.968c-.55-.836-.825-1.796-.825-2.88h3.991c0 .879.226 1.532.685 1.952.453.421 1.197.626 2.222.626.658 0 1.176-.14 1.558-.421.385-.286.574-.685.574-1.198z"/></g></g></g></svg>