<svg viewBox="0 0 96 96" xmlns="http://www.w3.org/2000/svg"><g id="Layer_1"/><g id="Layer_2"/><g id="Layer_3"/><g id="Layer_4"><g><path d="m81.824 34.589h-19.63c-4.111 0-7.455-3.343-7.455-7.453v-21.204c0-.793.484-1.505 1.221-1.796.733-.291 1.577-.108 2.119.469l25.152 26.726c.528.566.673 1.386.367 2.092-.306.708-1.003 1.166-1.774 1.166zm-23.219-23.782v16.329c0 1.979 1.61 3.592 3.589 3.592h15.156z"/><path d="m73.541 92h-51.082c-5.633 0-10.217-4.578-10.217-10.214v-67.571c0-5.635 4.584-10.214 10.217-10.214h34.213c.533 0 1.042.216 1.407.604l25.152 26.726c.337.361.526.836.526 1.327v49.128c0 5.636-4.584 10.214-10.216 10.214zm-51.082-84.137c-3.501 0-6.35 2.853-6.35 6.353v67.571c0 3.5 2.849 6.353 6.35 6.353h51.081c3.501 0 6.35-2.853 6.35-6.353v-48.363l-24.052-25.561z"/><g><path d="m23.547 69.113v-16.491h5.312c1.456 0 2.766.334 3.931.992 1.159.658 2.071 1.596 2.723 2.799s.981 2.551.987 4.05v.755c0 1.51-.318 2.869-.955 4.061-.636 1.197-1.537 2.13-2.696 2.81-1.159.679-2.454 1.014-3.877 1.025h-5.425zm3.975-13.417v10.359h1.381c1.143 0 2.017-.404 2.626-1.213.615-.814.922-2.022.922-3.624v-.712c0-1.596-.307-2.793-.922-3.602-.609-.809-1.499-1.208-2.669-1.208z"/><path d="m43.759 52.622 3.683 11.476 3.667-11.476h5.231v16.491h-3.985v-3.85l.383-7.884-3.985 11.735h-2.626l-3.996-11.745.383 7.895v3.85h-3.974v-16.492z"/><path d="m72.368 67.075c-.609.679-1.505 1.23-2.686 1.639-1.176.421-2.464.626-3.872.626-2.157 0-3.883-.658-5.172-1.985-1.294-1.316-1.985-3.16-2.076-5.511l-.011-1.429c0-1.623.286-3.036.863-4.255.572-1.208 1.391-2.141 2.464-2.793 1.068-.653 2.303-.981 3.705-.981 2.055 0 3.651.475 4.789 1.413 1.132.938 1.796 2.34 1.985 4.206h-3.829c-.135-.922-.431-1.575-.884-1.974-.453-.388-1.095-.582-1.925-.582-.992 0-1.763.421-2.308 1.262-.545.852-.82 2.06-.825 3.624v1.003c0 1.639.28 2.88.841 3.705.566.825 1.451 1.24 2.659 1.24 1.03 0 1.801-.232 2.308-.69v-2.563h-2.761v-2.729h6.736v6.774z"/></g></g></g></svg>