<svg viewBox="0 0 96 96" xmlns="http://www.w3.org/2000/svg"><g id="Layer_1"/><g id="Layer_2"/><g id="Layer_3"/><g id="Layer_4"><g><path d="m81.826 34.586h-19.631c-4.111 0-7.456-3.344-7.456-7.453v-21.2c0-.793.484-1.505 1.22-1.796.737-.291 1.579-.108 2.121.469l25.153 26.723c.529.561.673 1.386.367 2.093-.306.705-1.003 1.164-1.774 1.164zm-23.22-23.778v16.325c0 1.979 1.61 3.592 3.589 3.592h15.157z"/><path d="m73.542 92h-51.084c-5.633 0-10.217-4.579-10.217-10.214v-67.57c0-5.636 4.584-10.214 10.217-10.214h34.215c.533 0 1.042.216 1.408.604l25.153 26.723c.337.361.526.836.526 1.327v49.131c-.001 5.634-4.585 10.213-10.218 10.213zm-51.084-84.137c-3.501 0-6.35 2.853-6.35 6.353v67.569c0 3.5 2.849 6.353 6.35 6.353h51.084c3.501 0 6.35-2.853 6.35-6.353v-48.364l-24.054-25.558z"/><g><path d="m28.627 52.625 3.683 11.476 3.667-11.476h5.231v16.492h-3.985v-3.851l.383-7.885-3.985 11.735h-2.626l-3.996-11.746.383 7.895v3.851h-3.975v-16.491z"/><path d="m57.696 61.211c0 1.607-.297 3.031-.895 4.271-.593 1.24-1.44 2.19-2.54 2.858s-2.351 1.003-3.754 1.003c-1.408 0-2.653-.324-3.737-.971-1.089-.642-1.936-1.564-2.546-2.767-.604-1.203-.928-2.578-.955-4.136v-.928c0-1.618.297-3.042.89-4.271.593-1.24 1.44-2.19 2.546-2.858 1.106-.68 2.368-1.014 3.781-1.014 1.397 0 2.643.334 3.737.998 1.095.663 1.941 1.613 2.551 2.837.609 1.23.917 2.637.922 4.223zm-4.039-.69c0-1.639-.275-2.88-.825-3.732-.545-.852-1.327-1.273-2.346-1.273-1.995 0-3.047 1.494-3.16 4.487l-.011 1.208c0 1.618.264 2.858.804 3.727.534.868 1.332 1.3 2.389 1.3 1.003 0 1.774-.421 2.319-1.273.545-.857.82-2.082.831-3.683v-.761z"/><path d="m65.899 64.63 3.284-12.005h4.444l-5.549 16.492h-4.352l-5.501-16.492h4.406z"/></g></g></g></svg>