<svg viewBox="0 0 96 96" xmlns="http://www.w3.org/2000/svg"><g id="Layer_1"/><g id="Layer_2"/><g id="Layer_3"/><g id="Layer_4"><g><path d="m81.826 34.586h-19.631c-4.111 0-7.456-3.344-7.456-7.453v-21.2c0-.793.484-1.505 1.22-1.796.739-.291 1.577-.108 2.121.469l25.153 26.723c.529.561.673 1.386.367 2.093-.306.705-1.003 1.164-1.774 1.164zm-23.22-23.778v16.325c0 1.979 1.61 3.592 3.589 3.592h15.157z"/><path d="m73.542 92h-51.084c-5.633 0-10.217-4.579-10.217-10.214v-67.57c0-5.636 4.584-10.214 10.217-10.214h34.215c.533 0 1.042.216 1.408.604l25.153 26.723c.337.361.526.836.526 1.327v49.131c-.001 5.634-4.585 10.213-10.218 10.213zm-51.084-84.137c-3.501 0-6.35 2.853-6.35 6.353v67.569c0 3.5 2.849 6.353 6.35 6.353h51.084c3.501 0 6.35-2.853 6.35-6.353v-48.364l-24.054-25.558z"/><g><path d="m36.981 66.038h-5.447l-.955 3.074h-4.244l6.046-16.487h3.737l6.094 16.487h-4.271zm-4.497-3.074h3.543l-1.774-5.717z"/><path d="m51.915 64.733c0-.582-.205-1.035-.615-1.359-.415-.324-1.138-.658-2.168-1.009-1.035-.351-1.882-.685-2.54-1.008-2.136-1.046-3.203-2.492-3.203-4.325 0-.917.264-1.72.798-2.416.534-.701 1.284-1.246 2.26-1.634.971-.388 2.066-.582 3.284-.582 1.186 0 2.249.21 3.187.631.938.426 1.672 1.025 2.19 1.812.523.777.782 1.672.782 2.675h-3.964c0-.669-.205-1.192-.615-1.564-.415-.367-.971-.55-1.672-.55-.712 0-1.273.151-1.683.464s-.615.712-.615 1.197c0 .421.227.809.68 1.154.453.34 1.246.696 2.389 1.057 1.138.367 2.076.766 2.81 1.186 1.78 1.025 2.67 2.443 2.67 4.25 0 1.44-.545 2.572-1.629 3.398-1.089.82-2.578 1.23-4.476 1.23-1.332 0-2.546-.237-3.63-.717s-1.898-1.138-2.443-1.968c-.55-.836-.825-1.796-.825-2.88h3.991c0 .879.227 1.532.685 1.952.453.421 1.197.626 2.222.626.658 0 1.176-.14 1.559-.421.382-.288.571-.687.571-1.199z"/><path d="m68.32 62.543h-6.412v6.569h-3.975v-16.487h11.029v3.069h-7.054v3.797h6.412z"/></g></g></g></svg>