<svg viewBox="0 0 96 96" xmlns="http://www.w3.org/2000/svg"><g id="Layer_1"/><g id="Layer_2"/><g id="Layer_3"/><g id="Layer_4"><g><path d="m81.823 34.59h-19.629c-4.111 0-7.455-3.343-7.455-7.453v-21.204c0-.793.484-1.505 1.221-1.796.732-.297 1.576-.102 2.119.469l25.151 26.726c.528.566.673 1.386.367 2.092-.306.708-1.003 1.166-1.774 1.166zm-23.218-23.782v16.329c0 1.979 1.61 3.591 3.589 3.591h15.156z"/><path d="m73.54 92h-51.08c-5.633 0-10.216-4.578-10.216-10.214v-67.57c0-5.635 4.584-10.214 10.216-10.214h34.212c.533 0 1.042.216 1.407.604l25.151 26.726c.337.361.526.836.526 1.327v49.127c.001 5.636-4.583 10.214-10.216 10.214zm-51.08-84.136c-3.501 0-6.35 2.853-6.35 6.353v67.57c0 3.5 2.849 6.353 6.35 6.353h51.08c3.501 0 6.35-2.853 6.35-6.353v-48.362l-24.052-25.561z"/><g><path d="m38.96 62.114h-6.25v3.947h7.383v3.052h-11.358v-16.485h11.384v3.068h-7.409v3.473h6.25z"/><path d="m47.863 58.113 2.696-5.484h4.541l-4.611 8.175 4.735 8.31h-4.584l-2.777-5.581-2.772 5.581h-4.578l4.724-8.31-4.6-8.175h4.53z"/><path d="m66.737 62.114h-6.25v3.947h7.383v3.052h-11.357v-16.485h11.384v3.068h-7.409v3.473h6.25v2.945z"/></g></g></g></svg>