<svg viewBox="0 0 96 96" xmlns="http://www.w3.org/2000/svg"><g id="Layer_1"/><g id="Layer_2"/><g id="Layer_3"/><g id="Layer_4"><g><path d="m81.824 34.589h-19.63c-4.111 0-7.455-3.343-7.455-7.453v-21.204c0-.793.484-1.505 1.221-1.796.733-.291 1.576-.108 2.119.469l25.152 26.726c.528.566.673 1.386.367 2.092-.306.708-1.003 1.166-1.774 1.166zm-23.219-23.782v16.329c0 1.979 1.61 3.592 3.589 3.592h15.156z"/><path d="m73.541 92h-51.082c-5.633 0-10.217-4.578-10.217-10.214v-67.571c0-5.635 4.584-10.214 10.217-10.214h34.213c.533 0 1.042.216 1.407.604l25.152 26.726c.337.361.526.836.526 1.327v49.128c0 5.636-4.584 10.214-10.216 10.214zm-51.082-84.137c-3.501 0-6.35 2.853-6.35 6.353v67.571c0 3.5 2.849 6.353 6.35 6.353h51.081c3.501 0 6.35-2.853 6.35-6.353v-48.363l-24.052-25.561z"/><g><path d="m39.786 63.532c-.054 1.143-.361 2.157-.928 3.041-.566.874-1.364 1.559-2.384 2.038-1.025.485-2.195.728-3.505.728-2.168 0-3.877-.706-5.123-2.119s-1.866-3.403-1.866-5.975v-.82c0-1.618.28-3.031.841-4.239.566-1.213 1.375-2.146 2.432-2.81s2.281-.987 3.667-.987c2.001 0 3.608.523 4.826 1.575 1.213 1.057 1.904 2.502 2.071 4.357h-3.964c-.032-1.003-.28-1.726-.76-2.168-.475-.431-1.197-.653-2.173-.653-.987 0-1.715.372-2.173 1.106-.458.744-.701 1.925-.723 3.548v1.165c0 1.758.221 3.02.658 3.775.442.755 1.203 1.132 2.287 1.132.911 0 1.607-.216 2.092-.647s.739-1.111.771-2.049h3.954z"/><path d="m41.663 69.113v-16.485h5.312c1.456 0 2.766.324 3.931.987 1.159.663 2.071 1.591 2.723 2.799.653 1.203.981 2.556.987 4.045v.766c0 1.51-.318 2.858-.955 4.055s-1.537 2.136-2.696 2.81-2.454 1.019-3.877 1.025h-5.425zm3.974-13.422v10.365h1.381c1.143 0 2.017-.404 2.626-1.219.615-.809.922-2.017.922-3.613v-.717c0-1.591-.307-2.793-.922-3.602-.609-.804-1.499-1.213-2.669-1.213h-1.338z"/><path d="m62.786 63.284h-2.152v5.83h-3.974v-16.486h6.487c1.958 0 3.484.431 4.589 1.294 1.1.874 1.65 2.092 1.65 3.678 0 1.149-.232 2.098-.696 2.853s-1.192 1.364-2.179 1.834l3.441 6.66v.167h-4.255zm-2.152-3.063h2.513c.755 0 1.327-.194 1.704-.593.383-.399.572-.949.572-1.661s-.189-1.273-.577-1.677c-.383-.404-.949-.609-1.699-.609h-2.513z"/></g></g></g></svg>