<svg viewBox="0 0 96 96" xmlns="http://www.w3.org/2000/svg"><g id="Layer_1"/><g id="Layer_2"/><g id="Layer_3"/><g id="Layer_4"><g><path d="m81.827 34.586h-19.631c-4.111 0-7.456-3.344-7.456-7.453v-21.2c0-.793.484-1.505 1.22-1.796.737-.291 1.579-.108 2.121.469l25.153 26.723c.529.561.673 1.386.367 2.093-.306.705-1.003 1.164-1.774 1.164zm-23.22-23.778v16.325c0 1.979 1.61 3.592 3.589 3.592h15.157z"/><path d="m73.543 92h-51.086c-5.633 0-10.217-4.579-10.217-10.214v-67.57c0-5.636 4.584-10.214 10.217-10.214h34.216c.533 0 1.042.216 1.408.604l25.153 26.723c.337.361.526.836.526 1.327v49.131c0 5.634-4.584 10.213-10.217 10.213zm-51.086-84.137c-3.501 0-6.35 2.853-6.35 6.353v67.569c0 3.5 2.849 6.353 6.35 6.353h51.086c3.501 0 6.35-2.853 6.35-6.353v-48.364l-24.054-25.558z"/><g><path d="m34.23 69.117h-3.964v-16.492h3.964z"/><path d="m50.339 63.53c-.054 1.149-.361 2.163-.928 3.042-.566.879-1.364 1.564-2.384 2.044-1.025.48-2.195.728-3.505.728-2.168 0-3.878-.712-5.123-2.119-1.246-1.413-1.866-3.403-1.866-5.981v-.814c0-1.618.28-3.031.841-4.244.566-1.208 1.375-2.146 2.432-2.804 1.057-.663 2.281-.992 3.667-.992 2.001 0 3.608.529 4.827 1.58 1.213 1.052 1.904 2.502 2.071 4.352h-3.964c-.032-1.003-.28-1.726-.76-2.163-.475-.437-1.197-.653-2.173-.653-.987 0-1.715.367-2.173 1.106s-.701 1.925-.723 3.543v1.165c0 1.764.221 3.02.658 3.775.442.755 1.203 1.133 2.287 1.133.911 0 1.607-.216 2.093-.647s.739-1.111.771-2.049h3.952z"/><path d="m66.179 61.211c0 1.607-.297 3.031-.895 4.271-.593 1.235-1.44 2.19-2.54 2.858s-2.351 1.003-3.754 1.003c-1.408 0-2.653-.324-3.737-.971-1.089-.647-1.936-1.569-2.546-2.772-.604-1.197-.928-2.578-.955-4.131v-.928c0-1.618.297-3.042.89-4.277s1.44-2.184 2.546-2.858 2.368-1.008 3.781-1.008c1.397 0 2.643.334 3.737.992 1.095.669 1.941 1.618 2.551 2.837.609 1.23.917 2.637.922 4.223zm-4.04-.69c0-1.639-.275-2.885-.825-3.732-.545-.852-1.327-1.273-2.346-1.273-1.995 0-3.047 1.488-3.16 4.482l-.011 1.213c0 1.618.264 2.858.804 3.721.534.874 1.332 1.305 2.389 1.305 1.003 0 1.774-.426 2.319-1.278.545-.857.82-2.082.831-3.683v-.755z"/></g></g></g></svg>