<svg viewBox="0 0 96 96" xmlns="http://www.w3.org/2000/svg"><g id="Layer_1"/><g id="Layer_2"/><g id="Layer_3"/><g id="Layer_4"><g><path d="m81.826 34.585h-19.631c-4.111 0-7.456-3.344-7.456-7.453v-21.2c0-.793.484-1.505 1.22-1.796.738-.291 1.577-.102 2.121.469l25.153 26.723c.529.561.673 1.386.367 2.093-.305.705-1.002 1.164-1.774 1.164zm-23.22-23.778v16.325c0 1.979 1.61 3.592 3.589 3.592h15.157z"/><path d="m73.542 92h-51.084c-5.633 0-10.217-4.579-10.217-10.215v-67.57c0-5.636 4.584-10.215 10.217-10.215h34.215c.533 0 1.042.216 1.408.604l25.153 26.723c.337.361.526.836.526 1.327v49.131c0 5.636-4.584 10.215-10.218 10.215zm-51.084-84.138c-3.501 0-6.35 2.853-6.35 6.353v67.57c0 3.5 2.849 6.353 6.35 6.353h51.085c3.501 0 6.35-2.853 6.35-6.353v-48.365l-24.055-25.558z"/><g><path d="m27.445 69.117v-16.487h5.922c2.125 0 3.737.388 4.843 1.165s1.661 1.904 1.661 3.387c0 .852-.2 1.58-.588 2.184-.394.604-.971 1.052-1.737 1.332.863.227 1.521.653 1.985 1.273.458.615.69 1.37.69 2.265 0 1.618-.512 2.826-1.537 3.64-1.019.814-2.54 1.224-4.546 1.24h-6.693zm3.975-9.616h2.071c.868-.011 1.488-.167 1.861-.475.367-.313.555-.771.555-1.375 0-.696-.2-1.203-.604-1.505-.399-.307-1.046-.464-1.936-.464h-1.947zm0 2.605v3.953h2.605c.717 0 1.267-.162 1.656-.496.383-.324.577-.787.577-1.381 0-1.381-.685-2.071-2.049-2.076z"/><path d="m51.773 66.038h-5.447l-.955 3.079h-4.244l6.046-16.487h3.737l6.094 16.487h-4.271zm-4.498-3.075h3.543l-1.774-5.717z"/><path d="m69.792 55.694h-4.945v13.423h-3.98v-13.423h-4.854v-3.064h13.779z"/></g></g></g></svg>