<svg viewBox="0 0 96 96" xmlns="http://www.w3.org/2000/svg"><g id="Layer_1"/><g id="Layer_2"/><g id="Layer_3"/><g id="Layer_4"><g><path d="m81.824 34.589h-19.63c-4.111 0-7.455-3.343-7.455-7.453v-21.204c0-.793.484-1.505 1.221-1.796.732-.291 1.576-.108 2.119.469l25.152 26.726c.528.566.673 1.386.367 2.092-.306.708-1.003 1.166-1.774 1.166zm-23.219-23.782v16.329c0 1.979 1.61 3.592 3.589 3.592h15.156z"/><path d="m73.541 92h-51.082c-5.633 0-10.217-4.578-10.217-10.214v-67.571c0-5.635 4.584-10.214 10.217-10.214h34.213c.533 0 1.042.216 1.407.604l25.152 26.726c.337.361.526.836.526 1.327v49.128c0 5.636-4.584 10.214-10.216 10.214zm-51.082-84.137c-3.501 0-6.35 2.853-6.35 6.353v67.571c0 3.5 2.849 6.353 6.35 6.353h51.081c3.501 0 6.35-2.853 6.35-6.353v-48.363l-24.052-25.561z"/><g><path d="m40.378 55.696h-4.945v13.417h-3.98v-13.417h-4.853v-3.074h13.778z"/><path d="m48.203 58.107 2.696-5.484h4.541l-4.611 8.175 4.735 8.316h-4.584l-2.777-5.587-2.772 5.587h-4.578l4.724-8.316-4.6-8.175h4.53z"/><path d="m69.801 55.696h-4.945v13.417h-3.98v-13.417h-4.853v-3.074h13.778z"/></g></g></g></svg>