<svg viewBox="0 0 96 96" xmlns="http://www.w3.org/2000/svg"><g id="Layer_1"/><g id="Layer_2"/><g id="Layer_3"/><g id="Layer_4"><g><path d="m81.823 34.59h-19.629c-4.111 0-7.455-3.343-7.455-7.453v-21.204c0-.793.484-1.505 1.221-1.796.733-.297 1.577-.102 2.119.469l25.151 26.726c.528.566.673 1.386.367 2.092-.306.708-1.003 1.166-1.774 1.166zm-23.218-23.782v16.329c0 1.979 1.61 3.591 3.589 3.591h15.156z"/><path d="m73.54 92h-51.08c-5.633 0-10.216-4.578-10.216-10.214v-67.57c0-5.635 4.584-10.214 10.216-10.214h34.212c.533 0 1.042.216 1.407.604l25.151 26.726c.337.361.526.836.526 1.327v49.127c.001 5.636-4.583 10.214-10.216 10.214zm-51.08-84.136c-3.501 0-6.35 2.853-6.35 6.353v67.57c0 3.5 2.849 6.353 6.35 6.353h51.08c3.501 0 6.35-2.853 6.35-6.353v-48.362l-24.052-25.561z"/><g><path d="m39.294 56.533 3.079-6.261h5.193l-5.269 9.345 5.409 9.502h-5.242l-3.171-6.385-3.171 6.385h-5.225l5.393-9.502-5.252-9.345h5.177z"/><path d="m49.184 69.119v-18.847h6.072c1.661 0 3.16.377 4.487 1.132 1.332.755 2.367 1.817 3.117 3.198.744 1.375 1.122 2.917 1.132 4.627v.863c0 1.726-.367 3.279-1.095 4.643s-1.758 2.437-3.079 3.209c-1.327.777-2.804 1.165-4.433 1.176h-6.201zm4.541-15.337v11.842h1.58c1.305 0 2.303-.464 3.004-1.391.701-.928 1.046-2.308 1.046-4.142v-.809c0-1.823-.345-3.192-1.046-4.12-.701-.922-1.715-1.381-3.052-1.381h-1.532z"/></g></g></g></svg>