<svg viewBox="0 0 96 96" xmlns="http://www.w3.org/2000/svg"><g id="Layer_1"/><g id="Layer_2"/><g id="Layer_3"/><g id="Layer_4"><g><path d="m81.824 34.589h-19.628c-4.111 0-7.455-3.343-7.455-7.453v-21.204c0-.793.484-1.505 1.221-1.796.732-.291 1.576-.108 2.119.469l25.15 26.726c.528.566.673 1.386.367 2.092-.306.708-1.003 1.166-1.774 1.166zm-23.217-23.782v16.329c0 1.979 1.61 3.592 3.589 3.592h15.155z"/><path d="m73.541 92h-51.082c-5.633 0-10.217-4.578-10.217-10.214v-67.571c0-5.635 4.584-10.214 10.217-10.214h34.214c.533 0 1.042.216 1.408.604l25.15 26.726c.337.361.526.836.526 1.327v49.128c0 5.636-4.584 10.214-10.216 10.214zm-51.082-84.137c-3.501 0-6.35 2.853-6.35 6.353v67.571c0 3.5 2.849 6.353 6.35 6.353h51.081c3.501 0 6.35-2.853 6.35-6.353v-48.363l-24.051-25.561z"/><g><path d="m39.468 63.532c-.054 1.149-.361 2.162-.928 3.041s-1.364 1.559-2.384 2.044c-1.025.485-2.195.723-3.505.723-2.168 0-3.877-.701-5.123-2.114s-1.866-3.408-1.866-5.981v-.814c0-1.618.28-3.031.841-4.239.566-1.219 1.375-2.152 2.432-2.815 1.057-.658 2.281-.987 3.667-.987 2.001 0 3.608.523 4.826 1.58 1.213 1.052 1.904 2.502 2.071 4.352h-3.964c-.032-1.003-.28-1.72-.76-2.162-.475-.437-1.197-.658-2.173-.658-.987 0-1.715.372-2.173 1.111-.458.744-.701 1.92-.723 3.548v1.165c0 1.758.221 3.015.658 3.77.442.755 1.203 1.132 2.287 1.132.911 0 1.607-.216 2.092-.642.485-.431.739-1.116.771-2.055h3.954z"/><path d="m50.712 66.039h-5.447l-.955 3.074h-4.244l6.045-16.486h3.737l6.094 16.486h-4.271zm-4.498-3.073h3.543l-1.774-5.716z"/><path d="m57.145 69.113v-16.485h5.921c2.125 0 3.737.388 4.843 1.165 1.106.782 1.661 1.904 1.661 3.387 0 .857-.2 1.58-.588 2.184-.394.604-.971 1.052-1.736 1.337.863.226 1.521.647 1.985 1.273.458.615.69 1.37.69 2.265 0 1.612-.512 2.826-1.537 3.635-1.019.814-2.54 1.23-4.546 1.24h-6.693zm3.975-9.61h2.071c.868-.011 1.488-.173 1.86-.48.367-.307.555-.771.555-1.375 0-.696-.2-1.197-.604-1.505-.399-.307-1.046-.458-1.936-.458h-1.946zm0 2.6v3.958h2.605c.717 0 1.267-.167 1.656-.496.383-.324.577-.787.577-1.386 0-1.375-.685-2.065-2.049-2.076z"/></g></g></g></svg>