<svg viewBox="0 0 96 96" xmlns="http://www.w3.org/2000/svg">
<g id="Layer_1"/><g id="Layer_2"/><g id="Layer_3"/><g id="Layer_4"><g>
    <path d="m81.825 34.588h-19.63c-4.111 0-7.456-3.344-7.456-7.453v-21.204c0-.793.484-1.505 1.221-1.796.733-.286 1.576-.102 2.119.469l25.152 26.727c.528.566.673 1.386.367 2.092-.305.707-1.002 1.165-1.773 1.165zm-23.219-23.782v16.329c0 1.979 1.61 3.592 3.589 3.592h15.157z"/>
    <path d="m73.542 92h-51.084c-5.633 0-10.217-4.578-10.217-10.214v-67.572c.001-5.635 4.584-10.214 10.217-10.214h34.215c.533 0 1.042.216 1.408.604l25.152 26.727c.337.361.526.836.526 1.327v49.129c-.001 5.635-4.584 10.213-10.217 10.213zm-51.084-84.139c-3.501 0-6.35 2.853-6.35 6.353v67.572c0 3.5 2.849 6.353 6.35 6.353h51.083c3.501 0 6.35-2.853 6.35-6.353v-48.363l-24.053-25.562z"/><g>
        <path d="m35.455 66.055h7.884v3.063h-12.84v-2.098l7.857-11.325h-7.906v-3.069h12.808v2.038z"/><path d="m49.374 69.118h-3.964v-16.491h3.964z"/>
    <path d="m56.115 63.521v5.598h-3.975v-16.492h6.579c1.262 0 2.378.232 3.349.696s1.72 1.127 2.254 1.979c.528.863.798 1.834.798 2.923 0 1.607-.577 2.891-1.731 3.85-1.149.965-2.729 1.445-4.74 1.445h-2.534zm0-3.069h2.605c.771 0 1.359-.189 1.763-.577s.604-.928.604-1.629c0-.777-.21-1.391-.626-1.85-.415-.458-.981-.696-1.699-.701h-2.648v4.757z"/></g></g></g></svg>