<svg viewBox="0 0 96 96" xmlns="http://www.w3.org/2000/svg"><g id="Layer_1"/><g id="Layer_2"/><g id="Layer_3"/><g id="Layer_4"><g><path d="m81.826 34.585h-19.631c-4.111 0-7.456-3.344-7.456-7.453v-21.2c0-.793.484-1.505 1.22-1.796.738-.291 1.577-.102 2.121.469l25.153 26.723c.529.561.673 1.386.367 2.093-.305.705-1.002 1.164-1.774 1.164zm-23.22-23.778v16.325c0 1.979 1.61 3.592 3.589 3.592h15.157z"/><path d="m73.542 92h-51.084c-5.633 0-10.217-4.579-10.217-10.215v-67.57c0-5.636 4.584-10.215 10.217-10.215h34.215c.533 0 1.042.216 1.408.604l25.153 26.723c.337.361.526.836.526 1.327v49.131c0 5.636-4.584 10.215-10.218 10.215zm-51.084-84.138c-3.501 0-6.35 2.853-6.35 6.353v67.57c0 3.5 2.849 6.353 6.35 6.353h51.085c3.501 0 6.35-2.853 6.35-6.353v-48.365l-24.055-25.558z"/><g><path d="m39.862 66.038h-5.447l-.955 3.079h-4.244l6.046-16.487h3.738l6.094 16.487h-4.271zm-4.497-3.075h3.543l-1.774-5.717z"/><path d="m51.819 64.635 3.284-12.005h4.444l-5.55 16.487h-4.352l-5.5-16.487h4.406z"/><path d="m64.978 69.117h-3.964v-16.487h3.964z"/></g></g></g></svg>