<svg viewBox="0 0 96 96" xmlns="http://www.w3.org/2000/svg"><g id="Layer_1"/><g id="Layer_2"/><g id="Layer_3"/><g id="Layer_4"><g><path d="m81.824 34.588h-19.628c-4.111 0-7.456-3.344-7.456-7.453v-21.204c0-.793.484-1.505 1.221-1.796.733-.291 1.576-.102 2.119.469l25.151 26.727c.528.566.673 1.386.367 2.092-.306.707-1.003 1.165-1.774 1.165zm-23.217-23.782v16.329c0 1.979 1.61 3.592 3.589 3.592h15.155z"/><path d="m73.541 92h-51.082c-5.633 0-10.217-4.578-10.217-10.214v-67.572c0-5.635 4.584-10.214 10.217-10.214h34.215c.533 0 1.042.216 1.408.604l25.151 26.727c.337.361.526.836.526 1.327v49.128c-.001 5.636-4.585 10.214-10.218 10.214zm-51.082-84.138c-3.501 0-6.35 2.853-6.35 6.353v67.572c0 3.5 2.849 6.353 6.35 6.353h51.082c3.501 0 6.35-2.853 6.35-6.353v-48.363l-24.052-25.562z"/><g><path d="m47.327 65.592h-6.229l-1.084 3.521h-4.854l6.908-18.842h4.271l6.967 18.842h-4.88zm-5.14-3.506h4.05l-2.033-6.536z"/><path d="m54.445 51.5c0-.626.221-1.132.674-1.532.448-.394 1.03-.593 1.747-.593.712 0 1.294.2 1.747.593.448.399.669.906.669 1.532 0 .62-.221 1.127-.669 1.526-.453.394-1.035.593-1.747.593-.717 0-1.3-.2-1.747-.593-.453-.399-.674-.906-.674-1.526zm4.632 17.613h-4.374v-14.005h4.374z"/></g></g></g></svg>