<svg viewBox="0 0 96 96" xmlns="http://www.w3.org/2000/svg"><g id="Layer_1"/><g id="Layer_2"/><g id="Layer_3"/><g id="Layer_4"><g><path d="m81.826 34.586h-19.631c-4.111 0-7.456-3.344-7.456-7.453v-21.2c0-.793.484-1.505 1.22-1.796s1.577-.108 2.121.469l25.153 26.723c.529.561.673 1.386.367 2.093-.306.705-1.003 1.164-1.774 1.164zm-23.22-23.778v16.325c0 1.979 1.61 3.592 3.589 3.592h15.157z"/><path d="m73.542 92h-51.084c-5.633 0-10.217-4.579-10.217-10.214v-67.57c0-5.636 4.584-10.214 10.217-10.214h34.215c.533 0 1.042.216 1.408.604l25.153 26.723c.337.361.526.836.526 1.327v49.131c-.001 5.634-4.585 10.213-10.218 10.213zm-51.084-84.137c-3.501 0-6.35 2.853-6.35 6.353v67.569c0 3.5 2.849 6.353 6.35 6.353h51.084c3.501 0 6.35-2.853 6.35-6.353v-48.364l-24.054-25.558z"/><g><path d="m31.41 58.105 2.697-5.479h4.541l-4.611 8.176 4.735 8.316h-4.584l-2.778-5.588-2.772 5.587h-4.578l4.724-8.316-4.6-8.176h4.53z"/><path d="m45.287 52.625 3.683 11.471 3.667-11.471h5.231v16.492h-3.985v-3.851l.383-7.885-3.985 11.735h-2.626l-3.996-11.746.383 7.895v3.851h-3.975v-16.491z"/><path d="m64.367 66.054h6.919v3.063h-10.893v-16.492h3.975v13.429z"/></g></g></g></svg>