<svg viewBox="0 0 96 96" xmlns="http://www.w3.org/2000/svg"><g id="Layer_1"/><g id="Layer_2"/><g id="Layer_3"/><g id="Layer_4"><g><path d="m81.824 34.583h-19.63c-4.111 0-7.456-3.344-7.456-7.453v-21.199c0-.793.484-1.505 1.22-1.796s1.577-.102 2.121.469l25.152 26.721c.528.561.673 1.386.367 2.092-.306.708-1.003 1.166-1.774 1.166zm-23.218-23.777v16.324c0 1.979 1.61 3.592 3.589 3.592h15.156z"/><path d="m73.541 92h-51.082c-5.633 0-10.217-4.578-10.217-10.214v-67.572c0-5.635 4.584-10.214 10.217-10.214h34.213c.533 0 1.042.216 1.408.604l25.152 26.721c.337.361.526.836.526 1.327v49.134c0 5.636-4.584 10.214-10.217 10.214zm-51.082-84.138c-3.501 0-6.35 2.853-6.35 6.353v67.572c0 3.5 2.849 6.353 6.35 6.353h51.082c3.501 0 6.35-2.853 6.35-6.353v-48.369l-24.053-25.556z"/><g><path d="m44.866 67.075c-.609.679-1.505 1.224-2.686 1.645-1.176.41-2.465.62-3.872.62-2.157 0-3.883-.663-5.172-1.979-1.294-1.327-1.985-3.16-2.076-5.517l-.011-1.429c0-1.623.286-3.042.863-4.25.572-1.213 1.391-2.146 2.465-2.799 1.068-.653 2.303-.976 3.705-.976 2.055 0 3.651.464 4.789 1.408 1.132.938 1.796 2.34 1.985 4.206h-3.829c-.135-.922-.431-1.58-.884-1.968-.453-.399-1.095-.593-1.925-.593-.992 0-1.763.421-2.308 1.273-.545.841-.82 2.049-.825 3.624v.992c0 1.65.28 2.885.841 3.71.566.83 1.451 1.24 2.659 1.24 1.03 0 1.801-.226 2.308-.69v-2.556h-2.761v-2.734h6.736v6.773z"/><path d="m51.413 69.113h-3.964v-16.486h3.964z"/><path d="m64.561 62.545h-6.412v6.568h-3.974v-16.486h11.028v3.063h-7.054v3.797h6.412z"/></g></g></g></svg>