<svg viewBox="0 0 96 96" xmlns="http://www.w3.org/2000/svg"><g id="Layer_1"/><g id="Layer_2"/><g id="Layer_3"/><g id="Layer_4"><g><path d="m81.824 34.589h-19.628c-4.111 0-7.455-3.343-7.455-7.453v-21.204c0-.793.484-1.505 1.221-1.796.733-.291 1.576-.108 2.119.469l25.15 26.726c.528.566.673 1.386.367 2.092-.306.708-1.003 1.166-1.774 1.166zm-23.217-23.782v16.329c0 1.979 1.61 3.592 3.589 3.592h15.155z"/><path d="m73.541 92h-51.082c-5.633 0-10.217-4.578-10.217-10.214v-67.571c0-5.635 4.584-10.214 10.217-10.214h34.214c.533 0 1.042.216 1.408.604l25.15 26.726c.337.361.526.836.526 1.327v49.128c0 5.636-4.584 10.214-10.216 10.214zm-51.082-84.137c-3.501 0-6.35 2.853-6.35 6.353v67.571c0 3.5 2.849 6.353 6.35 6.353h51.081c3.501 0 6.35-2.853 6.35-6.353v-48.363l-24.051-25.561z"/><g><path d="m34.869 64.734c0-.582-.205-1.035-.615-1.359-.415-.324-1.138-.658-2.168-1.008-1.035-.351-1.882-.685-2.54-1.008-2.136-1.046-3.203-2.491-3.203-4.325 0-.917.264-1.72.798-2.416.534-.701 1.283-1.246 2.26-1.634.971-.388 2.065-.582 3.284-.582 1.186 0 2.249.21 3.187.631.938.426 1.672 1.025 2.189 1.812.523.777.782 1.672.782 2.675h-3.963c0-.669-.205-1.192-.615-1.564-.415-.367-.971-.55-1.672-.55-.712 0-1.273.151-1.683.464s-.615.712-.615 1.197c0 .421.226.809.679 1.154.453.34 1.246.696 2.389 1.057 1.138.367 2.076.766 2.81 1.186 1.78 1.025 2.669 2.443 2.669 4.249 0 1.44-.545 2.572-1.629 3.397-1.089.82-2.578 1.23-4.476 1.23-1.332 0-2.545-.237-3.629-.717s-1.898-1.138-2.443-1.968c-.55-.836-.825-1.796-.825-2.88h3.991c0 .879.226 1.532.685 1.952.453.421 1.197.626 2.222.626.658 0 1.176-.14 1.558-.421.385-.286.573-.685.573-1.198z"/><path d="m47.278 64.632 3.284-12.004h4.444l-5.549 16.486h-4.352l-5.501-16.486h4.406z"/><path d="m69.555 67.075c-.609.679-1.505 1.23-2.686 1.645-1.176.415-2.464.62-3.872.62-2.157 0-3.883-.658-5.172-1.979-1.294-1.321-1.985-3.16-2.076-5.517l-.011-1.424c0-1.629.286-3.041.863-4.255.572-1.213 1.391-2.141 2.464-2.799 1.068-.647 2.303-.976 3.705-.976 2.055 0 3.651.469 4.789 1.407 1.132.938 1.796 2.34 1.985 4.206h-3.829c-.135-.917-.431-1.575-.884-1.968-.453-.394-1.095-.588-1.925-.588-.992 0-1.763.421-2.308 1.267-.545.847-.82 2.055-.825 3.624v.998c0 1.645.28 2.88.841 3.71.566.825 1.451 1.24 2.659 1.24 1.03 0 1.801-.232 2.308-.69v-2.562h-2.761v-2.734h6.736v6.775z"/></g></g></g></svg>