<svg viewBox="0 0 96 96" xmlns="http://www.w3.org/2000/svg"><g id="Layer_1"/><g id="Layer_2"/><g id="Layer_3"/><g id="Layer_4"><g><path d="m81.826 34.585h-19.63c-4.111 0-7.456-3.344-7.456-7.453v-21.2c0-.793.484-1.505 1.22-1.796.738-.291 1.577-.102 2.121.469l25.152 26.723c.529.561.673 1.386.367 2.093-.305.705-1.002 1.164-1.774 1.164zm-23.218-23.778v16.325c0 1.979 1.61 3.592 3.589 3.592h15.156z"/><path d="m73.542 92h-51.084c-5.633 0-10.217-4.579-10.217-10.215v-67.57c0-5.636 4.584-10.215 10.217-10.215h34.217c.533 0 1.042.216 1.408.604l25.152 26.723c.337.361.526.836.526 1.327v49.131c-.001 5.636-4.585 10.215-10.219 10.215zm-51.084-84.138c-3.501 0-6.35 2.853-6.35 6.353v67.57c0 3.5 2.849 6.353 6.35 6.353h51.085c3.501 0 6.35-2.853 6.35-6.353v-48.365l-24.053-25.558z"/><g><path d="m36.071 64.732c0-.582-.205-1.035-.615-1.359-.415-.324-1.138-.658-2.168-1.003-1.035-.351-1.882-.69-2.54-1.014-2.136-1.046-3.204-2.492-3.204-4.325 0-.911.264-1.715.798-2.416s1.284-1.24 2.26-1.629c.971-.388 2.066-.582 3.284-.582 1.186 0 2.249.205 3.187.631s1.672 1.025 2.19 1.807c.523.782.782 1.672.782 2.675h-3.964c0-.669-.205-1.186-.615-1.559-.415-.372-.971-.555-1.672-.555-.712 0-1.273.156-1.683.469s-.615.712-.615 1.192c0 .426.227.809.68 1.154s1.246.701 2.389 1.062c1.138.367 2.076.76 2.81 1.181 1.78 1.03 2.67 2.448 2.67 4.25 0 1.445-.545 2.578-1.629 3.398-1.089.82-2.578 1.235-4.476 1.235-1.332 0-2.546-.243-3.63-.717-1.084-.48-1.898-1.138-2.443-1.974-.55-.831-.825-1.791-.825-2.88h3.991c0 .884.227 1.532.685 1.952.453.421 1.197.626 2.222.626.658 0 1.176-.14 1.559-.421s.572-.68.572-1.198z"/><path d="m56.069 61.211c0 1.526-.248 2.858-.755 3.996-.507 1.133-1.208 2.044-2.098 2.729l2.664 2.109-2.459 2.087-3.543-2.858c-.334.049-.663.07-.998.07-1.402 0-2.648-.324-3.737-.976-1.089-.647-1.936-1.575-2.54-2.783-.609-1.208-.928-2.599-.949-4.169v-.868c0-1.629.297-3.053.89-4.282.593-1.23 1.44-2.184 2.535-2.858 1.1-.669 2.362-1.003 3.781-1.003 1.397 0 2.643.329 3.737.992 1.095.669 1.947 1.613 2.551 2.837.609 1.23.917 2.632.922 4.217v.76zm-4.04-.691c0-1.634-.275-2.885-.82-3.732-.55-.847-1.332-1.273-2.351-1.273-1.052 0-1.839.415-2.368 1.257-.529.841-.798 2.066-.804 3.678v.76c0 1.623.264 2.869.804 3.732.534.868 1.332 1.3 2.389 1.3 1.014 0 1.785-.431 2.33-1.284.539-.852.809-2.082.82-3.678z"/><path d="m62.077 66.059h6.919v3.058h-10.894v-16.487h3.975z"/></g></g></g></svg>