<svg viewBox="0 0 96 96" xmlns="http://www.w3.org/2000/svg"><g id="Layer_1"/><g id="Layer_2"/><g id="Layer_3"/><g id="Layer_4"><g><path d="m81.826 34.586h-19.631c-4.111 0-7.456-3.344-7.456-7.453v-21.2c0-.793.484-1.505 1.22-1.796.739-.291 1.577-.108 2.121.469l25.153 26.723c.529.561.673 1.386.367 2.093-.306.705-1.003 1.164-1.774 1.164zm-23.22-23.778v16.325c0 1.979 1.61 3.592 3.589 3.592h15.157z"/><path d="m73.542 92h-51.084c-5.633 0-10.217-4.579-10.217-10.214v-67.57c0-5.636 4.584-10.214 10.217-10.214h34.215c.533 0 1.042.216 1.408.604l25.153 26.723c.337.361.526.836.526 1.327v49.131c-.001 5.634-4.585 10.213-10.218 10.213zm-51.084-84.137c-3.501 0-6.35 2.853-6.35 6.353v67.569c0 3.5 2.849 6.353 6.35 6.353h51.084c3.501 0 6.35-2.853 6.35-6.353v-48.364l-24.054-25.558z"/><g><path d="m34.58 69.117h-3.964v-16.492h3.964z"/><path d="m45.852 64.738c0-.582-.205-1.035-.615-1.359-.415-.329-1.138-.663-2.168-1.014-1.035-.345-1.882-.68-2.54-1.003-2.136-1.052-3.203-2.492-3.203-4.325 0-.917.264-1.726.798-2.421.534-.696 1.284-1.246 2.26-1.634.971-.388 2.066-.582 3.284-.582 1.186 0 2.249.216 3.187.636.938.421 1.672 1.025 2.19 1.807.523.782.782 1.677.782 2.68h-3.964c0-.674-.205-1.197-.615-1.564-.415-.372-.971-.555-1.672-.555-.712 0-1.273.156-1.683.469s-.615.712-.615 1.197c0 .421.227.804.68 1.149.453.34 1.246.696 2.389 1.062 1.138.367 2.076.76 2.81 1.186 1.78 1.025 2.67 2.438 2.67 4.244 0 1.44-.545 2.572-1.629 3.398-1.089.825-2.578 1.235-4.476 1.235-1.332 0-2.546-.237-3.63-.723-1.084-.475-1.898-1.133-2.443-1.963-.55-.841-.825-1.801-.825-2.885h3.991c0 .879.227 1.537.685 1.952.453.421 1.197.631 2.222.631.658 0 1.176-.14 1.559-.426.382-.286.571-.685.571-1.192z"/><path d="m65.827 61.211c0 1.607-.297 3.031-.895 4.271-.593 1.24-1.44 2.19-2.54 2.858s-2.351 1.003-3.754 1.003c-1.408 0-2.653-.324-3.737-.971-1.089-.642-1.936-1.564-2.546-2.767-.604-1.203-.928-2.578-.955-4.136v-.928c0-1.618.297-3.042.89-4.271.593-1.24 1.44-2.19 2.546-2.858 1.106-.68 2.368-1.014 3.781-1.014 1.397 0 2.643.334 3.737.998 1.095.663 1.941 1.613 2.551 2.837.609 1.23.917 2.637.922 4.223zm-4.039-.69c0-1.639-.275-2.88-.825-3.732-.545-.852-1.327-1.273-2.346-1.273-1.995 0-3.047 1.494-3.16 4.487l-.011 1.208c0 1.618.264 2.858.804 3.727.534.868 1.332 1.3 2.389 1.3 1.003 0 1.774-.421 2.319-1.273.545-.857.82-2.082.831-3.683v-.761z"/></g></g></g></svg>