<svg viewBox="0 0 96 96" xmlns="http://www.w3.org/2000/svg"><g id="Layer_1"/><g id="Layer_2"/><g id="Layer_3"/><g id="Layer_4"><g><path d="m81.824 34.589h-19.628c-4.111 0-7.455-3.343-7.455-7.453v-21.204c0-.793.484-1.505 1.221-1.796.733-.291 1.576-.108 2.119.469l25.15 26.726c.528.566.673 1.386.367 2.092-.306.708-1.003 1.166-1.774 1.166zm-23.217-23.782v16.329c0 1.979 1.61 3.592 3.589 3.592h15.155z"/><path d="m73.541 92h-51.082c-5.633 0-10.217-4.578-10.217-10.214v-67.571c0-5.635 4.584-10.214 10.217-10.214h34.214c.533 0 1.042.216 1.408.604l25.15 26.726c.337.361.526.836.526 1.327v49.128c0 5.636-4.584 10.214-10.216 10.214zm-51.082-84.137c-3.501 0-6.35 2.853-6.35 6.353v67.571c0 3.5 2.849 6.353 6.35 6.353h51.081c3.501 0 6.35-2.853 6.35-6.353v-48.363l-24.051-25.561z"/><g><path d="m27.55 69.113v-16.485h5.312c1.456 0 2.766.329 3.931.987 1.159.663 2.071 1.596 2.723 2.804.653 1.197.981 2.551.987 4.045v.76c0 1.51-.318 2.864-.955 4.061s-1.537 2.13-2.696 2.804c-1.159.679-2.454 1.019-3.877 1.025h-5.425zm3.975-13.417v10.365h1.381c1.143 0 2.017-.41 2.626-1.219.615-.809.922-2.017.922-3.619v-.717c0-1.591-.307-2.793-.922-3.602-.609-.804-1.499-1.208-2.669-1.208z"/><path d="m51.672 66.039h-5.447l-.955 3.074h-4.244l6.045-16.486h3.737l6.094 16.486h-4.271zm-4.498-3.073h3.543l-1.774-5.716z"/><path d="m69.689 55.696h-4.945v13.417h-3.98v-13.417h-4.854v-3.068h13.778v3.068z"/></g></g></g></svg>