<svg viewBox="0 0 96 96" xmlns="http://www.w3.org/2000/svg"><g id="Layer_1"/><g id="Layer_2"/><g id="Layer_3"/><g id="Layer_4"><g><path d="m81.824 34.588h-19.63c-4.111 0-7.456-3.344-7.456-7.453v-21.204c0-.793.484-1.505 1.221-1.796.733-.291 1.576-.102 2.119.469l25.152 26.727c.528.566.673 1.386.367 2.092-.305.707-1.002 1.165-1.773 1.165zm-23.218-23.782v16.329c0 1.979 1.61 3.592 3.589 3.592h15.156z"/><path d="m73.541 92h-51.082c-5.633 0-10.217-4.578-10.217-10.214v-67.572c0-5.635 4.584-10.214 10.217-10.214h34.213c.533 0 1.042.216 1.408.604l25.152 26.727c.337.361.526.836.526 1.327v49.128c0 5.636-4.584 10.214-10.217 10.214zm-51.082-84.138c-3.501 0-6.35 2.853-6.35 6.353v67.572c0 3.5 2.849 6.353 6.35 6.353h51.082c3.501 0 6.35-2.853 6.35-6.353v-48.363l-24.053-25.562z"/><g><path d="m35.617 66.034h-5.447l-.955 3.079h-4.244l6.045-16.491h3.737l6.094 16.491h-4.271zm-4.497-3.069h3.543l-1.774-5.722z"/><path d="m46.02 63.515v5.598h-3.974v-16.491h6.579c1.262 0 2.378.237 3.349.701s1.72 1.122 2.254 1.979c.528.857.798 1.828.798 2.917 0 1.607-.577 2.891-1.731 3.856-1.149.965-2.729 1.44-4.74 1.44zm0-3.063h2.605c.771 0 1.359-.194 1.763-.582.404-.383.604-.928.604-1.629 0-.771-.21-1.386-.626-1.844-.415-.464-.981-.696-1.699-.701h-2.647z"/><path d="m62.749 62.976-1.629 1.79v4.347h-3.974v-16.491h3.974v7.269l1.381-2.092 3.559-5.177h4.913l-5.571 7.296 5.571 9.195h-4.713z"/></g></g></g></svg>