<svg viewBox="0 0 96 96" xmlns="http://www.w3.org/2000/svg"><g id="Layer_1"/><g id="Layer_2"/><g id="Layer_3"/><g id="Layer_4"><g><path d="m81.826 34.586h-19.631c-4.111 0-7.456-3.344-7.456-7.453v-21.2c0-.793.484-1.505 1.22-1.796.737-.291 1.579-.108 2.121.469l25.153 26.723c.529.561.673 1.386.367 2.093-.306.705-1.003 1.164-1.774 1.164zm-23.22-23.778v16.325c0 1.979 1.61 3.592 3.589 3.592h15.157z"/><path d="m81.826 34.586h-19.631c-4.111 0-7.456-3.344-7.456-7.453v-21.2h3.867v21.2c0 1.979 1.61 3.592 3.589 3.592h19.631z"/><path d="m73.542 92h-51.084c-5.633 0-10.217-4.579-10.217-10.214v-67.57c0-5.636 4.584-10.214 10.217-10.214h34.215c.533 0 1.042.216 1.408.604l25.153 26.723c.337.361.526.836.526 1.327v49.131c-.001 5.634-4.585 10.213-10.218 10.213zm-51.084-84.137c-3.501 0-6.35 2.853-6.35 6.353v67.569c0 3.5 2.849 6.353 6.35 6.353h51.084c3.501 0 6.35-2.853 6.35-6.353v-48.364l-24.054-25.558z"/><g><path d="m29.907 52.625 3.683 11.476 3.667-11.476h5.231v16.492h-3.985v-3.851l.383-7.885-3.985 11.735h-2.626l-3.996-11.746.383 7.895v3.851h-3.975v-16.491z"/><path d="m48.988 63.519v5.598h-3.975v-16.492h6.58c1.262 0 2.378.237 3.349.701s1.72 1.122 2.254 1.979c.529.857.798 1.828.798 2.918 0 1.607-.577 2.891-1.731 3.856-1.149.965-2.729 1.44-4.74 1.44zm0-3.063h2.605c.771 0 1.359-.194 1.764-.582.404-.383.604-.928.604-1.629 0-.771-.21-1.386-.626-1.844-.415-.464-.982-.696-1.699-.701h-2.648z"/><path d="m69.956 62.673h1.677v2.945h-1.677v3.5h-3.818v-3.5h-6.375l-.227-2.335 6.601-10.624v-.032h3.818v10.046zm-6.785 0h2.966v-5.075l-.237.388z"/></g></g></g></svg>