<svg viewBox="0 0 96 96" xmlns="http://www.w3.org/2000/svg"><g id="Layer_1"/><g id="Layer_2"/><g id="Layer_3"/><g id="Layer_4"><g><path d="m81.824 34.589h-19.63c-4.111 0-7.455-3.343-7.455-7.453v-21.204c0-.793.484-1.505 1.221-1.796.733-.291 1.576-.108 2.119.469l25.152 26.726c.528.566.673 1.386.367 2.092-.306.708-1.003 1.166-1.774 1.166zm-23.219-23.782v16.329c0 1.979 1.61 3.592 3.589 3.592h15.156z"/><path d="m81.824 34.589h-19.63c-4.111 0-7.455-3.343-7.455-7.453v-21.204h3.867v21.204c0 1.979 1.61 3.592 3.589 3.592h19.629z"/><path d="m73.541 92h-51.082c-5.633 0-10.217-4.578-10.217-10.214v-67.571c0-5.635 4.584-10.214 10.217-10.214h34.213c.533 0 1.042.216 1.407.604l25.152 26.726c.337.361.526.836.526 1.327v49.128c0 5.636-4.584 10.214-10.216 10.214zm-51.082-84.137c-3.501 0-6.35 2.853-6.35 6.353v67.571c0 3.5 2.849 6.353 6.35 6.353h51.081c3.501 0 6.35-2.853 6.35-6.353v-48.363l-24.052-25.561z"/><g><path d="m26.098 70.321v-16.491h5.312c1.456 0 2.766.334 3.931.992 1.159.658 2.071 1.596 2.723 2.799.653 1.203.981 2.551.987 4.05v.755c0 1.51-.318 2.869-.955 4.061-.636 1.197-1.537 2.13-2.696 2.81s-2.454 1.014-3.877 1.025h-5.425zm3.975-13.417v10.359h1.381c1.143 0 2.017-.404 2.626-1.213.615-.814.922-2.022.922-3.624v-.712c0-1.596-.307-2.793-.922-3.602-.609-.809-1.499-1.208-2.669-1.208z"/><path d="m55.052 62.416c0 1.607-.297 3.031-.895 4.271-.593 1.24-1.44 2.189-2.54 2.858s-2.351 1.003-3.753 1.003c-1.407 0-2.653-.324-3.737-.971-1.089-.642-1.936-1.564-2.545-2.766-.604-1.203-.928-2.578-.955-4.136v-.928c0-1.618.297-3.041.89-4.271.593-1.24 1.44-2.189 2.545-2.858 1.106-.679 2.367-1.014 3.78-1.014 1.397 0 2.642.334 3.737.998 1.095.663 1.941 1.612 2.551 2.837.609 1.23.917 2.637.922 4.222zm-4.039-.691c0-1.639-.275-2.88-.825-3.732-.545-.852-1.327-1.273-2.346-1.273-1.995 0-3.047 1.494-3.16 4.487l-.011 1.208c0 1.618.264 2.858.804 3.726.534.868 1.332 1.3 2.389 1.3 1.003 0 1.774-.421 2.319-1.273.545-.857.82-2.082.83-3.683z"/><path d="m70.448 64.734c-.054 1.154-.361 2.168-.928 3.041-.566.884-1.364 1.564-2.384 2.049-1.025.48-2.195.723-3.505.723-2.168 0-3.877-.706-5.123-2.114-1.246-1.413-1.866-3.408-1.866-5.986v-.809c0-1.618.28-3.031.841-4.244.566-1.213 1.375-2.152 2.432-2.81s2.281-.992 3.667-.992c2.001 0 3.608.528 4.826 1.585 1.213 1.046 1.904 2.502 2.071 4.347h-3.964c-.032-1.003-.28-1.72-.76-2.157-.475-.442-1.197-.658-2.173-.658-.987 0-1.715.367-2.173 1.111-.458.739-.701 1.92-.723 3.543v1.165c0 1.763.221 3.015.658 3.77.442.755 1.203 1.132 2.287 1.132.911 0 1.607-.216 2.092-.642.485-.431.739-1.116.771-2.055h3.954z"/></g></g></g></svg>