<svg width="24" height="24" viewBox="0 0 24 24" fill="none" xmlns="http://www.w3.org/2000/svg">
<path fill-rule="evenodd" clip-rule="evenodd" d="M13.15 3.85002C13.1059 3.84997 13.0599 3.84995 13.0118 3.84995H9.80002C8.94592 3.84995 8.35646 3.85061 7.89885 3.888C7.45116 3.92457 7.20502 3.99202 7.02395 4.08428C6.6194 4.29041 6.29049 4.61932 6.08436 5.02387C5.9921 5.20494 5.92465 5.45108 5.88807 5.89877C5.85069 6.35638 5.85002 6.94584 5.85002 7.79995V16.1999C5.85002 17.0541 5.85069 17.6435 5.88807 18.1011C5.92465 18.5488 5.9921 18.795 6.08436 18.976C6.29049 19.3806 6.6194 19.7095 7.02395 19.9156C7.20502 20.0079 7.45116 20.0753 7.89885 20.1119C8.35646 20.1493 8.94592 20.1499 9.80003 20.1499H14.2C15.0541 20.1499 15.6436 20.1493 16.1012 20.1119C16.5489 20.0753 16.795 20.0079 16.9761 19.9156C17.3807 19.7095 17.7096 19.3806 17.9157 18.976C18.0079 18.795 18.0754 18.5488 18.112 18.1011C18.1494 17.6435 18.15 17.054 18.15 16.1999V8.98817C18.15 8.94014 18.15 8.89413 18.15 8.85003H17.2L17.1662 8.85003H17.1662C16.6349 8.85004 16.1856 8.85005 15.8172 8.81996C15.4311 8.78842 15.0599 8.71962 14.7062 8.5394C14.1699 8.26616 13.7339 7.83016 13.4607 7.2939C13.2804 6.94019 13.2116 6.56891 13.1801 6.18284C13.15 5.81448 13.15 5.36509 13.15 4.83382V4.83381V4.80003V3.85002ZM17.8517 7.15003C17.8456 7.13971 17.8395 7.12944 17.8332 7.11921C17.7125 6.9222 17.5406 6.74256 16.9931 6.1951L15.8049 5.00687C15.2574 4.45941 15.0778 4.2875 14.8808 4.16677C14.8706 4.16052 14.8603 4.15436 14.85 4.14829V4.80003C14.85 5.37411 14.8507 5.75355 14.8744 6.04441C14.8974 6.32535 14.9376 6.448 14.9754 6.52212C15.0856 6.7385 15.2615 6.91443 15.4779 7.02469C15.552 7.06245 15.6747 7.10265 15.9556 7.1256C16.2465 7.14937 16.6259 7.15003 17.2 7.15003H17.8517ZM14.6561 2.25632C14.2113 2.14952 13.7488 2.14969 13.1043 2.14992L13.0118 2.14995H9.80002L9.76416 2.14995C8.95453 2.14994 8.29543 2.14993 7.76041 2.19364C7.20759 2.23881 6.71283 2.33485 6.25216 2.56957C5.52774 2.93868 4.93876 3.52766 4.56965 4.25208C4.33493 4.71275 4.23889 5.20751 4.19372 5.76033C4.15001 6.29535 4.15002 6.95445 4.15002 7.76408L4.15002 7.79995V16.1999L4.15002 16.2358C4.15002 17.0454 4.15001 17.7045 4.19372 18.2396C4.23889 18.7924 4.33493 19.2871 4.56965 19.7478C4.93876 20.4722 5.52774 21.0612 6.25216 21.4303C6.71283 21.665 7.20759 21.7611 7.76041 21.8063C8.29545 21.85 8.95457 21.85 9.76422 21.8499H9.80003H14.2H14.2358C15.0455 21.85 15.7046 21.85 16.2396 21.8063C16.7925 21.7611 17.2872 21.665 17.7479 21.4303C18.4723 21.0612 19.0613 20.4722 19.4304 19.7478C19.6651 19.2871 19.7612 18.7924 19.8063 18.2396C19.85 17.7045 19.85 17.0454 19.85 16.2358V16.1999V8.98817L19.85 8.89565V8.89564C19.8503 8.25114 19.8504 7.78866 19.7436 7.34382C19.6493 6.95098 19.4938 6.57544 19.2827 6.23097C19.0437 5.8409 18.7165 5.51399 18.2606 5.05842L18.1952 4.99302L17.007 3.80479L16.9415 3.73935C16.486 3.28346 16.1591 2.95631 15.769 2.71728C15.4245 2.50619 15.049 2.35063 14.6561 2.25632Z" fill="#6B7280"/>
</svg>
