<svg viewBox="0 0 96 96" xmlns="http://www.w3.org/2000/svg"><g id="Layer_1"/><g id="Layer_2"/><g id="Layer_3"/><g id="Layer_4"><g><path d="m81.823 34.59h-19.629c-4.111 0-7.455-3.343-7.455-7.453v-21.204c0-.793.484-1.505 1.221-1.796.732-.297 1.577-.102 2.119.469l25.151 26.726c.528.566.673 1.386.367 2.092-.306.708-1.003 1.166-1.774 1.166zm-23.218-23.782v16.329c0 1.979 1.61 3.591 3.589 3.591h15.156z"/><path d="m73.54 92h-51.08c-5.633 0-10.216-4.578-10.216-10.214v-67.57c0-5.635 4.584-10.214 10.216-10.214h34.212c.533 0 1.042.216 1.407.604l25.151 26.726c.337.361.526.836.526 1.327v49.127c.001 5.636-4.583 10.214-10.216 10.214zm-51.08-84.136c-3.501 0-6.35 2.853-6.35 6.353v67.57c0 3.5 2.849 6.353 6.35 6.353h51.08c3.501 0 6.35-2.853 6.35-6.353v-48.362l-24.052-25.561z"/><g><path d="m33.714 52.628h3.964v11.314c0 1.046-.243 1.984-.728 2.804-.491.82-1.17 1.461-2.038 1.914-.874.453-1.844.679-2.917.679-1.796 0-3.192-.453-4.19-1.359s-1.494-2.189-1.494-3.85h3.985c0 .755.129 1.3.388 1.645.264.334.696.507 1.31.507.55 0 .976-.205 1.273-.615s.448-.992.448-1.726v-11.313z"/><path d="m44.154 63.521v5.592h-3.974v-16.485h6.579c1.262 0 2.378.226 3.349.69s1.72 1.127 2.254 1.984c.528.857.798 1.828.798 2.917 0 1.607-.577 2.896-1.731 3.856-1.149.96-2.729 1.445-4.74 1.445h-2.535zm0-3.073h2.605c.771 0 1.359-.189 1.763-.572.404-.388.604-.933.604-1.634 0-.771-.21-1.386-.626-1.85-.415-.453-.981-.69-1.699-.701h-2.648v4.757z"/><path d="m68.772 67.075c-.609.679-1.505 1.224-2.686 1.645-1.176.41-2.464.62-3.872.62-2.157 0-3.883-.663-5.172-1.979-1.294-1.327-1.984-3.16-2.076-5.517l-.011-1.429c0-1.623.286-3.041.863-4.249.572-1.213 1.391-2.146 2.464-2.799 1.068-.653 2.303-.976 3.705-.976 2.055 0 3.651.464 4.789 1.407 1.132.938 1.796 2.34 1.984 4.206h-3.829c-.135-.922-.431-1.58-.884-1.968-.453-.399-1.095-.593-1.925-.593-.992 0-1.763.421-2.308 1.273-.545.841-.82 2.049-.825 3.624v.992c0 1.65.28 2.885.841 3.71.566.83 1.451 1.24 2.659 1.24 1.03 0 1.801-.226 2.308-.69v-2.556h-2.761v-2.734h6.735v6.773z"/></g></g></g></svg>