<svg width="24" height="24" viewBox="0 0 24 24" fill="none" xmlns="http://www.w3.org/2000/svg">
<path d="M6 22H3.33333C2.97971 22 2.64057 21.8595 2.39052 21.6095C2.14048 21.3594 2 21.0203 2 20.6667V3.33333C2 2.97971 2.14048 2.64057 2.39052 2.39052C2.64057 2.14048 2.97971 2 3.33333 2H12.7813C12.9565 2.00004 13.13 2.0346 13.2918 2.10171C13.4536 2.16882 13.6006 2.26716 13.7244 2.39111L18.9431 7.60978C19.0669 7.73365 19.1651 7.8807 19.232 8.04252C19.299 8.20434 19.3334 8.37776 19.3333 8.55289V12.6667" stroke="#6B7280" stroke-width="1.5" stroke-linecap="round" stroke-linejoin="round"/>
<path d="M19.3333 8.66667H14C13.6463 8.66667 13.3072 8.52619 13.0572 8.27614C12.8071 8.02609 12.6666 7.68696 12.6666 7.33333V2" stroke="#6B7280" stroke-width="1.5" stroke-linecap="round" stroke-linejoin="round"/>
<path d="M8.66663 21.9997V15.333" stroke="#6B7280" stroke-width="1.5" stroke-linecap="round" stroke-linejoin="round"/>
<path d="M8.66663 15.333H9.33685C9.86728 15.333 10.376 15.5437 10.7511 15.9188C11.1261 16.2939 11.3368 16.8026 11.3368 17.333C11.3368 17.8634 11.1261 18.3721 10.7511 18.7472C10.376 19.1223 9.86728 19.333 9.33685 19.333H8.67018" stroke="#6B7280" stroke-width="1.5" stroke-linecap="round" stroke-linejoin="round"/>
<path d="M14 21.9997C14.7072 21.9997 15.3855 21.7187 15.8856 21.2186C16.3857 20.7185 16.6667 20.0403 16.6667 19.333V17.9997C16.6667 17.2924 16.3857 16.6142 15.8856 16.1141C15.3855 15.614 14.7072 15.333 14 15.333V21.9997Z" stroke="#6B7280" stroke-width="1.5" stroke-linecap="round" stroke-linejoin="round"/>
<path d="M19.3334 21.9997V16.6663C19.3334 16.3127 19.4738 15.9736 19.7239 15.7235C19.9739 15.4735 20.3131 15.333 20.6667 15.333H22" stroke="#6B7280" stroke-width="1.5" stroke-linecap="round" stroke-linejoin="round"/>
<path d="M19.3334 19.333H21.3334" stroke="#6B7280" stroke-width="1.5" stroke-linecap="round" stroke-linejoin="round"/>
</svg>
