<svg viewBox="0 0 96 96" xmlns="http://www.w3.org/2000/svg"><g id="Layer_1"/><g id="Layer_2"/><g id="Layer_3"/><g id="Layer_4"><g><path d="m81.824 34.589h-19.63c-4.111 0-7.455-3.343-7.455-7.453v-21.204c0-.793.484-1.505 1.221-1.796.733-.291 1.576-.108 2.119.469l25.152 26.726c.528.566.673 1.386.367 2.092-.306.708-1.003 1.166-1.774 1.166zm-23.219-23.782v16.329c0 1.979 1.61 3.592 3.589 3.592h15.156z"/><path d="m73.541 92h-51.082c-5.633 0-10.217-4.578-10.217-10.214v-67.571c0-5.635 4.584-10.214 10.217-10.214h34.213c.533 0 1.042.216 1.407.604l25.152 26.726c.337.361.526.836.526 1.327v49.128c0 5.636-4.584 10.214-10.216 10.214zm-51.082-84.137c-3.501 0-6.35 2.853-6.35 6.353v67.571c0 3.5 2.849 6.353 6.35 6.353h51.081c3.501 0 6.35-2.853 6.35-6.353v-48.363l-24.052-25.561z"/><g><path d="m29.497 63.521v5.598h-3.974v-16.491h6.579c1.262 0 2.378.232 3.349.696s1.72 1.127 2.254 1.979c.528.863.798 1.834.798 2.923 0 1.607-.577 2.89-1.731 3.85-1.149.965-2.729 1.445-4.74 1.445zm0-3.068h2.605c.771 0 1.359-.189 1.763-.577s.604-.928.604-1.629c0-.777-.21-1.391-.626-1.85-.415-.458-.981-.696-1.699-.701h-2.648v4.757z"/><path d="m54.39 69.119h-3.953l-5.846-10.262v10.262h-3.974v-16.491h3.974l5.835 10.257v-10.257h3.964z"/><path d="m70.401 67.08c-.609.679-1.505 1.224-2.686 1.639-1.176.415-2.464.626-3.872.626-2.157 0-3.883-.663-5.172-1.985-1.294-1.321-1.985-3.16-2.076-5.511l-.011-1.434c0-1.618.286-3.036.863-4.249.572-1.208 1.391-2.146 2.464-2.793 1.068-.658 2.303-.981 3.705-.981 2.055 0 3.651.469 4.789 1.413 1.132.938 1.796 2.34 1.985 4.206h-3.829c-.135-.928-.431-1.58-.884-1.974s-1.095-.588-1.925-.588c-.992 0-1.763.421-2.308 1.267-.545.847-.82 2.055-.825 3.624v.998c0 1.645.28 2.885.841 3.705.566.83 1.451 1.24 2.659 1.24 1.03 0 1.801-.226 2.308-.69v-2.556h-2.761v-2.729h6.736v6.772z"/></g></g></g></svg>