<svg viewBox="0 0 96 96" xmlns="http://www.w3.org/2000/svg"><g id="Layer_1"/><g id="Layer_2"/><g id="Layer_3"/><g id="Layer_4"><g><path d="m81.824 34.588h-19.629c-4.111 0-7.455-3.344-7.455-7.453v-21.204c0-.793.483-1.505 1.22-1.796.736-.291 1.577-.102 2.12.469l25.151 26.727c.528.566.673 1.386.367 2.092s-1.003 1.165-1.774 1.165zm-23.219-23.782v16.329c0 1.979 1.61 3.592 3.59 3.592h15.156z"/><path d="m73.541 92h-51.082c-5.633 0-10.216-4.578-10.216-10.214v-67.572c0-5.635 4.583-10.214 10.216-10.214h34.214c.533 0 1.042.216 1.408.604l25.151 26.727c.337.361.525.836.525 1.327v49.128c0 5.636-4.583 10.214-10.216 10.214zm-51.082-84.138c-3.502 0-6.351 2.853-6.351 6.353v67.572c0 3.5 2.849 6.353 6.351 6.353h51.082c3.502 0 6.351-2.853 6.351-6.353v-48.363l-24.054-25.562z"/><g><path d="m31.126 65.112v5.592h-3.974v-16.486h6.579c1.262 0 2.378.226 3.349.69s1.72 1.127 2.254 1.985c.528.857.798 1.828.798 2.917 0 1.607-.577 2.896-1.731 3.856-1.149.96-2.729 1.445-4.74 1.445h-2.535zm0-3.074h2.605c.771 0 1.359-.189 1.763-.572.404-.388.604-.933.604-1.634 0-.771-.21-1.386-.626-1.85-.415-.453-.981-.69-1.699-.701h-2.648v4.757z"/><path d="m46.22 65.112v5.592h-3.974v-16.486h6.579c1.262 0 2.378.226 3.349.69s1.72 1.127 2.254 1.985c.528.857.798 1.828.798 2.917 0 1.607-.577 2.896-1.731 3.856-1.149.96-2.729 1.445-4.74 1.445h-2.535zm0-3.074h2.605c.771 0 1.359-.189 1.763-.572.404-.388.604-.933.604-1.634 0-.771-.21-1.386-.626-1.85-.415-.453-.981-.69-1.699-.701h-2.647z"/><path d="m70.288 57.281h-4.945v13.423h-3.98v-13.423h-4.853v-3.063h13.779v3.063z"/></g></g></g></svg>