<svg width="24" height="24" viewBox="0 0 24 24" fill="none" xmlns="http://www.w3.org/2000/svg">
<path fill-rule="evenodd" clip-rule="evenodd" d="M8.40002 3.15039L8.36303 3.15039C7.27429 3.15038 6.40534 3.15038 5.70361 3.20771C4.98404 3.2665 4.36579 3.38979 3.79817 3.67901C2.88558 4.144 2.14363 4.88595 1.67864 5.79854C1.38942 6.36616 1.26614 6.98441 1.20734 7.70398C1.15001 8.4057 1.15002 9.27466 1.15002 10.3634L1.15002 10.4004L1.15003 13.6004L1.15003 13.6374C1.15002 14.7261 1.15001 15.5951 1.20735 16.2968C1.26614 17.0164 1.38943 17.6346 1.67864 18.2022C2.14363 19.1148 2.88559 19.8568 3.79817 20.3218C4.36579 20.611 4.98404 20.7343 5.70362 20.7931C6.40535 20.8504 7.27432 20.8504 8.3631 20.8504H8.40003L11.6 20.8504H11.637C12.7257 20.8504 13.5947 20.8504 14.2964 20.7931C15.016 20.7343 15.6343 20.611 16.2019 20.3218C17.1145 19.8568 17.8564 19.1148 18.3214 18.2022C18.5647 17.7248 18.6905 17.2116 18.7594 16.6324L19.89 17.4804C21.1096 18.3951 22.85 17.5249 22.85 16.0004L22.85 8.00034C22.85 6.47584 21.1096 5.60564 19.89 6.52036L18.7594 7.36835C18.6905 6.78916 18.5647 6.27594 18.3214 5.79854C17.8564 4.88595 17.1145 4.14399 16.2019 3.67901C15.6343 3.38979 15.016 3.2665 14.2964 3.20771C13.5947 3.15038 12.7258 3.15038 11.637 3.15039L11.6 3.15039L8.40002 3.15039ZM18.85 10.3635C18.85 10.324 18.85 10.2849 18.85 10.2461V10.2353V10.224V10.2128V10.2015V10.1902V10.179V10.1677V10.1565V10.1452V10.134V10.1228V10.1115V10.1003V10.0891V10.0778V10.0666V10.0554V10.0442V10.033V10.0217V10.0105V9.99934V9.98814V9.97694V9.96576V9.95457V9.94339V9.93221V9.92104V9.90987V9.89871V9.88755V9.87639V9.86524V9.85409V9.84295V9.83182V9.82069V9.80956V9.79844V9.78732V9.77621V9.7651V9.754V9.74291V9.73182V9.72074V9.70966V9.69858V9.68752V9.67646V9.6654V9.65435V9.64331V9.63227V9.62124V9.61021V9.59919V9.58818V9.57717V9.56617V9.55518V9.54419V9.53321V9.52224V9.51127V9.50032C18.85 9.45317 18.8722 9.40876 18.91 9.38039L20.91 7.88034C21.0089 7.80618 21.15 7.87673 21.15 8.00034L21.15 16.0004C21.15 16.124 21.0089 16.1946 20.91 16.1204L18.91 14.6204C18.871 14.5911 18.85 14.5477 18.85 14.5021V14.4965V14.4908V14.4851V14.4794V14.4737V14.4679V14.4621V14.4563V14.4504V14.4445V14.4386V14.4327V14.4267V14.4207V14.4147V14.4087V14.4026V14.3965V14.3904V14.3843V14.3781V14.3719V14.3656V14.3594V14.3531V14.3468V14.3405V14.3341V14.3277V14.3213V14.3149V14.3084V14.3019V14.2954V14.2889V14.2823V14.2757V14.2691V14.2625V14.2558V14.2491V14.2424V14.2357V14.2289V14.2221V14.2153V14.2085V14.2016V14.1947V14.1878V14.1809V14.1739V14.1669V14.1599V14.1529V14.1459V14.1388V14.1317V14.1245V14.1174V14.1102V14.103V14.0958V14.0885V14.0813V14.074V14.0667V14.0593V14.052V14.0446V14.0372V14.0297V14.0223V14.0148V14.0073V13.9998V13.9922V13.9847V13.9771V13.9694V13.9618V13.9542V13.9465V13.9388V13.931V13.9233V13.9155V13.9077V13.8999V13.8921V13.8842V13.8764V13.8685V13.8605V13.8526V13.8446V13.8367V13.8286V13.8206V13.8126V13.8045V13.7964V13.7883V13.7802V13.772V13.7638V13.7557V13.7474V13.7392V13.7309V13.7227V13.7144V13.7061V13.7022M18.85 10.3635L18.85 10.3706V10.3819V10.3932L18.85 10.4004L18.85 10.4045V10.4158V10.4271V10.4384V10.4497V10.461V10.4723V10.4836V10.4949V10.5062V10.5175V10.5288V10.5401V10.5515V10.5628V10.5741V10.5854V10.5967V10.608V10.6193V10.6306V10.6419V10.6532V10.6646V10.6759V10.6872V10.6985V10.7098V10.7211V10.7324V10.7437V10.755V10.7663V10.7777V10.789V10.8003V10.8116V10.8229V10.8342V10.8455V10.8568V10.8681V10.8794V10.8907V10.902V10.9133V10.9245V10.9358V10.9471V10.9584V10.9697V10.981V10.9923V11.0035V11.0148V11.0261V11.0373V11.0486V11.0599V11.0711V11.0824V11.0937V11.1049V11.1162V11.1274V11.1387V11.1499V11.1612V11.1724V11.1836V11.1949V11.2061V11.2173V11.2285V11.2398V11.251V11.2622V11.2734V11.2846V11.2958V11.307V11.3182V11.3294V11.3406V11.3517V11.3629V11.3741V11.3853V11.3964V11.4076V11.4187V11.4299V11.441V11.4522V11.4633V11.4744V11.4855V11.4967V11.5078V11.5189V11.53V11.5411V11.5522V11.5633V11.5744V11.5854V11.5965V11.6076V11.6186V11.6297V11.6407V11.6518V11.6628V11.6738V11.6849V11.6959V11.7069V11.7179V11.7289V11.7399V11.7509V11.7618V11.7728V11.7838V11.7947V11.8057V11.8166V11.8276V11.8385V11.8494V11.8603V11.8712V11.8821V11.893V11.9039V11.9148V11.9256V11.9365V11.9474V11.9582V11.969V11.9799V11.9907V12.0015V12.0123V12.0231V12.0339V12.0447V12.0554V12.0662V12.077V12.0877V12.0984V12.1092V12.1199V12.1306V12.1413V12.152V12.1627V12.1733V12.184V12.1947V12.2053V12.2159V12.2266V12.2372V12.2478V12.2584V12.269V12.2795V12.2901V12.3007V12.3112V12.3217V12.3323V12.3428V12.3533V12.3638V12.3743V12.3847V12.3952V12.4057V12.4161V12.4265V12.4369V12.4473V12.4577V12.4681V12.4785V12.4889V12.4992V12.5096V12.5199V12.5302V12.5405V12.5508V12.5611V12.5714V12.5816V12.5919V12.6021V12.6123V12.6225V12.6327V12.6429V12.6531V12.6632V12.6734V12.6835V12.6936V12.7038V12.7139V12.7239V12.734V12.7441V12.7541V12.7641V12.7742V12.7842V12.7942V12.8041V12.8141V12.8241V12.834V12.8439V12.8538V12.8637V12.8736V12.8835V12.8933V12.9032V12.913V12.9228V12.9326V12.9424V12.9522V12.9619V12.9717V12.9814V12.9911V13.0008V13.0105V13.0201V13.0298V13.0394V13.0491V13.0587V13.0683V13.0778V13.0874V13.0969V13.1065V13.116V13.1255V13.135V13.1444V13.1539V13.1633V13.1727V13.1821V13.1915V13.2009V13.2102V13.2196V13.2289V13.2382V13.2475V13.2568V13.266V13.2753V13.2845V13.2937V13.3029V13.3121V13.3212V13.3303V13.3395V13.3486V13.3577V13.3667V13.3758V13.3848V13.3938V13.4028V13.4118V13.4208V13.4297V13.4386V13.4475V13.4564V13.4653V13.4742V13.483V13.4918L18.85 13.5006V13.5094V13.5181V13.5269V13.5356V13.5443V13.553V13.5617V13.5703V13.5789V13.5876V13.5961V13.6004V13.6047V13.6133V13.6218V13.6303V13.6373M17.15 10.4004C17.15 9.26626 17.1494 8.46678 17.0984 7.84242C17.0481 7.22797 16.9535 6.85835 16.8067 6.57032C16.5047 5.97761 16.0228 5.49572 15.4301 5.19372C15.1421 5.04696 14.7724 4.95227 14.158 4.90206C13.5336 4.85105 12.7342 4.85039 11.6 4.85039L8.40002 4.85039C7.26589 4.85039 6.46642 4.85105 5.84205 4.90207C5.2276 4.95227 4.85798 5.04697 4.56995 5.19372C3.97724 5.49572 3.49535 5.97761 3.19335 6.57032C3.0466 6.85835 2.9519 7.22797 2.9017 7.84242C2.85069 8.46678 2.85002 9.26626 2.85002 10.4004L2.85003 13.6004C2.85003 14.7345 2.85069 15.534 2.9017 16.1584C2.9519 16.7728 3.0466 17.1424 3.19336 17.4305C3.49536 18.0232 3.97725 18.5051 4.56996 18.8071C4.85798 18.9538 5.22761 19.0485 5.84205 19.0987C6.46642 19.1497 7.2659 19.1504 8.40003 19.1504H11.6C12.7342 19.1504 13.5336 19.1497 14.158 19.0987C14.7724 19.0485 15.1421 18.9538 15.4301 18.8071C16.0228 18.5051 16.5047 18.0232 16.8067 17.4305C16.9535 17.1424 17.0482 16.7728 17.0984 16.1584C17.1494 15.534 17.15 14.7345 17.15 13.6004V13.5961V13.5876V13.5789V13.5703V13.5617V13.553V13.5443V13.5356V13.5269V13.5181V13.5094V13.5006V13.4918V13.483V13.4742V13.4653V13.4564V13.4475V13.4386V13.4297V13.4208V13.4118V13.4028V13.3938V13.3848V13.3758V13.3667V13.3577V13.3486V13.3395V13.3303V13.3212V13.3121V13.3029V13.2937V13.2845V13.2753V13.266V13.2568V13.2475V13.2382V13.2289V13.2196V13.2102V13.2009V13.1915V13.1821V13.1727V13.1633V13.1539V13.1444V13.135V13.1255V13.116V13.1065V13.0969V13.0874V13.0778V13.0683V13.0587V13.0491V13.0394V13.0298V13.0201V13.0105V13.0008V12.9911V12.9814V12.9717V12.9619V12.9522V12.9424V12.9326V12.9228V12.913V12.9032V12.8933V12.8835V12.8736V12.8637V12.8538V12.8439V12.834V12.8241V12.8141V12.8041V12.7942V12.7842V12.7742V12.7641V12.7541V12.7441V12.734V12.7239V12.7139V12.7038V12.6936V12.6835V12.6734V12.6632V12.6531V12.6429V12.6327V12.6225V12.6123V12.6021V12.5919V12.5816V12.5714V12.5611V12.5508V12.5405V12.5302V12.5199V12.5096V12.4992V12.4889V12.4785V12.4681V12.4577V12.4473V12.4369V12.4265V12.4161V12.4057V12.3952V12.3847V12.3743V12.3638V12.3533V12.3428V12.3323V12.3217V12.3112V12.3007V12.2901V12.2795V12.269V12.2584V12.2478V12.2372V12.2266V12.2159V12.2053V12.1947V12.184V12.1733V12.1627V12.152V12.1413V12.1306V12.1199V12.1092V12.0984V12.0877V12.077V12.0662V12.0554V12.0447V12.0339V12.0231V12.0123V12.0015V11.9907V11.9799V11.969V11.9582V11.9474V11.9365V11.9256V11.9148V11.9039V11.893V11.8821V11.8712V11.8603V11.8494V11.8385V11.8276V11.8166V11.8057V11.7947V11.7838V11.7728V11.7618V11.7509V11.7399V11.7289V11.7179V11.7069V11.6959V11.6849V11.6738V11.6628V11.6518V11.6407V11.6297V11.6186V11.6076V11.5965V11.5854V11.5744V11.5633V11.5522V11.5411V11.53V11.5189V11.5078V11.4967V11.4855V11.4744V11.4633V11.4522V11.441V11.4299V11.4187V11.4076V11.3964V11.3853V11.3741V11.3629V11.3517V11.3406V11.3294V11.3182V11.307V11.2958V11.2846V11.2734V11.2622V11.251V11.2398V11.2285V11.2173V11.2061V11.1949V11.1836V11.1724V11.1612V11.1499V11.1387V11.1274V11.1162V11.1049V11.0937V11.0824V11.0711V11.0599V11.0486V11.0373V11.0261V11.0148V11.0035V10.9923V10.981V10.9697V10.9584V10.9471V10.9358V10.9245V10.9133V10.902V10.8907V10.8794V10.8681V10.8568V10.8455V10.8342V10.8229V10.8116V10.8003V10.789V10.7777V10.7663V10.755V10.7437V10.7324V10.7211V10.7098V10.6985V10.6872V10.6759V10.6646V10.6532V10.6419V10.6306V10.6193V10.608V10.5967V10.5854V10.5741V10.5628V10.5515V10.5401V10.5288V10.5175V10.5062V10.4949V10.4836V10.4723V10.461V10.4497V10.4384V10.4271V10.4158V10.4045V10.4004Z" fill="#6B7280"/>
</svg>
