<svg viewBox="0 0 96 96" xmlns="http://www.w3.org/2000/svg"><g id="Layer_1"/><g id="Layer_2"/><g id="Layer_3"/><g id="Layer_4"><g><path d="m81.826 34.586h-19.631c-4.111 0-7.455-3.344-7.455-7.453v-21.2c0-.793.483-1.505 1.22-1.796s1.577-.108 2.12.469l25.153 26.723c.529.561.673 1.386.367 2.093-.306.705-1.003 1.164-1.774 1.164zm-23.221-23.778v16.325c0 1.979 1.611 3.592 3.59 3.592h15.157z"/><path d="m73.542 92h-51.084c-5.634 0-10.216-4.579-10.216-10.214v-67.57c0-5.636 4.583-10.214 10.216-10.214h34.215c.533 0 1.042.216 1.408.604l25.153 26.723c.337.361.525.836.525 1.327v49.131c-.001 5.634-4.583 10.213-10.217 10.213zm-51.084-84.137c-3.502 0-6.351 2.853-6.351 6.353v67.569c0 3.5 2.849 6.353 6.351 6.353h51.084c3.502 0 6.351-2.853 6.351-6.353v-48.364l-24.056-25.558z"/><g><path d="m34.315 58.105 2.697-5.479h4.541l-4.611 8.176 4.735 8.316h-4.584l-2.777-5.587-2.772 5.587h-4.579l4.724-8.316-4.6-8.176h4.53z"/><path d="m46.946 66.054h6.919v3.063h-10.894v-16.492h3.975z"/><path d="m64.047 64.733c0-.582-.205-1.035-.615-1.359-.415-.329-1.138-.663-2.168-1.009-1.035-.345-1.882-.685-2.54-1.008-2.136-1.052-3.203-2.492-3.203-4.325 0-.911.264-1.72.798-2.421.534-.696 1.284-1.24 2.26-1.629.971-.388 2.066-.582 3.284-.582 1.186 0 2.249.21 3.187.636.938.421 1.672 1.025 2.19 1.801.523.787.782 1.677.782 2.68h-3.964c0-.674-.205-1.192-.615-1.559-.415-.378-.971-.561-1.672-.561-.712 0-1.273.162-1.683.475s-.615.712-.615 1.192c0 .426.227.804.68 1.149s1.246.701 2.389 1.068c1.138.367 2.076.755 2.81 1.181 1.78 1.03 2.67 2.443 2.67 4.244 0 1.445-.545 2.578-1.629 3.398-1.089.825-2.578 1.24-4.476 1.24-1.332 0-2.546-.243-3.63-.723-1.084-.475-1.898-1.133-2.443-1.968-.55-.836-.825-1.796-.825-2.885h3.991c0 .884.227 1.537.685 1.952.453.421 1.197.631 2.222.631.658 0 1.176-.14 1.559-.426.382-.281.571-.68.571-1.192z"/></g></g></g></svg>