<svg width="24" height="24" viewBox="0 0 24 24" fill="none" xmlns="http://www.w3.org/2000/svg">
<g id="icon / stroke / Bell">
<path id="Union" fill-rule="evenodd" clip-rule="evenodd" d="M12.0001 2.15002C8.14365 2.15002 4.89074 5.02164 4.41241 8.84826L3.42349 16.7596C3.21837 18.4006 4.4979 19.85 6.15165 19.85H7.44763L7.47358 19.9084C8.2686 21.6972 10.0425 22.85 12 22.85C13.9575 22.85 15.7314 21.6972 16.5265 19.9084L16.5524 19.85H17.8485C19.5022 19.85 20.7817 18.4006 20.5766 16.7596L19.5877 8.84826C19.1094 5.02164 15.8565 2.15002 12.0001 2.15002ZM16.0194 18.15C16.0068 18.1497 15.9942 18.1497 15.9816 18.15H8.01849C8.00589 18.1497 7.99327 18.1497 7.98062 18.15H6.15165C5.52045 18.15 5.03207 17.5968 5.11036 16.9705L6.09928 9.05912C6.47127 6.08322 9.001 3.85002 12.0001 3.85002C14.9991 3.85002 17.5288 6.08323 17.9008 9.05912L18.8897 16.9705C18.968 17.5968 18.4797 18.15 17.8485 18.15H16.0194ZM9.39817 19.85H14.6019C13.9959 20.6573 13.0372 21.15 12 21.15C10.9629 21.15 10.0042 20.6573 9.39817 19.85Z" fill="#9CA3AF"/>
</g>
</svg>
