<svg xmlns="http://www.w3.org/2000/svg" width="24" height="24" viewBox="0 0 24 24" fill="none">
  <path fill-rule="evenodd" clip-rule="evenodd" d="M9.72066 3.8499C9.6561 3.8499 9.59878 3.89122 9.57836 3.95247L9.17921 5.1499H14.8206L14.4214 3.95247C14.401 3.89122 14.3437 3.8499 14.2791 3.8499H9.72066ZM16.6125 5.1499L16.0342 3.41488C15.7824 2.65945 15.0754 2.1499 14.2791 2.1499H9.72066C8.92437 2.1499 8.21741 2.65945 7.9656 3.41488L7.38726 5.1499H4.9999H2.9999C2.53046 5.1499 2.1499 5.53046 2.1499 5.9999C2.1499 6.46934 2.53046 6.8499 2.9999 6.8499H4.20468L4.96509 18.256C5.09992 20.2784 6.77968 21.8499 8.80656 21.8499H15.1932C17.2201 21.8499 18.8999 20.2784 19.0347 18.256L19.7951 6.8499H20.9999C21.4693 6.8499 21.8499 6.46934 21.8499 5.9999C21.8499 5.53046 21.4693 5.1499 20.9999 5.1499H18.9999H16.6125ZM18.0913 6.8499H15.9999H7.9999H5.90846L6.66132 18.1429C6.73662 19.2723 7.67466 20.1499 8.80656 20.1499H15.1932C16.3251 20.1499 17.2632 19.2723 17.3385 18.1429L18.0913 6.8499Z" fill="#1F2937"/>
</svg>