<svg width="18" height="18" viewBox="0 0 24 24" fill="none" xmlns="http://www.w3.org/2000/svg">
<path fill-rule="evenodd" clip-rule="evenodd" d="M5.99985 2.14948L5.87466 2.14945C5.06631 2.14912 4.49522 2.14888 4.00339 2.28067C2.67479 2.63666 1.63703 3.67442 1.28103 5.00303C1.14925 5.49485 1.14948 6.06595 1.14981 6.8743L1.14985 6.99948V15.1995L1.14985 15.2353C1.14984 16.045 1.14983 16.7041 1.19354 17.2391C1.23871 17.7919 1.33475 18.2867 1.56947 18.7473C1.93858 19.4718 2.52756 20.0607 3.25198 20.4299C3.71265 20.6646 4.20741 20.7606 4.76024 20.8058C5.1002 20.8336 5.49027 20.8437 5.93722 20.8474C5.95796 20.8489 5.97883 20.8497 5.9998 20.8497H17.0647H17.0964C17.2183 20.8497 17.3361 20.8497 17.4502 20.8495H17.9998C18.0321 20.8495 18.0639 20.8477 18.0951 20.8442C18.344 20.8396 18.5704 20.8313 18.7765 20.816C19.2482 20.7809 19.6727 20.7064 20.0822 20.5275C20.7323 20.2434 21.2912 19.7851 21.6973 19.2034C21.9531 18.837 22.1094 18.4353 22.2363 17.9796C22.3583 17.5412 22.4666 16.9997 22.5988 16.339L22.605 16.3077L23.0678 13.9939L23.0751 13.9571C23.2001 13.3325 23.3046 12.8099 23.3521 12.3805C23.4014 11.9355 23.4022 11.4975 23.2536 11.0679C23.0316 10.4262 22.5878 9.88486 22.0021 9.54133C21.643 9.3307 21.2523 9.24159 20.8464 9.19813C20.8381 8.7258 20.8103 8.3451 20.7186 8.00279C20.3626 6.67438 19.325 5.63677 17.9965 5.28073C17.5046 5.14888 16.9334 5.14912 16.1248 5.14945L15.9996 5.14948H12.9881C12.2138 5.14948 11.9653 5.14402 11.7406 5.09008C11.5212 5.03741 11.3115 4.95054 11.1191 4.83266C10.9221 4.71192 10.7425 4.54002 10.195 3.99255L9.84353 3.64108L9.79839 3.59593C9.48399 3.28137 9.25867 3.05594 9.00276 2.87218C8.52104 2.52628 7.96591 2.29634 7.38069 2.2003C7.0698 2.14928 6.75107 2.14936 6.30634 2.14947L6.24249 2.14948H5.99985ZM19.1443 9.14967C19.1365 8.78529 19.1182 8.59827 19.0766 8.44289C18.8777 7.70105 18.2983 7.1216 17.5564 6.92278C17.3102 6.85678 16.9845 6.84948 15.9996 6.84948H12.9881L12.8956 6.8495C12.251 6.84973 11.7886 6.8499 11.3437 6.7431C10.9509 6.64879 10.5753 6.49324 10.2309 6.28215C9.8408 6.04311 9.51389 5.71597 9.05833 5.26007L9.05832 5.26007L8.99292 5.19463L8.64145 4.84316C8.26395 4.46566 8.14048 4.34588 8.01122 4.25307C7.7422 4.0599 7.4322 3.93149 7.10539 3.87786C6.94836 3.85209 6.77635 3.84948 6.24249 3.84948H5.99985C5.01515 3.84948 4.68955 3.85678 4.44339 3.92274C3.70144 4.12154 3.12191 4.70107 2.92311 5.44302C2.85715 5.68918 2.84985 6.01478 2.84985 6.99948V15.1995C2.84985 16.0536 2.85051 16.643 2.8879 17.1007C2.92447 17.5483 2.99192 17.7945 3.08418 17.9756C3.29031 18.3801 3.61922 18.709 4.02377 18.9151C4.20484 19.0074 4.45098 19.0749 4.89867 19.1114C5.0237 19.1216 5.15856 19.1291 5.30598 19.1346L6.39458 13.6916L6.4008 13.6605C6.53296 12.9997 6.64124 12.4582 6.76334 12.0197C6.89022 11.5641 7.04652 11.1624 7.30228 10.796C7.70837 10.2142 8.26733 9.75599 8.91743 9.47187C9.32686 9.29294 9.75142 9.21845 10.2231 9.1834C10.677 9.14966 11.2292 9.14967 11.9031 9.14967L11.9349 9.14968H19.0964L19.1339 9.14967H19.134C19.1374 9.14967 19.1408 9.14967 19.1443 9.14967ZM17.4178 19.1495H14.9998H7.03667L8.06156 14.025C8.20147 13.3255 8.29788 12.8462 8.40103 12.4758C8.50131 12.1157 8.59315 11.9167 8.69625 11.769C8.92303 11.4442 9.23517 11.1883 9.59822 11.0296C9.76325 10.9575 9.97634 10.9064 10.3491 10.8787C10.7326 10.8502 11.2215 10.8497 11.9349 10.8497H19.0964C19.7808 10.8497 20.2388 10.8504 20.5863 10.8808C20.9263 10.9105 21.0655 10.9628 21.142 11.0077C21.3783 11.1463 21.5574 11.3648 21.647 11.6237C21.676 11.7075 21.7 11.8542 21.6624 12.1935C21.6241 12.5402 21.535 12.9895 21.4008 13.6605L20.938 15.9743C20.7981 16.6739 20.7017 17.1531 20.5986 17.5236C20.4983 17.8837 20.4064 18.0826 20.3033 18.2303C20.0766 18.5552 19.7644 18.8111 19.4014 18.9697C19.2363 19.0419 19.0233 19.0929 18.6505 19.1206C18.3338 19.1442 17.9453 19.1486 17.4178 19.1495Z" fill="#909090"/>
</svg>
