<svg width="48" height="48" viewBox="0 0 44 44" fill="none" xmlns="http://www.w3.org/2000/svg">
<g filter="url(#filter0_d_3_22916)">
<rect x="2" y="1" width="40" height="40" rx="8" fill="white"/>
<rect x="2.25" y="1.25" width="39.5" height="39.5" rx="7.75" stroke="#E5E7EB" stroke-width="0.5"/>
<path fill-rule="evenodd" clip-rule="evenodd" d="M22 12.85C17.4989 12.85 13.85 16.4989 13.85 21C13.85 25.5011 17.4989 29.15 22 29.15C26.5011 29.15 30.15 25.5011 30.15 21C30.15 16.4989 26.5011 12.85 22 12.85ZM12.15 21C12.15 15.56 16.56 11.15 22 11.15C27.44 11.15 31.85 15.56 31.85 21C31.85 26.44 27.44 30.85 22 30.85C16.56 30.85 12.15 26.44 12.15 21ZM23 25C23 25.5523 22.5523 26 22 26C21.4477 26 21 25.5523 21 25C21 24.4477 21.4477 24 22 24C22.5523 24 23 24.4477 23 25ZM20.85 19C20.85 18.3649 21.3649 17.85 22 17.85C22.6352 17.85 23.15 18.3649 23.15 19V19.1213C23.15 19.4585 23.0161 19.7819 22.7777 20.0203L21.399 21.399C21.067 21.7309 21.067 22.2691 21.399 22.6011C21.7309 22.933 22.2691 22.933 22.6011 22.6011L23.9797 21.2224C24.537 20.6652 24.85 19.9094 24.85 19.1213V19C24.85 17.426 23.574 16.15 22 16.15C20.426 16.15 19.15 17.426 19.15 19V19.5C19.15 19.9695 19.5306 20.35 20 20.35C20.4695 20.35 20.85 19.9695 20.85 19.5V19Z" fill="#9CA3AF"/>
</g>
<defs>
<filter id="filter0_d_3_22916" x="0" y="0" width="44" height="44" filterUnits="userSpaceOnUse" color-interpolation-filters="sRGB">
<feFlood flood-opacity="0" result="BackgroundImageFix"/>
<feColorMatrix in="SourceAlpha" type="matrix" values="0 0 0 0 0 0 0 0 0 0 0 0 0 0 0 0 0 0 127 0" result="hardAlpha"/>
<feOffset dy="1"/>
<feGaussianBlur stdDeviation="1"/>
<feColorMatrix type="matrix" values="0 0 0 0 0.0248438 0 0 0 0 0.0970504 0 0 0 0 0.220833 0 0 0 0.05 0"/>
<feBlend mode="normal" in2="BackgroundImageFix" result="effect1_dropShadow_3_22916"/>
<feBlend mode="normal" in="SourceGraphic" in2="effect1_dropShadow_3_22916" result="shape"/>
</filter>
</defs>
</svg>
