<svg width="24" height="24" viewBox="0 0 24 24" fill="none" xmlns="http://www.w3.org/2000/svg">
<g id="light-bulb-shine-alternate 1" clip-path="url(#clip0_428_54948)">
<g id="Group">
<path id="Vector" d="M13.875 21.5H10.125C10.0397 21.5 9.9559 21.5218 9.88144 21.5633C9.80698 21.6049 9.74438 21.6648 9.69959 21.7373C9.65479 21.8099 9.6293 21.8927 9.62552 21.9779C9.62175 22.063 9.63982 22.1478 9.67801 22.224L10.013 22.894C10.178 23.2267 10.4328 23.5067 10.7486 23.7021C11.0644 23.8976 11.4286 24.0008 11.8 24H12.2C12.5718 24.0011 12.9364 23.8981 13.2526 23.7027C13.5688 23.5072 13.8239 23.227 13.989 22.894L14.324 22.224C14.3622 22.1478 14.3803 22.063 14.3765 21.9779C14.3727 21.8927 14.3472 21.8099 14.3024 21.7373C14.2576 21.6648 14.195 21.6049 14.1206 21.5633C14.0461 21.5218 13.9623 21.5 13.877 21.5H13.875Z" fill="#F59E0B"/>
<path id="Vector_2" d="M12 4.5C12.2652 4.5 12.5196 4.39464 12.7071 4.20711C12.8946 4.01957 13 3.76522 13 3.5V1C13 0.734784 12.8946 0.48043 12.7071 0.292893C12.5196 0.105357 12.2652 0 12 0C11.7348 0 11.4804 0.105357 11.2929 0.292893C11.1054 0.48043 11 0.734784 11 1V3.5C11 3.76522 11.1054 4.01957 11.2929 4.20711C11.4804 4.39464 11.7348 4.5 12 4.5Z" fill="#F59E0B"/>
<path id="Vector_3" d="M21.192 3.80805C21.0045 3.62057 20.7502 3.51526 20.485 3.51526C20.2198 3.51526 19.9655 3.62057 19.778 3.80805L18.01 5.57505C17.9145 5.66729 17.8383 5.77764 17.7859 5.89964C17.7335 6.02165 17.7059 6.15286 17.7047 6.28564C17.7036 6.41842 17.7289 6.5501 17.7792 6.673C17.8295 6.7959 17.9037 6.90755 17.9976 7.00144C18.0915 7.09533 18.2031 7.16959 18.326 7.21987C18.4489 7.27015 18.5806 7.29545 18.7134 7.2943C18.8462 7.29314 18.9774 7.26556 19.0994 7.21315C19.2214 7.16074 19.3318 7.08456 19.424 6.98905L21.192 5.22205C21.3795 5.03452 21.4848 4.78021 21.4848 4.51505C21.4848 4.24988 21.3795 3.99557 21.192 3.80805Z" fill="#F59E0B"/>
<path id="Vector_4" d="M24 13C24 12.7348 23.8946 12.4804 23.7071 12.2929C23.5196 12.1054 23.2652 12 23 12H21C20.7348 12 20.4804 12.1054 20.2929 12.2929C20.1054 12.4804 20 12.7348 20 13C20 13.2652 20.1054 13.5196 20.2929 13.7071C20.4804 13.8946 20.7348 14 21 14H23C23.2652 14 23.5196 13.8946 23.7071 13.7071C23.8946 13.5196 24 13.2652 24 13Z" fill="#F59E0B"/>
<path id="Vector_5" d="M5.98999 5.57506L4.22199 3.80806C4.03339 3.6259 3.78079 3.5251 3.51859 3.52738C3.2564 3.52966 3.00558 3.63483 2.82018 3.82024C2.63477 4.00565 2.5296 4.25646 2.52732 4.51865C2.52504 4.78085 2.62584 5.03345 2.80799 5.22206L4.57599 6.98906C4.7646 7.17121 5.0172 7.27201 5.2794 7.26973C5.54159 7.26745 5.79241 7.16228 5.97781 6.97687C6.16322 6.79147 6.26839 6.54065 6.27067 6.27846C6.27295 6.01626 6.17215 5.76366 5.98999 5.57506Z" fill="#F59E0B"/>
<path id="Vector_6" d="M3 12H1C0.734784 12 0.48043 12.1054 0.292893 12.2929C0.105357 12.4804 0 12.7348 0 13C0 13.2652 0.105357 13.5196 0.292893 13.7071C0.48043 13.8946 0.734784 14 1 14H3C3.26522 14 3.51957 13.8946 3.70711 13.7071C3.89464 13.5196 4 13.2652 4 13C4 12.7348 3.89464 12.4804 3.70711 12.2929C3.51957 12.1054 3.26522 12 3 12Z" fill="#F59E0B"/>
<path id="Vector_7" d="M12 6C10.2665 6.00186 8.60449 6.69124 7.37862 7.91692C6.15275 9.14261 5.46311 10.8045 5.46099 12.538C5.45701 13.5376 5.68701 14.5242 6.13257 15.419C6.57813 16.3137 7.2269 17.0918 8.02699 17.691C8.08909 17.7376 8.13949 17.798 8.1742 17.8674C8.20892 17.9368 8.22699 18.0134 8.22699 18.091V18.535C8.22686 18.7274 8.26466 18.918 8.33824 19.0958C8.41181 19.2736 8.51972 19.4351 8.65578 19.5712C8.79185 19.7073 8.9534 19.8152 9.1312 19.8888C9.309 19.9623 9.49957 20.0001 9.69199 20H14.308C14.6926 19.9995 15.0615 19.8476 15.3349 19.5772C15.6083 19.3068 15.7643 18.9395 15.769 18.555V18.524L15.751 18.167C15.7471 18.0854 15.7633 18.004 15.7982 17.9301C15.8331 17.8562 15.8855 17.7919 15.951 17.743C17.0426 16.9163 17.847 15.7676 18.2504 14.459C18.6539 13.1505 18.636 11.7482 18.1993 10.4504C17.7626 9.15252 16.9293 8.02466 15.8169 7.2261C14.7045 6.42754 13.3693 5.99865 12 6ZM14.594 16.256C14.3397 16.4332 14.132 16.6692 13.9885 16.944C13.845 17.2187 13.7701 17.5241 13.77 17.834C13.77 17.8561 13.7656 17.8781 13.757 17.8985C13.7484 17.9189 13.7358 17.9374 13.72 17.9528C13.7041 17.9683 13.6853 17.9804 13.6647 17.9885C13.6441 17.9966 13.6221 18.0005 13.6 18H10.4C10.3782 18 10.3567 17.9957 10.3366 17.9873C10.3165 17.979 10.2983 17.9667 10.283 17.9513C10.2676 17.9359 10.2555 17.9176 10.2473 17.8975C10.239 17.8773 10.2349 17.8558 10.235 17.834C10.2348 17.524 10.1597 17.2186 10.016 16.9438C9.87238 16.6691 9.66447 16.4331 9.40999 16.256C8.61704 15.7038 8.02101 14.9129 7.70866 13.9985C7.39631 13.0841 7.38394 12.0938 7.67334 11.1719C7.96273 10.2499 8.5388 9.4444 9.31771 8.87252C10.0966 8.30064 11.0377 7.99226 12.004 7.99226C12.9703 7.99226 13.9114 8.30064 14.6903 8.87252C15.4692 9.4444 16.0452 10.2499 16.3346 11.1719C16.624 12.0938 16.6117 13.0841 16.2993 13.9985C15.987 14.9129 15.3909 15.7038 14.598 16.256H14.594Z" fill="#F59E0B"/>
</g>
</g>
<defs>
<clipPath id="clip0_428_54948">
<rect width="24" height="24" fill="white"/>
</clipPath>
</defs>
</svg>
