<svg xmlns="http://www.w3.org/2000/svg" width="24" height="24" viewBox="0 0 24 24">
  <g id="Group_61490" data-name="Group 61490" transform="translate(13733 16239)">
    <rect id="Rectangle_12155" data-name="Rectangle 12155" width="24" height="24" transform="translate(-13733 -16239)" fill="none"/>
    <path id="Project" d="M9.482,3.056a1.425,1.425,0,0,0-.666.689,12.619,12.619,0,0,0-.055,1.773A12.619,12.619,0,0,0,8.817,7.29a1.347,1.347,0,0,0,.693.693c.264.078,4.723.078,4.987,0a1.346,1.346,0,0,0,.693-.693,4.238,4.238,0,0,0,.055-.8V5.877h1.227a4.045,4.045,0,0,1,2.238.321,2.867,2.867,0,0,1-1.192,5.425l-.315.029.191-.208c.138-.151.191-.247.191-.347a.378.378,0,0,0-.367-.359c-.127,0-.219.073-.7.553-.737.737-.737.681,0,1.415.478.474.577.552.7.552a.379.379,0,0,0,.364-.359.512.512,0,0,0-.181-.334l-.18-.2.368-.032a3.587,3.587,0,0,0,1.764-6.6,3.781,3.781,0,0,0-.59-.314,4.639,4.639,0,0,0-2.137-.258L15.245,5.15V4.54c0-.726-.043-.9-.3-1.184-.33-.368-.269-.36-2.959-.355C10.413,3,9.588,3.022,9.482,3.056Zm4.932.772.111.11V7.1l-.111.11-.111.11H9.7l-.11-.11L9.482,7.1V3.938l.111-.11.11-.11h4.6Zm-7.883.54c-.17.17-.147.347.075.588l.186.2H3.22l-.11.111a.339.339,0,0,0,0,.5l.11.11H6.793l-.186.2a.522.522,0,0,0-.186.34.379.379,0,0,0,.364.359c.123,0,.222-.078.7-.552.74-.734.74-.678,0-1.415-.481-.481-.573-.553-.7-.553A.36.36,0,0,0,6.531,4.367Zm3.782.18a.358.358,0,0,0,.25.61.36.36,0,1,0-.25-.61Zm1.441,0a.337.337,0,0,0,0,.5c.11.11.118.11.97.11s.861,0,.97-.11a.337.337,0,0,0,0-.5c-.109-.11-.117-.111-.97-.111S11.864,4.438,11.754,4.548Zm-1.441,1.44a.337.337,0,0,0,0,.5l.111.11h3.16l.11-.11a.337.337,0,0,0,0-.5l-.11-.11h-3.16ZM9.482,9.537a1.425,1.425,0,0,0-.666.689,4.223,4.223,0,0,0-.055.8v.61l-1.384.018a4.639,4.639,0,0,0-2.137.258,3.776,3.776,0,0,0-.59.314,3.583,3.583,0,0,0-1.428,4.24,3.624,3.624,0,0,0,3.192,2.358l.368.032-.18.2a.512.512,0,0,0-.18.334.379.379,0,0,0,.364.359c.123,0,.222-.078.7-.552.74-.734.74-.678,0-1.415-.481-.481-.573-.553-.7-.553a.378.378,0,0,0-.367.359c0,.1.053.2.191.346l.191.208L6.476,18.1A2.865,2.865,0,0,1,5.3,12.68a4.045,4.045,0,0,1,2.238-.321H8.762v.614a4.246,4.246,0,0,0,.055.8,1.347,1.347,0,0,0,.693.693A22.091,22.091,0,0,0,12,14.519a22.09,22.09,0,0,0,2.493-.055,1.347,1.347,0,0,0,.693-.693,27.579,27.579,0,0,0,0-3.539,1.327,1.327,0,0,0-.248-.395c-.33-.368-.269-.36-2.959-.355C10.413,9.486,9.588,9.5,9.482,9.537Zm4.932.772.111.11v3.159l-.111.111L14.3,13.8H9.7l-.11-.111-.111-.111V10.419l.111-.11L9.7,10.2h4.6Zm-4.1.72a.358.358,0,0,0,.25.61.36.36,0,1,0-.25-.61Zm1.441,0a.337.337,0,0,0,0,.5c.11.11.118.111.97.111s.861,0,.97-.111a.337.337,0,0,0,0-.5c-.109-.11-.117-.111-.97-.111S11.864,10.919,11.754,11.029Zm-1.441,1.44a.337.337,0,0,0,0,.5l.111.111h3.16l.11-.111a.337.337,0,0,0,0-.5l-.11-.11h-3.16Zm-.831,3.549a1.425,1.425,0,0,0-.666.689,12.62,12.62,0,0,0-.055,1.773,12.618,12.618,0,0,0,.055,1.773,1.347,1.347,0,0,0,.693.693,22.22,22.22,0,0,0,2.5.055c2.658,0,2.6.007,2.931-.36a1.327,1.327,0,0,0,.248-.395,27.86,27.86,0,0,0,0-3.532,1.327,1.327,0,0,0-.248-.4c-.33-.367-.269-.36-2.959-.355C10.413,15.967,9.588,15.985,9.482,16.018Zm4.932.772.111.111v3.159l-.111.11-.111.111H9.7l-.11-.111-.111-.11V16.9l.111-.111.11-.111h4.6Zm-2.039,1.25-.731.731-.373-.371c-.33-.329-.391-.371-.537-.371a.278.278,0,0,0-.258.119c-.192.243-.114.4.51,1,.5.483.637.558.8.448a23.348,23.348,0,0,0,1.769-1.748.327.327,0,0,0-.028-.417.278.278,0,0,0-.259-.119C13.118,17.309,13.055,17.36,12.375,18.04Z" transform="translate(-13733 -16239)" fill="#171e48" fill-rule="evenodd"/>
  </g>
</svg>
