<svg width="48" height="48" viewBox="0 0 44 44" fill="none" xmlns="http://www.w3.org/2000/svg">
<g filter="url(#filter0_d_808_8852)">
<rect x="2" y="1" width="40" height="40" rx="8" fill="white"/>
<rect x="2.25" y="1.25" width="39.5" height="39.5" rx="7.75" stroke="#E5E7EB" stroke-width="0.5"/>
<path fill-rule="evenodd" clip-rule="evenodd" d="M22 10.25C20.4812 10.25 19.25 11.4812 19.25 13V13.7523C19.1044 13.8075 18.961 13.8671 18.8198 13.9307L18.2877 13.3986C17.2137 12.3247 15.4725 12.3247 14.3986 13.3986C13.3247 14.4725 13.3247 16.2137 14.3986 17.2877L14.9307 17.8198C14.8671 17.961 14.8076 18.1044 14.7523 18.25H14C12.4812 18.25 11.25 19.4812 11.25 21C11.25 22.5188 12.4812 23.75 14 23.75H14.7523C14.8076 23.8956 14.8671 24.039 14.9307 24.1802L14.3986 24.7123C13.3247 25.7863 13.3247 27.5275 14.3986 28.6014L14.9289 28.0711L14.3986 28.6014C15.4725 29.6753 17.2137 29.6753 18.2877 28.6014L18.8198 28.0693C18.961 28.1329 19.1044 28.1925 19.25 28.2477V29C19.25 30.5188 20.4812 31.75 22 31.75C23.5188 31.75 24.75 30.5188 24.75 29V28.2477C24.8956 28.1924 25.039 28.1329 25.1802 28.0693L25.7123 28.6014C26.7863 29.6753 28.5275 29.6753 29.6014 28.6014C30.6753 27.5275 30.6753 25.7863 29.6014 24.7123L29.0693 24.1802C29.1329 24.039 29.1925 23.8956 29.2477 23.75H30C31.5188 23.75 32.75 22.5188 32.75 21C32.75 19.4812 31.5188 18.25 30 18.25H29.2477C29.1925 18.1044 29.1329 17.961 29.0693 17.8198L29.6014 17.2877C30.6753 16.2137 30.6753 14.4725 29.6014 13.3986L29.0711 13.9289L29.6014 13.3986C28.5275 12.3247 26.7863 12.3247 25.7123 13.3986L25.1802 13.9307C25.039 13.8671 24.8956 13.8076 24.75 13.7523V13C24.75 11.4812 23.5188 10.25 22 10.25ZM20.75 13C20.75 12.3096 21.3097 11.75 22 11.75C22.6904 11.75 23.25 12.3096 23.25 13V14.2899C23.25 14.6217 23.468 14.9141 23.7861 15.0087C24.2013 15.1323 24.5985 15.2979 24.9729 15.5008C25.2647 15.6589 25.6258 15.6064 25.8605 15.3717L26.773 14.4593C27.2611 13.9711 28.0526 13.9711 28.5407 14.4593C29.0289 14.9474 29.0289 15.7389 28.5407 16.227L27.6283 17.1395C27.3936 17.3742 27.3411 17.7353 27.4992 18.0271C27.7021 18.4015 27.8677 18.7987 27.9913 19.2139C28.0859 19.532 28.3783 19.75 28.7101 19.75H30C30.6904 19.75 31.25 20.3096 31.25 21C31.25 21.6904 30.6904 22.25 30 22.25H28.7101C28.3783 22.25 28.0859 22.468 27.9913 22.7861C27.8677 23.2013 27.7021 23.5985 27.4992 23.9729C27.3411 24.2647 27.3936 24.6258 27.6283 24.8605L28.5407 25.773C29.0289 26.2611 29.0289 27.0526 28.5407 27.5407C28.0526 28.0289 27.2611 28.0289 26.773 27.5407L25.8605 26.6283C25.6258 26.3936 25.2647 26.3411 24.9729 26.4992C24.5985 26.7021 24.2013 26.8677 23.7861 26.9913C23.4681 27.0859 23.25 27.3783 23.25 27.7101V29C23.25 29.6904 22.6904 30.25 22 30.25C21.3097 30.25 20.75 29.6904 20.75 29V27.7101C20.75 27.3783 20.532 27.0859 20.214 26.9913C19.7987 26.8677 19.4015 26.7021 19.0271 26.4992C18.7353 26.3411 18.3742 26.3936 18.1395 26.6283L17.227 27.5407C16.7389 28.0289 15.9474 28.0289 15.4593 27.5407C14.9711 27.0526 14.9711 26.2611 15.4593 25.773L16.3717 24.8605C16.6064 24.6258 16.6589 24.2647 16.5008 23.9729C16.2979 23.5985 16.1323 23.2013 16.0087 22.7861C15.9141 22.468 15.6217 22.25 15.2899 22.25H14C13.3096 22.25 12.75 21.6904 12.75 21C12.75 20.3096 13.3096 19.75 14 19.75H15.2899C15.6217 19.75 15.9141 19.532 16.0087 19.2139C16.1323 18.7987 16.2979 18.4015 16.5008 18.0271C16.6589 17.7353 16.6064 17.3742 16.3717 17.1395L15.4593 16.227C14.9711 15.7389 14.9711 14.9474 15.4593 14.4593C15.9474 13.9711 16.7389 13.9711 17.227 14.4593L18.1395 15.3717C18.3742 15.6064 18.7353 15.6589 19.0271 15.5008C19.4015 15.2979 19.7987 15.1323 20.214 15.0087C20.532 14.9141 20.75 14.6217 20.75 14.2899V13ZM19.75 21C19.75 19.7574 20.7574 18.75 22 18.75C23.2426 18.75 24.25 19.7574 24.25 21C24.25 22.2426 23.2426 23.25 22 23.25C20.7574 23.25 19.75 22.2426 19.75 21ZM22 17.25C19.9289 17.25 18.25 18.9289 18.25 21C18.25 23.0711 19.9289 24.75 22 24.75C24.0711 24.75 25.75 23.0711 25.75 21C25.75 18.9289 24.0711 17.25 22 17.25Z" fill="#9CA3AF"/>
</g>
<defs>
<filter id="filter0_d_808_8852" x="0" y="0" width="44" height="44" filterUnits="userSpaceOnUse" color-interpolation-filters="sRGB">
<feFlood flood-opacity="0" result="BackgroundImageFix"/>
<feColorMatrix in="SourceAlpha" type="matrix" values="0 0 0 0 0 0 0 0 0 0 0 0 0 0 0 0 0 0 127 0" result="hardAlpha"/>
<feOffset dy="1"/>
<feGaussianBlur stdDeviation="1"/>
<feColorMatrix type="matrix" values="0 0 0 0 0.0248438 0 0 0 0 0.0970504 0 0 0 0 0.220833 0 0 0 0.05 0"/>
<feBlend mode="normal" in2="BackgroundImageFix" result="effect1_dropShadow_808_8852"/>
<feBlend mode="normal" in="SourceGraphic" in2="effect1_dropShadow_808_8852" result="shape"/>
</filter>
</defs>
</svg>
