<svg width="24" height="24" viewBox="0 0 24 24" fill="none" xmlns="http://www.w3.org/2000/svg">
<g id="icon / stroke / Sign Out">
<path id="Union" fill-rule="evenodd" clip-rule="evenodd" d="M7.80015 1.15064L7.76429 1.15064C6.95466 1.15063 6.29556 1.15062 5.76054 1.19433C5.20772 1.2395 4.71295 1.33554 4.25229 1.57026C3.52786 1.93937 2.93889 2.52835 2.56977 3.25277C2.33505 3.71344 2.23901 4.2082 2.19384 4.76102C2.15013 5.29604 2.15014 5.95514 2.15015 6.76477L2.15015 6.80063L2.15015 17.2006L2.15015 17.2365C2.15014 18.0461 2.15013 18.7052 2.19384 19.2402C2.23901 19.7931 2.33505 20.2878 2.56977 20.7485C2.93888 21.4729 3.52786 22.0619 4.25228 22.431C4.71295 22.6657 5.20771 22.7618 5.76054 22.8069C6.29557 22.8507 6.95469 22.8506 7.76434 22.8506H7.80015H8.20015H8.23595C9.04561 22.8506 9.70472 22.8507 10.2398 22.8069C10.7926 22.7618 11.2873 22.6657 11.748 22.431C12.4724 22.0619 13.0614 21.4729 13.4305 20.7485C13.6652 20.2878 13.7613 19.7931 13.8065 19.2402C13.8502 18.7052 13.8502 18.0461 13.8501 17.2365V17.2006V16.0006C13.8501 15.5312 13.4696 15.1506 13.0001 15.1506C12.5307 15.1506 12.1501 15.5312 12.1501 16.0006V17.2006C12.1501 18.0547 12.1495 18.6442 12.1121 19.1018C12.0755 19.5495 12.0081 19.7956 11.9158 19.9767C11.7097 20.3813 11.3808 20.7102 10.9762 20.9163C10.7952 21.0086 10.549 21.076 10.1013 21.1126C9.64371 21.15 9.05425 21.1506 8.20015 21.1506H7.80015C6.94604 21.1506 6.35658 21.15 5.89897 21.1126C5.45128 21.076 5.20514 21.0086 5.02407 20.9163C4.61952 20.7102 4.29061 20.3813 4.08448 19.9767C3.99222 19.7956 3.92477 19.5495 3.8882 19.1018C3.85081 18.6442 3.85015 18.0547 3.85015 17.2006L3.85015 6.80063C3.85015 5.94653 3.85081 5.35707 3.8882 4.89946C3.92478 4.45177 3.99223 4.20563 4.08448 4.02456C4.29061 3.62001 4.61952 3.2911 5.02407 3.08497C5.20514 2.99271 5.45128 2.92526 5.89897 2.88868C6.35659 2.8513 6.94604 2.85064 7.80015 2.85064H8.20015C9.05425 2.85064 9.64371 2.8513 10.1013 2.88868C10.549 2.92526 10.7952 2.99271 10.9762 3.08497C11.3808 3.2911 11.7097 3.62001 11.9158 4.02456C12.0081 4.20563 12.0755 4.45177 12.1121 4.89946C12.1495 5.35707 12.1501 5.94653 12.1501 6.80063V8.00064C12.1501 8.47008 12.5307 8.85064 13.0001 8.85064C13.4696 8.85064 13.8501 8.47008 13.8501 8.00064V6.80063V6.76478C13.8502 5.95515 13.8502 5.29605 13.8065 4.76102C13.7613 4.2082 13.6652 3.71344 13.4305 3.25277C13.0614 2.52835 12.4724 1.93937 11.748 1.57026C11.2873 1.33554 10.7926 1.2395 10.2398 1.19433C9.70474 1.15062 9.04564 1.15063 8.23601 1.15064L8.20015 1.15064H7.80015ZM17.6012 7.39911C17.2692 7.06716 16.7311 7.06716 16.3991 7.39911C16.0672 7.73105 16.0672 8.26924 16.3991 8.60119L18.9481 11.1501H8.00015C7.5307 11.1501 7.15015 11.5307 7.15015 12.0001C7.15015 12.4696 7.5307 12.8501 8.00015 12.8501H18.9481L16.3991 15.3991C16.0672 15.7311 16.0672 16.2692 16.3991 16.6012C16.7311 16.9331 17.2692 16.9331 17.6012 16.6012L21.6012 12.6012C21.9331 12.2692 21.9331 11.7311 21.6012 11.3991L17.6012 7.39911Z" fill="#9CA3AF"/>
</g>
</svg>
