 <svg
        class="group"
        width="41"
        height="45"
        viewBox="0 0 41 45"
        fill="none"
        xmlns="http://www.w3.org/2000/svg"
      >
        <path
          d="M20.6689 36.8359C21.0645 36.8359 21.4512 36.7186 21.7801 36.4989C22.109 36.2791 22.3653 35.9668 22.5167 35.6013C22.6681 35.2359 22.7077 34.8337 22.6305 34.4458C22.5533 34.0578 22.3629 33.7014 22.0832 33.4217C21.8035 33.142 21.4471 32.9515 21.0591 32.8744C20.6712 32.7972 20.269 32.8368 19.9036 32.9882C19.5381 33.1396 19.2258 33.3959 19.006 33.7248C18.7862 34.0537 18.6689 34.4404 18.6689 34.8359C18.6689 35.3664 18.8797 35.8751 19.2547 36.2502C19.6298 36.6252 20.1385 36.8359 20.6689 36.8359ZM30.6689 36.8359C31.0645 36.8359 31.4512 36.7186 31.7801 36.4989C32.109 36.2791 32.3653 35.9668 32.5167 35.6013C32.6681 35.2359 32.7077 34.8337 32.6305 34.4458C32.5533 34.0578 32.3629 33.7014 32.0832 33.4217C31.8035 33.142 31.4471 32.9515 31.0591 32.8744C30.6712 32.7972 30.269 32.8368 29.9036 32.9882C29.5381 33.1396 29.2258 33.3959 29.006 33.7248C28.7862 34.0537 28.6689 34.4404 28.6689 34.8359C28.6689 35.3664 28.8797 35.8751 29.2547 36.2502C29.6298 36.6252 30.1385 36.8359 30.6689 36.8359ZM30.6689 28.8359C31.0645 28.8359 31.4512 28.7186 31.7801 28.4989C32.109 28.2791 32.3653 27.9668 32.5167 27.6013C32.6681 27.2359 32.7077 26.8337 32.6305 26.4458C32.5533 26.0578 32.3629 25.7014 32.0832 25.4217C31.8035 25.142 31.4471 24.9515 31.0591 24.8744C30.6712 24.7972 30.269 24.8368 29.9036 24.9882C29.5381 25.1396 29.2258 25.3959 29.006 25.7248C28.7862 26.0537 28.6689 26.4404 28.6689 26.8359C28.6689 27.3664 28.8797 27.8751 29.2547 28.2502C29.6298 28.6252 30.1385 28.8359 30.6689 28.8359ZM20.6689 28.8359C21.0645 28.8359 21.4512 28.7186 21.7801 28.4989C22.109 28.2791 22.3653 27.9668 22.5167 27.6013C22.6681 27.2359 22.7077 26.8337 22.6305 26.4458C22.5533 26.0578 22.3629 25.7014 22.0832 25.4217C21.8035 25.142 21.4471 24.9515 21.0591 24.8744C20.6712 24.7972 20.269 24.8368 19.9036 24.9882C19.5381 25.1396 19.2258 25.3959 19.006 25.7248C18.7862 26.0537 18.6689 26.4404 18.6689 26.8359C18.6689 27.3664 18.8797 27.8751 19.2547 28.2502C19.6298 28.6252 20.1385 28.8359 20.6689 28.8359ZM34.6689 4.83594H32.6689V2.83594C32.6689 2.3055 32.4582 1.7968 32.0832 1.42172C31.7081 1.04665 31.1994 0.835938 30.6689 0.835938C30.1385 0.835938 29.6298 1.04665 29.2547 1.42172C28.8797 1.7968 28.6689 2.3055 28.6689 2.83594V4.83594H12.6689V2.83594C12.6689 2.3055 12.4582 1.7968 12.0832 1.42172C11.7081 1.04665 11.1994 0.835938 10.6689 0.835938C10.1385 0.835938 9.6298 1.04665 9.25473 1.42172C8.87966 1.7968 8.66895 2.3055 8.66895 2.83594V4.83594H6.66895C5.07765 4.83594 3.55152 5.46808 2.4263 6.5933C1.30109 7.71852 0.668945 9.24464 0.668945 10.8359V38.8359C0.668945 40.4272 1.30109 41.9534 2.4263 43.0786C3.55152 44.2038 5.07765 44.8359 6.66895 44.8359H34.6689C36.2602 44.8359 37.7864 44.2038 38.9116 43.0786C40.0368 41.9534 40.6689 40.4272 40.6689 38.8359V10.8359C40.6689 9.24464 40.0368 7.71852 38.9116 6.5933C37.7864 5.46808 36.2602 4.83594 34.6689 4.83594ZM36.6689 38.8359C36.6689 39.3664 36.4582 39.8751 36.0832 40.2502C35.7081 40.6252 35.1994 40.8359 34.6689 40.8359H6.66895C6.13851 40.8359 5.62981 40.6252 5.25473 40.2502C4.87966 39.8751 4.66895 39.3664 4.66895 38.8359V20.8359H36.6689V38.8359ZM36.6689 16.8359H4.66895V10.8359C4.66895 10.3055 4.87966 9.7968 5.25473 9.42172C5.62981 9.04665 6.13851 8.83594 6.66895 8.83594H8.66895V10.8359C8.66895 11.3664 8.87966 11.8751 9.25473 12.2502C9.6298 12.6252 10.1385 12.8359 10.6689 12.8359C11.1994 12.8359 11.7081 12.6252 12.0832 12.2502C12.4582 11.8751 12.6689 11.3664 12.6689 10.8359V8.83594H28.6689V10.8359C28.6689 11.3664 28.8797 11.8751 29.2547 12.2502C29.6298 12.6252 30.1385 12.8359 30.6689 12.8359C31.1994 12.8359 31.7081 12.6252 32.0832 12.2502C32.4582 11.8751 32.6689 11.3664 32.6689 10.8359V8.83594H34.6689C35.1994 8.83594 35.7081 9.04665 36.0832 9.42172C36.4582 9.7968 36.6689 10.3055 36.6689 10.8359V16.8359ZM10.6689 28.8359C11.0645 28.8359 11.4512 28.7186 11.7801 28.4989C12.109 28.2791 12.3653 27.9668 12.5167 27.6013C12.6681 27.2359 12.7077 26.8337 12.6305 26.4458C12.5533 26.0578 12.3629 25.7014 12.0832 25.4217C11.8035 25.142 11.4471 24.9515 11.0591 24.8744C10.6712 24.7972 10.269 24.8368 9.90358 24.9882C9.53813 25.1396 9.22577 25.3959 9.00601 25.7248C8.78624 26.0537 8.66895 26.4404 8.66895 26.8359C8.66895 27.3664 8.87966 27.8751 9.25473 28.2502C9.6298 28.6252 10.1385 28.8359 10.6689 28.8359ZM10.6689 36.8359C11.0645 36.8359 11.4512 36.7186 11.7801 36.4989C12.109 36.2791 12.3653 35.9668 12.5167 35.6013C12.6681 35.2359 12.7077 34.8337 12.6305 34.4458C12.5533 34.0578 12.3629 33.7014 12.0832 33.4217C11.8035 33.142 11.4471 32.9515 11.0591 32.8744C10.6712 32.7972 10.269 32.8368 9.90358 32.9882C9.53813 33.1396 9.22577 33.3959 9.00601 33.7248C8.78624 34.0537 8.66895 34.4404 8.66895 34.8359C8.66895 35.3664 8.87966 35.8751 9.25473 36.2502C9.6298 36.6252 10.1385 36.8359 10.6689 36.8359Z"
          fill="white"
        />
      </svg>