<svg
  class="group"
  width="18"
  height="21"
  viewBox="0 0 18 21"
  fill="none"
  xmlns="http://www.w3.org/2000/svg"
>
  <path
    d="M5.29 11.3759C5.19627 11.4689 5.12188 11.5795 5.07111 11.7014C5.02034 11.8232 4.9942 11.9539 4.9942 12.0859C4.9942 12.2179 5.02034 12.3487 5.07111 12.4705C5.12188 12.5924 5.19627 12.703 5.29 12.7959L8.29 15.7959C8.38296 15.8897 8.49356 15.9641 8.61542 16.0148C8.73728 16.0656 8.86799 16.0917 9 16.0917C9.13201 16.0917 9.26272 16.0656 9.38458 16.0148C9.50644 15.9641 9.61704 15.8897 9.71 15.7959L12.71 12.7959C12.8983 12.6076 13.0041 12.3522 13.0041 12.0859C13.0041 11.8196 12.8983 11.5642 12.71 11.3759C12.5217 11.1876 12.2663 11.0818 12 11.0818C11.7337 11.0818 11.4783 11.1876 11.29 11.3759L10 12.6759V1.08594C10 0.820721 9.89464 0.566367 9.70711 0.378831C9.51957 0.191294 9.26522 0.0859375 9 0.0859375C8.73478 0.0859375 8.48043 0.191294 8.29289 0.378831C8.10536 0.566367 8 0.820721 8 1.08594V12.6759L6.71 11.3759C6.61704 11.2822 6.50644 11.2078 6.38458 11.157C6.26272 11.1063 6.13201 11.0801 6 11.0801C5.86799 11.0801 5.73728 11.1063 5.61542 11.157C5.49356 11.2078 5.38296 11.2822 5.29 11.3759ZM15 7.08594H13C12.7348 7.08594 12.4804 7.19129 12.2929 7.37883C12.1054 7.56637 12 7.82072 12 8.08594C12 8.35115 12.1054 8.60551 12.2929 8.79304C12.4804 8.98058 12.7348 9.08594 13 9.08594H15C15.2652 9.08594 15.5196 9.19129 15.7071 9.37883C15.8946 9.56637 16 9.82072 16 10.0859V17.0859C16 17.3512 15.8946 17.6055 15.7071 17.793C15.5196 17.9806 15.2652 18.0859 15 18.0859H3C2.73478 18.0859 2.48043 17.9806 2.29289 17.793C2.10536 17.6055 2 17.3512 2 17.0859V10.0859C2 9.82072 2.10536 9.56637 2.29289 9.37883C2.48043 9.19129 2.73478 9.08594 3 9.08594H5C5.26522 9.08594 5.51957 8.98058 5.70711 8.79304C5.89464 8.60551 6 8.35115 6 8.08594C6 7.82072 5.89464 7.56637 5.70711 7.37883C5.51957 7.19129 5.26522 7.08594 5 7.08594H3C2.20435 7.08594 1.44129 7.40201 0.87868 7.96462C0.316071 8.52723 0 9.29029 0 10.0859V17.0859C0 17.8816 0.316071 18.6446 0.87868 19.2073C1.44129 19.7699 2.20435 20.0859 3 20.0859H15C15.7956 20.0859 16.5587 19.7699 17.1213 19.2073C17.6839 18.6446 18 17.8816 18 17.0859V10.0859C18 9.29029 17.6839 8.52723 17.1213 7.96462C16.5587 7.40201 15.7956 7.08594 15 7.08594Z"
    fill="#F9FAFB"
  />
</svg>