 <svg
      class="group"
      width="16"
      height="21"
      viewBox="0 0 16 21"
      fill="none"
      xmlns="http://www.w3.org/2000/svg"
    >
      <path
        d="M16 7.02594C15.9896 6.93407 15.9695 6.84357 15.94 6.75594V6.66594C15.8919 6.56312 15.8278 6.4686 15.75 6.38594L9.75 0.385937C9.66734 0.308154 9.57282 0.244018 9.47 0.195937H9.38C9.27841 0.137679 9.16622 0.100282 9.05 0.0859375H3C2.20435 0.0859375 1.44129 0.402008 0.87868 0.964617C0.316071 1.52723 0 2.29029 0 3.08594V17.0859C0 17.8816 0.316071 18.6446 0.87868 19.2073C1.44129 19.7699 2.20435 20.0859 3 20.0859H13C13.7956 20.0859 14.5587 19.7699 15.1213 19.2073C15.6839 18.6446 16 17.8816 16 17.0859V7.08594V7.02594ZM10 3.49594L12.59 6.08594H11C10.7348 6.08594 10.4804 5.98058 10.2929 5.79304C10.1054 5.60551 10 5.35115 10 5.08594V3.49594ZM14 17.0859C14 17.3512 13.8946 17.6055 13.7071 17.793C13.5196 17.9806 13.2652 18.0859 13 18.0859H3C2.73478 18.0859 2.48043 17.9806 2.29289 17.793C2.10536 17.6055 2 17.3512 2 17.0859V3.08594C2 2.82072 2.10536 2.56637 2.29289 2.37883C2.48043 2.19129 2.73478 2.08594 3 2.08594H8V5.08594C8 5.88159 8.31607 6.64465 8.87868 7.20726C9.44129 7.76987 10.2044 8.08594 11 8.08594H14V17.0859Z"
        fill="#F9FAFB"
      />
    </svg>