<svg
  class="icon-stroke-captin"
  width="49"
  height="49"
  viewBox="0 0 49 49"
  fill="none"
  xmlns="http://www.w3.org/2000/svg"
>
  <path
    d="M44.8689 48.5241H6.13059C5.49908 48.185 5.12867 47.7068 5.12989 46.9218C5.14203 40.0879 5.13596 33.2527 5.13839 26.4175C5.13839 25.5133 5.50515 25.0314 6.34676 24.8153C8.41617 24.2849 10.4868 23.7595 12.5562 23.2304C13.8909 22.89 15.2243 22.546 16.5772 22.1994C16.5274 22.0814 16.4971 21.9957 16.457 21.915C15.7648 20.509 15.3919 19.0222 15.3846 17.446C15.3761 15.4313 15.3713 13.4167 15.3834 11.402C15.3859 11.089 15.2851 10.9648 15.0057 10.8331C14.503 10.5947 13.9868 10.3289 13.5739 9.95872C12.8003 9.26564 12.0826 8.50548 11.3697 7.74409C10.8305 7.16776 10.8584 6.3455 11.4171 5.7816C13.9637 3.20925 16.9998 1.58336 20.5533 1.11137C23.536 0.713907 26.549 0.807063 29.539 1.01325C33.4373 1.28154 36.7576 2.96207 39.5484 5.74434C40.1617 6.35668 40.1726 7.1777 39.5739 7.81116C38.9315 8.49058 38.2987 9.18614 37.6017 9.80222C37.1402 10.2109 36.5985 10.5537 36.0411 10.812C35.6925 10.9735 35.6148 11.1412 35.6173 11.4902C35.6318 13.2415 35.6306 14.9929 35.6197 16.7442C35.616 17.3628 35.5978 17.9851 35.5335 18.5986C35.4011 19.8581 34.9979 21.0381 34.4162 22.182C34.5886 22.2305 34.7331 22.2727 34.8777 22.31C38.0765 23.131 41.2753 23.9495 44.4742 24.773C45.5696 25.055 45.8611 25.445 45.8611 26.6026C45.8611 33.2825 45.8514 39.9624 45.8732 46.6411C45.8756 47.5019 45.6437 48.1415 44.8677 48.5229L44.8689 48.5241ZM23.4461 45.717C21.4156 40.7338 19.4069 35.8027 17.3873 30.8468C14.1921 31.6641 11.0309 32.4727 7.88788 33.2776V45.6984H12.4445C12.4445 45.4773 12.4445 45.2922 12.4445 45.1071C12.4445 42.4267 12.4445 39.7463 12.4469 37.0659C12.4469 36.8349 12.453 36.5989 12.4931 36.3728C12.5987 35.7779 13.0651 35.3593 13.6516 35.3059C14.5843 35.2214 15.1673 35.8139 15.1697 36.8808C15.1758 39.6383 15.1721 42.3957 15.1721 45.1543C15.1721 45.3357 15.1721 45.5183 15.1721 45.717H23.4449H23.4461ZM33.6134 30.8418C31.5853 35.8213 29.5766 40.7536 27.5594 45.7033H35.8261C35.8261 45.4897 35.8261 45.3059 35.8261 45.122C35.8261 42.4416 35.8261 39.7612 35.8261 37.0808C35.8261 36.8796 35.8261 36.6771 35.8516 36.4784C35.9391 35.7791 36.4589 35.3108 37.1499 35.2972C37.87 35.2823 38.4093 35.7307 38.5161 36.4498C38.5477 36.6635 38.5513 36.8821 38.5513 37.0982C38.5538 39.7786 38.5526 42.459 38.5526 45.1394C38.5526 45.3208 38.5526 45.5034 38.5526 45.6984H43.1164V33.2738C39.9589 32.4665 36.8074 31.6604 33.611 30.8431L33.6134 30.8418ZM18.1633 15.64C17.8293 18.7614 18.728 21.8032 21.3779 23.5595C23.9659 25.2748 27.4951 25.1705 29.9701 23.3161C32.3213 21.5548 33.1908 18.5738 32.818 15.6301C32.7354 15.686 32.6625 15.7332 32.5909 15.7853C31.5003 16.5654 30.298 17.0821 28.9645 17.1069C26.6486 17.1504 24.3327 17.1392 22.0167 17.1069C21.0367 17.0932 20.1112 16.774 19.2466 16.3008C18.8786 16.0996 18.5288 15.8636 18.1633 15.6388V15.64ZM36.6362 6.8088C34.2291 4.83638 31.5088 3.79675 28.4593 3.71602C26.6571 3.66758 24.8536 3.70857 23.0502 3.70235C21.305 3.6949 19.6145 3.99921 17.9896 4.65006C16.6744 5.17671 15.4599 5.88469 14.3694 6.81998C15.126 7.81861 15.9724 8.4173 17.2925 8.40239C22.7466 8.34153 28.2019 8.34029 33.6559 8.40363C34.9882 8.41978 35.8626 7.84842 36.6362 6.81004V6.8088ZM32.6674 11.2058H18.3527C18.7924 12.8192 20.3456 14.2228 22.0046 14.2899C24.2999 14.383 26.6024 14.3346 28.9002 14.3122C29.6568 14.3048 30.3441 13.9868 30.9611 13.5446C31.7735 12.9633 32.3504 12.1982 32.6662 11.2045L32.6674 11.2058ZM19.566 25.6474C19.566 26.6548 19.5502 27.5516 19.5745 28.4471C19.583 28.7626 19.6425 29.0942 19.7591 29.3849C20.7755 31.9162 21.8115 34.4414 22.8401 36.9678C23.2445 37.9602 23.6477 38.9526 24.0509 39.945C24.0715 39.9388 24.0922 39.9326 24.1141 39.9264V27.5118C22.4903 27.2684 20.999 26.6747 19.5647 25.6462L19.566 25.6474ZM26.8866 40.0568C27.0032 39.7923 27.0712 39.6445 27.1332 39.4929C28.2954 36.6399 29.4114 33.7657 30.6368 30.9412C31.2222 29.5935 31.5732 28.2509 31.4371 26.7802C31.4056 26.4399 31.4323 26.0921 31.4323 25.6474C29.9907 26.6883 28.4958 27.2671 26.8854 27.5193V40.0568H26.8866ZM7.86602 30.3922C8.08341 30.3438 8.2595 30.309 8.43317 30.2655C10.9434 29.6246 13.4525 28.9812 15.9615 28.3403C16.8359 28.1167 16.8371 28.1204 16.8371 27.2199C16.8371 26.6784 16.8371 26.1356 16.8371 25.594V25.0935C16.7448 25.0637 16.729 25.0525 16.7169 25.0562C13.8411 25.7841 10.9641 26.5119 8.09191 27.2522C7.99961 27.2758 7.87695 27.4348 7.87574 27.5317C7.85995 28.4744 7.86602 29.4159 7.86602 30.3922ZM34.1623 25.0103C34.1623 25.9766 34.1721 26.856 34.1563 27.7366C34.1514 28.0186 34.234 28.1353 34.5145 28.2037C36.1917 28.6148 37.8628 29.0495 39.535 29.478C40.7215 29.7811 41.9068 30.0867 43.1334 30.4009C43.1334 29.5016 43.114 28.6508 43.1419 27.8025C43.1541 27.4286 43.0581 27.2671 42.6829 27.1765C40.9037 26.7467 39.1318 26.2822 37.3575 25.8288C36.3192 25.5642 35.2808 25.2972 34.1599 25.0103H34.1623Z"
    fill="white"
  />
</svg>