<svg
        class="group"
        width="42"
        height="42"
        viewBox="0 0 42 42"
        fill="none"
        xmlns="http://www.w3.org/2000/svg"
      >
        <path
          d="M39.3431 0.954227C37.9095 0.707294 36.4578 0.580188 35.0031 0.574227C30.0398 0.570158 25.1801 1.99337 21.0031 4.67423C16.8154 2.02857 11.9564 0.640289 7.0031 0.674227C5.54839 0.680188 4.09671 0.807294 2.6631 1.05423C2.19351 1.13518 1.76826 1.38114 1.46393 1.74781C1.15959 2.11448 0.996172 2.57776 1.0031 3.05423V27.0542C0.998816 27.3481 1.05935 27.6393 1.1804 27.9071C1.30145 28.1749 1.48003 28.4128 1.70345 28.6037C1.92686 28.7947 2.18961 28.934 2.47301 29.0119C2.75641 29.0898 3.05348 29.1042 3.3431 29.0542C6.20914 28.558 9.1455 28.6403 11.9792 29.2964C14.813 29.9524 17.4867 31.1689 19.8431 32.8742L20.0831 33.0142H20.3031C20.5249 33.1066 20.7628 33.1542 21.0031 33.1542C21.2434 33.1542 21.4813 33.1066 21.7031 33.0142H21.9231L22.1631 32.8742C24.503 31.1308 27.1691 29.8749 30.0034 29.1809C32.8377 28.487 35.7824 28.3691 38.6631 28.8342C38.9527 28.8842 39.2498 28.8698 39.5332 28.7919C39.8166 28.714 40.0793 28.5747 40.3027 28.3837C40.5262 28.1928 40.7048 27.9549 40.8258 27.6871C40.9468 27.4193 41.0074 27.1281 41.0031 26.8342V2.83423C40.9823 2.37853 40.8063 1.94365 40.5044 1.6017C40.2025 1.25976 39.7927 1.0313 39.3431 0.954227ZM19.0031 27.5342C15.3029 25.5876 11.1841 24.5716 7.0031 24.5742H5.0031V4.57423C5.66921 4.53584 6.33699 4.53584 7.0031 4.57423C11.2699 4.56951 15.4435 5.82161 19.0031 8.17423V27.5342ZM37.0031 24.6542H35.0031C30.8221 24.6516 26.7033 25.6676 23.0031 27.6142V8.17423C26.5627 5.82161 30.7363 4.56951 35.0031 4.57423C35.6692 4.53584 36.337 4.53584 37.0031 4.57423V24.6542ZM39.3431 32.9542C37.9095 32.7073 36.4578 32.5802 35.0031 32.5742C30.0398 32.5702 25.1801 33.9934 21.0031 36.6742C16.8261 33.9934 11.9664 32.5702 7.0031 32.5742C5.54839 32.5802 4.09671 32.7073 2.6631 32.9542C2.40275 32.9955 2.15314 33.0879 1.92862 33.226C1.7041 33.3642 1.5091 33.5453 1.35483 33.759C1.20056 33.9728 1.09007 34.2149 1.02971 34.4715C0.969343 34.7281 0.960301 34.9941 1.0031 35.2542C1.10474 35.7736 1.40808 36.2315 1.84668 36.5277C2.28528 36.8238 2.82338 36.934 3.3431 36.8342C6.20914 36.338 9.1455 36.4203 11.9792 37.0764C14.813 37.7324 17.4867 38.9489 19.8431 40.6542C20.1818 40.8954 20.5873 41.025 21.0031 41.025C21.4189 41.025 21.8244 40.8954 22.1631 40.6542C24.5195 38.9489 27.1932 37.7324 30.027 37.0764C32.8607 36.4203 35.7971 36.338 38.6631 36.8342C39.1828 36.934 39.7209 36.8238 40.1595 36.5277C40.5981 36.2315 40.9015 35.7736 41.0031 35.2542C41.0459 34.9941 41.0369 34.7281 40.9765 34.4715C40.9161 34.2149 40.8056 33.9728 40.6514 33.759C40.4971 33.5453 40.3021 33.3642 40.0776 33.226C39.8531 33.0879 39.6034 32.9955 39.3431 32.9542Z"
          fill="white"
        />
      </svg>