<svg width="25" height="24" viewBox="0 0 25 24" fill="none" xmlns="http://www.w3.org/2000/svg">
<path d="M22.6001 7.24002C22.6009 7.10841 22.5757 6.97795 22.5259 6.85611C22.4761 6.73427 22.4028 6.62346 22.3101 6.53002L18.0701 2.29002C17.9767 2.19734 17.8659 2.12401 17.744 2.07425C17.6222 2.02448 17.4917 1.99926 17.3601 2.00002C17.2285 1.99926 17.098 2.02448 16.9762 2.07425C16.8544 2.12401 16.7436 2.19734 16.6501 2.29002L13.8201 5.12002L2.89011 16.05C2.79743 16.1435 2.72411 16.2543 2.67434 16.3761C2.62458 16.4979 2.59935 16.6284 2.60011 16.76V21C2.60011 21.2652 2.70547 21.5196 2.89301 21.7071C3.08054 21.8947 3.3349 22 3.60011 22H7.84011C7.98004 22.0076 8.12001 21.9857 8.25093 21.9358C8.38186 21.8858 8.50083 21.8089 8.60011 21.71L19.4701 10.78L22.3101 8.00002C22.4014 7.9031 22.4758 7.79155 22.5301 7.67002C22.5397 7.59031 22.5397 7.50973 22.5301 7.43002C22.5348 7.38347 22.5348 7.33657 22.5301 7.29002L22.6001 7.24002ZM7.43011 20H4.60011V17.17L14.5301 7.24002L17.3601 10.07L7.43011 20ZM18.7701 8.66002L15.9401 5.83002L17.3601 4.42002L20.1801 7.24002L18.7701 8.66002Z" fill="#9CA3AF"/>
</svg>
