<svg
    class="group"
    width="41"
    height="41"
    viewBox="0 0 41 41"
    fill="none"
    xmlns="http://www.w3.org/2000/svg"
  >
    <path
      d="M35.2161 22.8347C34.7761 22.8347 34.3161 22.6947 33.8761 22.5947C32.9851 22.3983 32.1095 22.1377 31.2561 21.8147C30.3283 21.4772 29.3084 21.4947 28.3928 21.8639C27.4771 22.2331 26.7303 22.928 26.2961 23.8147L25.8561 24.7147C23.9081 23.6311 22.1181 22.2852 20.5361 20.7147C18.9657 19.1327 17.6198 17.3427 16.5361 15.3947L17.3761 14.8347C18.2629 14.4005 18.9577 13.6538 19.3269 12.7381C19.6962 11.8224 19.7137 10.8025 19.3761 9.8747C19.0586 9.01954 18.798 8.14429 18.5961 7.2547C18.4961 6.8147 18.4161 6.3547 18.3561 5.8947C18.1133 4.48594 17.3754 3.21018 16.2754 2.29718C15.1754 1.38417 13.7855 0.893915 12.3561 0.914697H6.35614C5.4942 0.906604 4.64064 1.08432 3.85356 1.43576C3.06648 1.78719 2.36436 2.30409 1.795 2.95126C1.22564 3.59843 0.802408 4.36068 0.554115 5.18613C0.305822 6.01157 0.238298 6.88081 0.356139 7.7347C1.42162 16.1135 5.2482 23.8985 11.2314 29.86C17.2147 35.8215 25.0136 39.6197 33.3961 40.6547H34.1561C35.631 40.6569 37.0549 40.1158 38.1561 39.1347C38.7889 38.5688 39.2943 37.8751 39.6391 37.0993C39.9838 36.3236 40.1601 35.4836 40.1561 34.6347V28.6347C40.1316 27.2455 39.6258 25.9078 38.7248 24.85C37.8239 23.7923 36.5838 23.08 35.2161 22.8347ZM36.2161 34.8347C36.2158 35.1187 36.155 35.3993 36.0377 35.6579C35.9205 35.9166 35.7495 36.1473 35.5361 36.3347C35.3127 36.5276 35.0513 36.6718 34.7689 36.7579C34.4865 36.844 34.1893 36.8701 33.8961 36.8347C26.4059 35.8743 19.4486 32.4477 14.1216 27.0953C8.79453 21.7429 5.40096 14.7694 4.47614 7.2747C4.44431 6.98173 4.4722 6.68536 4.55814 6.40348C4.64408 6.1216 4.78628 5.86007 4.97614 5.6347C5.16356 5.42136 5.39426 5.25038 5.6529 5.13313C5.91153 5.01588 6.19217 4.95506 6.47614 4.9547H12.4761C12.9412 4.94435 13.3954 5.09646 13.7604 5.38484C14.1255 5.67322 14.3786 6.07984 14.4761 6.5347C14.5561 7.08136 14.6561 7.62136 14.7761 8.1547C15.0072 9.20899 15.3147 10.2451 15.6961 11.2547L12.8961 12.5547C12.6567 12.6645 12.4414 12.8206 12.2625 13.0139C12.0835 13.2072 11.9445 13.4339 11.8535 13.6811C11.7624 13.9282 11.7211 14.191 11.7318 14.4541C11.7426 14.7173 11.8052 14.9758 11.9161 15.2147C14.7945 21.3802 19.7506 26.3363 25.9161 29.2147C26.4031 29.4147 26.9492 29.4147 27.4361 29.2147C27.6856 29.1255 27.9148 28.9876 28.1105 28.8091C28.3062 28.6305 28.4645 28.4149 28.5761 28.1747L29.8161 25.3747C30.8501 25.7445 31.9053 26.0517 32.9761 26.2947C33.5095 26.4147 34.0495 26.5147 34.5961 26.5947C35.051 26.6923 35.4576 26.9454 35.746 27.3104C36.0344 27.6755 36.1865 28.1296 36.1761 28.5947L36.2161 34.8347Z"
      fill="white"
    />
  </svg>