<svg width="25" height="24" viewBox="0 0 25 24" fill="none" xmlns="http://www.w3.org/2000/svg">
<path d="M14.01 11.9963L18.31 7.70628C18.4983 7.51798 18.6041 7.26258 18.6041 6.99628C18.6041 6.72998 18.4983 6.47458 18.31 6.28628C18.1217 6.09798 17.8663 5.99219 17.6 5.99219C17.3337 5.99219 17.0783 6.09798 16.89 6.28628L12.6 10.5863L8.31004 6.28628C8.12173 6.09798 7.86634 5.99219 7.60004 5.99219C7.33373 5.99219 7.07834 6.09798 6.89004 6.28628C6.70173 6.47458 6.59594 6.72998 6.59594 6.99628C6.59594 7.26258 6.70173 7.51798 6.89004 7.70628L11.19 11.9963L6.89004 16.2863C6.79631 16.3792 6.72191 16.4898 6.67115 16.6117C6.62038 16.7336 6.59424 16.8643 6.59424 16.9963C6.59424 17.1283 6.62038 17.259 6.67115 17.3809C6.72191 17.5027 6.79631 17.6133 6.89004 17.7063C6.983 17.8 7.0936 17.8744 7.21546 17.9252C7.33732 17.9759 7.46802 18.0021 7.60004 18.0021C7.73205 18.0021 7.86275 17.9759 7.98461 17.9252C8.10647 17.8744 8.21707 17.8 8.31004 17.7063L12.6 13.4063L16.89 17.7063C16.983 17.8 17.0936 17.8744 17.2155 17.9252C17.3373 17.9759 17.468 18.0021 17.6 18.0021C17.732 18.0021 17.8628 17.9759 17.9846 17.9252C18.1065 17.8744 18.2171 17.8 18.31 17.7063C18.4038 17.6133 18.4782 17.5027 18.5289 17.3809C18.5797 17.259 18.6058 17.1283 18.6058 16.9963C18.6058 16.8643 18.5797 16.7336 18.5289 16.6117C18.4782 16.4898 18.4038 16.3792 18.31 16.2863L14.01 11.9963Z" fill="#9CA3AF"/>
</svg>
