<svg width="24" height="25" viewBox="0 0 24 25" fill="none" xmlns="http://www.w3.org/2000/svg">
<path d="M7.0001 11.4999H14.5901L11.2901 8.20994C11.1018 8.02164 10.996 7.76624 10.996 7.49994C10.996 7.23364 11.1018 6.97825 11.2901 6.78994C11.4784 6.60164 11.7338 6.49585 12.0001 6.49585C12.2664 6.49585 12.5218 6.60164 12.7101 6.78994L17.7101 11.7899C17.8011 11.885 17.8725 11.9972 17.9201 12.1199C18.0201 12.3634 18.0201 12.6365 17.9201 12.8799C17.8725 13.0027 17.8011 13.1148 17.7101 13.2099L12.7101 18.2099C12.6171 18.3037 12.5065 18.3781 12.3847 18.4288C12.2628 18.4796 12.1321 18.5057 12.0001 18.5057C11.8681 18.5057 11.7374 18.4796 11.6155 18.4288C11.4937 18.3781 11.3831 18.3037 11.2901 18.2099C11.1964 18.117 11.122 18.0064 11.0712 17.8845C11.0204 17.7627 10.9943 17.632 10.9943 17.4999C10.9943 17.3679 11.0204 17.2372 11.0712 17.1154C11.122 16.9935 11.1964 16.8829 11.2901 16.7899L14.5901 13.4999H7.0001C6.73489 13.4999 6.48053 13.3946 6.293 13.207C6.10546 13.0195 6.0001 12.7652 6.0001 12.4999C6.0001 12.2347 6.10546 11.9804 6.293 11.7928C6.48053 11.6053 6.73489 11.4999 7.0001 11.4999Z" fill="white"/>
</svg>
