<svg width="24" height="24" viewBox="0 0 24 24" fill="none" xmlns="http://www.w3.org/2000/svg">
<path fill-rule="evenodd" clip-rule="evenodd" d="M7.59957 7.59932C7.82086 7.37803 8.17966 7.37803 8.40095 7.59932L12.0003 11.1986L15.5996 7.59932C15.8209 7.37803 16.1797 7.37803 16.401 7.59932C16.6223 7.82062 16.6223 8.17941 16.401 8.40071L12.8016 12L16.401 15.5993C16.6223 15.8206 16.6223 16.1794 16.401 16.4007C16.1797 16.622 15.8209 16.622 15.5996 16.4007L12.0003 12.8014L8.40095 16.4007C8.17966 16.622 7.82086 16.622 7.59957 16.4007C7.37827 16.1794 7.37827 15.8206 7.59957 15.5993L11.1989 12L7.59957 8.40071C7.37827 8.17941 7.37827 7.82062 7.59957 7.59932Z" fill="#EF4444"/>
</svg>
