<svg width="23" height="24" viewBox="0 0 23 24" fill="none" xmlns="http://www.w3.org/2000/svg">
<path d="M7.94458 13.2362C7.85476 13.3253 7.78347 13.4313 7.73481 13.5481C7.68616 13.6649 7.66111 13.7901 7.66111 13.9166C7.66111 14.0431 7.68616 14.1684 7.73481 14.2852C7.78347 14.402 7.85476 14.508 7.94458 14.597L10.8196 17.472C10.9087 17.5619 11.0147 17.6332 11.1314 17.6818C11.2482 17.7305 11.3735 17.7555 11.5 17.7555C11.6265 17.7555 11.7518 17.7305 11.8686 17.6818C11.9853 17.6332 12.0913 17.5619 12.1804 17.472L15.0554 14.597C15.2359 14.4166 15.3373 14.1718 15.3373 13.9166C15.3373 13.6614 15.2359 13.4167 15.0554 13.2362C14.875 13.0558 14.6302 12.9544 14.375 12.9544C14.1198 12.9544 13.875 13.0558 13.6946 13.2362L12.4583 14.482V3.37496C12.4583 3.12079 12.3574 2.87704 12.1776 2.69732C11.9979 2.51759 11.7542 2.41663 11.5 2.41663C11.2458 2.41663 11.0021 2.51759 10.8224 2.69732C10.6426 2.87704 10.5417 3.12079 10.5417 3.37496V14.482L9.30542 13.2362C9.21633 13.1464 9.11033 13.0751 8.99355 13.0264C8.87677 12.9778 8.75151 12.9527 8.625 12.9527C8.49849 12.9527 8.37323 12.9778 8.25645 13.0264C8.13967 13.0751 8.03367 13.1464 7.94458 13.2362ZM17.25 9.12496H15.3333C15.0792 9.12496 14.8354 9.22593 14.6557 9.40565C14.476 9.58537 14.375 9.82913 14.375 10.0833C14.375 10.3375 14.476 10.5812 14.6557 10.7609C14.8354 10.9407 15.0792 11.0416 15.3333 11.0416H17.25C17.5042 11.0416 17.7479 11.1426 17.9276 11.3223C18.1074 11.502 18.2083 11.7458 18.2083 12V18.7083C18.2083 18.9625 18.1074 19.2062 17.9276 19.3859C17.7479 19.5657 17.5042 19.6666 17.25 19.6666H5.75C5.49583 19.6666 5.25208 19.5657 5.07236 19.3859C4.89263 19.2062 4.79167 18.9625 4.79167 18.7083V12C4.79167 11.7458 4.89263 11.502 5.07236 11.3223C5.25208 11.1426 5.49583 11.0416 5.75 11.0416H7.66667C7.92083 11.0416 8.16459 10.9407 8.34431 10.7609C8.52403 10.5812 8.625 10.3375 8.625 10.0833C8.625 9.82913 8.52403 9.58537 8.34431 9.40565C8.16459 9.22593 7.92083 9.12496 7.66667 9.12496H5.75C4.9875 9.12496 4.25624 9.42786 3.71707 9.96703C3.1779 10.5062 2.875 11.2375 2.875 12V18.7083C2.875 19.4708 3.1779 20.2021 3.71707 20.7412C4.25624 21.2804 4.9875 21.5833 5.75 21.5833H17.25C18.0125 21.5833 18.7438 21.2804 19.2829 20.7412C19.8221 20.2021 20.125 19.4708 20.125 18.7083V12C20.125 11.2375 19.8221 10.5062 19.2829 9.96703C18.7438 9.42786 18.0125 9.12496 17.25 9.12496Z" fill="#6B7280"/>
</svg>
