<svg width="23" height="24" viewBox="0 0 23 24" fill="none" xmlns="http://www.w3.org/2000/svg">
<path d="M20.1243 11.999C19.8702 11.999 19.6264 12.1 19.4467 12.2797C19.267 12.4595 19.166 12.7032 19.166 12.9574V18.7074C19.166 18.9615 19.0651 19.2053 18.8853 19.385C18.7056 19.5647 18.4618 19.6657 18.2077 19.6657H4.79102C4.53685 19.6657 4.29309 19.5647 4.11337 19.385C3.93365 19.2053 3.83268 18.9615 3.83268 18.7074V5.29071C3.83268 5.03655 3.93365 4.79279 4.11337 4.61307C4.29309 4.43335 4.53685 4.33238 4.79102 4.33238H10.541C10.7952 4.33238 11.0389 4.23141 11.2187 4.05169C11.3984 3.87197 11.4993 3.62821 11.4993 3.37405C11.4993 3.11988 11.3984 2.87612 11.2187 2.6964C11.0389 2.51668 10.7952 2.41571 10.541 2.41571H4.79102C4.02852 2.41571 3.29725 2.71861 2.75808 3.25778C2.21892 3.79695 1.91602 4.52822 1.91602 5.29071V18.7074C1.91602 19.4699 2.21892 20.2011 2.75808 20.7403C3.29725 21.2795 4.02852 21.5824 4.79102 21.5824H18.2077C18.9702 21.5824 19.7014 21.2795 20.2406 20.7403C20.7798 20.2011 21.0827 19.4699 21.0827 18.7074V12.9574C21.0827 12.7032 20.9817 12.4595 20.802 12.2797C20.6223 12.1 20.3785 11.999 20.1243 11.999ZM5.74935 12.7274V16.7907C5.74935 17.0449 5.85032 17.2886 6.03004 17.4684C6.20976 17.6481 6.45352 17.749 6.70768 17.749H10.771C10.8971 17.7498 11.0222 17.7256 11.1389 17.6779C11.2557 17.6302 11.3619 17.5599 11.4514 17.4711L18.0831 10.8299L20.8048 8.16571C20.8946 8.07662 20.9659 7.97063 21.0145 7.85385C21.0632 7.73707 21.0882 7.61181 21.0882 7.4853C21.0882 7.35879 21.0632 7.23353 21.0145 7.11674C20.9659 6.99996 20.8946 6.89397 20.8048 6.80488L16.7414 2.69363C16.6523 2.60381 16.5464 2.53251 16.4296 2.48386C16.3128 2.43521 16.1875 2.41016 16.061 2.41016C15.9345 2.41016 15.8092 2.43521 15.6925 2.48386C15.5757 2.53251 15.4697 2.60381 15.3806 2.69363L12.6781 5.40571L6.02727 12.047C5.93845 12.1365 5.86818 12.2427 5.82049 12.3595C5.77279 12.4762 5.74862 12.6013 5.74935 12.7274ZM16.061 4.7253L18.7731 7.43738L17.4123 8.79821L14.7002 6.08613L16.061 4.7253ZM7.66602 13.1203L13.3489 7.43738L16.061 10.1495L10.3781 15.8324H7.66602V13.1203Z" fill="#6B7280"/>
</svg>
