<svg width="23" height="24" viewBox="0 0 23 24" fill="none" xmlns="http://www.w3.org/2000/svg">
<path fill-rule="evenodd" clip-rule="evenodd" d="M20.9397 13.9159C20.9397 13.466 20.575 13.1013 20.1251 13.1013C19.6752 13.1013 19.3105 13.466 19.3105 13.9159L19.3105 15.0659C19.3105 15.8844 19.3099 16.4493 19.2741 16.8878C19.239 17.3169 19.1744 17.5528 19.086 17.7263C18.8884 18.114 18.5732 18.4292 18.1855 18.6267C18.012 18.7151 17.7761 18.7798 17.3471 18.8148C16.9085 18.8507 16.3436 18.8513 15.5251 18.8513L7.47513 18.8513C6.65661 18.8513 6.09172 18.8507 5.65317 18.8148C5.22413 18.7798 4.98825 18.7151 4.81472 18.6267C4.42703 18.4292 4.11183 18.114 3.91429 17.7263C3.82587 17.5528 3.76123 17.3169 3.72618 16.8878C3.69035 16.4493 3.68971 15.8844 3.68971 15.0659L3.68971 13.9159C3.68971 13.466 3.32501 13.1013 2.87513 13.1013C2.42525 13.1013 2.06055 13.466 2.06055 13.9159L2.06055 15.0659L2.06055 15.1003C2.06054 15.8761 2.06053 16.5078 2.10242 17.0205C2.14571 17.5503 2.23775 18.0244 2.46269 18.4659C2.81642 19.1602 3.38086 19.7246 4.07509 20.0783C4.51657 20.3033 4.99072 20.3953 5.5205 20.4386C6.03323 20.4805 6.66487 20.4805 7.44077 20.4805L7.47513 20.4805L15.5251 20.4805L15.5595 20.4805C16.3354 20.4805 16.967 20.4805 17.4798 20.4386C18.0095 20.3953 18.4837 20.3033 18.9252 20.0783C19.6194 19.7246 20.1838 19.1602 20.5376 18.4659C20.7625 18.0244 20.8546 17.5503 20.8978 17.0205C20.9397 16.5078 20.9397 15.8761 20.9397 15.1002L20.9397 15.0659L20.9397 13.9159ZM12.0761 3.75653C11.758 3.43842 11.2423 3.43842 10.9241 3.75653L7.09082 7.58987C6.7727 7.90798 6.7727 8.42375 7.09082 8.74186C7.40893 9.05997 7.9247 9.05997 8.24281 8.74186L10.6856 6.29911L10.6856 13.9159C10.6856 14.3657 11.0503 14.7304 11.5001 14.7304C11.95 14.7304 12.3147 14.3657 12.3147 13.9159L12.3147 6.29911L14.7575 8.74186C15.0756 9.05997 15.5914 9.05997 15.9095 8.74186C16.2276 8.42375 16.2276 7.90798 15.9095 7.58987L12.0761 3.75653Z" fill="#1F2937"/>
</svg>
