<svg width="24" height="24" viewBox="0 0 24 24" fill="none" xmlns="http://www.w3.org/2000/svg">
<path fill-rule="evenodd" clip-rule="evenodd" d="M2.85039 12C2.85039 11.6832 2.97926 11.1332 3.33239 10.4552C3.67759 9.79239 4.21126 9.0583 4.95193 8.37461C6.42309 7.01661 8.71835 5.85002 12.0004 5.85002C15.2824 5.85002 17.5777 7.01661 19.0489 8.37461C19.7895 9.0583 20.3232 9.79239 20.6684 10.4552C21.0215 11.1332 21.1504 11.6832 21.1504 12C21.1504 12.3169 21.0215 12.8669 20.6684 13.5449C20.3232 14.2077 19.7895 14.9417 19.0489 15.6254C17.5777 16.9834 15.2824 18.15 12.0004 18.15C8.71835 18.15 6.42309 16.9834 4.95193 15.6254C4.21126 14.9417 3.67759 14.2077 3.33239 13.5449C2.97926 12.8669 2.85039 12.3169 2.85039 12ZM12.0004 4.15002C8.28243 4.15002 5.57769 5.48343 3.79885 7.12544C2.91452 7.94175 2.26069 8.83266 1.82464 9.66988C1.39652 10.4919 1.15039 11.3169 1.15039 12C1.15039 12.6832 1.39652 13.5082 1.82464 14.3302C2.26069 15.1674 2.91452 16.0583 3.79885 16.8746C5.57769 18.5166 8.28243 19.85 12.0004 19.85C15.7184 19.85 18.4231 18.5166 20.2019 16.8746C21.0863 16.0583 21.7401 15.1674 22.1761 14.3302C22.6043 13.5082 22.8504 12.6832 22.8504 12C22.8504 11.3169 22.6043 10.4919 22.1761 9.66988C21.7401 8.83266 21.0863 7.94175 20.2019 7.12544C18.4231 5.48343 15.7184 4.15002 12.0004 4.15002ZM9.85029 12C9.85029 10.8126 10.8129 9.85005 12.0003 9.85005C13.1877 9.85005 14.1503 10.8126 14.1503 12C14.1503 13.1875 13.1877 14.15 12.0003 14.15C10.8129 14.15 9.85029 13.1875 9.85029 12ZM12.0003 8.15005C9.874 8.15005 8.15029 9.87375 8.15029 12C8.15029 14.1263 9.874 15.85 12.0003 15.85C14.1266 15.85 15.8503 14.1263 15.8503 12C15.8503 9.87375 14.1266 8.15005 12.0003 8.15005Z" fill="#9CA3AF"/>
</svg>
