<svg width="24" height="24" viewBox="0 0 24 24" fill="none" xmlns="http://www.w3.org/2000/svg">
<path fill-rule="evenodd" clip-rule="evenodd" d="M2.84396 5.2291C1.78345 4.03603 2.63039 2.15002 4.22666 2.15002H19.773C21.3692 2.15002 22.2162 4.03603 21.1557 5.2291L15.6455 11.4281C15.1329 12.0047 14.8498 12.7493 14.8498 13.5208V19C14.8498 20.574 13.5738 21.85 11.9998 21.85C10.4258 21.85 9.14982 20.574 9.14982 19V13.5208C9.14982 12.7493 8.8667 12.0047 8.35416 11.4281L2.84396 5.2291ZM4.07577 4.0227C4.0783 4.04215 4.08606 4.06763 4.11455 4.09968L9.62476 10.2987C10.4139 11.1865 10.8498 12.333 10.8498 13.5208V19C10.8498 19.6352 11.3647 20.15 11.9998 20.15C12.6349 20.15 13.1498 19.6352 13.1498 19V13.5208C13.1498 12.333 13.5857 11.1865 14.3749 10.2987L19.8851 4.09968C19.9136 4.06763 19.9213 4.04215 19.9239 4.0227C19.9269 3.99914 19.9236 3.96929 19.9098 3.93858C19.896 3.90786 19.8759 3.88555 19.8563 3.87218C19.8401 3.86115 19.8159 3.85002 19.773 3.85002H4.22666C4.18378 3.85002 4.15958 3.86115 4.14336 3.87218C4.12372 3.88555 4.10362 3.90786 4.08983 3.93858C4.07603 3.96929 4.07271 3.99914 4.07577 4.0227Z" fill="#9CA3AF"/>
</svg>
