<svg width="23" height="24" viewBox="0 0 23 24" fill="none" xmlns="http://www.w3.org/2000/svg">
<path d="M11.6051 15.2494L7.88676 18.9677C7.66684 19.1885 7.40548 19.3637 7.11768 19.4833C6.82989 19.6028 6.52132 19.6644 6.20968 19.6644C5.89804 19.6644 5.58947 19.6028 5.30168 19.4833C5.01388 19.3637 4.75252 19.1885 4.5326 18.9677C4.31065 18.7485 4.13443 18.4873 4.01416 18.1994C3.89389 17.9115 3.83196 17.6027 3.83196 17.2907C3.83196 16.9787 3.89389 16.6698 4.01416 16.3819C4.13443 16.094 4.31065 15.8328 4.5326 15.6136L8.25093 11.8952C8.43139 11.7148 8.53277 11.47 8.53277 11.2148C8.53277 10.9596 8.43139 10.7149 8.25093 10.5344C8.07047 10.354 7.82572 10.2526 7.57051 10.2526C7.31531 10.2526 7.07055 10.354 6.8901 10.5344L3.17176 14.2623C2.42269 15.0777 2.01757 16.1509 2.041 17.2578C2.06444 18.3648 2.51462 19.4199 3.29753 20.2028C4.08044 20.9857 5.13555 21.4359 6.2425 21.4593C7.34946 21.4828 8.42267 21.0776 9.23801 20.3286L12.9659 16.6102C13.0553 16.5209 13.1262 16.4148 13.1745 16.2981C13.2229 16.1813 13.2478 16.0562 13.2478 15.9298C13.2478 15.8035 13.2229 15.6783 13.1745 15.5616C13.1262 15.4448 13.0553 15.3388 12.9659 15.2494C12.8766 15.1601 12.7705 15.0892 12.6538 15.0408C12.537 14.9925 12.4119 14.9676 12.2855 14.9676C12.1591 14.9676 12.034 14.9925 11.9173 15.0408C11.8005 15.0892 11.6945 15.1601 11.6051 15.2494ZM8.46176 15.0386C8.55131 15.1274 8.65751 15.1977 8.77427 15.2454C8.89103 15.293 9.01606 15.3172 9.14218 15.3165C9.2683 15.3172 9.39333 15.293 9.51009 15.2454C9.62685 15.1977 9.73305 15.1274 9.8226 15.0386L14.5376 10.3236C14.7181 10.1431 14.8194 9.89836 14.8194 9.64316C14.8194 9.38795 14.7181 9.1432 14.5376 8.96274C14.3571 8.78228 14.1124 8.6809 13.8572 8.6809C13.602 8.6809 13.3572 8.78228 13.1768 8.96274L8.46176 13.6777C8.37194 13.7668 8.30065 13.8728 8.25199 13.9896C8.20334 14.1064 8.17829 14.2316 8.17829 14.3582C8.17829 14.4847 8.20334 14.6099 8.25199 14.7267C8.30065 14.8435 8.37194 14.9495 8.46176 15.0386ZM20.1247 17.7507H19.1663V16.7923C19.1663 16.5382 19.0654 16.2944 18.8857 16.1147C18.7059 15.935 18.4622 15.834 18.208 15.834C17.9538 15.834 17.7101 15.935 17.5304 16.1147C17.3506 16.2944 17.2497 16.5382 17.2497 16.7923V17.7507H16.2913C16.0372 17.7507 15.7934 17.8516 15.6137 18.0313C15.434 18.2111 15.333 18.4548 15.333 18.709C15.333 18.9632 15.434 19.2069 15.6137 19.3866C15.7934 19.5664 16.0372 19.6673 16.2913 19.6673H17.2497V20.6257C17.2497 20.8798 17.3506 21.1236 17.5304 21.3033C17.7101 21.483 17.9538 21.584 18.208 21.584C18.4622 21.584 18.7059 21.483 18.8857 21.3033C19.0654 21.1236 19.1663 20.8798 19.1663 20.6257V19.6673H20.1247C20.3788 19.6673 20.6226 19.5664 20.8023 19.3866C20.982 19.2069 21.083 18.9632 21.083 18.709C21.083 18.4548 20.982 18.2111 20.8023 18.0313C20.6226 17.8516 20.3788 17.7507 20.1247 17.7507ZM16.1093 13.4669L19.8276 9.73899C20.5767 8.92365 20.9818 7.85043 20.9584 6.74348C20.9349 5.63652 20.4847 4.58142 19.7018 3.7985C18.9189 3.01559 17.8638 2.56541 16.7569 2.54198C15.6499 2.51854 14.5767 2.92367 13.7613 3.67274L10.0334 7.39107C9.94408 7.48043 9.8732 7.58651 9.82484 7.70325C9.77648 7.82 9.75159 7.94513 9.75159 8.07149C9.75159 8.19786 9.77648 8.32298 9.82484 8.43973C9.8732 8.55648 9.94408 8.66255 10.0334 8.75191C10.1228 8.84126 10.2289 8.91214 10.3456 8.9605C10.4624 9.00886 10.5875 9.03374 10.7138 9.03374C10.8402 9.03374 10.9653 9.00886 11.0821 8.9605C11.1988 8.91214 11.3049 8.84126 11.3943 8.75191L15.1126 5.03357C15.3325 4.81278 15.5939 4.63758 15.8817 4.51804C16.1695 4.3985 16.478 4.33696 16.7897 4.33696C17.1013 4.33696 17.4099 4.3985 17.6977 4.51804C17.9855 4.63758 18.2468 4.81278 18.4668 5.03357C18.6887 5.25285 18.8649 5.514 18.9852 5.80188C19.1055 6.08977 19.1674 6.39866 19.1674 6.71066C19.1674 7.02265 19.1055 7.33155 18.9852 7.61943C18.8649 7.90732 18.6887 8.16847 18.4668 8.38774L14.7484 12.1061C14.6586 12.1952 14.5873 12.3012 14.5387 12.4179C14.49 12.5347 14.465 12.66 14.465 12.7865C14.465 12.913 14.49 13.0383 14.5387 13.155C14.5873 13.2718 14.6586 13.3778 14.7484 13.4669C14.8375 13.5567 14.9435 13.628 15.0603 13.6767C15.1771 13.7253 15.3023 13.7504 15.4288 13.7504C15.5554 13.7504 15.6806 13.7253 15.7974 13.6767C15.9142 13.628 16.0202 13.5567 16.1093 13.4669Z" fill="#6B7280"/>
</svg>
