<svg width="23" height="24" viewBox="0 0 23 24" fill="none" xmlns="http://www.w3.org/2000/svg">
<path d="M4.56148 10.6487C4.81565 10.6817 5.07253 10.6125 5.27562 10.4561C5.4787 10.2997 5.61136 10.0691 5.6444 9.81494C5.67744 9.56077 5.60816 9.30389 5.45181 9.10081C5.29545 8.89772 5.06482 8.76506 4.81065 8.73202L3.12398 8.31036C3.00102 8.27266 2.87172 8.2601 2.7438 8.27343C2.61588 8.28675 2.49194 8.32569 2.37939 8.38793C2.26683 8.45016 2.16795 8.53441 2.08865 8.63567C2.00934 8.73692 1.95122 8.8531 1.91776 8.97729C1.8843 9.10147 1.87618 9.23113 1.89389 9.35852C1.91159 9.48591 1.95476 9.60843 2.02081 9.71879C2.08687 9.82915 2.17446 9.92508 2.27837 10.0009C2.38229 10.0767 2.50039 10.1308 2.62565 10.1599L4.31232 10.6104C4.3926 10.6371 4.47686 10.6501 4.56148 10.6487ZM8.26065 5.29161C8.31681 5.50068 8.4421 5.68458 8.61612 5.81335C8.79014 5.94212 9.00263 6.00818 9.21899 6.00077C9.30151 6.01402 9.38562 6.01402 9.46815 6.00077C9.71139 5.93348 9.91827 5.77296 10.0439 5.55406C10.1695 5.33516 10.2036 5.07556 10.139 4.83161L9.68857 3.14494C9.65939 3.01968 9.60529 2.90157 9.5295 2.79766C9.45371 2.69375 9.35778 2.60616 9.24742 2.5401C9.13706 2.47405 9.01454 2.43088 8.88715 2.41318C8.75976 2.39547 8.6301 2.40359 8.50592 2.43705C8.38173 2.47051 8.26555 2.52863 8.1643 2.60793C8.06304 2.68724 7.97879 2.78612 7.91656 2.89867C7.85432 3.01123 7.81538 3.13516 7.80206 3.26309C7.78873 3.39101 7.80129 3.5203 7.83899 3.64327L8.26065 5.29161ZM12.8894 14.8749C12.7999 14.7807 12.6921 14.7057 12.5727 14.6544C12.4532 14.6031 12.3246 14.5767 12.1946 14.5767C12.0646 14.5767 11.936 14.6031 11.8166 14.6544C11.6971 14.7057 11.5893 14.7807 11.4998 14.8749L8.14565 18.2866C7.75128 18.665 7.22592 18.8762 6.6794 18.8762C6.13288 18.8762 5.60752 18.665 5.21315 18.2866C5.01902 18.0949 4.86488 17.8666 4.75967 17.6149C4.65447 17.3632 4.60029 17.0932 4.60029 16.8204C4.60029 16.5476 4.65447 16.2775 4.75967 16.0258C4.86488 15.7741 5.01902 15.5458 5.21315 15.3541L8.62482 11.9999C8.72514 11.914 8.80662 11.8083 8.86414 11.6894C8.92166 11.5705 8.95399 11.441 8.95908 11.309C8.96418 11.1771 8.94194 11.0454 8.89376 10.9225C8.84558 10.7995 8.7725 10.6878 8.67911 10.5944C8.58571 10.501 8.47402 10.4279 8.35104 10.3797C8.22807 10.3316 8.09646 10.3093 7.96448 10.3144C7.83249 10.3195 7.70299 10.3518 7.5841 10.4094C7.4652 10.4669 7.35948 10.5484 7.27357 10.6487L3.83315 13.9933C3.46063 14.3658 3.16514 14.808 2.96353 15.2947C2.76193 15.7815 2.65817 16.3031 2.65817 16.8299C2.65817 17.3568 2.76193 17.8784 2.96353 18.3651C3.16514 18.8518 3.46063 19.2941 3.83315 19.6666C4.20567 20.0391 4.64791 20.3346 5.13462 20.5362C5.62134 20.7378 6.143 20.8416 6.66982 20.8416C7.19664 20.8416 7.7183 20.7378 8.20501 20.5362C8.69173 20.3346 9.13397 20.0391 9.50648 19.6666L12.8894 16.2837C12.9867 16.1939 13.0643 16.085 13.1174 15.9638C13.1705 15.8426 13.1979 15.7117 13.1979 15.5793C13.1979 15.447 13.1705 15.3161 13.1174 15.1948C13.0643 15.0736 12.9867 14.9647 12.8894 14.8749ZM4.96398 6.81536C5.14248 6.9924 5.38341 7.09221 5.63482 7.09327C5.76094 7.094 5.88597 7.06983 6.00273 7.02214C6.11949 6.97445 6.22569 6.90418 6.31524 6.81536C6.49373 6.6358 6.59391 6.39291 6.59391 6.13973C6.59391 5.88655 6.49373 5.64366 6.31524 5.46411L5.07898 4.22786C4.89565 4.07086 4.65983 3.98882 4.41864 3.99813C4.17745 4.00745 3.94866 4.10743 3.77799 4.27811C3.60731 4.44878 3.50733 4.67757 3.49801 4.91876C3.4887 5.15995 3.57073 5.39577 3.72773 5.57911L4.96398 6.81536ZM20.374 13.8399L18.6873 13.3895C18.5623 13.3463 18.4297 13.3295 18.2979 13.34C18.1661 13.3505 18.0379 13.3882 17.9213 13.4507C17.8048 13.5132 17.7024 13.5992 17.6207 13.7032C17.539 13.8071 17.4797 13.9269 17.4465 14.0549C17.4134 14.183 17.4071 14.3165 17.428 14.447C17.4489 14.5776 17.4967 14.7024 17.5682 14.8137C17.6398 14.9249 17.7336 15.0201 17.8437 15.0933C17.9538 15.1666 18.0779 15.2162 18.2082 15.2391L19.8948 15.6895H20.144C20.3982 15.7226 20.655 15.6533 20.8581 15.4969C21.0612 15.3406 21.1939 15.1099 21.2269 14.8558C21.2599 14.6016 21.1907 14.3447 21.0343 14.1416C20.8779 13.9386 20.6473 13.8059 20.3932 13.7729L20.374 13.8399ZM14.739 18.7083C14.7057 18.5868 14.6488 18.473 14.5716 18.3735C14.4943 18.2741 14.3982 18.1908 14.2887 18.1285C14.1792 18.0662 14.0585 18.0261 13.9335 18.0104C13.8085 17.9948 13.6817 18.004 13.5602 18.0374C13.317 18.1047 13.1101 18.2652 12.9845 18.4841C12.8589 18.703 12.8247 18.9627 12.8894 19.2066L13.3398 20.8933C13.396 21.1023 13.5213 21.2862 13.6953 21.415C13.8693 21.5438 14.0818 21.6099 14.2982 21.6024C14.3809 21.6119 14.4645 21.6119 14.5473 21.6024C14.6697 21.5702 14.7844 21.514 14.885 21.4372C14.9855 21.3604 15.0699 21.2644 15.1331 21.1548C15.1964 21.0452 15.2373 20.9242 15.2535 20.7987C15.2698 20.6732 15.261 20.5458 15.2277 20.4237L14.739 18.7083ZM18.0357 17.2037C17.8523 17.0467 17.6165 16.9647 17.3753 16.974C17.1341 16.9833 16.9053 17.0833 16.7347 17.2539C16.564 17.4246 16.464 17.6534 16.4547 17.8946C16.4454 18.1358 16.5274 18.3716 16.6844 18.5549L17.9207 19.7912C18.1002 19.9697 18.3431 20.0699 18.5963 20.0699C18.8495 20.0699 19.0923 19.9697 19.2719 19.7912C19.4504 19.6116 19.5506 19.3687 19.5506 19.1156C19.5506 18.8624 19.4504 18.6195 19.2719 18.4399L18.0357 17.2037ZM20.3165 7.20827C20.3314 6.41136 20.1071 5.62827 19.6725 4.96012C19.2379 4.29196 18.613 3.76941 17.8785 3.45992C17.144 3.15044 16.3336 3.06822 15.5519 3.2239C14.7702 3.37958 14.0531 3.766 13.4932 4.33327L10.1102 7.74494C10.0196 7.83618 9.94787 7.94438 9.89907 8.06335C9.85027 8.18232 9.82539 8.30974 9.82583 8.43833C9.82628 8.56692 9.85204 8.69416 9.90166 8.81279C9.95128 8.93142 10.0238 9.03912 10.115 9.12973C10.2063 9.22034 10.3145 9.2921 10.4334 9.34089C10.5524 9.38969 10.6798 9.41458 10.8084 9.41413C10.937 9.41369 11.0642 9.38792 11.1829 9.3383C11.3015 9.28868 11.4092 9.21618 11.4998 9.12494L14.854 5.71327C15.2484 5.33491 15.7737 5.12365 16.3202 5.12365C16.8668 5.12365 17.3921 5.33491 17.7865 5.71327C17.9806 5.90493 18.1348 6.13323 18.24 6.38493C18.3452 6.63663 18.3993 6.90672 18.3993 7.17952C18.3993 7.45232 18.3452 7.72241 18.24 7.97411C18.1348 8.22581 17.9806 8.45411 17.7865 8.64577L14.3748 11.9999C14.1963 12.1795 14.0961 12.4224 14.0961 12.6756C14.0961 12.9287 14.1963 13.1716 14.3748 13.3512C14.5544 13.5297 14.7973 13.6299 15.0504 13.6299C15.3036 13.6299 15.5465 13.5297 15.7261 13.3512L19.1665 10.0066C19.9 9.25944 20.3127 8.25531 20.3165 7.20827Z" fill="#6B7280"/>
</svg>
