<svg width="42" height="44" viewBox="0 0 42 44" fill="none" xmlns="http://www.w3.org/2000/svg">
<path d="M29.75 20.349H28C27.5359 20.349 27.0908 20.5377 26.7626 20.8737C26.4344 21.2097 26.25 21.6654 26.25 22.1406C26.25 22.6158 26.4344 23.0715 26.7626 23.4075C27.0908 23.7435 27.5359 23.9323 28 23.9323H29.75C30.2141 23.9323 30.6593 23.7435 30.9874 23.4075C31.3156 23.0715 31.5 22.6158 31.5 22.1406C31.5 21.6654 31.3156 21.2097 30.9874 20.8737C30.6593 20.5377 30.2141 20.349 29.75 20.349ZM29.75 27.5156H28C27.5359 27.5156 27.0908 27.7044 26.7626 28.0404C26.4344 28.3764 26.25 28.8321 26.25 29.3073C26.25 29.7825 26.4344 30.2382 26.7626 30.5742C27.0908 30.9102 27.5359 31.099 28 31.099H29.75C30.2141 31.099 30.6593 30.9102 30.9874 30.5742C31.3156 30.2382 31.5 29.7825 31.5 29.3073C31.5 28.8321 31.3156 28.3764 30.9874 28.0404C30.6593 27.7044 30.2141 27.5156 29.75 27.5156ZM19.25 16.7656H29.75C30.2141 16.7656 30.6593 16.5769 30.9874 16.2409C31.3156 15.9049 31.5 15.4491 31.5 14.974C31.5 14.4988 31.3156 14.0431 30.9874 13.7071C30.6593 13.3711 30.2141 13.1823 29.75 13.1823H19.25C18.7859 13.1823 18.3408 13.3711 18.0126 13.7071C17.6844 14.0431 17.5 14.4988 17.5 14.974C17.5 15.4491 17.6844 15.9049 18.0126 16.2409C18.3408 16.5769 18.7859 16.7656 19.25 16.7656ZM36.75 6.01562H12.25C11.7859 6.01563 11.3408 6.20439 11.0126 6.54039C10.6844 6.87639 10.5 7.33211 10.5 7.80729V13.1823H5.25C4.78587 13.1823 4.34075 13.3711 4.01256 13.7071C3.68437 14.0431 3.5 14.4988 3.5 14.974V32.8906C3.5 34.3162 4.05312 35.6833 5.03769 36.6913C6.02226 37.6993 7.35761 38.2656 8.75 38.2656H31.5C33.3565 38.2656 35.137 37.5106 36.4497 36.1666C37.7625 34.8225 38.5 32.9997 38.5 31.099V7.80729C38.5 7.33211 38.3156 6.87639 37.9874 6.54039C37.6592 6.20439 37.2141 6.01563 36.75 6.01562ZM10.5 32.8906C10.5 33.3658 10.3156 33.8215 9.98744 34.1575C9.65925 34.4935 9.21413 34.6823 8.75 34.6823C8.28587 34.6823 7.84075 34.4935 7.51256 34.1575C7.18437 33.8215 7 33.3658 7 32.8906V16.7656H10.5V32.8906ZM35 31.099C35 32.0493 34.6313 32.9608 33.9749 33.6328C33.3185 34.3048 32.4283 34.6823 31.5 34.6823H13.685C13.8887 34.1077 13.9953 33.5018 14 32.8906V9.59896H35V31.099ZM19.25 23.9323H21C21.4641 23.9323 21.9092 23.7435 22.2374 23.4075C22.5656 23.0715 22.75 22.6158 22.75 22.1406C22.75 21.6654 22.5656 21.2097 22.2374 20.8737C21.9092 20.5377 21.4641 20.349 21 20.349H19.25C18.7859 20.349 18.3408 20.5377 18.0126 20.8737C17.6844 21.2097 17.5 21.6654 17.5 22.1406C17.5 22.6158 17.6844 23.0715 18.0126 23.4075C18.3408 23.7435 18.7859 23.9323 19.25 23.9323ZM19.25 31.099H21C21.4641 31.099 21.9092 30.9102 22.2374 30.5742C22.5656 30.2382 22.75 29.7825 22.75 29.3073C22.75 28.8321 22.5656 28.3764 22.2374 28.0404C21.9092 27.7044 21.4641 27.5156 21 27.5156H19.25C18.7859 27.5156 18.3408 27.7044 18.0126 28.0404C17.6844 28.3764 17.5 28.8321 17.5 29.3073C17.5 29.7825 17.6844 30.2382 18.0126 30.5742C18.3408 30.9102 18.7859 31.099 19.25 31.099Z" fill="#A98D5F"/>
</svg>
