<svg width="24" height="25" viewBox="0 0 24 25" fill="none" xmlns="http://www.w3.org/2000/svg">
<path fill-rule="evenodd" clip-rule="evenodd" d="M14.5161 7.15254C13.6788 6.31522 12.3212 6.31522 11.4839 7.15254L6.67085 11.9656C5.30189 13.3345 5.30189 15.5541 6.67085 16.923C8.0398 18.292 10.2593 18.292 11.6283 16.923L16.9226 11.6287C17.1486 11.4027 17.5149 11.4027 17.7408 11.6287C17.9668 11.8546 17.9668 12.2209 17.7409 12.4469L12.4465 17.7412C10.6257 19.5621 7.67348 19.5621 5.85263 17.7412C4.03178 15.9204 4.03178 12.9682 5.85263 11.1474L10.6657 6.33433C11.9549 5.04511 14.0451 5.04511 15.3343 6.33433C16.6235 7.62354 16.6235 9.71377 15.3343 11.003L10.5213 15.816C9.7637 16.5736 8.53542 16.5736 7.77785 15.816C7.02027 15.0584 7.02027 13.8302 7.77785 13.0726L12.5909 8.25954C12.8168 8.0336 13.1832 8.0336 13.4091 8.25954C13.6351 8.48549 13.6351 8.85182 13.4091 9.07776L8.59606 13.8908C8.29037 14.1965 8.29037 14.6921 8.59606 14.9978C8.90175 15.3035 9.39738 15.3035 9.70306 14.9978L14.5161 10.1848C15.3534 9.34744 15.3534 7.98987 14.5161 7.15254Z" fill="white"/>
</svg>
