<svg width="24" height="25" viewBox="0 0 24 25" fill="none" xmlns="http://www.w3.org/2000/svg">
<path d="M11.8902 15.89L15.7702 19.77C16.2399 20.2233 16.8673 20.4767 17.5202 20.4767C18.173 20.4767 18.8004 20.2233 19.2702 19.77C19.5006 19.5405 19.6834 19.2678 19.8081 18.9675C19.9329 18.6671 19.9971 18.3452 19.9971 18.02C19.9971 17.6948 19.9329 17.3728 19.8081 17.0725C19.6834 16.7722 19.5006 16.4995 19.2702 16.27L15.3902 12.39C15.2019 12.2017 15.0961 11.9463 15.0961 11.68C15.0961 11.4137 15.2019 11.1583 15.3902 10.97C15.5785 10.7817 15.8339 10.6759 16.1002 10.6759C16.3665 10.6759 16.6219 10.7817 16.8102 10.97L20.6902 14.86C21.4718 15.7108 21.8945 16.8306 21.8701 17.9857C21.8456 19.1408 21.3759 20.2418 20.5589 21.0587C19.742 21.8757 18.641 22.3454 17.4859 22.3699C16.3308 22.3944 15.211 21.9716 14.3602 21.19L10.4702 17.31C10.3769 17.2167 10.303 17.106 10.2525 16.9842C10.202 16.8624 10.1761 16.7318 10.1761 16.6C10.1761 16.4681 10.202 16.3375 10.2525 16.2157C10.303 16.0939 10.3769 15.9832 10.4702 15.89C10.5634 15.7967 10.6741 15.7228 10.7959 15.6723C10.9177 15.6219 11.0483 15.5959 11.1802 15.5959C11.312 15.5959 11.4426 15.6219 11.5644 15.6723C11.6862 15.7228 11.7969 15.7967 11.8902 15.89ZM3.31016 3.80997C4.15138 2.97398 5.28919 2.50476 6.47516 2.50476C7.66114 2.50476 8.79894 2.97398 9.64016 3.80997L13.5302 7.68997C13.6234 7.78321 13.6974 7.8939 13.7478 8.01572C13.7983 8.13755 13.8243 8.26811 13.8243 8.39997C13.8243 8.53183 13.7983 8.6624 13.7478 8.78422C13.6974 8.90604 13.6234 9.01673 13.5302 9.10997C13.4369 9.20321 13.3262 9.27717 13.2044 9.32763C13.0826 9.37809 12.952 9.40406 12.8202 9.40406C12.6883 9.40406 12.5577 9.37809 12.4359 9.32763C12.3141 9.27717 12.2034 9.20321 12.1102 9.10997L8.23016 5.22997C7.7604 4.7766 7.13302 4.52323 6.48016 4.52323C5.8273 4.52323 5.19993 4.7766 4.73016 5.22997C4.49977 5.45946 4.31696 5.73218 4.19222 6.03249C4.06748 6.3328 4.00327 6.65479 4.00327 6.97997C4.00327 7.30516 4.06748 7.62714 4.19222 7.92745C4.31696 8.22776 4.49977 8.50049 4.73016 8.72997L8.61016 12.61C8.70389 12.7029 8.77829 12.8135 8.82905 12.9354C8.87982 13.0573 8.90596 13.188 8.90596 13.32C8.90596 13.452 8.87982 13.5827 8.82905 13.7045C8.77829 13.8264 8.70389 13.937 8.61016 14.03C8.5172 14.1237 8.4066 14.1981 8.28474 14.2489C8.16288 14.2996 8.03217 14.3258 7.90016 14.3258C7.76815 14.3258 7.63745 14.2996 7.51559 14.2489C7.39373 14.1981 7.28313 14.1237 7.19016 14.03L3.31016 10.14C2.47417 9.29875 2.00495 8.16095 2.00495 6.97497C2.00495 5.789 2.47417 4.65119 3.31016 3.80997ZM15.1702 15.67C15.0767 15.7627 14.9659 15.836 14.8441 15.8857C14.7222 15.9355 14.5918 15.9607 14.4602 15.96C14.3286 15.9607 14.1981 15.9355 14.0763 15.8857C13.9544 15.836 13.8436 15.7627 13.7502 15.67L8.83016 10.75C8.64186 10.5617 8.53607 10.3063 8.53607 10.04C8.53607 9.77367 8.64186 9.51828 8.83016 9.32997C9.01847 9.14167 9.27386 9.03588 9.54016 9.03588C9.80647 9.03588 10.0619 9.14167 10.2502 9.32997L15.1702 14.25C15.2639 14.3429 15.3383 14.4535 15.3891 14.5754C15.4398 14.6973 15.466 14.828 15.466 14.96C15.466 15.092 15.4398 15.2227 15.3891 15.3445C15.3383 15.4664 15.2639 15.577 15.1702 15.67Z" fill="white"/>
</svg>
