<svg width="24" height="24" viewBox="0 0 24 24" fill="none" xmlns="http://www.w3.org/2000/svg">
<path fill-rule="evenodd" clip-rule="evenodd" d="M3.85039 11C3.85039 7.05119 7.05155 3.85002 11.0004 3.85002C14.9492 3.85002 18.1504 7.05119 18.1504 11C18.1504 14.9489 14.9492 18.15 11.0004 18.15C7.05155 18.15 3.85039 14.9489 3.85039 11ZM11.0004 2.15002C6.11267 2.15002 2.15039 6.1123 2.15039 11C2.15039 15.8877 6.11267 19.85 11.0004 19.85C13.1382 19.85 15.0989 19.0921 16.6285 17.8302L19.3994 20.6011C19.7313 20.933 20.2695 20.933 20.6014 20.6011C20.9334 20.2691 20.9334 19.7309 20.6014 19.399L17.8306 16.6281C19.0924 15.0985 19.8504 13.1378 19.8504 11C19.8504 6.1123 15.8881 2.15002 11.0004 2.15002Z" fill="#BFA06D"/>
</svg>
