<svg width="24" height="24" viewBox="0 0 24 24" fill="none" xmlns="http://www.w3.org/2000/svg">
<path d="M19.8989 12.6614C19.7386 12.4789 19.6502 12.2443 19.6502 12.0014C19.6502 11.7585 19.7386 11.5238 19.8989 11.3414L21.1789 9.90136C21.32 9.74403 21.4076 9.54606 21.4291 9.33587C21.4507 9.12567 21.4051 8.91405 21.2989 8.73136L19.2989 5.27136C19.1938 5.08888 19.0338 4.94424 18.8417 4.85805C18.6495 4.77186 18.4351 4.74852 18.2289 4.79136L16.3489 5.17136C16.1097 5.22079 15.8607 5.18095 15.6488 5.05936C15.4369 4.93777 15.2769 4.74284 15.1989 4.51136L14.5889 2.68136C14.5218 2.48274 14.394 2.31022 14.2235 2.1882C14.0531 2.06618 13.8486 2.00082 13.6389 2.00136H9.63892C9.42085 1.98998 9.20505 2.05029 9.02448 2.17307C8.84391 2.29586 8.7085 2.47438 8.63892 2.68136L8.07892 4.51136C8.00092 4.74284 7.84089 4.93777 7.62903 5.05936C7.41717 5.18095 7.16814 5.22079 6.92892 5.17136L4.99892 4.79136C4.80347 4.76374 4.60422 4.79458 4.42627 4.88C4.24831 4.96542 4.09962 5.10159 3.99892 5.27136L1.99892 8.73136C1.89008 8.91201 1.84114 9.12245 1.8591 9.33258C1.87706 9.54272 1.961 9.7418 2.09892 9.90136L3.36892 11.3414C3.52924 11.5238 3.61765 11.7585 3.61765 12.0014C3.61765 12.2443 3.52924 12.4789 3.36892 12.6614L2.09892 14.1014C1.961 14.2609 1.87706 14.46 1.8591 14.6701C1.84114 14.8803 1.89008 15.0907 1.99892 15.2714L3.99892 18.7314C4.10402 18.9138 4.26404 19.0585 4.45617 19.1447C4.6483 19.2309 4.86274 19.2542 5.06892 19.2114L6.94892 18.8314C7.18814 18.7819 7.43717 18.8218 7.64903 18.9434C7.86089 19.0649 8.02092 19.2599 8.09892 19.4914L8.70892 21.3214C8.7785 21.5283 8.91392 21.7069 9.09449 21.8296C9.27506 21.9524 9.49085 22.0127 9.70892 22.0014H13.7089C13.9186 22.0019 14.1231 21.9365 14.2935 21.8145C14.464 21.6925 14.5918 21.52 14.6589 21.3214L15.2689 19.4914C15.3469 19.2599 15.5069 19.0649 15.7188 18.9434C15.9307 18.8218 16.1797 18.7819 16.4189 18.8314L18.2989 19.2114C18.5051 19.2542 18.7195 19.2309 18.9117 19.1447C19.1038 19.0585 19.2638 18.9138 19.3689 18.7314L21.3689 15.2714C21.4751 15.0887 21.5207 14.877 21.4991 14.6669C21.4776 14.4567 21.39 14.2587 21.2489 14.1014L19.8989 12.6614ZM18.4089 14.0014L19.2089 14.9014L17.9289 17.1214L16.7489 16.8814C16.0287 16.7341 15.2795 16.8565 14.6435 17.2252C14.0075 17.5938 13.5291 18.1832 13.2989 18.8814L12.9189 20.0014H10.3589L9.99892 18.8614C9.76877 18.1632 9.2903 17.5738 8.65432 17.2052C8.01835 16.8365 7.26914 16.7141 6.54892 16.8614L5.36892 17.1014L4.06892 14.8914L4.86892 13.9914C5.36087 13.4413 5.63285 12.7293 5.63285 11.9914C5.63285 11.2534 5.36087 10.5414 4.86892 9.99136L4.06892 9.09136L5.34892 6.89136L6.52892 7.13136C7.24914 7.27858 7.99835 7.15624 8.63432 6.78756C9.2703 6.41888 9.74877 5.82952 9.97892 5.13136L10.3589 4.00136H12.9189L13.2989 5.14136C13.5291 5.83952 14.0075 6.42888 14.6435 6.79756C15.2795 7.16624 16.0287 7.28858 16.7489 7.14136L17.9289 6.90136L19.2089 9.12136L18.4089 10.0214C17.9225 10.5701 17.6539 11.278 17.6539 12.0114C17.6539 12.7447 17.9225 13.4526 18.4089 14.0014ZM11.6389 8.00136C10.8478 8.00136 10.0744 8.23596 9.41664 8.67548C8.75884 9.11501 8.24615 9.73972 7.9434 10.4706C7.64065 11.2015 7.56144 12.0058 7.71578 12.7817C7.87012 13.5576 8.25108 14.2704 8.81049 14.8298C9.3699 15.3892 10.0826 15.7702 10.8586 15.9245C11.6345 16.0788 12.4387 15.9996 13.1697 15.6969C13.9006 15.3941 14.5253 14.8814 14.9648 14.2236C15.4043 13.5658 15.6389 12.7925 15.6389 12.0014C15.6389 10.9405 15.2175 9.92308 14.4673 9.17293C13.7172 8.42279 12.6998 8.00136 11.6389 8.00136ZM11.6389 14.0014C11.2434 14.0014 10.8567 13.8841 10.5278 13.6643C10.1989 13.4445 9.94254 13.1322 9.79116 12.7667C9.63979 12.4013 9.60018 11.9991 9.67735 11.6112C9.75452 11.2232 9.945 10.8669 10.2247 10.5871C10.5044 10.3074 10.8608 10.117 11.2487 10.0398C11.6367 9.96262 12.0388 10.0022 12.4043 10.1536C12.7697 10.305 13.0821 10.5613 13.3019 10.8902C13.5216 11.2191 13.6389 11.6058 13.6389 12.0014C13.6389 12.5318 13.4282 13.0405 13.0531 13.4156C12.6781 13.7906 12.1694 14.0014 11.6389 14.0014Z" fill="#1F2937"/>
</svg>
